<svg version="1.1" id="Layer_1" xmlns="http://www.w3.org/2000/svg" x="0" y="0" width="400" height="200" style="enable-background:new 0 0 400 200" xml:space="preserve"><style>.st0{fill:#3c3c3c}</style><path class="st0" d="M262.253 42.632s24.938-4.509 26.77-3.522c1.831.986-.705 6.904-.705 6.904l-1.267 3.804.281 1.268 7.186-15.217-32.265 6.763z"/><path class="st0" d="M333.255 8.888a.344.344 0 0 0-.27-.135c-1.824-.018-44.699-.42-46.525-.281-1.489.114-2.551 1.087-3.489 1.945a15.4 15.4 0 0 1-.924.804l-.07.054c-1.902 1.473-6.442 5.377-11.786 12.61-13.873-4.357-27.08-8.38-34.264-9.752-6.016-1.15-9.954-1.87-12.28-2.149-2.054-.246-3.828-.34-4.727 1.008a1.773 1.773 0 0 0-.192 1.586c.25.71.561 1.594 8.066 4.57 5.041 2 12.164 4.466 20.6 7.133a8713.897 8713.897 0 0 1 17.51 5.552 111.58 111.58 0 0 0-1.951 3.38c-3.006.983-5.526 1.819-6.042 2.025l-.057.023c-4.403 1.759-6.685 4.084-6.783 6.91-.142 4.124.12 9.24 2.174 10.188.483.223 1.096.372 1.945.461-7.641 21.821-6.247 37.272-6.23 37.441.01.104.066.197.152.255.139.092 1.382.903 2.306.903h.843c.175 0 .324-.13.346-.303.002-.012.143-1.154.283-2.833.058-.69.233-1.124.551-1.366.412-.314 1.158-.364 2.28-.153 2.379.446 32.855 3.554 34.56 3.668.769.051 1.234.183 1.421.403.215.252.168.758.104 1.458l-.015.157c-.106 1.17.043 1.927.485 2.454.367.436.91.678 1.663.74l1.691.142h.03c.006 0 .013-.003.02-.003.325.024.65.068.974.123.724.123 2.253-1.445 2.46-3.8.762-8.642 3.436-29.241 12.446-49.602 6.883-15.556 14.417-24.293 18.818-28.484L326.5 181.13l-27.334 6.059s-1.972-20.853-2.677-37.055.705-50.198.705-50.198c-.141-1.69-3.895-1.41-5.304-1.69-1.408-.283-2.062-2.498-1.921-3.484.14-.986.385-1.388-.885-1.51-14.377-1.38-28.626-2.92-36.041-3.894-.815-.108-.885 4.88-.885 4.88s-.614-.23-1.6-.23c-.987 0-2.114.19-2.396 1.6-.281 1.409-.986 12.68-.986 35.082s2.959 42.973 2.959 45.51c0 2.535 0 5.212 1.409 5.494 1.409.282 47.2 9.863 47.2 9.863l32.687-6.763 2.186-173.069c.174-1.148.04-2.737-.363-2.838zm-32.282 24.91-.617.232L251.91 18.47 300.974 33.8zm-81.798-18.947c-.308-1.001-.231-1.617.54-2.002.77-.385 2.618-2.08 31.04 6.7s48.369 15.405 49.447 15.328a3.01 3.01 0 0 0 1.772-.77l-.077.616-1.002 1.464s-33.618-10.38-50.68-15.405c-33.736-9.936-32.272-6.47-26.034-3.312 1.783.903 1.772.925 1.772.925s-6.47-2.542-6.778-3.544zm49.045 11.806c-.514.75-1.033 1.53-1.555 2.342a8478.398 8478.398 0 0 0-18.296-5.803c-10.5-3.32-17.18-5.75-21.256-7.407 2.29.397 5.102.928 8.207 1.52 6.851 1.31 19.488 5.141 32.9 9.348zm-40.419-9.11c-4.929-1.771-1.155-1.848-1.155-1.848s-.077.847 2.388 1.617 26.187 9.397 26.187 9.397-22.49-7.394-27.42-9.166zm16.175 4.621 29.192 9.474-1.002.616-3.85-1.232c-3.852-1.232-24.34-8.858-24.34-8.858zm21.604 9.88 3.589 1.147c-1.674.54-3.512 1.136-5.247 1.702a109.98 109.98 0 0 1 1.658-2.848zm42.021 11.147c-10.785 24.373-12.683 48.916-12.965 53.895l-1.64-.136c-.558-.047-.948-.21-1.189-.497-.31-.368-.413-.986-.325-1.944l.014-.157c.077-.836.138-1.496-.266-1.97-.328-.386-.897-.579-1.902-.646-1.703-.114-32.109-3.214-34.479-3.658-1.345-.252-2.244-.162-2.828.283-.486.37-.747.961-.821 1.86a83.428 83.428 0 0 1-.245 2.5h-.537c-.536 0-1.37-.443-1.782-.698-.13-1.723-.968-16.59 6.267-37.15.545.033 1.17.048 1.896.048 2.337 0 5.713-.156 10.742-.388l3.181-.146c12.283-.559 15.285-1.11 15.407-1.133a.346.346 0 0 0-.13-.681c-.03.005-3.11.567-15.308 1.121l-3.182.146c-9.74.45-13.385.618-14.974-.114-1.313-.607-1.96-4.082-1.771-9.536.087-2.526 2.222-4.642 6.347-6.29l.057-.023c1.38-.551 17.996-5.89 18.11-5.925a.347.347 0 1 0-.205-.662l-1.386.444a1.607 1.607 0 0 0-.932-.789c-.027-.009-1.459-.473-5.408-1.732a98.891 98.891 0 0 1 1.563-2.344c2.852.895 5.734 1.806 8.6 2.71 6.889 2.177 14.375 4.536 20.487 6.392-1.771 3.026-3.467 6.455-4.371 9.95-.224.864-.057 1.766.79 2.048.17.057.344.084.514.084.676 0 1.31-.656 1.532-1.335 1.584-4.836 3.51-8.302 5.818-11.934.479-.754.109-1.769-.683-2.183-.73-.383-1.364-.12-1.835.514-6.335-1.9-13.6-4.195-21.278-6.62a5977.7 5977.7 0 0 0-7.594-2.395c5.225-7.035 9.648-10.838 11.512-12.282l.07-.054c.331-.257.655-.554.968-.84.896-.82 1.823-1.67 3.073-1.765 1.679-.129 40.388.226 45.833.277-3.105 2.263-15.13 12.03-24.745 33.755zM97.666 99.674a5.453 5.453 0 0 0-4.68 8.252 4.684 4.684 0 1 1 9.01.515 5.454 5.454 0 0 0-4.33-8.768z"/><path class="st0" d="M97.497 103.433a3.047 3.047 0 0 0-3.047 3.046c0 .16.016.315.04.467a3.045 3.045 0 0 1 3.007-2.58 3.046 3.046 0 0 1 3.008 2.58c.023-.152.04-.307.04-.467a3.047 3.047 0 0 0-3.048-3.046z"/><path class="st0" d="M177.98 128.411c-1.45-4.651-3.96-8.407-7.259-10.86-4.034-3-8.7-4.302-13.87-3.875-.152.013-.284.024-.34.024-.27 0-1.682-.389-6.863-2.239l-.48-.17c-.62-.22-1.831-.478-2.429-.055a.783.783 0 0 0-.338.657c0 .261-.04.644-.087 1.02v-11.202c-.028-.054-.058-.105-.086-.157a.563.563 0 0 0 .06-.234c.095-2.96-6.39-4.764-12.538-4.96-3.295-.104-6.415.221-8.784.92-2.501.736-3.887 1.798-4.03 3.077-.054.055-.065.108-.055.159l-16.682 1.18-2.977-3.268a.34.34 0 0 0-.213-.108l-5.79-.633a.34.34 0 0 0-.25.073l-5.042 4.067a.342.342 0 0 0-.127.256l-.163 6.886a.339.339 0 0 0 .094.242l4.61 4.826c.059.062.14.1.226.104l5.483.292a.343.343 0 0 0 .222-.067l3.563-2.691 16.437 3.838c.3 2.798.112 5.629.04 8.436-.086 3.319.115 6.641.076 9.962-.039 3.362-.044 6.726-.17 10.086-.091 2.397-.165 4.79-.012 7.176l-.028.694c-.044.996-.08 1.719.071 2.271.01.09.04.173.087.245.135.316.356.572.71.792.754.466 1.62.774 2.548.976.075 6.171.217 13.265.217 19.737 0 .847-.1 1.744.04 2.323-.353 2.098.988 4.197 2.134 5.843 1.677 2.407 3.784 4.4 6.106 6.175 2.175 1.663 5.037 3.375 7.867 3.324 1.24-.021 1.975-.683 2.3-1.592-.069-2.04.097-9.493.097-11.248 0-2.888.02-11.147.035-17.296.027.041.06.078.104.105l1.355.847a.347.347 0 0 0 .113.044c.307.063 5.617 1.113 11.093 1.112 2.145 0 4.316-.16 6.221-.605 6.812-1.59 15.69-10.814 17.541-21.51.896-5.181.607-10.368-.837-14.999zm-33.273-11.463c-.008.254.51 11.366.686 11.399.054.056 4.146 2.04 5.126 3.85.642 1.42 1.014 3.008 1.225 4.411.34 2.26.008 4.386-.94 6.457-.216.47-.452.93-.698 1.385a.272.272 0 0 0-.06.111c-.114.21-.23.42-.348.63-.044.056-.089.112-.131.17-.868 1.187-1.6 2.638-3.633 2.656a14.758 14.758 0 0 1-.055-1.463c0-.372.154-.9-.123-1.192.023-.184-.084-.387-.324-.387h-.457c-.227 0-.335.182-.327.358-.004.024-.012.045-.012.072.009 2.65.182 5.293.364 7.936-.028-.02-.058-.036-.087-.054.003.104-.007.209-.029.31-2.101-1.646-8.27-2.299-11.852-2.413-3.277-.105-6.374.084-8.719.53-1.117.214-1.997.47-2.65.772-.328-2.96-.186-5.95-.074-8.92.127-3.364.121-6.734.16-10.101.04-3.311-.156-6.62-.07-9.928.064-2.51.183-5.01-.014-7.506.218-.355 1.03-.936 3.115-1.409 2.263-.513 5.266-.74 8.456-.64 7.586.243 11.5 2.06 11.471 2.966zm8.68 20.079c0-4.816-1.758-9.093-4.477-11.796 4.087 1.91 6.962 6.438 6.962 11.72 0 5.16-2.744 9.598-6.68 11.581 2.558-2.713 4.195-6.858 4.195-11.505zm-1.742 5.804.037-.086c.098-.239.185-.478.265-.717a9.26 9.26 0 0 1-.211.73.235.235 0 0 1-.091.073zm-30.98-31.36c-4.753-.61-10.56-1.165-15.398-1.843.13-1.315.201-2.69.325-4.013 5.54.28 10.873.768 16.321 1.139.094-1.776 1.152-2.85 1.627-4.067-4.947.332-15.67 1.03-15.67 1.03s-1.596.226-2.223.109c-.576-.107-1.139-.542-1.139-.542l-.217 2.331.054 2.549s-2.39 2.129-3.633 3.145c-1.477-.024-5.584-.271-5.584-.271l-3.864-3.273-.475-5.566 3.47-2.711c.367-.286 1.14-.867 1.14-.867s1.834.168 2.602.216c.913.059 2.657.164 2.657.164s.682.628 1.245 1.182l1.905 2.091c.07.077.172.119.275.11l1.007-.071 1.153-.06c5.031-.27 10.122-.524 15.074-.813a.28.28 0 0 0 .101-.154.3.3 0 0 0 .213-.056l.205-.141c-.01-.033-.016-.067-.024-.1a.566.566 0 0 0 .239-.441c.024-.768 1.264-1.605 3.234-2.186 2.257-.664 5.25-.974 8.43-.872a33.46 33.46 0 0 1 4.262.401c-.15 1.457.041 2.897-.13 4.354-.2 1.7-.177 3.355-.06 5.06.106 1.569.242 3.135.406 4.697.481.58.789.836 1.668 1.204.63.264 1.205.52 1.767.78-2.325-.647-5.344-1.036-8.356-1.132-3.284-.105-6.389.132-8.742.667-1.169.265-2.087.587-2.754.962.305-.917.896-2.578.896-2.578s-1.32-.346-2.006-.434zm10.49 69.785a.34.34 0 0 0-.178-.048c-.312.002-.61.015-.908.048h-.949c.29-1.745.863-3.49 2.529-4.333a.694.694 0 0 0 .122-.084c.606.584 1.133 1.225 1.534 1.709.725.876 1.487 1.778 2.241 2.708h-4.391zm4.725 9.05c-.284-1.883-.201-3.749-.191-5.646.007-1.457 2.267-1.458 2.259 0-.009 1.679-.14 3.378.11 5.046.214 1.425-1.962 2.038-2.178.6zm2.795-7.422c-1.677-2.395-3.509-4.876-5.584-6.942-1.371-1.364-3.38-2.516-5.27-2.03-.107.007-.213.012-.323.024-1.056.117-1.848.608-2.407 1.33-.188-3.015-.555-6.027-.228-9.045.22-2.02.763-4.008 1.079-6.015.185-1.175.266-2.315.53-3.415.142-.422.418-.942.647-1.4.287-.573.739-1.058 1.247-1.084.545-.027 1.068.758 1.193 1.193.248.866-.026 1.975.117 2.657.156.746 1.461 1.428 2.169 1.898 2.434 1.617 4.775 3.224 6.28 5.639 1.183 2.49.721 6.019 1.085 9.543.07.68.254 1.599.325 2.44.1 1.17-.114 2.654-.046 3.858-.017.53.052 1.028.169 1.518.068.573.165 1.137.304 1.69-.435-.65-.878-1.275-1.287-1.859zm-.963-28.573.02-.045.269.047-.29-.002zm1.766-.844c-1.727-.422-4.024-.698-6.467-.775-.98-.032-9.574-.236-9.65 2.159l.003.045-.056-.008s-1.752-.666-1.915-.853c.114-.209.79-.764 3.132-1.21 2.266-.432 5.274-.614 8.471-.512 6.329.202 10.077 1.36 11.156 2.114-.487.235-1.752.285-1.748.155-.088.02-1.603-.792-2.926-1.115zm37.993-10.172c-1.805 10.435-10.422 18.972-17.026 20.513-6.364 1.485-15.433-.333-16.29-.499l-1.143-.94v-1.45a.339.339 0 0 0-.231-.322l-.34-.113c-.013-.005-.028-.007-.043-.01l.01-4.323c1.098-.012 2.066-.347 2.82-.76.02-.01.036-.022.053-.033a.572.572 0 0 0 .232-.196c.15-.155.286-.325.467-.417-.028-.35-.04-.702-.045-1.053a14.589 14.589 0 0 0 4.736-2.723c.409-.267.796-.56 1.14-.896.226-.306.449-.613.676-.918.292-.34.573-.696.841-1.065.13-.15.258-.3.396-.446.95-1.497 1.793-3.055 2.321-4.749.323-1.034.554-2.1.68-3.178.139-.906.22-1.836.237-2.784.13-7.92-4.247-14.715-10.383-17.086-.058-.798-.24-2.384-.265-2.374v-2.778l.321-.198a.338.338 0 0 0 .156-.23c.012-.065.514-1.393.514-2.148 0-.052.012-.077.052-.104.26-.184.846-.12 1.587.14l.476.17c4.471 1.597 6.593 2.278 7.092 2.278.084 0 .208-.01.395-.025 5-.414 8.608.618 12.506 3.517 6.461 4.804 9.835 14.931 8.058 25.2z"/><path class="st0" d="M147.023 159.393h.003c6.984-.063 11.214-5.195 13.533-9.49 2.691-4.984 3.917-10.93 3.917-14.345 0-6.465-1.943-17.769-14.947-20.832-.182-.044-.338.617-.155.66 12.55 2.956 13.746 13.907 13.746 20.172 0 3.333-1.2 9.143-3.836 14.023-2.232 4.134-5.611 9.075-12.264 9.135-.187.001-.183.677.003.677z"/><path class="st0" d="m170.191 122.647-1.581-.621a.482.482 0 0 0-.04-.012c-1.982-.516-7.335-1.97-8.275-2.508-.936-.535-.857-1.017-.656-1.418l.026-.054c.41-.822.796-1.598 2.736-1.016 2.146.643 6.143 1.98 6.278 2.015 2.066.541 2.241 2.073 2.235 1.885-.056-1.721-1.166-2.178-1.977-2.511a246.709 246.709 0 0 0-6.342-2.038c-1.243-.374-2.023-.242-2.545.088-.437-.172-2.447-.95-4.348-1.501-2.141-.62-6.998-.726-6.814-.696.046.007 4.524.738 6.626 1.347 1.589.46 3.258 1.083 3.99 1.365-.189.25-.327.522-.445.76l-.027.052c-.316.632-.412 1.546.926 2.31 1.192.68 3.953 1.344 6.042 1.909 2.09.564 5.14 2.598 6.765 8.037.528 1.767.86 3.057.86 5.462 0 .323-.002.637-.005.946a337.533 337.533 0 0 0-5.34-1.277l-.024-.004c-.366-.058-2.217-.344-2.693-.284-.186.023 10.182 2.818 10.327 2.892.335.186.258 1.1.222 1.54-.025.292-.241.661-.527.899-.167.14-.339.214-.458.203-.365-.036-3.914-.948-5.821-1.437-.996-.256-1.714-.44-1.877-.477-.067-.014-.156-.03-.26-.053-2.807-.633-1.93-2.335-2.112-2.375-.183-.041-1.202 2.307 1.978 3.04.098.021.183.036.248.05.15.034.9.236 1.854.471 4.771 1.175 2.824 6.682.906 10.745a19.992 19.992 0 0 1-3.053 4.638c-1.131-.177-6.748-1.051-7.634-1.103-1.005-.06-1.492.831-1.316.77.004-.002.417-.144 1.276-.094.8.047 7.594 1.279 7.675 1.279.058 0 1.315.962 1.325 1.15 0 .533-.271 1.526-.79 1.526-.782 0-6.82-.855-8.75-1.068-2.095-.232-2.248-1.804-2.416-1.721a.34.34 0 0 0-.151.455c.047.096.088.193.129.29.26.62.555 1.315 2.316 1.643 3.675.683.5 2.666-.403 3.022-1.384.547-3.015.824-4.846.824-.44 0-5.722-.64-9.164-1.07-.184-.023 8.54 1.748 9.164 1.748 1.917 0 3.631-.293 5.095-.871a24.361 24.361 0 0 0 5.29-2.947c1.739.209 3.31.372 3.735.372 1.11 0 1.47-1.484 1.47-2.203 0-.557-.81-1.27-1.372-1.697a20.654 20.654 0 0 0 3.033-4.653c1.935-4.098 2.913-6.97 3.34-9.81.556.134.936.218 1.065.23a.9.9 0 0 0 .09.005c.281 0 .586-.126.868-.361.428-.356.73-.891.769-1.364.055-.67.149-1.79-.569-2.188-.17-.094-.93-.308-1.923-.564.005-.363.008-.733.008-1.117 0-2.498-.391-3.887-.886-5.645a58.591 58.591 0 0 1-.536-2.004c-.746-3.04-2.487-5.031-2.56-5.114a.341.341 0 0 0-.131-.092z"/><path class="st0" d="M246.904 169.601c.049-.391-.551-1.13-.797-1.511a20.56 20.56 0 0 1-.103-.162 7.26 7.26 0 0 0-.626-.99c-.701-1.124-1.345-2.214-1.993-3.322.644-.74.15-1.873-.421-2.087-.785-.295-1.423.4-2.087.421-13.059-19.69-27.643-38.508-44.434-56.235a272.553 272.553 0 0 0-13.163-12.998c-4.518-4.166-8.967-8.307-13.884-12.323-4.609-3.764-9.352-7.776-14.263-11.484l-.81-.612a280.87 280.87 0 0 0-8.334-6.279c-2.133-1.61-4.28-3.234-6.433-4.874.466-.752 1.049-1.683 1.524-2.734.452-1 .896-2.188.724-3.1-.059-.306-.526-1.034-.945-1.382l-8.62-6.61c-1.017-.701-2.035-1.4-3.051-2.103-.01-.007-.017-.015-.026-.023-.328-.07-.53.126-.783.028-.354-.136-.698-.606-1.122-.83-.516-.274-1.138-.329-1.64-.483-1.676-.513-2.7-1.145-3.688-2.075-1.08-1.017-2.302-2.513-2.36-3.995-.03-.779.339-1.378.686-2.1 1.18-2.45.625-4.465-.16-6.008-1.153-2.265-4.01-3.908-7.082-3.476-2.434.342-4.9 1.111-7.308 1.87a89.015 89.015 0 0 0-7 2.504c-8.252 3.374-16.506 8.653-23.25 15.51-.49.496-1.055.946-1.35 1.47-.256.457-.451 1.117-.686 1.63l-4.121 3.619a53.796 53.796 0 0 0-1.02 1.368c-.29.26-.611.387-.84.766-.49.816-.338 1.895-.112 2.607.248.783.69 1.435 1.133 2.07.732 1.05 2.187 3.048 4.176 2.951.772-.038 1.253-.606 1.963-.95 1.738-.842 3.115-2.194 4.754-3.021.978.814 1.616 2.205 3.08 2.173.457-.01.86-.387 1.27-.352.233.019.43.146.643.179.645.1 1.175-.045 1.739-.057 2.767-.058 4.82 1.841 6.505 3.232 4.574 3.775 8.855 8.335 12.008 12.773 1.379 1.94 2.745 4.213 2.917 6.702.027.398.004.928.144 1.109.238.305.962.52 1.3.319.969-2.637 1.649-5.031 1.752-7.196.073-1.544-.247-3.035-.644-4.371-.342-1.368-.86-2.842-1.562-4.435-.135-.305-.28-.62-.43-.938a45.57 45.57 0 0 0-3.17-5.9c-.277-.436-1.052-2.64-.895-3.133 2.705.918 5.41 2.203 7.476 3.481.739.457 1.362 1.06 2.077 1.384 1.087.49 1.847.172 2.48-.285 3.277 2.721 6.672 5.429 10.038 8.164.468.38.994.973 1.554 1.113 1.017.255 2.14-.672 2.925-1.188 2.617-1.718 4.707-4.227 6.743-6.894l.348.238c1.043.715 2.756 1.858 5.093 3.397 1.107.728 2.372 1.597 3.765 2.583 17.634 13.25 33.844 27.018 47.802 42.064 8.125 8.758 15.725 17.76 22.902 26.966 7.184 9.214 14.174 18.484 20.412 28.174-.446.434-1.143.934-1.193 1.658-.032.462.307 1.112.734 1.313.44.208.552-.02.96.026.82 1.314 1.819 2.904 2.765 4.356.303.466.577 1.227 1.1 1.397.503.162 1.066-.053 1.506-.27.958-.476 1.641-.87 2.43-1.538.31-.261.91-.742.978-1.29zM129.412 41.781c.995.693 7.848 5.692 9.383 7.08.193.175-.029.408-.22.235-1.599-1.445-8.93-6.8-9.577-7.25-.233-.162.181-.226.414-.064zm-1.092.025c.184.133 9.756 7.497 9.756 7.497.293.234.046.466-.314.18 0 0-9.65-7.277-9.862-7.465-.167-.15.165-.396.42-.212zm-28.085-14.319c2.262-1.113 6.986-2.665 8.998-3.055.357-.069 1.07-.152 1.074-.14-.022.01-3.53 1.674-3.672 1.743l-.006-.003-.001.007a280.91 280.91 0 0 0-3.365 1.68c-.24.124-5.89 3.627-6.152 3.805-.789.535-1.411.958-1.636 1.056-.47.208-1.719.246-3.786.307-.49.014-1.03.03-1.624.05 2.754-1.74 7.524-4.148 10.17-5.45zM75.997 43.83c.037 0 .073.005.11.007.013.003.026.002.039.008l.031.013a2.78 2.78 0 0 1 .133-.003c.15.02.301.05.45.087a.418.418 0 0 1 .066.04c.367.108.749.312 1.118.565.594.364 1.136.834 1.687 1.31.43.371 1.434 1.257 1.092 1.939-.057.115-.162.225-.307.203-.654-.099-1.092-.907-1.504-1.355a13.593 13.593 0 0 0-.91-.91l-.012.02c-.028-.037-.056-.071-.084-.105-.525-.46-1.094-.856-1.756-1.142-.032-.004-.063-.012-.096-.015a.287.287 0 0 1-.245-.177c-.126-.174-.02-.454.188-.485zM72.79 53.68h-.001c-.253-.6-.653-1.151-1.046-1.661-.474-.615-1.065-1.303-1.815-1.513a3.416 3.416 0 0 0-.252-.092c.03-.02.883-.234 1.16-.523h.002s4.232-3.465 4.421-3.61c.19-.144-.115-.563-.385-.34-.248.197-4.099 3.484-4.265 3.613-.167.13-.302.16-.464.197l5.228-4.596c1.47.424 2.606 1.26 3.526 2.347l-5.928 4.475s-.012.22.07.291c.05.046 6.113-4.45 6.113-4.45.186.237.361.486.53.744-.986.808-6.775 5.14-6.894 5.118zm1.8.208c-.253.175-.463-.137-.262-.308.2-.171 5.496-4.12 5.692-4.262.197-.142.46.152.284.299a668.98 668.98 0 0 1-5.713 4.27zm2.394-.548c-.722.505-1.384 1.177-2.191 1.355.823-.861 4.874-3.675 5.918-4.27l.053.115c-.524.558-3.045 2.285-3.78 2.8zm31.148 11.548c.803 1.822 1.362 3.482 1.686 5 .03.084.048.173.062.264.06.248.098.505.138.747.1.592.142 1.193.129 1.794l.003.017v.005c0 .007-.003.014-.005.02l-.001.035.004-.002a14.893 14.893 0 0 1-.296 2.181c-.117.557-.29 1.097-.45 1.64l-.015-.104-.005-.053c-.004-.05-.017-.098-.026-.147l-.022-.146.015-.063a18.654 18.654 0 0 0-1.057-5.497c-.908-2.566-2.68-4.773-4.364-6.872a74.869 74.869 0 0 0-6.025-6.656c-1.029-1.006-2.097-1.954-3.073-3.013-.641-.696-1.296-1.36-2.063-1.89-.059-.057-.12-.111-.179-.166l-.005-.04c-.138-1.064-.83-3.779-1.723-4.185-.848-.381-2.416.029-4.54 1.192-.175-.208-.721-.651-.765-.678.134-.112 3.404-2.294 5.463-2.746 5.907-1.297 10.615-1.186 14.916 1.006l-1.046 1.77-.007.028c-.008.03-.768 3.016-1.128 4.646-.052.234-.103.448-.15.648-.167.697-.294 1.234-.238 1.795-.042-.036-.655-.135-.655-.135.26.277 3.615 5.502 5.422 9.605zm28.848-12.363c-7.215 5.878-9.631 12.798-9.686 12.829-.656-.523-1.391-.98-2.023-1.5-1.165-.96-2.286-1.973-3.432-2.954-.563-.482-1.124-.967-1.688-1.449l-.002-.013-.007.005-.535-.453-.005-.007h-.002l-.373-.314-.408-.36c-.006-.05-.03-.06-.065-.058l-.337-.297a99.336 99.336 0 0 0-.944-.811c-.438-.421-.89-.846-1.379-1.153-.13-.105-.257-.214-.387-.32a.42.42 0 0 1-.007-.13l5.155 3.83a.318.318 0 0 1 .15.08c.075.072.155.138.235.206l.04.03.002.007c.036.03.07.06.108.09h.007c.001-.004-.001-.007-.001-.011l.233.173.001.022c.009.007.017.014.027.02.006-.002.013-.006.02-.007l.369.275v.007l.034.023.003-.002.05.037c.604.4 1.24.765 1.819 1.188.544.397 1.088.794 1.644 1.176.077-.029.082-.436.062-.485l-7.57-6.743c-.486-.652-1.694-1.858-1.655-1.884.317.216.633.431.957.635l2.633 1.99a.088.088 0 0 1-.03.012l.055.007 1.422 1.075c-.004.014-.008.028-.016.044.037.01.072.02.106.024l2.914 2.203-.005.01.014-.003 1.723 1.302.02.016a2.016 2.016 0 0 1-.049-.015l.057.021.387.31.01-.012-.212-.771-8.063-7.023c-.337-.325-.673-.651-1.015-.969a.285.285 0 0 1 .003-.182c.053-.144.126-.279.2-.412a.233.233 0 0 1 .128-.108c.153.084.305.169.456.256.315.182.605.393.909.582l6.711 5.066 1.999 1.67-.932-1.306.031-.042-.847-.64-6.935-5.795-.051-.026c-.19-.184-.38-.369-.566-.555-.003-.014-.007-.026-.008-.04-.038-.498.3-1.081.64-1.424.093-.095.2-.102.29-.062a1.06 1.06 0 0 1 .057-.026l8.01 6.474-7.844-6.86c0-.017.004-.032.006-.048a.182.182 0 0 1-.052-.206c.222-.64.791-1.23 1.263-1.709.464-.472.895-1.051 1.38-1.515-1.402.886-2.368 2.363-4.03 2.776-.14-.008-.276-.02-.413-.032-2.686-1.458-5.149-3.212-8.093-4.163-3.015-.973-6.234-1.662-9.4-1.826-5.373-.28-11.093.863-15.484 4.095a5.606 5.606 0 0 0-.32.173 4.738 4.738 0 0 0-.534.264 1.429 1.429 0 0 1-.43-.3c-1.367-1.297-3.023-2.44-4.69-3.311a.242.242 0 0 1-.136-.174c.108-.115.211-.232.299-.36.005 0 .01-.003.015-.004 1.37-1.576 3.02-2.868 4.506-4.334.933-.92 1.94-1.766 2.993-2.55l.007-.006a34.09 34.09 0 0 1 2.018-1.391c.006-.001.011 0 .018-.002 0-.004-.002-.005-.003-.008l.334-.211c2.485-.136 5.778-.375 7.002-.89.603-.254 1.79-1.017 3.29-1.982 1.606-1.033 3.427-2.204 5.1-3.117 1.398-.764 2.983-1.468 4.461-2.041l.009.012a.031.031 0 0 0 .004-.017c.309-.12 1.722-.628 1.846-.67h.002c.384-.13 3.586-1.299 5.36-.494.785.405.54 1.28.287 2.176-.543 1.914.23 3.47-.202 6.416-.3 2.036 1.17 4.187 2.801 5.349 1.074.765 2.427 1.018 3.67 1.366.204.057.398.125.586.202.808.267 1.59.669 2.235 1.206.724.604.365.975.84 1.3l9.736 7.518c.053.113.187.144.297.066.112-.08.114-.199.05-.295.012-.05-8.774-6.83-8.922-6.946-.138-.108-.282-.217-.422-.324-.151-.163-.318-.316-.355-.546-.02-.124-.002-.263.07-.351.182-.092.4.007.574.095.146.074.286.154.424.238 0 0 10.923 8.135 11.133 8.669.044.11-1.216 1.087-1.742 1.43zm3.419 9.09c-.977-.616-1.722-1.84-1.172-2.79.222-.385 3.88 2.396 3.88 2.396 49.71 33.288 88.584 90.224 94.906 98.163C219.96 136.71 190.106 95.25 140.4 61.616zM243.854 168.71a1.98 1.98 0 0 0-.443.255 32.135 32.135 0 0 1-2.953-4.618c.38-.39 1.216-.89 1.902-.954.066-.006.128-.012.188-.015a.402.402 0 0 0-.005.078c-.287.062-.541.36-.39.713.412.958 1.12 1.764 1.76 2.572.354.445.765.944 1.072 1.483-.4.08-.78.261-1.131.486zM206.038 119.721z"/><path class="st0" d="m77.18 47.369-4.81 3.675c-.178.135.031.433.248.29l4.782-3.625c.242-.221-.074-.484-.22-.34z"/></svg>