<svg version="1.1" id="Layer_1" xmlns="http://www.w3.org/2000/svg" x="0" y="0" width="400" height="200" style="enable-background:new 0 0 400 200" xml:space="preserve"><style>.st0{fill:#3c3c3c}</style><path class="st0" d="m154.004 141.51.104-.009c.264-.087.523-.19.79-.261-.299.08-.597.168-.894.27zM157.89 140.746zM157.8 140.753zM156.412 140.917zM245.262 165.49l.126 26.069c5.039-.451 9.703-1.245 13.564-2.318-.066-4.721-.195-17.592-.284-26.683a.52.52 0 0 1-.025-.03s-4.5 2.115-13.38 2.962zM111.544 57.308l23.709 4.603c.043.013.274.076.607.076.52 0 1.506-.161 2.328-1.324 10.455-20.106 19.972-34.344 20.059-34.474.081-.116.473-.728.202-1.366-.128-.298-.44-.68-1.204-.796-1.191-.184-24.644-1.882-25.536-1.938a2.606 2.606 0 0 0-.554-.056c-.848 0-1.515.365-1.88 1.03-.186.34-1.35 2.325-3.006 5.138-1.98 2.785-4.474 6.422-6.715 10.07-1.887 2.894-4.33 7.836-6.113 11.622-1.644 2.768-2.771 4.654-2.882 4.817-.416.624-.375 1.143-.267 1.467.253.764 1.06 1.071 1.252 1.131zm-.555-2.311c.027-.038.183-.296.43-.705-.204.455-.338.756-.362.812 3.125-4.993 18.833-31.858 18.833-31.858s-.193.255-.531.707c.19-.328.32-.553.369-.642.27-.49.776-.761 1.427-.761.25 0 .43.04.438.043.97.068 24.402 1.764 25.573 1.944.425.066.696.23.807.49.17.4-.137.847-.15.866-.093.138-9.623 14.397-20.093 34.532-.65.913-1.45 1.046-1.87 1.046-.272 0-.452-.053-.46-.055L111.641 56.8c-.052-.016-.68-.246-.86-.786-.103-.314-.034-.657.207-1.018z"/><path class="st0" d="m111.733 56.47 23.749 4.612c.016.004.16.045.378.045.432 0 1.057-.153 1.577-.882C147.905 40.113 157.445 25.84 157.54 25.7c.06-.089.197-.352.116-.538-.076-.177-.337-.252-.542-.283-1.157-.18-25.329-1.929-25.572-1.946-.028-.004-.179-.038-.387-.038-.367 0-.86.101-1.125.583-.13.236-18.24 30.988-18.758 31.716-.176.263-.231.504-.163.713.125.38.619.563.624.564zm16.368-17.343c-.09.093-.287.253-.435.253l-.04-.005c-.3-.08-1.117-.19-1.333-.218-.065-.051-.186-.18-.084-.357.05-.12.323-.649.61-1.193.296-.561.61-1.139.715-1.302.02-.037.084-.151.313-.151.114 0 .208.029.242.036.001 0 .759.109 1.193.195.064.014.077.037.082.046.034.066.002.218-.03.292l-.584 1.138-.649 1.266zm-2.04 1.541s-.11.392-.241.813c2.21.314 5.113.73 7.266 1.043.185-.257.35-.499.368-.572.723-.219 1.992.262 1.992.262s-.081.289-.186.632c.335.052.593.093.708.113.46.062.78.253.94.569.301.594-.121 1.385-.14 1.419l-.922 1.562.06.038s-.648 2.21-1.76 2.84l-2.855 4.836.208.038c.437.087.197.634.197.634l-1.248 2.429s-.371.415-.7.328c-.328-.087-1.356-.219-1.356-.219s-.416-.263-.197-.635c.047-.113.266-.54.514-1.011l-.659-.133-.622 1.21s-.371.416-.7.329c-.327-.088-1.356-.219-1.356-.219s-.416-.263-.197-.635c.052-.124.309-.622.585-1.146l-1.13-.228-.571 1.112s-.372.416-.7.328c-.329-.088-1.357-.219-1.357-.219s-.416-.262-.197-.634c.049-.116.277-.562.533-1.049l-.658-.132-.64 1.246s-.373.416-.701.329c-.328-.088-1.356-.219-1.356-.219s-.416-.263-.198-.634c.053-.127.32-.646.604-1.184l-.922-.185-.462.892c-.028.032-.291.316-.595.316a.498.498 0 0 1-.122-.016c-.185-.049-.757-.127-.962-.154l-.084-.03c-.19-.12-.403-.416-.212-.742.03-.07.177-.359.348-.687l-.781-.157-.48.926c-.029.033-.291.316-.594.316a.475.475 0 0 1-.124-.016c-.184-.049-.757-.127-.961-.153l-.084-.03c-.19-.12-.402-.417-.211-.742.076-.188.834-1.619.976-1.841.1-.179.291-.283.534-.283.134 0 .242.032.26.038l.197.027 2.877-4.812-.109-.11c.066-1.4 1.728-2.669 1.728-2.669l.05-.004c.589-.98 1.015-1.686 1.112-1.836.46-.86 1.496-.928 1.803-.928l.067.001.931.132c.232-.316.479-.665.501-.757.723-.218 1.991.263 1.991.263zm5.573-1.016c-.1.105-.292.253-.434.253l-.04-.005c-.3-.08-1.117-.189-1.333-.217-.065-.052-.186-.18-.084-.358.052-.123.34-.684.639-1.248.286-.543.583-1.088.685-1.247.02-.037.084-.151.312-.151.115 0 .21.028.244.037 0 0 .76.108 1.191.194.066.014.078.037.083.046.035.066.003.219-.027.292l-.558 1.085-.678 1.319zm3.612.416c-.101.105-.294.253-.436.253l-.04-.005c-.299-.08-1.117-.19-1.333-.218-.064-.052-.185-.18-.083-.357.05-.119.32-.645.606-1.187.297-.563.612-1.144.718-1.308.02-.037.084-.15.312-.15.115 0 .21.028.244.035.007.002.764.11 1.192.195.064.014.077.037.081.046.035.066.003.219-.027.292l-.59 1.15-.644 1.254zm12.46-1.003-1.236 2.403c-.09.094-.287.254-.434.254l-.041-.006c-.299-.08-1.116-.189-1.332-.217-.065-.052-.186-.18-.085-.357.045-.109.27-.547.524-1.028.32-.61.686-1.288.801-1.468.02-.038.084-.151.313-.151.115 0 .21.03.243.037 0 0 .382.055.758.117.155.026.308.053.435.078.064.013.077.037.081.046.035.066.003.218-.028.292zm-2.422 4.478c.438.087.197.634.197.634l-1.247 2.43s-.372.414-.7.327c-.328-.088-1.357-.219-1.357-.219s-.416-.262-.197-.634c.11-.263 1.138-2.21 1.334-2.517.22-.393.767-.218.767-.218s.766.109 1.203.197zm-2.6-2.382c-.1.105-.291.253-.433.253l-.042-.005c-.299-.079-1.116-.189-1.332-.217-.064-.052-.186-.18-.084-.357.051-.124.344-.69.645-1.259.285-.538.578-1.078.679-1.236.02-.038.084-.151.313-.151.114 0 .21.029.244.037 0 0 .758.107 1.191.194.066.014.078.037.082.046.035.066.003.219-.027.292l-.562 1.093-.673 1.31zm-1.623 1.725s.766.11 1.204.196c.438.088.196.635.196.635l-1.247 2.43s-.371.415-.7.327c-.328-.087-1.356-.219-1.356-.219s-.417-.262-.197-.634c.11-.263 1.138-2.21 1.334-2.516.22-.394.766-.219.766-.219zm-5.559 12.14c.438.089.198.636.198.636l-1.248 2.428s-.372.416-.7.328c-.328-.087-1.356-.218-1.356-.218s-.416-.263-.197-.635c.11-.263 1.138-2.21 1.334-2.517.22-.393.766-.218.766-.218s.767.11 1.203.197zm-1.028-1.509c.11-.264 1.139-2.21 1.335-2.516.22-.394.766-.22.766-.22s.766.11 1.204.197c.438.089.197.635.197.635l-1.247 2.429s-.372.415-.7.328c-.329-.087-1.357-.219-1.357-.219s-.416-.263-.197-.634zm.745 4.507c.11-.262 1.138-2.21 1.334-2.517.22-.392.766-.218.766-.218s.766.11 1.204.198c.437.086.196.633.196.633l-1.247 2.43s-.371.416-.7.328c-.329-.087-1.357-.219-1.357-.219s-.416-.263-.196-.635zm5.776-5.951-1.247 2.428s-.372.416-.7.328c-.328-.087-1.357-.218-1.357-.218s-.416-.263-.197-.635c.11-.262 1.138-2.21 1.334-2.517.22-.392.767-.218.767-.218s.766.11 1.203.198c.438.087.197.634.197.634zm-1.882-1.926s-.372.416-.7.328c-.328-.087-1.356-.218-1.356-.218s-.416-.263-.197-.635c.11-.263 1.138-2.21 1.334-2.517.22-.393.767-.218.767-.218s.765.11 1.202.197c.438.087.198.634.198.634l-1.248 2.429zm-.17-9.576c-.09.093-.286.253-.434.253l-.041-.006c-.3-.079-1.116-.188-1.332-.216-.065-.052-.187-.18-.084-.358.049-.118.32-.646.608-1.19.296-.561.61-1.14.715-1.305.021-.037.084-.15.312-.15.115 0 .21.028.245.036 0 0 .759.108 1.192.195.065.013.078.037.082.045.035.066.002.218-.028.291l-.592 1.152-.643 1.253zm-14.566-2.884c-.063.063-.19.162-.272.162l-.015-.002c-.214-.057-.783-.135-.962-.158-.043-.038-.082-.098-.033-.185.07-.169.816-1.584.963-1.813.012-.022.045-.081.178-.081.074 0 .136.018.17.026 0 0 .241.035.5.077.135.022.272.045.387.068.013.025-.001.114-.02.162l-.704 1.37-.192.374zm4.89-10.511c.069-.168.814-1.583.961-1.813.013-.023.046-.082.18-.082.074 0 .135.019.17.026 0 0 .55.078.886.146.012.022.002.108-.02.162l-.303.588-.594 1.155c-.063.063-.19.162-.27.162l-.016-.002a3.193 3.193 0 0 0-.23-.048c-.258-.046-.6-.092-.732-.11-.037-.033-.083-.097-.032-.184zm-.072 1.788c.012.023.002.11-.02.162l-.896 1.745c-.063.063-.19.161-.27.161l-.017-.002a2.604 2.604 0 0 0-.154-.032c-.26-.05-.66-.105-.807-.125-.037-.033-.084-.097-.034-.185.07-.17.817-1.585.963-1.813.013-.022.045-.082.18-.082.074 0 .136.019.168.026 0 0 .466.068.803.13l.084.015zm-4.043 5.148c.071-.169.817-1.585.963-1.813.012-.022.045-.082.18-.082.073 0 .135.02.168.027 0 0 .271.04.547.085.12.02.239.041.34.061.012.022 0 .108-.02.161l-.896 1.744c-.063.063-.19.162-.271.162l-.017-.002a4.859 4.859 0 0 0-.41-.077 21.66 21.66 0 0 0-.55-.08c-.037-.034-.084-.098-.034-.186zm18.228 14.065-1.247 2.43s-.089.096-.215.186c-.136.097-.315.187-.485.142-.329-.088-1.356-.219-1.356-.219s-.417-.262-.197-.635c.11-.262 1.137-2.21 1.334-2.516.219-.394.766-.218.766-.218s.767.109 1.203.197c.392.077.246.504.21.597l-.013.036zm6.874-11.773a2.042 2.042 0 0 1-.273.385 1.874 1.874 0 0 1-1.598.656l-.513-.068-.455.887a21.095 21.095 0 0 0-.865-.134 1.19 1.19 0 0 0-.335-.048c-.304 0-.543.129-.666.352-.125.195-.542.968-.88 1.613-.27-.041-.563-.086-.883-.133l.506-.979c.018-.039.164-.389.022-.66a.503.503 0 0 0-.368-.26c-.442-.089-1.196-.192-1.182-.191a1.182 1.182 0 0 0-.335-.049c-.304 0-.542.129-.667.352-.111.175-.45.8-.76 1.388l-.985-.137.534-1.034c.017-.04.163-.388.022-.66a.502.502 0 0 0-.368-.26 22.58 22.58 0 0 0-1.18-.19h-.001a1.16 1.16 0 0 0-.337-.05c-.303 0-.542.13-.666.353-.107.167-.473.842-.797 1.457l-.903-.123.532-1.03c.017-.039.163-.389.022-.66a.501.501 0 0 0-.368-.26 22.794 22.794 0 0 0-1.18-.192c-.017-.004-.158-.048-.336-.048-.305 0-.544.129-.667.352-.117.181-.48.853-.8 1.462-.262-.036-.522-.07-.78-.104l.498-.966c.018-.04.163-.388.022-.66a.503.503 0 0 0-.368-.26 23.774 23.774 0 0 0-1.182-.191c-.02-.006-.16-.049-.335-.049-.304 0-.542.13-.667.353-.113.175-.455.809-.767 1.4-.26-.033-.514-.067-.763-.1l.525-1.018c.018-.039.164-.388.023-.66a.5.5 0 0 0-.368-.26 23.71 23.71 0 0 0-1.182-.192c-.02-.006-.16-.048-.334-.048-.304 0-.544.13-.667.353-.116.179-.477.847-.797 1.456L125 37.37l.646-1.25c.022-.05.127-.312.015-.529a.421.421 0 0 0-.307-.218 9.667 9.667 0 0 0-.21-.039l.357-.574c.214.031.437.067.54.095a.49.49 0 0 0 .123.015c.303 0 .566-.284.595-.316l.944-1.825c.022-.05.127-.313.015-.529a.421.421 0 0 0-.308-.219 9.469 9.469 0 0 0-.164-.03l.358-.575c.116.019.223.038.283.054.04.01.08.016.123.016.302 0 .565-.284.594-.317l.944-1.825c.022-.05.127-.313.015-.53a.438.438 0 0 0-.228-.183l.46-.74c.148.023.287.047.36.067.04.01.08.015.122.015.303 0 .567-.284.596-.316l.704-1.362 1.033.122c.256-.425.435-.726.484-.818.318-.582 1.244-.645 1.349-.65.216.019 18.606 1.856 19.897 1.9.538.055.859.224.967.503.153.394-.192.795-.231.84l-3.743 6.405-1.078 1.848zM177.399 106.754l-.018-.083-.296-.03a2.53 2.53 0 0 1-.066-.005l.072.018c.151.036.255.07.308.1zM173.108 100.887v.007l.044.037-.044-.044z"/><path class="st0" d="M319.921 198.53v-.615h-.002l-.065-17.458-.02-.55-.534-.122c-1.401-.321-14.186-3.225-31.32-6.523l-1.37-.263.023.045c-3.292-.613-9.802-1.77-11.791-2.123l6.623-5.336s1.088-.68.952-2.106c.639-4.606-1.048-11.802-2.226-16.041l13.773-10.314s4.28-5.23-.272-11.207c2.921 6.724-.203 9.916-.203 9.916l-13.734 10.08-.055.041s-.02-.899-.868-2.037a6.39 6.39 0 0 0-.299-.365c-.925-1.06-2.59-2.252-5.58-3.111-.125-.031-.242-.062-.373-.093l.191.036 20.921-14.467s-.795-1.814-3.956-3.216l-.012-1.525c-.062-.984.146-1.958.33-2.052 7.544-3.345 9.376-6.666 9.821-8.163 1.266.234 3.972.715 5.199.768l.074-.53c4.146.483 7.839-21.165 2.95-22.817l.011-.632c-.968-.22-1.447-.276-2.4-.387-.522-.06-1.208-.142-2.197-.275l-.004-.037h-.272l-.206-.027-.04.027h-.06c-2.408-.291-70.074-8.468-73.529-8.94-1.3-.736-2.945-1.491-5.06-2.12-.534-.196-.95-.32-1.355-.44a17.064 17.064 0 0 1-1.158-.375l-.118-.044c.226-8.153 1.13-44.33-.532-47.327-.422-1.609-1.566-4.02-3.84-5.642-3.523-3.084-12.022-6.38-19.873.371-3.623 3.26-3.894 7.064-4.438 8.785 2.264 1.54 8.242.815 8.242.815 1.05-.109.995-.543.995-.543s1.763-5.754 5.182-7.634l.377.242c2.215 1.417 3.28 2.798 3.354 4.345l.012.255.175.185c.169.179.333.329.498.48-.003 6.394-.013 36.614.029 44.043-1.33-.105-5.775-.45-7.68-.48-2.255-.035-2.539-.033-3.966.14-.795.098-2.974.428-4.741.7.512.144.685.26.752.391a85.252 85.252 0 0 0-2.22-.042H194l-.526.005a1.34 1.34 0 0 0-1.012.42 1.29 1.29 0 0 1-.056-.01c-5.022-.895-14.794-2.592-17.88-3.02l-.009.023c-.113.306-.195.597-.292.895-1.476 4.517-1.145 8.19 1.037 10.91l.02.026c1.044-.173 4.36-.99 7.321-1.72l2.234-.549c-2.588-.38-7.712-1.172-7.626-1.492.198-.517 7.829.167 11.592.537a119.4 119.4 0 0 1 3.169-.708c-.007.311-.014.541-.022.612l-.01.095c-.366.072-.864.17-1.457.289l-4.19.876-.025-.004c-3.462.742-7.728 1.725-11.279 2.753a95.899 95.899 0 0 0-.745.219 10.022 10.022 0 0 0-.057-.072c-2.048-2.555-2.705-5.775-1.97-9.609.099-.51.239-1.04.387-1.573.014-.05.023-.1.037-.151.1-.35.223-.71.344-1.069.075-.223.152-.447.235-.675a61.784 61.784 0 0 0-2.475-.11l-.117-.003-.112.035c-1.816.574-3.06 2.442-3.92 4.754-.364-.714-.762-1.81-.605-3.033-11.55 13.082-25.437 29.519-27.075 31.46l-.013.015c-.416-1.01-3.593-8.698-3.616-8.738-.004-.006-.41-.585-.035-1.013.4-.338 8.934-6.66 13.222-9.836.207.107.533.082.943-.137 1.02-.543 16.574-11.75 16.574-11.75s-.611-2.582-2.377-2.854c-1.45-.702-2.99-.95-2.99-.95l-5.433-3.805s-2.445-.95-.95-3.056c.95-1.494 19.833-30.227 20.104-30.567.272-.34.68-.815 0-1.902-.662-1.061-1.717-2.57-2.841-3.717.067-.086.135-.177.2-.263.318-.476.462-.727.412-.969-.05-.236-.269-.377-.63-.61-.126-.08-.272-.174-.439-.289-1.054-.724-3.42-1.733-5.333-1.9l.006-.007-.32-.023-.014-.001h-.009l-35.005-2.509a1.51 1.51 0 0 0-.34-.032c-.408 0-1.21.125-2 .964-10.345 10.9-19.511 33.456-20.01 35.119-.193.643-.209 1.186-.065 1.63.027.237.088.527.21.847l-.054.128c.05.02.088.039.136.06.179.403.448.836.888 1.255l-.066.16c.124.051.266.107.416.163 1.16 1.053 1.672 1.232 2.911 1.851.328.164.81.32 1.36.464 2.977 1.151 9.502 3.122 10.527 3.544 1.155.476.068 1.018.068 1.018s-11.1 4.03-12.667 4.89c-.757-2.096-2.428-5.431-3.633-8.843-1.273-3.607-2.383-9.527-1.678-16.491 1.262-5.154-.023-5.595-.158-5.673.052.019.078.065.112.102-.044-.038-.072-.087-.138-.11-1.155-.382-2.844 2.41-2.954 2.708-.214.386-.228.67-.138.873l-.192.13c.011.018 1.087 1.744.171 6.493-1.053 8.714 3.78 21.932 4.044 22.645l.035.466-5.913 2.99.006.035c0 .005-.005.013-.005.018.023.304-.457.98-1.206 1.566l-.001.001a5.008 5.008 0 0 1-1.21.695 4.01 4.01 0 0 1-.186.067l-.013.005a3.416 3.416 0 0 1-1.78.136 1.495 1.495 0 0 1-.31-.048c-.007-.002-.013-.001-.019-.003l-.106-.177-.064.038-.036-.03v.052c-.872.52-3.264 1.95-3.416 2.105-.059.046-.34.313-.07 1.07.23.65 2.987 7.708 3.118 8.037.009.017.988 1.654 2.835 1.08l.39-.223.294.815c.016.036.398.9 1.107 1.38.324.22 1.184.803 2.378.917.54.052.96.067 1.31.059 2.933 6.214 4.29 14.743 4.648 17.312a91.018 91.018 0 0 0-4.294 1.477c-10.797 4.08-17.052 8.423-18.72 12.95-.215.478-.402.962-.53 1.462a5.901 5.901 0 0 0-.14 1.591l-.113.004c-.505 3.266.671 14.898.722 15.393.038.369 1.035 9.099 9.145 13.732 4.756 3.029 10.993 5.085 16.337 6.423.22 4.021 1.388 26.224.768 35.367l-.025.368h2.205v-.237l1.387.077-.594-27.186-.378-7.61a99.936 99.936 0 0 0 7.188 1.272c-.42 3.51.9 6.966.9 6.966s1.161 3.241 5.17 5.858l-.209 2.578.083.17a.861.861 0 0 0 .107.164c-.06.383-.125.85-.125.85l-.017.125.028.124c.024.105.07.22.141.328-.052.448-.13 1.076-.13 1.077l-.01.077.007.077a.897.897 0 0 0 .226.498c-.08.454-.166.994-.166.994l-.033.212.093.195c.018.035.06.115.137.209-.047.466-.12 1.068-.12 1.07l-.023.19.078.175a.947.947 0 0 0 .138.218c-.07.395-.135.811-.135.811l-.044.283.168.23.05.064c-.05.443-.08.954-.083 1.03l-.014.262.165.205c.019.025.045.056.077.09-.079.303-.162.668-.233.997l-.127.229.147.34c.04.09.093.166.152.229-.032.19-.07.436-.111.755l-.031.244.13.21c.022.035.072.107.155.19-.099.52-.223 1.216-.223 1.216l-.056.312.185.226a15.09 15.09 0 0 0-.131.733l-.066.415.337.248.008.006-.137 1.019-.038.277.166.224c-.026.122-.056.27-.09.45l-.152.823 4.784-.05-.003-.435-1.096.045-.003-.287-.007-.745-.28.003v.057l-1.7.017.04-.123c-.471-.043-.795-.118-.82-.242.016-.139.024-.19.039-.308l-.002.022c.062.13.407.226.86.297.471.075 1.058.123 1.582.152l.28.015a50.017 50.017 0 0 0 .795.03l.206.004-.208-.01a14.022 14.022 0 0 1-.735-.06l-.059-.008-.014-1.513c.143-.005.28-.01.411-.017l.383-.02.247 1.296-.253.27.005.015.32.006.41.005c.257.002.488.002.689.002l.32-.002c.207-.002.338-.005.369-.006h.02l-.02.002a62.812 62.812 0 0 1-1.787.088l-.28.01.286.727.106.273.01.024.3-.025.007.607 3.08-.21-.193-1.241.347-.66-.093-.278c-.001-.005-.115-.344-.21-.688l.062-.086.203-.302-.136-.338s-.08-.197-.161-.415c.054-.074.091-.137.112-.175l.111-.209-.22-1.276.19-.138-.044-.396a12.652 12.652 0 0 0-.138-.913l.02-.022.228-.272-.09-.343s-.14-.543-.299-1.1l.356-.215-.106-.482s-.103-.468-.203-.91l.209-.185-.055-.368-.134-.902.28-.248-.07-.381s-.093-.524-.185-.996l.343-.228-.091-.454a15.574 15.574 0 0 0-.222-.948l.277-.116-.13-.566s-.153-.66-.259-1.166a1.08 1.08 0 0 0 .146-.199l.107-.187-.087-.986c.923.128 1.884.229 2.928.267.464.042.944.068 1.432.088-.553-.059-.838-.111-.838-.111s8.927.9 27.402-4.194c8.032-2.05 41.775-13.924 65.332-22.015l-.04-.042c-3.079-2.945-3.954-8.392-4.095-9.437a12.73 12.73 0 0 1-.025-.191c2.186-.802 6.489-2.566 10.097-4.067l1.503-.627c2.558-1.068 4.479-1.882 4.479-1.882s-5.099 2.645-5.004 5.578c.094 2.932.44 3.851.843 5.939.406 2.087 1.84 2.08 1.84 2.08s7.407-2.287 11.542-3.293l.232-14.323.003-.172v-.001l.084-.035c.823-.346 7.733-3.261 10.445-4.89l.002.102c.02 1.406.082 15.201.141 28.838 1.242-.82 2.167-1.566 2.167-1.566s-.833.994-2.165 2.02l.11 26.066c-.888.58-1.892 1.13-3.004 1.65-.878.41-1.81.805-2.814 1.174-3.805 1.403-8.45 2.489-13.562 3.148a88.618 88.618 0 0 1-11.291.721c-1.09 0-2.178-.025-3.263-.065a87.673 87.673 0 0 1-4.751-.306c-4.93-.45-9.702-1.304-14.085-2.548-1.336-.576-3.346-1.543-5.462-2.733-1.705-.959-3.466-2.063-5.005-3.228 2.869 1.96 6.535 3.496 10.675 4.653-.038-5.602-.35-22.035-.39-24.194l-12.752 4.183v.012l1.415-.463-.046 14.931a16.497 16.497 0 0 1-1.664-1.595 8.647 8.647 0 0 1-1.015-1.368l-.02-.03c-.366-.632-.591-1.255-.603-1.856 0-2.99-.055-8.693-.055-8.693l-.002-.206-.554.203-.133.049c-.799.292-1.778.646-2.916 1.05-.417.149-.857.303-1.314.465l-.45.157c-.598.21-1.227.428-1.884.654-.341.398-7.587 8.998-10.433 23.344-.562.671-1.013 1.476-1.142 2.403-.369 1.108-.312 2.254-.31 2.302l.035.656.656-.004s36.232-.167 40.38-.112c.332.005 33.445.458 53.067.458h.004c10.565 0 13.61-.085 14.583-.332 4.342 0 32.562.067 32.562.067l.69.001v-2.002h.003l-.002-.724zm-36.147 1.512c-2.012.056-5.543.1-11.688.1h-.004c-18.893 0-50.29-.42-52.87-.455-7.07-3.956-7.807-6.162-7.79-6.928a1.1 1.1 0 0 1 .312-.738c.054-.046.101-.09.164-.136 6.783 1.894 14.453 2.894 22.205 2.894 5.38 0 10.583-.491 15.304-1.353 3.511-.64 6.743-1.49 9.574-2.508.405-.145.818-.288 1.206-.44 3.702-1.455 6.582-3.214 8.35-5.163.003-.313.006-.635 0-.979v-.015l-.001-.05c-.006-.373-.012-.747-.022-1.16l-.001-.059c-.047-2.052-.101-4.598.161-7.865l.032-.387.347-.174c.131-.065.215-.121.321-.183V175.468c0 .017.046-.008.11-.05.176-.114.561-.422 1.049-.828l.634.242c-.236.241-.59.53-1.149.842-.225 3.044-.171 5.45-.127 7.4v.005c.084 3.738.117 6.206-1.976 8.76-.24.028-.487.043-.735.055-.076.004-.148.015-.225.017-.115.004-.22.025-.337.025l-.426-.009-.231-.005-.107-.002-.154.26-.053.087c-.155.262-.176.553-.122.841.015.08.006.161.037.24.192.48.71.925 1.57 1.378.701.404 1.733.811 3.147 1.267 1.74.584 3.978 1.232 6.768 2.014l1.356.382c1.91.562 3.896 1.162 5.371 1.653zm34.704-19.032.063 16.882v.038c-.479.013-1.2.026-2.106.026-5.741 0-19.254-.553-25.07-5.398-.254-.211-.51-.422-.732-.65-.017-.017-.038-.03-.054-.048-.58-.58-1.074-1.218-1.596-1.894-1.172-1.516-2.5-3.235-5.163-4.615l-.142-.055c-1.9-.498-2.762-2.09-2.61-3.337.157-1.292 1.274-2.078 3.035-2.103 2.55-.207 4.186-.941 4.862-2.183.143-.264.228-.531.28-.798.142-.715.006-1.423-.2-2.004l.33.065.82.16c14.579 2.841 25.58 5.302 28.283 5.914zm-31.06-6.416c.3.576.773 1.618.337 2.42-.433.797-1.735 1.305-3.717 1.466-1.278.018-2.218.379-2.905.895-.147.11-.286.224-.409.348.328-1.15.464-1.897.47-1.93l.097-.559-2.885-1.104-3.146-1.205-2.943-1.127.306-.24 1.69-1.332c1.739.309 10.398 1.847 13.105 2.368zm31.125 25.282c-4.309-.01-27.463-.064-31.756-.066h-.03c-.353-.209-.82-.422-1.35-.639-1.663-.678-4.088-1.392-6.718-2.132l-1.27-.357c-3.094-.868-7.876-2.21-9.78-3.144a5.165 5.165 0 0 1-.44-.237c.075-.003.147-.014.222-.018 6.876-.425 10.515-6.234 12.29-10.617.01.088.026.176.042.265.274 1.53 1.423 3.102 3.498 3.677 2.35 1.234 3.515 2.742 4.642 4.2.524.678 1.065 1.377 1.696 2.01l.002.003.004.003v.001l.005.004c.24.255.52.496.819.731 6.16 5.182 20.103 5.774 26.016 5.774.901 0 1.62-.013 2.108-.026v.568zm-49.984-68.798.007.21.266 8.35c.203 3.327.203 9.169.203 9.169v1.562l.083-.051c.737-.455 6.383-3.947 7.525-4.771 1.29-.409 1.427-.068 1.766.543.34.612.883 4.755.815 7.47-.067 2.72-.882 6.794-1.834 8.832-.913 1.957-7.44 8.432-7.964 8.95l-.052.05v.646c-.124.838-.407.882-.407.882s-1.155.646-1.12-2.479c-.068-2.275-.543-37.63-.543-38.887v-.04a21.804 21.804 0 0 1 0-.98c.008-.129.025-.281.048-.449.109-1.288.359-1.962.359-1.962l.008-.018.075-.345c.05-.129.09-.252.123-.37.045-.25.087-.571.113-.978-.024-.321-.1-.506-.1-.506s-.582-5.192-14.593-8.326c-4.904-1.018-13.24-1.667-15.745-1.846-.006-.099-.012-.21-.02-.307-.563-8.56-.741-11.25-1.032-12.095l.077-.046c-.005-.008-.493-.856-.493-1.657a29.3 29.3 0 0 0-.014-.429l37.31 4.968.025.176c.37 2.585 2.846 4.827 4.048 5.875-.122 1.44-.141 4.527-.125 11.65l.003 1.367.024.44c-2.81 1.816-8.836 5.402-8.836 5.402zm-127.676 15.94c-1.07.038-3.821.074-6.694-.106-12.461-.323-21.535-1.9-27.25-3.286-4.872-1.182-7.31-2.223-7.31-2.223s.218.068.618.182c1.84.523 7.814 2.083 16.986 3.181 5.51.66 12.168 1.153 19.783 1.15h.34c.397-.001.802-.007 1.204-.01a180.818 180.818 0 0 0 6.104-.156c1.372-.037 2.716-.086 4.038-.143l.518-.024c8.137-.371 15.338-1.124 21.655-2.102 12.515-1.938 21.566-4.75 27.666-7.195l.143-.057c6.823-2.747 9.897-5.014 9.897-5.014s-.089.078-.256.212c-.393.313-1.275.969-2.756 1.847-1.593.943-3.886 2.137-7.006 3.43-3.263 1.354-7.438 2.81-12.684 4.2l-.397.098-.539.134c-10.559 2.559-19.648 3.713-19.648 3.713.003.01.019.016.023.026-6.678.897-14.302 1.593-22.95 1.982l.002.002c.064.054-.273.104-1.487.16zm-34.17-47.249.018-.024c-.568-1.854-1.24-3.696-2.025-5.383a3.22 3.22 0 0 0 .297-.05c.497.84 1.215 2.78 1.939 5.15a10.588 10.588 0 0 0 .463-.711c.047-.082.088-.162.131-.246.1-.191.181-.38.234-.556.091-.308.095-.575-.104-.703.13-.007.415.119.649.264.212.134.383.282.35.362-.023.086-.061.18-.105.277a4.903 4.903 0 0 1-.456.766c-.1.143-.202.277-.3.404l-.152.191c-.06.074-.116.14-.165.199-.12.14-.2.23-.2.23s.083-.095.195-.245a4.463 4.463 0 0 0 .296-.453c.094-.168.18-.36.246-.561.095-.288.148-.595.092-.9a8.591 8.591 0 0 1-.531.874c-.048.07-.097.141-.145.207-.05.072-.1.135-.149.2-.13.17-.245.316-.34.43.263.866.527 1.782.781 2.731a26.18 26.18 0 0 0 .578-1.142c.101-.218.202-.443.294-.666.168-.41.3-.805.358-1.128.058-.325.04-.575-.113-.674.25-.013.716 1.886.647 2.054-.01.035-.03.076-.042.113-.092.261-.263.562-.463.852-.133.194-.271.376-.401.54l-.157.195c-.066.08-.122.147-.17.202l-.145.166s.059-.066.142-.173a4.291 4.291 0 0 0 .312-.461c.129-.221.254-.48.329-.761.066-.247.093-.508.047-.765a8.734 8.734 0 0 1-.54.887c-.052.074-.102.148-.152.215a13.687 13.687 0 0 1-.5.64c.766 2.863 1.433 5.934 1.722 8.35.033-.028.107-.096.223-.206.057-.054.12-.117.187-.185.06-.06.116-.117.181-.185.296-.314.611-.697.773-1.038.126-.267.16-.507-.002-.66.155.019.392.31.533.565.086.154.145.298.108.355-.01.022-.03.045-.042.067-.108.205-.27.417-.453.623-.297.336-.625.64-.825.812l-.026.022c-.093.082-.159.133-.159.133s.065-.052.16-.133l.024-.024c.215-.191.562-.56.795-1.014.128-.248.23-.513.23-.8a6.878 6.878 0 0 1-.297.357c-.273.308-.56.586-.809.81-.065.059-.125.11-.184.162a12.287 12.287 0 0 1-.416.344c.034.287.058.555.081.821-.085.027-.167.056-.252.082-.271-1.935-1.059-6.88-2.576-11.827a.453.453 0 0 0-.02.022zm-3.054-12.019.302-.214c.04-.034.059-.073.118-.1l.015.006.237.086.236.086.94.344.48.17.237.085c1.5.534 3.261 1.155 3.425 1.227a.423.423 0 0 0-.105.182c-.023.072-.029.143-.023.207.015.125.059.222.059.222s2.907 5.574 3.488 6.69a10.23 10.23 0 0 1-1.91.187 5.638 5.638 0 0 1-2.487-.57c-.193-.092-.336-.185-.492-.278a5.169 5.169 0 0 1-.615-.42c-.368-.3-.55-.535-.55-.535l-.86-1.58-.125-.227-.025-.046-.04.032-.003.003-.15.121-.005.003-.064-.154-.078-.185-2.005-5.342zm5.392-6.322-.016-.012.016.01c.082.056 1.362.87 3.88-.457-.32.207-2.507 1.309-3.434 1.054-.187-.418-.403-.568-.446-.595zm-5.563-30.668c.654-3.391.321-5.292.033-6.173.072.016.149.025.232.025.273 0 .558-.105.852-.291.032.399.001 1.058-.036 1.842-.117 2.487-.336 7.117.835 13.898.937 4.824 2.642 9.425 3.86 12.345-.154.109-.42.158-.804.24.386.013.655-.066.86-.107a61.598 61.598 0 0 0 1.242 2.789c-.584.204-1.47.47-2.132.47-.244 0-.55-.038-.671-.216a23.095 23.095 0 0 1-.066-.537l-.002-.014-.02-.183a41.837 41.837 0 0 1-.136-1.565l-.014-.06c-.05-.135-5.096-13.665-4.033-22.463zm4.865 4.834c.497-1.655 9.627-24.124 19.93-34.98.702-.746 1.398-.857 1.75-.857.16 0 .257.023.287.027l34.685 2.489c-7.659 7.914-24.332 39.391-24.49 39.695a3.975 3.975 0 0 0-.451.969 2.906 2.906 0 0 0-.137 1.073c-.772.03-4.677-.022-17.594-2.506l-.016.09c-8.718-1.955-13.27-3.81-13.339-3.838a1.063 1.063 0 0 1-.602-.503c-.225-.4-.233-.96-.023-1.659zm58.714-33.026c-1.905 2.593-16.149 22.174-26.565 41.814-.012.002-.034.002-.05.003-.04-.084-.099-.16-.123-.252 10.66-20.095 24.913-39.928 26.183-41.685.184.036.368.073.555.12zm.892.264c-1.914 2.575-16.347 22.186-26.77 41.84a4.56 4.56 0 0 1-.363.022l-.1.001.029-.053.01-.018c10.587-19.986 25.16-39.925 26.657-41.957.181.051.359.106.537.165zm.925.34c-1.909 2.591-16.544 22.647-26.979 42.312l-.018.034-.08-.003a15.523 15.523 0 0 1-.777-.055c-1.68-.15-6.034-.7-16.39-2.69l-.04-.011-.01-.01c6.663 1.27 10.736 1.851 13.189 2.105.37.038.703.069 1.003.094a24.42 24.42 0 0 0 1.69.09l.143.002.1-.002c.125-.001.228-.004.31-.009.107-.006.185-.012.233-.018l.081-.013.078-.017.036-.07c10.568-19.947 25.285-39.864 26.849-41.962.2.07.392.146.582.222zm2.416 1.293c.047.03.074.05.115.077-1.881 2.554-16.572 22.68-27.023 42.393-.04.013-.111.033-.23.054a92.92 92.92 0 0 0-.294-.19c10.684-20.169 25.824-40.778 27.124-42.538.109.072.22.147.308.204zm.48.39c.024.118-.15.39-.354.698-1.84 2.38-3.79 5.106-5.761 7.997a324.742 324.742 0 0 0-5.833 8.88c-7.495 11.796-14.106 23.514-14.956 25.028l-.328-.217a.393.393 0 0 0 .062-.028l.058-.063c10.434-19.696 25.125-39.824 27.02-42.398.037.035.086.073.092.103zm-29.294 41.477.11-.013.081-.016.022-.041.017-.032.059-.11.616.453a11.683 11.683 0 0 1-.519 0c-1.57-.035-5.878-.381-16.51-2.426l-.125-.032c10.428 1.972 14.39 2.235 15.735 2.235.264 0 .42-.01.513-.018zm-2.253-1.938-.1.002h-.08l-.187-.001h-.014c.02-.014.034-.026.051-.04h.012c.05-.002.093-.002.124-.005l.096-.008.059-.007.01-.001.02-.003.03-.056.155.113c-.047.003-.106.004-.176.006zm-.676-.008a29.427 29.427 0 0 1-1.48-.097c.715.055 1.2.07 1.521.072l-.04.025zm-12.887.169c10.97 2.098 15.073 2.37 16.45 2.37.12 0 .217-.002.298-.006.155-.006.244-.014.288-.02l.038-.005.068-.013.179.131c-.03.004-.059.008-.093.011a6.638 6.638 0 0 1-.283.022c-1.456.082-5.363-.093-15.47-2.036-.027-.008-.522-.142-1.327-.364-.048-.03-.103-.06-.148-.09zm17.987 3.171c-1.089.068-5.54.146-14.73-2.032 7.55 1.394 11.259 1.7 13.053 1.7a9.29 9.29 0 0 0 1.09-.053 3.532 3.532 0 0 0 .3-.05l.565.413s-.095.01-.278.022zm-1.055-1.163a2.099 2.099 0 0 1-.093.005 82.581 82.581 0 0 0-.727-.459c10.92-20.577 26.789-41.365 27.494-42.286.159.087.298.17.426.252-1.385 1.873-16.44 22.386-27.1 42.488zm26.365-42.903c-1.164 1.523-16.713 21.99-27.474 42.255a.091.091 0 0 1-.006.012l-.032.06a5.206 5.206 0 0 1-.508.015c-1.353-.006-5.5-.279-16.516-2.39a7.766 7.766 0 0 1-.45-.429c12.055 2.31 15.778 2.633 16.727 2.674.102.004.182.006.227.006h.064l.047-.002.05-.003.046-.087.023-.042.021-.04c10.548-19.89 25.405-40.186 27.027-42.384.271.117.52.236.754.355zm-29.666 39.795-.006.011a2.26 2.26 0 0 1 .03-.166c.01-.047.017-.09.03-.138.147-.557.441-.997.453-1.015.08-.15 3.787-7.15 8.487-15.353 2.343-4.089 4.93-8.47 7.441-12.458 1.644-2.61 3.252-5.049 4.736-7.12.977-1.365 1.897-2.56 2.739-3.55.434-.51.85-.976 1.238-1.364l.012.002c.218.01.446.036.678.072-1.777 2.465-15.432 21.58-25.838 41.08zm-14.452 6.287c2.216.388 5.11-.22 6.1-.456.224-.053.352-.088.352-.088l-.078-.034.184.045c4.755 1.179 7.073 1.562 18.173 3.626.03.005.06.01.09.017l.161.03.286.052-.303.17c-.028 2.118 3.298 1.473 4.208 1.255.384-.23.792-.47 1.216-.717 1.092-.71 2.843-1.792 3.997-2.217l-.053.052c-.325.328-.666.7-1.05 1.186-.318.388-.723.844-1.184 1.342-.997 1.074-2.266 2.351-3.55 3.622-2.7 2.671-5.461 5.303-5.862 5.903l-.012.021c-.865.5-1.838 1.071-2.845 1.668a778.564 778.564 0 0 0-7.537 4.541c.115-.124.2-.245.305-.371.2-.21.387-.426.535-.65a1.5 1.5 0 0 0 .123-.542 1.493 1.493 0 0 0-.009-.119c-.004-.067-.027-.127-.042-.19l.008-.001.205-.027c0-.02-.038-1.917-2.813-1.917-2.51 0-6.44 1.528-11.667 4.502l.817-.753-.113-.177-.02-.03-.004-.007a4.323 4.323 0 0 1-.083-.146l-.703.648c-.383-.816-.892-1.985-.913-2.286-.004-.065.006-.12.01-.179-.037.023-.07.046-.109.068-.034.02-.07.037-.104.056a5.738 5.738 0 0 1-.204.106c-.646.32-1.348.55-1.348.55s.803-.259 1.355-.81c.09-.09.173-.189.246-.295.036-.054.06-.114.09-.172.034-.063.073-.123.097-.191-.028.018-.057.033-.084.05a.784.784 0 0 1-.035.022c-.082.05-.164.103-.247.151-.89.507-1.837.815-1.837.815s1.363-.55 1.9-1.135c.162-.175.228-.352.18-.52-.002-.008.001-.016-.002-.024-.005-.015.004-.03-.003-.046.078.04.184.173.288.323 0-.383-1.598-3.461-2.696-5.533-.182-.342-.35-.66-.495-.93l.274-.4c.13-.116.246-.231.33-.344.16.298.325.61.494.93 1.273 2.395 2.737 5.171 2.86 5.467l-.002-.008-.046-.156.139-.082.01-.005.007-.003a1.56 1.56 0 0 1 .186-.089c-.4-.814-1.97-3.777-2.872-5.475l-.236-.445-.367-.689c-.005-.023-.001-.047-.011-.068-.018-.043-.052-.077-.085-.111l-.074-.142-.039.056c-.4-.231-1.285-.149-2.215.248-.976.418-1.67 1.039-1.728 1.496l-.02-.006.014.047a.395.395 0 0 0 .028.173c.008.021.029.036.041.055l.025.083c.09.298.468 1.545.898 2.945-.1-.041-.298-.084-.655-.099-.01 0-.016 0-.027-.002-.01-.023-.018-.046-.027-.07-.547-1.43-1.2-3.128-1.332-3.46-.46-1.087-.051-1.138-.561-2.157-.11-.218-1.69-3.06-2.096-3.787l-.082-.147c.02.051.043.098.055.164-.023.663-1.009 1.413-2.22 1.945h-.002c-1.462.642-3.243.954-4.07.41l-.004-.016c-.057-.207-.09-.33-.093-.334v-.004l-.082-.297c.046-.067.098-.127.141-.17l.01.072a.364.364 0 0 0-.007.272c.038.102.14.198.328.283l.012.005c.058.026.105.053.18.076.088.037.3.05.561.047.008 0 .012.004.02.004.023 0 .05-.004.073-.005.572-.018 1.411-.145 2.278-.434l.033.067.293-.114c.286-.112 1.245-.5 1.544-.8l.168-.167-.04-.09c.158-.142.32-.28.452-.444.24-.353.242-.58.142-.729-.01-.007-.017-.022-.027-.029-.003-.005-.009-.007-.012-.011-.008-.01-.018-.017-.027-.025a.761.761 0 0 0-.347-.168c-.293-.462-.866-1.291-1.244-1.682l-.025-.066c12.17-4.053 11.445-2.249 14.158-1.773zm9.512 24.248c-.199.151-.352.27-.395.306-.49.554-.223 1.255-.037 1.506 0 0 3.077 7.443 3.578 8.659-.073.022-.221.05-.51.05-.693 0-1.644-.16-1.683-.164-.01 0-.232-.017-.418-.352-.194-.35-2.523-5.954-3.791-9.016-.019-.043-.038-.091-.055-.133-.021-.031-.094-.174-.07-.288.008-.034.027-.086.127-.151.004-.003.023-.015.027-.02.15-.114 1.043-.735 2.003-1.403a364.67 364.67 0 0 0 3.244-2.272c.137-.098.434-.29.83-.537.983-.617 2.651-1.629 4.5-2.734l.447-.266a479.066 479.066 0 0 1 5.094-2.997l.203-.118c.415-.24.814-.469 1.172-.672l-1.164.862-.216.16c-3.859 2.857-11.128 8.243-12.886 9.58zm58.787-1.147c-.017 0-.031 0-.048.002a3.255 3.255 0 0 0-.369-.002c-.179.01-1.901.074-2.541-.66h-.001c.043-.008.088-.014.127-.022.14-.033.306-.104.457-.222.223-.175.4-.452.333-.887.004.008.01.014.014.023.007.013.016.023.023.036.362.663.967.967 1.554.761l-.116-.61.226-.277a5.44 5.44 0 0 0-.378.399 1.258 1.258 0 0 1-.613-.32 5.552 5.552 0 0 0-.09-.602c.346.14.788.292 1.261.361.224-.177.685-.461 1.446-.654.116-.368-.017-.752-.202-1.007l-.137-.188-.223-.067c-.003 0-.046-.014-.12-.041.187-.018.376-.041.565-.072.166-.016.346-.045.537-.078.481-.082 1.022-.193 1.555.044-.163.272-.372.684-.255 1.221h-.017c.252.003.53.043.796.067l.082.007c.214.021.412.018.634.053.077.012.13.036.201.051.02.004.037.01.057.015.359.084.65.19.869.306.644-.43.969-.87 1.208-1.198.149-.203.237-.32.321-.357.005-.002.122-.049.504-.049.267 0 .574.023.877.055-.564.158-1.124.332-1.624.558-.492.317-.567.774-.472 1.097.15.507.768.808 1.36.71a.767.767 0 0 0 .048.13l-.494-.002c-.363-.001-.42-.001-.603-.074a9.3 9.3 0 0 0-.183-.152c-.123-.103-.263-.218-.42-.367l-.005-.001.072.065.516.569-.353.257c.777.279 1.855.358 2.562.374.41.008.703.001.703.001-.01.007-.023.011-.03.019-.435.353-1.148.568-1.906.689a11.347 11.347 0 0 1-2.41.112c-.315-.021-.562-.054-.652-.095-.045-.027-.074-.034-.114-.056a1.978 1.978 0 0 0-.168-.083c-.416-.182-.602-.063-.837.158-.009.008-.02.017-.028.026-.25.236-.598.55-1.37.703-.024.004-.041.012-.067.016-.02 0-.044.002-.064 0 .011-.002.039-.002.046-.006.008-.004.003-.01.01-.014.278-.191-.594-.52-1.496-.661a5.66 5.66 0 0 0-.546-.059l-.012-.002zm8.683-7.796c.132-.035.902.174 1.826.446a.43.43 0 0 0 .012.004c1.417.419 3.193.985 3.624 1.057.628.122 1.07-.007 1.377-.182.264-.15.422-.327.492-.425l.047-.067.003-.006s.476.577 1.052.425c.783-.289 1.105.288 1.105.288s.152.985 3.702 1.613c.296.022.874.063 1.335.09.279.017.515.03.617.03.16-.01.29.003.403.028.029.007.053.018.079.026.04.013.073.032.108.049.432.206.55.685 1.123.987.015.008.035.014.05.021.26.127.606.218 1.116.23a140.194 140.194 0 0 0-1.799.295c.13.075.279.144.46.196l.04.01c.059.016.12.027.18.04-4.081.732-10.94 1.778-13.184 2.112l-.045-.055-.478-.594-.018-.027a3.482 3.482 0 0 1-.256-.426 42.873 42.873 0 0 0 1.642-.193c1.885-.254 2.598-1.154 3.549-1.307.541-.092 1.895.397 2.72.724.392.155.675.277.675.277l2.736-.45.01-.014a.94.94 0 0 0 .167-.398.344.344 0 0 0-.018-.16c-.004-.011-.005-.024-.01-.036-.01-.021-.033-.039-.05-.058-.02-.02-.034-.041-.06-.059a.645.645 0 0 0-.21-.08c-.187-.032-.353-.06-.521-.087-1.798-.297-2.593-.395-3.036-.419l.016-.192c.008-.11-.01-.313-.12-.548-.162-.348-.563-.772-1.454-1.128-.07-.029-.137-.057-.214-.084a7.864 7.864 0 0 0-1.108-.307l-.171-.016c-.094 0-.19.03-.285.058-.334.101-.663.349-.953.64 0-.23-.218-.44-.9-.552-.947-.283-5.912-.886-6.614-.732-.006.002-.018.003-.025.004.476-.917.93-.957 1.263-1.047zm-9.469-5.189-.02-.018c.019-.601.03-1.624.036-2.4-.51 1.177-.658 2.378-.686 2.67l-.006-.002.008-.567c.014-.96.04-2.73.064-3.289.042-.24.054-.448.078-.631.039-.308.12-.53.435-.66.014-.005.026-.012.04-.018a1.69 1.69 0 0 1 .351-.082l.125-.002c.57-.017 1.408-.03 2.432.084-.004 0-.007.002-.011.003a3 3 0 0 0-.462.104c-.23.067-.444.156-.642.27a3.118 3.118 0 0 0-.416.281c1.574.024 3.881.115 3.892.115.036.002 1.625.115 3.73.324-2.232-.485-4.605-.677-4.29-.694 3.939.136 8.531.896 11.35 1.54-3.196-.497-3.828-.661-3.99-.233-.036.1-.048.231-.061.397-.022.653-.097 1.656-.1 2.643.03-.97-.016-2.13-.29-2.668a1.96 1.96 0 0 0-.11.738l-.24 5.913c-.47-.342-1.222-.688-2.47-.688-.253 0-.53.013-.752.041-4.876-.067-6.355-1.567-7.334-2.56a6.233 6.233 0 0 0-.661-.61zm10.828-5.454c1.705.026 5.65.325 7.263.451-.003.12-.001.251.006.392l.066.26c.13.273.36.51.628.728-.154-.044-.305-.091-.46-.134-2.915-.812-8.13-1.349-11.006-1.598 1.145-.135 1.524-.13 3.503-.099zm14.777 2.236L220 38.4c.011-.18.247-4.456-1.01-6.776-.728-1.345-1.794-1.505-2.824-1.66-1.042-.155-2.217-.332-3.634-1.753-.166-1.661-1.14-3.123-3.03-4.528.78-.32 1.718-.483 2.801-.483 1.844 0 3.44.485 3.517.506.153.034 3.77.902 4.321 7.26.084 5.697-.329 40.17-.397 45.729v.026l-.779-.056v-.025zm3.274.126.354.105c.379.112.77.228 1.311.425 2.127.635 3.75 1.396 5.01 2.127a34.41 34.41 0 0 1 3.28 2.464c-.148.005-.3.02-.404.047-1.455.08-6.146.507-7.494.631-.689-.853-1.442-1.605-2.493-2.322-.05-.039-.094-.078-.147-.116.39-.801.283-1.706.034-2.407.31-.27.48-.614.55-.954zm9.719 3.055c11.706 1.451 55.41 6.737 67.717 8.224-.682.408-1.426.981-2.19 1.786-.485.28-2.228.84-8.39.84-4.091 0-9.046-.243-13.958-.615-2.638-.2-5.26-.436-7.733-.695-5.716-.598-10.626-1.307-12.992-1.924a1.339 1.339 0 0 0-.04-.052c-.336-.409-1.358-1.65-19.868-3.217l-.017-.002c-.2-1.74-.325-2.271-.591-2.55-.355-.393-1.152-1.084-2.092-1.813l.154.018zm71.986 30.413c-1.261-.165-2.898-.458-3.804-.625l-.184-.034-.004-.043c-.308-2.937-1.516-17.162 3.402-21.043l.24.03v-.03c.857.114 1.474.186 1.954.242.34.04.613.072.865.106-.77 1.128-1.329 2.994-1.734 5.047-.663 2.703-.958 5.36-.958 5.36s-.291 3.62-.11 6.893c.016 2.007.148 3.288.333 4.097zm-66.694 23.511c.069.312.077.765-.089 1.182.014.53.026 1.055.035 1.564-3.522 1.673-11.504 4.232-12.479 4.544-.476.19-.81.302-1.039.366l.029-1.94c-.266-.282-.397-.695-.39-1.268.006-.504.063-4.225.136-8.938l.107-6.96.111-3.771-.039-.117-.01-.032.099-6.613.155-5.588a1.87 1.87 0 0 1 .145-.358l.172-.03.929-.16 9.04-1.566a1.69 1.69 0 0 0 1.044-.51c.02-.021.042-.031.062-.054.023-.028.037-.06.058-.09.398.282.648.699.754.991l.004.021.037.188.022.558 1.107 28.581zM105.705 94.25l-.075-.173a7.38 7.38 0 0 1 .086-.009l.066-.007.084-.01-.098.121-.063.078zm2.788 2.483c1.165.551 2.41.834 4.714.406.201-.037.415-.278.566-.487.265.282.736.73 1.134.824l1.279 2.808.1.022.117.024c.21 1.48.265 1.587.301 1.649a.685.685 0 0 0 .209.214c.035.296.104.88.122 1.115l.01.138.102.092c.055.05.107.09.153.123l.112 1.389.133.093c.044.03.107.07.181.104a42 42 0 0 1 .226 1.229l.03.093a.506.506 0 0 0 .294.245c.067.436.191 1.265.191 1.265l.023.15.126.086c.016.01.048.03.095.05.007.205.027.468.048.718a111.944 111.944 0 0 0-6.868 1.718c-.224-1.885-1.096-8.076-3.456-14.101.022.01.035.022.058.033zm-.512-18.606c1.037 4.072 3.081 2.795 4.214 2.523-.99.416-2.713 1.038-3.288.335-.144-.223-.894-2.65-.926-2.858zm6.107-3.131c.542.948 1.729 3.054 1.667 3.228a1.44 1.44 0 0 1-.218.388c-.094.122-.215.25-.388.377.18-.422-.046-1.316-.36-2.194a86.113 86.113 0 0 1-.422-1.072c-.29-.68-.544-1.187-.544-1.187l.265.46zm1.763 4.25.343.88 1.838 4.713.277.712s-.01.042-.03.1a1.21 1.21 0 0 1-.496.634c-.111-.239-2.538-5.922-2.65-6.337-.112-.415-.032-.607-.032-.607s.228-.136.524-.524a3.64 3.64 0 0 0 .226-.322c-.143.335 0 .75 0 .75zm1.643.844c.004.057.04.087.055.133a.47.47 0 0 0 .28.29l.224.062c.117.013.24.02.38.004.577-.06 1.3-.333 1.878-.64.154-.082.292-.162.417-.244.07-.046.15-.092.208-.137-.068.052-.14.09-.21.14-.143.099-.286.2-.433.283-.658.372-1.326.577-1.852.625-.083.008-.162.01-.236.01-.214-.002-.389-.035-.513-.105a.347.347 0 0 1-.186-.3c-.003-.04-.023-.073-.012-.12zm3.71-1.32-.003.014c-.008.05-.013.1-.04.163 0-.01-.007-.011-.007-.02-.001-.06-.037-.092-.055-.14-.323-.822-3.155.296-3.452 1.374-.001.006-.007.011-.009.017-.002-.01.002-.019.002-.027-.002-.006 0-.012 0-.017-.107-1.068 3.38-2.342 3.56-1.495.009.04.011.082.005.131zm3.427 23.424.055.036c.042.028 1.025.652 2.175.897.028.22.078.63.09.745l.013.118.108.049c.05.021.096.038.14.05-.094.919-.064.979-.037 1.032l.05.066a.493.493 0 0 0 .27.106c-.01.29-.028.7-.044.823l.013.234h.235c.034 0 .066-.001.095-.004-.042.53-.06.824-.054.879l.017.158.157.025c.03.004.06.007.088.008l-.001.005c-.616.09-1.228.182-1.835.278a1.753 1.753 0 0 0-.102-.19c.113-.147.133-.237.133-.237s-.414-.949-.586-1.2c.152-.084.153-.17.153-.17s-.556-1.07-.708-1.301c.113-.07.167-.225.167-.225s-.366-.818-.473-1.01c.086-.036.181-.22.181-.22l-.645-1.343s.056-.067.117-.167l.228.558zm29.704 4.844c17.377 0 31.525 2.061 34.447 2.518.036 2.643-.495 13.822-11.834 16.719-.627-.191-1.56-.383-2.735-.567.25.139.502.28.778.44a37.983 37.983 0 0 0-3.466-.795c-1.536-.17-3.31-.324-5.277-.449a175.478 175.478 0 0 0-11.014-.332c-12.5 0-43.225 1.303-58.959 13.356-.364-.053-1.122-.316-2.053-.756-2.631-1.245-6.67-3.937-7.331-7.554-.925-5.058 5.373-10.296 18.21-15.146 13.155-4.933 29.72-7.434 49.234-7.434zm13.113 36.005-.144.018c-.234-.42-.893-.861-1.849-1.253-2.92-.867-4.977.423-4.977.423s1.338-1.413-6.37-.729c-1.838.607-3.572 1.587-4.957 3.14l-.111.008c-.901.058-1.834.115-2.793.173l-.026.001c-1.633.099-3.345.197-5.157.294-1.348.02-2.65.023-3.923.018h-.325c8.237-3.756 13.169-3.641 13.169-3.641l.081-.037c7.372-4.32 17.801-1.264 20.005 1.24l-.154.022c-.775.108-1.597.216-2.47.323zm-71.052-4.417v-.688h.001l-.001.688zm83.503 1.729c-.184-.076-.45-.212-.746-.363-2.195-1.123-7.338-3.755-19.53-3.755-1.44 0-2.946.038-4.504.112 8.021-3.143 12.526-5.263 15.38-6.606 3.3-1.553 4.383-2.071 6.317-2.061l.077.026.104-.026c.454.01.955.045 1.545.102 7.343.499 16.904 4.84 20.35 6.512-3.022 1.279-10.744 4.345-18.993 6.059zm-63.61-40.842-.407-.893-.584-1.284a.62.62 0 0 0 .042.006l-2.38-5.608-.21-.493h.004l2.534.586-.012-.03 4.163.752c.015.124.058.22.058.22l.249.499a848.463 848.463 0 0 0 3.14 6.263l.08.152-.023.04-.168.04c-.012-.023-.029-.053-.042-.08-.607-1.186-2.627-5.232-3.242-6.465l-.132-.264-3.406-.614.059.14c.62 1.473 2.485 5.89 3.192 7.416.072.154.134.286.18.374h-.024l-.092.003c-.033-.002-.065-.005-.098-.006l-.02-.001a19.237 19.237 0 0 1-2.607-.329c-.038-.024-.068-.044-.089-.061l-.165-.363zm.157-11.533 2.71-2 .12-.088.017.04c.071.179.372.948.638 1.785l-.715-1.727-.015-.035-.043.033-2.75 2.102-2.417 1.846-.709.54-.28.215.114.038-.31-.065.293-.215.736-.543 2.539-1.873.072-.053zm1.62-7.188c.147.48.46 1.48.819 2.577.616 1.89 1.37 4.064 1.654 4.346.206.291.512.517.757.698.128.094.249.183.313.25.079.098.31.68.582 1.422.165.45.345.957.514 1.453l-.076.056-.171.125c-.28-.724-1.019-2.626-1.178-2.876-.102-.16-.29-.285-.49-.417-.214-.143-.456-.305-.554-.494-.104-.2-.76-2.292-1.44-4.508-.278-.903-.56-1.828-.81-2.654l.08.022zm2.801 7.938.046.036c.055.043.114.086.164.131l.027.056a6.655 6.655 0 0 1 .34.764c.068.187.103.313.103.313l-.138.149-1.018 1.096-.758.815-.06-.013-3.395-.709.268-.236.637-.562 2.782-2.457.164-.144.005-.004-.072-.173-.015-.037.005.01c.2.459.586.714.915.965zm2.51 11.273-.15.062.09-.165.06.103zm3.738 3.175c.048.105.117.19.2.262l-.027-.228c.419.072 1.24.197 2.03.227l.054.105.031.16c-.216.03-.47.059-.74.074l.084-.005s-.61.147-1.092.027a1 1 0 0 1-.22-.09c-.03-.015-.065-.024-.092-.044a.607.607 0 0 1-.204-.285.741.741 0 0 1-.047-.207l.023.004zm1.324 4.182.011-.051c.452-.016 1.06-.145 1.561-.276.008.036.018.068.027.102.049.193.1.362.14.484l-1.7.228a.913.913 0 0 1-.14-.038l.1-.45zm1.752-.415-.09.017v.004a7.936 7.936 0 0 1-.84.123c-.267.03-.54.045-.768.03-.243-.018-.433-.069-.488-.185a.62.62 0 0 1-.016-.297c.012-.065.029-.128.05-.204-.033.163.034.27.137.359l.04-.538c.469-.032 1.09-.192 1.565-.336.039.165.129.401.22.616l.098.42.09-.012.064-.01-.062.013zm-2.616-2.246c.014-.206.036-.468.064-.73.486.007 1.16-.107 1.663-.21.033.135.124.332.218.53l.095.458c-.225.046-.48.093-.75.132.195-.019.334-.042.334-.042s-.748.165-1.281.139c-.195-.01-.35-.049-.44-.128l-.011-.01c-.015-.016-.04-.025-.05-.043-.016-.049-.01-.083-.013-.123a.82.82 0 0 1 .046-.333c-.037.166.025.275.125.36zm.2.627a.46.46 0 0 0 .114.432c.013-.275.023-.575.025-.652.491-.014 1.125-.153 1.61-.285.037.148.121.332.217.523l.112.515a8.961 8.961 0 0 1-.601.121c-.192.042-.65.125-1.022.095-.227-.018-.422-.077-.488-.224a.662.662 0 0 1-.022-.24c.007-.092.027-.18.055-.285zm-8.572 3.31c.02.126.096.228.212.308l-.19.04c-.001-.11-.001-.21-.022-.348zm-1.548-6.027-.08-.677-.026-.085c.81-.026 1.815-.23 2.647-.442l.359 1.39.14-.015.201-.025h.004l.262-.036-.26.045-.202.033-.139.022-.28.043c-.7.114-1.497.215-2.078.206a2.836 2.836 0 0 1-.502-.03c-.123-.023-.21-.06-.244-.112-.002-.012-.001-.017-.002-.028-.035-.265-.006-.381-.04-.612.02.136.11.24.24.323zm.382 1.625-.065-.805-.008-.069c.639-.014 1.75-.255 2.616-.467l.347 1.344.176-.03.164-.032c.123-.023.2-.04.2-.04l-.198.047-.162.038-.047.01a8.05 8.05 0 0 1-.127.028c-.71.157-1.95.405-2.641.402-.247 0-.426-.033-.481-.114 0-.002-.002-.002-.002-.002-.044-.29-.007-.399-.044-.64.023.147.125.251.272.33zm.31.642-.003-.014c.633-.033 1.719-.286 2.61-.52l.39 1.506.22-.029.124-.017c.15-.022.265-.04.323-.05l.02-.004.025-.005-.026.006-.17.033-.168.033-.122.023-.219.04.003.005c-.87.166-1.884.32-2.5.284a2.022 2.022 0 0 1-.26-.02c-.123-.022-.208-.056-.243-.11l-.001-.014c-.038-.276-.006-.39-.042-.623.02.124.093.223.206.3-.056-.312-.121-.65-.166-.824zm.7 2.425c-.051-.34-.107-.704-.127-.822l-.002-.013c.612-.04 1.606-.267 2.46-.489l.376 1.455.261-.036.082-.013c.144-.021.26-.04.341-.054l.128-.023-.126.027-.339.068-.08.016-.259.05.001.002c-.29.054-.592.106-.89.15-.535.082-1.085.146-1.477.14-.27-.002-.467-.037-.524-.124-.004-.025-.001-.036-.004-.059-.027-.238-.006-.36-.038-.58a.45.45 0 0 0 .217.305zm2.742.27.22.851c-.867.165-1.723.338-2.57.517-.032-.39-.052-.719-.042-.804v-.101c.578-.028 1.544-.246 2.392-.463zm1.023-7.356c-.442.157-.91.284-1.39.372a8.94 8.94 0 0 1-.434.066c-.089.012-.177.03-.266.039-.12.012-.233.012-.35.018-.089.005-.178.012-.264.015-.029 0-.059.004-.087.004l.145.564.1-.013h.004l.24-.035.187-.03-.186.036-.24.044-.1.018c-.78.139-2.215.366-2.867.291-.143-.016-.247-.047-.298-.098-.007-.007-.02-.011-.025-.019-.005-.035-.003-.05-.005-.08-.003-.023-.003-.04-.005-.059-.012-.182-.004-.31-.032-.5.024.151.133.26.29.345a53.878 53.878 0 0 1-.11-.733c.557.091 1.329.194 2.132.226.15.006.316.002.483-.005.115-.006.234-.014.354-.024.087-.008.174-.014.264-.024.115-.013.229-.027.344-.043l.244-.034a23.847 23.847 0 0 0 1.862-.371c.077-.02.154-.037.204-.05l.127-.033.005-.002c-.04.016-.085.028-.125.045-.066.025-.135.046-.201.07zm13.641-13.858c.672 0 1.156.119 1.505.288a3.188 3.188 0 0 0-.869-.11c-.58 0-1.247.133-1.985.377-.03.01-.056.014-.087.024-.17.058-.357.143-.536.215-.21.083-.417.16-.638.262-.07.032-.14.061-.211.095-1.303.62-2.815 1.568-4.486 2.773-.32.224-.62.443-.9.657a69.509 69.509 0 0 0-2.758 2.187 82.3 82.3 0 0 0-1.31-.227c-.675-.115-1.477-.25-2.116-.368 8.29-5.092 12.4-6.172 14.391-6.172zm-12.973 4.842.969-.743.069.141c-.342.197-.684.394-1.038.602zm-12.994-5.764.974 2.336-1.849 1.437-2.95-1.051 3.825-2.722zm9.06 48.91c5.281-2.755 9.414-3.789 15.154-5.052 5.74-1.263 20.435-2.985 20.435-2.985s1.713-.206 4.619-.304c5.712.135 10.465.512 13.597.959-.918.35-1.973.844-3.44 1.534-3.305 1.555-8.839 4.159-19.544 8.203l.15.658c-7.304.995-14.788 3.301-21 7.578.046.011.107.017.156.027-12.75-.556-20.85-2.323-25.737-3.685 6.973-.16 12.822-5.479 15.61-6.933zm95.983.273c-.199-.086-.387-.178-.596-.258a59.896 59.896 0 0 0-.014-.914c-.057-2.86-.275-8.709-.335-10.272v-.023l-.015-.37c0-.044-.01-.287-.072-.67a9.46 9.46 0 0 0-.494-1.799c-.727-1.931-2.39-4.677-6.227-7.08-2.01-1.523-5.994-3.052-9.531-4.216.304-.04.543-.079.708-.109 18.878 2.674 23.22 9.842 23.291 9.965l.04.07-.602 20.405c-1.108-1.464-3.055-3.39-6.153-4.729zM201.72 87.425s3.062.365 4.058.54c.542.8 2.457.366 2.507.354h.004l.005-.002s.028-.017.073-.048l-.054.08a7.3 7.3 0 0 0-.102.157l-.128.639.232.136-.074.374-.002.01c.479-.274.737-.538 1.249-.789.21-.103.455-.204.792-.302 1.584-.413 2.326-.374 2.419.11-1.435.093-2.214.26-2.76.468-.691.262-1.008.587-1.776.901l-.04.2a9.617 9.617 0 0 1-1.732.517c.095-.152.164-.308.191-.466.04-.226.015-.452-.088-.66a1.21 1.21 0 0 0-.822-.624.8.8 0 0 0 .027-.301c-.07-.773-1.054-.906-1.453-.96-.707-.117-1.699-.249-2.491-.242-.016-.031-.012-.06-.035-.092zm16.1.172a10.216 10.216 0 0 1-1.445-.048c-1.112-.111-2.936-.537-3.257-.982-.347-.794-.934-.961-1.367-.961-.175 0-.353.03-.523.06-.057.011-.11.025-.16.03a6.196 6.196 0 0 1-.203-.078c-.015-.858.002-4.789.017-7.402.01-.209-.037-.426-.114-.635-.042-.115-.08-.232-.149-.332.248.057.483.117.703.178 3.932 1.096 7.742 2.595 9.292 3.666.052.032.09.064.14.097.107.068.2.136.3.205.973.67 1.64 1.35 2.292 2.178l.023.028c.004.018.005.035.008.054.53 3.002.029 4.786-.721 5.225l-.036.02a2.455 2.455 0 0 1-.25.045 6.486 6.486 0 0 1-.898.056c-.598 0-1.153-.062-1.524-.171-.227-.066-.267-.136-.387-.342-.194-.335-.519-.895-1.573-.895l-.168.004zM204.53 108.2c1.774-.23 3.433-.458 4.988-.676l1.075-.152c3.393-.486 6.169-.917 8.092-1.217 1.662-.26 2.864-.447 3.215-.473.07-.005.134-.008.195-.008.226 0 .368.033.418.023l-.294 10.59-.01.356c-2.087-2.163-7.231-6.052-18.535-8.33l.856-.113zm13.025-30.31-.002.056 2.74.196.086.006c.12.334.233.826.091 1.254l-.078-.04c-.915-.495-2.123-1.028-3.51-1.558.228.032.452.061.673.087zm5.049 12.431c.036-.008.067-.024.102-.033.401-.074.601-.176.703-.253 1.337-.836 1.837-3.087 1.4-6.1l-.005-.033c1.687-.155 5.785-.524 7.162-.605.313-.064.533-.018.56.012.033.036.052.15.046.21l-.01.083.01.083c.017.153 1.733 15.32 1.738 18.23.02.17.065.728-.293.777l-10.105 1.746c-.029-.034-.077-.046-.11-.075-.246-.222-.573-.353-1.01-.353-.14 0-.301.011-.525.045-.99.205-5.242.993-11.432 1.889l-.189.028-1.105.157-.471.066c-.933.13-1.898.262-2.9.393l-.272-13.531c4.949-.763 13.2-2.058 16.706-2.736zm12.768 6.98-.224-.023-.04-.004-1.11-11.004.052.005.198.019.502.047-.006-.05-.504-.067-.164-.022c-.058-.414-.04-.446-.047-.693a9.358 9.358 0 0 0-.043-.666l.103.01.5.048c4.81.456 11.314 1.14 16.067 1.882 3.382.529 5.874 1.088 6.234 1.616.058.084.064.167.01.25-.005.002-.018.003-.024.006-.246.12-1.675.043-3.713-.145v.006l.559.16c4.935 1.41 23.68 3.372 35.375 3.372 3.65 0 5.818-.195 7.14-.427.396-.069.722-.141.981-.213l-3.367 4.938s-4.075 5.615-10.235 5.343c-8.252-.25-42.39-3.778-47.77-4.338l-.474-.05zm52.969 23.756c.002.058.004.125.007.168l.034 4.709a2.763 2.763 0 0 1-.701.248 1.783 1.783 0 0 1-.297.03l.08-6.177c-.009-.147-.01-1.409 1.96-2.124-1.07.589-1.115 2.407-1.083 3.146zm-8.9-10.795c-.543-.472-1.675-1.457-2.458-2.55.515.04 1.025.082 1.527.122 6.789.542 12.293.982 15.827 2.456-1.282 2.816-2.75 3.746-4.294 4.724-.657.418-1.264.832-1.816 1.304-.06.036-.132.075-.191.11-1.809 1.098-2.332 1.956-2.52 4.506-.26 1.045-.444 2.287-.537 3.8-1.564-.535-3.451-.976-4.855-1.037-.007-2.717-.022-10.059.12-11.468l.012-.033c.346-.924-.298-1.484-.815-1.934zm16.687 2.534a22.26 22.26 0 0 1-2.553 1.645c.31-.285.61-.6.9-.934a10.215 10.215 0 0 0 1.85-3.085c.153.025.273.043.415.065l.459.072c.074.012.164.027.234.037.26.04.479.07.684.099l.148.021a5.646 5.646 0 0 1-.19.25c-.297.376-.743.848-1.401 1.395-.169.14-.348.284-.546.435zM196.084 94.252c.688.037 1.477.006 2.008-.038l.254 13.219.003.176c-.512.077-1.325.171-2.214.171h-.004l-.003-.178c-.029-2.037-.043-7.698-.044-13.35zm-19.022 12.343c4.762.392 10.544 1.085 16.092 2.31 3.627 1.03 10.984 3.296 13.84 5.46a17.276 17.276 0 0 1 2.712 2.081c.073.069.142.137.21.204 3.139 3.09 3.272 6.008 3.277 6.168l.048 1.288c-.724 2.224-3.387 5.754-12.061 9.8-.256.119-.53.24-.798.36l-.233.106c-1.986-1.027-12.656-6.245-21.34-7.229l.054-.019c.483-.168.946-.351 1.39-.549 9.851-4.405 9.941-15.69 9.894-17.428l-.002-.06a7.195 7.195 0 0 0-.007-.17l-.038-.54-.534-.09c-.085-.015-4.742-.796-12.129-1.502.034.036.022.07-.01.104-.077.083-.234.17.065.307.255.118.873.276 2.142.498.145.025.278.049.442.076l.035.006-.2-.021c-.83-.094-1.608-.177-2.355-.253h-.011a161.603 161.603 0 0 0-5.718-.483 354.31 354.31 0 0 0-6.964-.372l.052-.007c.101-.012.17-.023.256-.034 1.65-.217.685-.305-.308-.46 0 0 .848-.136 5.734.08 1.183.052 2.6.125 4.303.225-.51-.04-1.091-.084-1.74-.13 1.009.058 2.104.132 3.267.223l.172.01.023.005.44.036zm-43.902-4.646-3.766-7.08-3.423-.521c.622 1.496 3.108 7.477 3.653 8.672l-.079.01h-.01l-.034-.002.001.002.032.073c-.037-.002-.066-.005-.101-.006l-.234-.014a16.106 16.106 0 0 1-2.377-.28c-.976-.2-1.513-.443-1.72-.57-.181-.17-.295-.373-.589-1.064-.046-.09-.139-.29-.261-.565-.186-.418-.447-1.019-.74-1.697l-.052-.123-.002.004c-.413-.96-1.957-4.54-2.288-5.356l-.03-.075c-.007-.015 0-.026-.005-.04l-.007-.017.005.001a.443.443 0 0 1-.023-.206c.004-.021 0-.045.006-.065a.554.554 0 0 1 .153-.233c.11-.104.232-.164.232-.164.175.028.875.155 1.785.321a1291.806 1291.806 0 0 1 2.5.46l.02-.017.208-.17 3.409.661 2.955-2.575a1.048 1.048 0 0 1-.067-.405c.009-.57.381-1.58 1.987-3.242.14-.06.273-.114.403-.166-2.462 2.371-2.303 3.359-2.14 3.707.038.081.076.128.08.15-.31.262-.635.545-.815.711l-.094.089-.143.118c-.438.361-1.818 1.508-2.016 1.74-.008.01-.007.02-.015.03a.502.502 0 0 0-.102.27c-.004.051-.01.103-.003.146l.209.032 3.842 7.223c-.05.043-.116.077-.172.117-.056.04-.111.08-.172.116zM110.08 72.156c.35-.037.595-.116.772-.167.352.815.72 1.661 1.128 2.579a7.75 7.75 0 0 1-.692.336l-.136.06c-.683-1.432-3.707-8.01-5.069-15.027a66.257 66.257 0 0 1-.392-2.582 59.59 59.59 0 0 1-.4-3.975 54.926 54.926 0 0 1-.12-3.14c-.019-1.69.04-3.049.088-4.044.051-1.095.084-1.78-.004-2.215.026-.027.04-.048.065-.075.017-.016.027-.03.043-.047.058-.063.107-.121.16-.18.063-.075.143-.156.198-.225a48.553 48.553 0 0 0-.36 4.552c-.028.85-.035 1.686-.022 2.506.017 1.122.069 2.198.15 3.217.114 1.42.276 2.729.482 3.823l.056.327c.328 1.942.82 4.805 4.757 13.954-.172.139-.436.238-.71.31l-.102.027c.04-.003.07-.01.108-.014zm90.602-40.47c-1.004.447-6.62.392-7.11-.696.22-2.411.785-2.912.785-2.912s-.685 1.537-.073 2.369c.44.6 3.3.266 4.937-1.148 1.636-1.414 2.666-4.607 3.329-5.626 3.364-3.182 6.095-2.79 7.642-2.583.154.02.3.039.43.052.213.023.393.03.538.006-1.22.211-2.306.561-3.315.99-1.343.57-2.508 1.32-3.484 2.255-1.885 1.805-3.113 4.252-3.68 7.294zm13.01-1.744c-.057-.03-.112-.054-.17-.087a5.613 5.613 0 0 0-.525-.212c.086.002.154.021.238.026.011 0 .02.003.032.003 1.557.088 2.745.516 3.614 1.105.012.008.021.018.033.026 1.416.976 2.01 2.34 2.053 3.202.028.602.02 8.424-.001 17.258l-.022 8.494c-.021 7.724-.044 14.705-.05 16.876l-.003.688v.028l-.195-.045-.431-.101h-.001l-.685-.16-2.4-.56v-.413c.004-4.181.05-39.536.114-41.261-.029-1.063.373-2.483-.264-3.647-.251-.46-.668-.879-1.338-1.22zM158.934 89.49c1.008.156 4.15.64 5.364.791l.153.007c.627 0 1.001-.265 1.205-.486.452-.494.421-1.137.413-1.198.013-4.031.897-14.705 4.758-16.11.554.017 1 .035 1.358.05-1.602 1.732-4.166 5.507-3.733 11.631.293 3.54 1.299 4.777 2.013 5.206l-.174 3.739-13.901-1.42 2.544-2.21zm5.777-1.828-3.928-.314c1.753-1.632 3.245-3.173 4.276-4.51a54.275 54.275 0 0 0-.348 4.824zm-16.379 9.51 5.197-4.38 1.099-.925.466.047.387.04 15.469 1.58.087-1.628.16-2.935.04-.745c.07-1.301.121-2.217.121-2.217s.208-.784 1.184-1.093c.07-.022.134-.049.212-.065.297.633.872 1.244 1.65 1.83l.034.018c-.07-.271.022-1.063 2.15-.678 1.608.249 2.853-.068 2.853-.068s5.367-1.132 5.798-1.246c1.029-.111 1.194-.655 1.198-.665v-.004c.072-.485.838-.485.838-.485s.19.033.407.104l.012.002.006.004c.108.036.22.08.323.138.475.294 1.268.158 1.268.158s1.45-.339 2.241-.587c.218-.07.424-.118.623-.156.391-.358.834-.646 1.93-.691.078.007.148.027.225.036.18.023.357.055.533.087-.273-.207-.516-.536-.645-1.06a3.031 3.031 0 0 1-.04-.206c-.012-.065-.031-.119-.039-.19.742 1.228 2.294 1.314 2.294 1.314s1.945.75 4.855.685c1.358.113 2.268.36 2.694.687.356.272.605.649.657.731l.022.033-.08-.066c-.173-.14-.713-.51-1.731-.57-.14.013-.343 0-.601.058-.002 0-.003 0-.005.002-.196.044-.429.144-.695.329-.036.025-.065.034-.102.063-.386.34-.685.806-.798 1.145-.113.34-.174 1.105-.22 1.241-.014.031-.048.04-.067.066l-.001.003c-.036.332-.046.58-.046.58s-.029.28-.157.644c-.095.11-.189.222-.267.33-.222.301-.45.614-.969.936a.838.838 0 0 1-.241.073c-.023-.007-.042-.016-.062-.026l.033-.052c.143-.232.36-.581.242-1.023-.002-.009-.008-.015-.01-.024h-.001l.023-.025c.27-.287.526-.513.584-1.07.017-.156.036-.284.054-.413l.012-.084c-.001-.022-.02-.033-.017-.057.007-.04.02-.096.027-.138.036-.198.087-.417.151-.657.002-.013.008-.037.008-.045.054-.184-4.822.475-6.135.045-1.54-.53-1.397-1.426-1.236-1.833a1.13 1.13 0 0 1 .084-.175l.022-.038s-.333.182-.879.338a5.455 5.455 0 0 1-2.066.19c.088.084.204.157.318.231.092.061.21.133.346.211.455.271.982.592 1.39 1.22.096.186.174.35.252.516l-.723-.387.565 1.655c.13.38.338.708.585.99-.054-.002-.101.027-.154.033-.306-.203-.557-.39-.794-.57-.197-.15-.387-.298-.589-.448-.027-.024-.062-.05-.088-.074l-.058-.053c-.046-.04-.093-.08-.13-.12-.022-.023-.049-.045-.067-.068-.021-.026-.035-.052-.053-.078-.041-.051-.067-.098-.1-.147l-.034-.062a3.95 3.95 0 0 1-.163-.38 3.135 3.135 0 0 0-.246-.504c-.179-.295-.46-.606-1.05-.945-.95-.589-1.381-.883-1.381-.883l-.023.042c-.012.027-.044.065-.087.12-.028.038-.088.09-.127.136-.145.138-.382.306-.785.472-2.513.498-6.107 1.185-6.107 1.185a15.306 15.306 0 0 0 .22.045c.373.077 1.141.24 1.625.372 1.092.245 2.429.713 2.729.966l.018.013a.742.742 0 0 1 .2.247.764.764 0 0 1 .078.237.35.35 0 0 1-.015.147c-.005.012-.012.02-.017.031a.203.203 0 0 1-.068.076c-.1.066-.277.065-.562-.082-.68-.249-1.947-.543-1.947-.543s-3.78-.892-4.798-.937c-.747-.023-.816.896-.34 1.055h.008c.01.003.024 0 .034.002.02.004.042.005.066.004a7.788 7.788 0 0 1 2.215-.115c1.022.088 1.85.335 2.32.49l.154.05c.109.043.202.089.297.134l.024.005.025.017c.895.435 1.182.92 1.23 1.016.275.358.394.573 1.25.604.848.098 3.644.018 4.74.234l.03.007c.147.031.266.067.336.11.567.385.243.516-.232.471-.587-.023-5.272-.14-5.32-.141l.147.044.058.017a127.83 127.83 0 0 0 .026.008c4.251 1.24 8.363 2.078 9.982 2.37.37.067.608.104.69.112l.009.001v.008c.018 1.565.062 10.996.062 14.016 0 .311 0 .53-.002.69l-.001.188a6.438 6.438 0 0 1-.693-.067c-1.023-.139-2.5-.452-2.684-.492l-.045-.01v-.002l.002-.088.014-.694.222-11.477s.271-1.935-1.8-2.65c-7.438-1.833-9.374-2.376-15.623-5.467-.51-.204-1.12-.011-1.257.917-.13 2.697-.36 12.424-.363 12.578.6.484 3.448 2.681 7.123 3.825 4.248 1.324 8.966 2.44 10.84 2.869l-.115.557c-12.07-2.332-24.379-2.575-24.379-2.575s-4.013-.072-9.388.005c-.983-.013-1.976-.022-2.982-.022-8.152 0-15.788.442-22.893 1.305a1.843 1.843 0 0 0-.152-.287c.17-.102.196-.22.196-.22s-.464-.794-.532-.895c.215-.114.272-.238.272-.238s-.405-.801-.464-.894a.436.436 0 0 0 .248-.148l-.369-.899-.046-.11a11.457 11.457 0 0 0 1.965-.563c.001 0 .004 0 .006-.002.085-.034.148-.066.221-.1a6.29 6.29 0 0 0 .275-.13c.27-.145.404-.247.433-.27.066-.044.143-.08.203-.126.031-.024.072-.044.102-.07l-.034-.04c.23-.22.417-.462.537-.639.623 1.485 1.137 2.695 1.23 2.863.25.448.613.565.741.562.04.007.994.167 1.723.167.418 0 .857-.041.954-.342l.023-.072-.03-.07-.017-.041c.852-.592 5.024-3.507 9.893-7.2l-.488-.026zm37.986-3.068c0 .603-.732 11.452-.732 11.452s-2.497-.517-4.736-1.206c-1.58-.486-3.875-1.636-3.875-1.636l.732-11.537s.215-.732 1.076-.646c.861.086 6.76 2.368 6.76 2.368s.774.602.774 1.205zm-81.391-53.02s.577-.674 1.215-.51c.32.086.27.525.17.884-.072.265-.17.487-.17.487s-.368.682-.61.974c-.015.017-.032.045-.046.06.018-.024.03-.043.045-.066.218-.298.362-.547.451-.755.025-.06.053-.12.07-.174.073-.24.055-.409-.027-.52-.28-.38-1.303-.058-1.863.514.221-.286.765-.893.765-.893zm-3.37 36.283a2.974 2.974 0 0 1 1.249-.307c.023 0 .044-.008.067-.008.627 0 1.056.204 1.074.212.027.016.455.257.494.784.005.062-.02.128-.027.192a1.29 1.29 0 0 1-.087.368c-.108.265-.302.545-.583.836l.714-.674a328.306 328.306 0 0 0 2.501-2.405c.18.646.593 2.131 1.033 3.654-3.643.689-7.463 4.356-8.14 5.032l-1.069-.454-.949-.403.754-.563.005.008.092-.067 1.846-1.34-.026-.047c.66-.504 1.271-.98 1.633-1.281.206-.172.515-.45.864-.771.135-.123.273-.252.421-.39-.13.117-.253.231-.41.35l-.024.02-.17.13-.078-.15-.001-.001.065-.057.086-.076.023-.02-.001-.003-.01-.019-.091-.17-.811-1.514-.288-.538-.084-.158-.088-.162.016-.008zm-2.94 13.699c-1.484.456-2.28-.856-2.3-.883-.02-.054-1.602-4.103-2.503-6.433l1.297 2.497-1.494-3.787s-.079-.042-.178-.11c-.042-.028-.078-.049-.128-.094-.05-.044-.067-.116-.066-.193.001-.175.14-.356.431-.286.014.003.023-.002.038.002.009.003.013-.002.021.002.17.068.34.187.34.187l2.598-1.88c.254.505.647 1.242 1.175 2.204-.346.25-1.14.827-1.319.966-.067.044-.1.093-.132.14l-.348-.18-1.94-1.005-.158.305 2.068 1.071.34.176a.856.856 0 0 0 .009.02l2.523 7.123-.273.157zm-.097-11.657 1.453 2.662.021.04-1.267.92-.008-.015c-.653-1.179-1.554-2.836-1.875-3.488.513.033 1.347-.07 1.676-.12zm2.284 13.663c-.03-.02-.053-.05-.083-.074-.55-.422-.87-1.117-.872-1.116l-.456-1.265-.031.018-.014.007c-.751-2.046-2.148-5.873-2.148-5.873s-.066-.208.042-.378a.399.399 0 0 1 .18-.148c.164.063.704.292 1.384.584l.542.234.532.23a1237.96 1237.96 0 0 1 2.996 1.302l.216.095.183-.125a38.156 38.156 0 0 0 1.312-.927c.424-.867 1.46-1.53 1.46-1.53s-.012-.09-.022-.214l-.004-.07c-.042-.605.006-2.109 1.333-3.123.036-.028.082-.05.12-.077.051-.037.12-.064.176-.1.212-.053.426-.101.636-.134l.01-.002c.088.291.152.503.18.58.136.39.679.696.916 1.307.056.143.2.493.39.947.068.165.14.34.22.53l-.027.016.012.035-.034-.021a2.1 2.1 0 0 0-.571-.215c-.59-.144-1.621-.18-3.099.45-.081.034-.152.053-.236.092.631.398.951 1.453.966 1.503l-2.739 1.703 2.565-1.814c-.21-.42-.547-.981-.803-1.162-1.127.515-1.223 1.238-1.226 1.27l-.01.087-.072.056c-.053.04-1.301.976-1.527 1.114-.061.028-.082.044-.087.062-.015.04.011.115.024.138l.016.04-.19-.08a.534.534 0 0 0 .078.31.103.103 0 0 0-.007-.003l-.01-.003a6.346 6.346 0 0 1-.269-.106c-.607-.25-1.996-.864-3.24-1.417l3.132 8.049-.004-.001c-.084-.016-.17-.028-.249-.049a4.775 4.775 0 0 1-1.217-.499c-.097-.056-.194-.111-.29-.179l-.084-.054zm13.983 78.654c-.09.197-.262.42-.458.64a9.77 9.77 0 0 1-.922.877c-.196.165-.339.277-.339.277s.149-.117.338-.306c.355-.355.86-.98.858-1.675-.276.362-.6.701-.893.982-.266.255-.509.463-.662.59.105 2.125.184 4.289.243 6.42.182-.23.415-.539.667-.894.317-.445.626-.926.84-1.357.23-.466.346-.864.166-1.032.247.03.375 1.984.277 2.136a2.634 2.634 0 0 1-.407.584c-.262.301-.583.598-.843.824-.268.231-.469.387-.469.387s.218-.172.467-.444c.337-.368.731-.925.729-1.537a8.19 8.19 0 0 1-.748.84 11.72 11.72 0 0 1-.676.62c.063 2.336.102 4.625.125 6.775.166-.208.41-.523.682-.9.307-.424.615-.893.847-1.328.285-.532.444-.999.245-1.184.248.03.376 1.984.277 2.137-.094.207-.277.44-.486.67-.287.315-.62.615-.871.828-.208.177-.361.296-.361.296s.16-.123.361-.329c.353-.359.837-.974.834-1.652-.26.341-.562.663-.841.933a11.92 11.92 0 0 1-.687.616 461.56 461.56 0 0 1-.046 12.977l-.006.284h-.233c.288-4.768.135-12.71-.113-19.897v-.015c-.233-6.74-.55-12.802-.668-14.963l.109.026c.13 1.313.246 2.694.345 4.122.16-.2.381-.486.633-.832.347-.479.707-1.025.947-1.506.238-.475.36-.882.177-1.052.248.03.376 1.984.277 2.136a2.53 2.53 0 0 1-.373.543c-.295.346-.67.69-.954.93-.225.192-.391.321-.391.321s.174-.134.39-.357c.35-.362.808-.964.805-1.623a8.635 8.635 0 0 1-.854.946c-.258.249-.488.448-.65.583.087 1.27.164 2.574.23 3.896.152-.19.385-.486.649-.847.318-.436.65-.934.897-1.391.294-.545.462-1.024.26-1.212.246.03.374 1.984.276 2.137zm8.337-3.748-.053-.124a22.73 22.73 0 0 1-.624-1.687c-.075-.236-.145-.48-.21-.724-.019-.074-.04-.147-.058-.221-.02.068-.032.137-.051.207-1.21-.168-4.016-.595-7.522-1.361a94.965 94.965 0 0 1-2.643-.615c-5.333-1.317-11.604-3.347-16.273-6.32-7.51-4.291-8.478-12.614-8.487-12.695-.008-.087-.649-6.418-.808-11.032 1.415 2.963 3.82 4.906 8.673 7.494 12.065 4.376 27.152 6.69 43.63 6.69 23.253 0 45.242-4.416 59.942-9.892.653 6.612 3.636 15.77-5.478 22.825.341-.122.666-.246.996-.37 16.855-6.333 18.533-15.184 18.532-15.184 0 0 .392-1.016.83-2.904.358-1.55.745-3.685.973-6.39l.255.101c.23.095.45.194.667.297 4.632 2.185 6.236 5.828 6.252 5.868l.628-.117v.062l-.09.267.203.318c.094.149.327.397.82.397.265 0 .76-.057 1.955-.538.308-.098 1.38-.442 2.81-.918-.326 1.26-.702 3.453.188 4.68-.714.358-10.586 4.624-20.868 9.095-.928.405-1.86.81-2.79 1.214-5.65 2.46-11.168 4.875-15.139 6.642l-.191.086c-1.472.656-2.72 1.218-3.667 1.655l-.266.122c-.488.194-.978.39-1.463.581-7.06 2.78-13.77 5.24-19.622 7.013-25.288 6.111-37.162 1.444-40.927-4.336-.04-.062-.085-.123-.124-.186zm9.146 28.553a27.334 27.334 0 0 1-.414-.022v-.054l-.276-.015v.05c-.376-.03-.76-.074-1.116-.136l-.274-.033c-.567-.074-1.024-.18-1.097-.333a.866.866 0 0 1 .031-.253c.033-.118.087-.213.148-.384.006.205.16.372.396.51.064-.352.138-.74.176-.914l.022-.098c.47.06 1.08.074 1.702.066l.012 1.462.275.033-.014-1.5a24.73 24.73 0 0 0 .824-.028l.29 1.143.071.286-.069.048-.18.125.039.002h-.04l-.086.06-.42-.015zm-.014-1.813a28.927 28.927 0 0 1-.417-.024l-.001-.05-.273-.013.001.04c-.38-.03-.753-.07-1.092-.124-.183-.02-.359-.041-.523-.066-.472-.073-.834-.17-.897-.305-.001-.045.004-.077.007-.113.018-.2.09-.294.171-.524.006.2.15.363.373.5l.057-.366.108-.236c.505.066 1.165.07 1.787.046l.008 1.086c.094.012.184.023.272.032l-.01-1.13.418-.023.333-.023.333 1.219-.19.095a34.695 34.695 0 0 1-.465-.02zm-3.293-1.854c-.004-.294.082-.367.179-.638.009.32.368.55.854.717l.057-.123-.507-.09a9.98 9.98 0 0 1 .21-.813l.108-.232c.487.054 1.099.056 1.679.036l.012 1.545c.094.012.184.022.27.03l-.015-1.587a28.306 28.306 0 0 0 .693-.042l.35 1.466-.27.216-.242-.007a18.047 18.047 0 0 0 .346.02l-.116-.002-.326-.01a27.596 27.596 0 0 1-.42-.015l-.27-.013a18.626 18.626 0 0 1-1.663-.15c-.483-.07-.853-.168-.924-.303l-.005-.005zm-.09-3.42c-.004-.293.081-.366.179-.636.005.212.17.383.42.524.036-.208.074-.426.106-.58l.013-.071c.542.072 1.265.07 1.927.041l.01 1.133c.091.01.18.021.264.029l-.011-1.174c.15-.008.292-.017.426-.026l.306-.022c.064.381.378 1.042.378 1.042l-.348.298-.326-.015c-.139-.007-.282-.016-.424-.027v-.041l-.265-.013v.034a16.37 16.37 0 0 1-.837-.089 12.622 12.622 0 0 1-1.008-.117c-.39-.064-.684-.148-.78-.258-.01-.01-.025-.02-.03-.031zm-.075-1.419c-.004-.294.082-.366.179-.637.008.318.316.546.717.72l.033-.186h-.341c.033-.297.069-.637.085-.855.578.05 1.352.043 2.035.019l.011 1.455a14.24 14.24 0 0 0 .406.04l-.144-.007c-.066-.003-.159-.008-.262-.015-.47-.027-1.252-.09-1.867-.205-.423-.08-.761-.182-.84-.32-.002-.003-.01-.005-.012-.009zm-.127-1.568c.021-.186.09-.28.17-.503.006.214.187.378.46.51.053-.325.125-.751.173-.962l.018-.126c.55.063 1.278.092 2.001.105l.011 1.422.26.018-.014-1.438a45.31 45.31 0 0 0 .833.003c.033.182.17.542.294.837.101.243.189.437.189.437s-.052.077-.184.152a1.019 1.019 0 0 1-.256.094 33.395 33.395 0 0 1-.861-.01l-.001-.037-.26-.002v.031a21.816 21.816 0 0 1-1.07-.062c-.332-.016-.651-.04-.929-.074-.45-.056-.784-.138-.843-.26-.001-.054.004-.094.009-.135zm-.04-1.706c.015-.21.087-.305.172-.54.005.215.177.389.434.532.041-.342.095-.784.115-.991l.006-.06c.565.08 1.35.091 2.12.072l.013 1.518c.091.01.177.018.258.024l-.015-1.549a32.853 32.853 0 0 0 .887-.039c.079.312.167.634.243.899.091.32.162.554.162.554s-.062.069-.157.125a.43.43 0 0 1-.27.068c-.016-.002-.02.02-.022.04a31.833 31.833 0 0 1-.396-.022l-.432-.027v-.025a18.68 18.68 0 0 1-.257-.01v.017a28.243 28.243 0 0 1-.547-.045 16.873 16.873 0 0 1-1.42-.138c-.474-.073-.837-.17-.901-.305 0-.04.004-.067.007-.098zm.607-1.763c.037-.25.077-.51.1-.608l.025-.146c.599.051 1.407.041 2.104.014l.01 1.258c.09.01.175.018.255.025l-.013-1.293a35.511 35.511 0 0 0 1.11-.064l.015.05.338 1.087s-.146.156-.327.252a.578.578 0 0 1-.135.049 37.46 37.46 0 0 1-.988-.04v-.015l-.254-.01v.01c-.136-.009-.27-.02-.405-.031a15.87 15.87 0 0 1-1.683-.168c-.405-.07-.707-.16-.765-.282a1.683 1.683 0 0 1 .115-.652c.006.232.205.416.498.564zm2.992 8.586a20.76 20.76 0 0 1-.421-.021l-.001-.031c-.086-.004-.174-.008-.267-.014v.026a13.827 13.827 0 0 1-.758-.077 14.18 14.18 0 0 1-.774-.082c-.533-.074-.953-.177-1.023-.323 0-.05.005-.085.009-.123a.728.728 0 0 1 .03-.158c.034-.105.083-.198.14-.356.004.192.136.351.346.484.022-.282.053-.572.084-.728l.018-.091c.507.08 1.206.101 1.918.092l.01 1.278c.092.012.18.022.267.03l-.013-1.312a29.852 29.852 0 0 0 .708-.022l.012.067-.01.014.014.005.237 1.235-.106.081.06.003-.062-.002-.048.037a19.848 19.848 0 0 1-.37-.012zm-.023-2.987a17.56 17.56 0 0 1-.427-.019l-.015-1.493c.153-.006.296-.014.43-.02l.347-.02c.034.247.347 1.319.347 1.319s-.081.192-.293.244c-.118-.003-.249-.006-.39-.011zm-.056-6.979c.231.077.449.162.69.233.042.012.089.02.13.033l-.127.24-.021.039.005.017a30.37 30.37 0 0 1-1.11-.007l-.006-.708c.144.052.29.103.439.153zm-2.998.041.062-.77 2.25 1.083.001.186.136.012-.136-.004c-.68-.021-1.468-.07-2.058-.18-.421-.078-.735-.187-.836-.337.006-.232.04-.353.037-.571.006.24.223.43.544.581zm2.45 17.75c-.498-.063-1.055-.16-1.509-.309l.023-.07-.353-.103c.047-.346.102-.767.13-.984l.005-.03c.489.04 1.107.04 1.693.025l.012 1.471zm.677-1.567-.095-.003a19.263 19.263 0 0 1-.317-.01v-.003l-.277-.013v.005a14.371 14.371 0 0 1-1.516-.137l-.125-.018c-.475-.072-.84-.17-.906-.304l-.001-.001c-.005-.295.081-.367.178-.638.008.302.333.524.78.688l.049-.247h-.387c.02-.09.037-.168.05-.22l.227-.29c.475.055 1.07.06 1.642.04l.009 1.063c.096.012.188.023.277.032l-.01-1.106a23.526 23.526 0 0 0 .793-.047l.317.978.001.007-.001.002-.282.228-.093-.002a17.537 17.537 0 0 1 .172.009l-.086-.002a27.015 27.015 0 0 1-.4-.01zm2.119 2.681-.68.029.68-.055v.026zm110.21-62.747c-.941.268-1.523.402-2.508-.045-.985-.448-1.925-1.567-3.268-1.522-.107 0-.182.023-.265.04-.439.091-.585.363-.585.363s-.628-14.77-.716-16.16c.213.008.41.025.622.034 15.703.658 24.082 5.993 24.982 6.413.91.424 2.856-1.359-1.877-2.987 5.336.512 3.756 4.285 3.756 4.285s3.238-2.93-1.495-5.311c7.055 2.743.735 7.19.735 7.19s-3.044 2.686-19.382 7.7zm-48.897 33.33c.016 1.762.047 5.482.047 7.711.103 5.375 11.081 10.84 14.726 12.506l.032.015a2.452 2.452 0 0 0-.471 1.366c-.028.792.307 1.635.978 2.532.168.224.342.449.554.68l.01.01c.256.28.548.564.87.854.037.035.08.07.119.104.202.18.433.364.66.547.892.719 1.95 1.466 3.223 2.252l-1.169.001c-9.339.014-31.674.099-35.95.118.032-.348.1-.799.248-1.258.329-2.304 3.397-3.773 3.506-3.83.06-.04 1.477-.965 1.852-3.092 1.697-7.734 7.316-17.958 8.214-19.563l2.551-.952z"/><path class="st0" d="M154.311 27.222c-1.29-.044-19.12-1.826-19.88-1.902-.188.012-.798.114-.974.437-.131.24-1.027 1.717-2.063 3.425-1.103 1.818-2.353 3.878-2.74 4.55a.931.931 0 0 0-.11.267.694.694 0 0 0 .167.36c.194.107.5.15.707.15.035 0 18.329 2.435 19.008 2.525.033.002.077.004.119.004.933 0 1.34-.82 1.344-.828l4.853-8.301c.096-.115.227-.322.178-.448-.021-.055-.124-.19-.609-.239zM129.567 184.867l-.234-.071c.072.034.149.066.23.097l.004-.026zM130.339 196.133l.188-.24h-.8c.172.094.38.174.612.24zM130.11 191.16l.106-.226h-.643c.15.086.333.162.537.226zM125.723 166.619c.15.26.315.509.49.75 6.778 9.319 32.658 4.202 48.944-.646 1.484-.441 2.88-.88 4.183-1.305a117.629 117.629 0 0 0 5.05-1.768 66.27 66.27 0 0 0 1.67-.657c.099-.041.215-.086.31-.126-.214.042-.434.073-.648.114-.106.02-.215.036-.322.057-18.32 3.485-38.41 4.478-59.59 2.635-.2-.017-.396-.026-.596-.043.035.086.089.16.126.244.115.258.245.504.383.745zM170.575 94.535l.014-.345-15.74-1.608-.366.309-4.373 3.685 20.341 1.06zM107.9 94.56c.22-.05-2.14-5.773-2.14-5.773l-1.036-.332s2.75 6.3 3.175 6.105zM125.786 89.523l-.002.002.114-.106-.001-.004-.11.108zM125.693 89.036l.014-.014c.706-.71 1.997-2.185 1.938-2.977a.433.433 0 0 0-.191-.341c-.102-.046-.218-.073-.33-.106a2.818 2.818 0 0 0-.804-.129c-.527 0-.942.14-1.149.228l-.006.002c.077.373.023.663-.03.944-.078.419-.152.815.188 1.569.149.377.28.651.37.824zM127.921 104.836l-.049.008c.018.004.03.013.049.017v-.025zM128.53 106.956l.019-.085-.152.049c.042.014.087.025.133.036zM128.252 105.775l-.227.091a.877.877 0 0 0 .214.088l.013-.18zM102.98 79.593l.559-.522c.407-.448.506-.773.492-.986a.59.59 0 0 0-.275-.453c-.001 0-.362-.166-.882-.166-.322 0-.638.063-.94.186.311.604.783 1.505 1.023 1.962.01-.007.013-.013.023-.02zM123.151 41.718s.055-.07.137-.179l-.691-.098c-.203.001-1.105.036-1.473.725-.09.139-.464.758-.988 1.63.058.006.117.01.17.023.679-.985 2.845-2.1 2.845-2.1zM135.292 46.24a.758.758 0 0 1 .191.069l.925-1.566c.091-.17.3-.696.13-1.029-.095-.186-.308-.303-.636-.347a35.663 35.663 0 0 0-.77-.122c-.034.104-.068.21-.103.304.526 1.4.088 2.67.263 2.692zM123.83 47.91s-1.379 1.576-2.866 2.146c-.198.24-.963 1.29-.963 1.29s-1.707.175-2.188-.59c.35-.57.765-1.117.765-1.117s-.59-1.728-.13-2.538l-.169-.208-2.73 4.565.22.04a.422.422 0 0 1 .307.219c.113.217.008.479-.014.53l-.268.517.786.158c.185-.347.362-.67.428-.772.098-.179.29-.284.534-.284.111 0 .192.014.25.035.11.015.58.085.866.14.179.037.265.14.307.22.112.217.007.48-.015.53l-.286.551.928.187c.234-.438.45-.83.528-.954.22-.393.767-.218.767-.218s.765.11 1.203.197c.438.087.197.635.197.635l-.411.8.664.134c.261-.491.513-.952.6-1.087.219-.395.766-.22.766-.22s.766.11 1.203.197c.438.088.197.635.197.635l-.48.935 1.136.229c.242-.453.467-.862.548-.989.218-.394.766-.219.766-.219s.766.11 1.203.197c.438.088.197.634.197.634l-.43.837.664.134c.269-.504.53-.984.62-1.123.219-.394.765-.22.765-.22s.26.038.56.086l2.756-4.668c-.224-.007-.397-.024-.397-.024s-1.379 1.576-2.867 2.145c-.197.24-.963 1.29-.963 1.29s-1.706.176-2.188-.59c.35-.569.767-1.116.767-1.116s-.592-1.73-.132-2.538c-.284-.35-.197-.263-.569-.635.066-1.4 1.73-2.67 1.73-2.67s.415-.043.699.023c.678-.985 2.844-2.101 2.844-2.101s.122-.158.275-.363c-2.157-.314-4.98-.718-7.122-1.022l-.041.123c.524 1.4.086 2.67.262 2.69.175.024.613.307.613.307s-.7 2.43-1.905 2.933c-.393.021-.787-.022-.787-.022zM258.372 153.902c.203-4.62-4.213-2.785-4.213-2.785s-11.207 3.327-36.725 12.022c20.193 3.807 33.781 1.397 41.226-1.427l.187-.067s-.097-1.144-.217-3.009a238.683 238.683 0 0 1-.258-4.734zM221.577 87.47s.846.335 1.368 1.004l.014.016a.348.348 0 0 0 .054-.119c.211-.686.037-3.618.037-3.617 0 0-.046-.77-.272-1.201-.227-.43-.974-1.45-1.901-1.698 1.335 3.487.7 5.615.7 5.615zM196.26 91.438l.073.008c.314.04.516.053.71.053.315 0 .606-.037.873-.091l.035-.004c-.124-.013-.233-.01-.353-.017-.174-.011-.35-.024-.511-.024-.355 0-.684.018-.95.062.039.003.081.008.123.013z"/><path class="st0" d="M195.433 91.654c.435.17 1.145.277 1.35.277.798.024 1.578-.217 1.949-.351.14-.051.227-.088.227-.088s-.114.028-.29.067c-.447.097-1.34.259-2.105.196-.343-.09-.529-.175-.634-.253-.37-.274.404-.46.404-.46s-.924-.012-1.241.285c-.058.124.101.235.34.328zM96.452 78.692c.968.07 2.062-.09 3.002-.721.095-.064.185-.14.278-.215a3.908 3.908 0 0 0 .784-.828c.089-.146.17-.286.249-.42.109-.192.222-.374.314-.598l.002-.004.002.012.004.018.103.523c.067-.12.128-.226.202-.363l.084-.154-.076-.158c-.135-.284-13.53-28.443-14.26-30.985-.177-.882-.343-3.38-.344-3.405l-.02-.304-.114-.007c.002-.642-.003-1.97-.004-2.157v-.19l-.224-.018-.345-4.184s-.472-5.69 1.301-10.886c.043-.125.085-.25.13-.375.424-1.162.96-2.294 1.649-3.321.407-.679 1.562-1.04 1.562-1.04l-.204-1.088s-.506.107-1.275.484l.09-.261-.44.2c-.064.03-1.589.732-2.361 1.62-3.423 4.16-5.629 17.673-5.765 18.53l-.007.042c-.003.02-.302 1.765-.418 2.393l-.018-.002-.019.196-.033.166.018.007c-.065.719-.313 3.625-.188 4.474.103.704.49 2.103.772 3.124.099.357.184.663.235.862.447 2.165 1.22 4.187 3.544 7.014l.168.206.094-.128c1.077 2.186 10.637 21.601 10.765 21.844.272.058.517.076.763.097zM81.521 49.565c-.055-.21-.14-.52-.24-.878-.279-1.01-.662-2.396-.761-3.075-.113-.772.116-3.518.186-4.316.149.02.349.04.59.061-.054.919-.24 4.366-.025 5.274a.804.804 0 0 0 .771.617.953.953 0 0 0 .452-.115c.004.711-.007 1.784-.007 1.8l-.002.169.166.035c.008.001.839.177 1.364.362.521.093.747.678.76.71.013.023 1.282 2.409 1.588 3.04.298.518.108.851.11.851-.009.012-.89 1.08-1.659 2.106-2.14-2.656-2.867-4.579-3.293-6.641zm-.76-8.674.004-.022c.098-.536.3-1.708.378-2.171l.631.063.336.034.007-.02.058-.166-.376-.01.005-.042.001-.015.001-.003.026-.2-.004.012-.616-.061v-.004c.304-1.814 2.492-14.319 5.645-18.153.376-.432.965-.822 1.445-1.1a5.659 5.659 0 0 0-.42.568c-1.72 2.607-3.156 8.499-4.066 13.044a148.004 148.004 0 0 0-.52 2.749 126.705 126.705 0 0 0-.506 3.022l-.031.204-.001.004-.005.204 3.493.288c.002.668.004 1.489.002 1.945v.146a61.036 61.036 0 0 1-.942-.034c-.756-.031-1.729-.08-2.61-.132l-.004.15-.001.056-.952-.062-.018-.001-.205-.013h-.006v-.003l.003-.023.02-.183a15.076 15.076 0 0 1-.772-.071zm1.932.564v5.108l-.179-.012-.027-.002c-.028.153-.236.286-.445.286-.132 0-.305-.054-.37-.304-.198-.835-.017-4.227.036-5.14.3.021.629.043.976.064h.01zm17.27 35.698c-.36-.72-1.343-2.694-2.634-5.332-3.545-7.597-9.448-20.365-11.021-24.395a25.563 25.563 0 0 1-.48-1.493c-.547-2.234-.188-3.697-.01-4.205l.312.016c.05.71.187 2.45.34 3.217.733 2.55 13.035 28.44 14.233 30.96-.247.446-.525.91-.74 1.232zM115.322 51.84c-.079-.013-.151-.026-.22-.036-.102-.016-.173-.027-.22-.033a4.537 4.537 0 0 0-.06-.009c-.033-.007-.095-.026-.17-.026-.132 0-.165.059-.178.081a34.975 34.975 0 0 0-.962 1.814c-.05.086-.01.146.032.185.179.023.748.1.961.157l.018.001c.08 0 .207-.097.27-.16l.386-.753.098-.19.098-.191.314-.61c.021-.054.032-.14.02-.163a11.24 11.24 0 0 0-.387-.068zM117.71 52.306l-.177-.026c-.127.002-.159.06-.17.081-.033.05-.098.165-.176.306-.04.054-.083.104-.113.168-.016.032-.018.064-.03.096l-.041.077-.102.19-.1.19c-.194.367-.37.708-.402.786-.049.086-.01.147.033.185.18.024.749.101.962.158l.016.002c.08 0 .208-.098.271-.162l.369-.717.097-.191.098-.19.331-.646c.023-.053.033-.14.021-.161a21.08 21.08 0 0 0-.886-.146zM121.122 45.312c-.288.603-.172 1.259.26 1.465.432.206 1.015-.115 1.303-.719.288-.602.172-1.258-.26-1.464-.432-.207-1.015.115-1.303.718zM130.428 46.909c-.288.602-.172 1.258.26 1.465.432.206 1.015-.116 1.303-.719.288-.603.172-1.259-.26-1.465-.432-.206-1.015.116-1.303.719zM133.833 55.776c-.145.305-.097.63.107.728.204.098.488-.07.633-.374.146-.305.098-.63-.107-.728-.203-.098-.487.07-.633.374zM136.996 57.013c.205.098.488-.07.634-.374.145-.305.098-.63-.107-.728-.204-.097-.487.07-.633.375-.145.304-.097.63.106.727z"/></svg>