<svg version="1.1" id="Layer_1" xmlns="http://www.w3.org/2000/svg" x="0" y="0" width="400" height="200" style="enable-background:new 0 0 400 200" xml:space="preserve"><style>.st0{fill:#3c3c3c}</style><path class="st0" d="M161.708 72.552c.155.571 1.797.41 2.097 1.44.17.583-.587 1.328-.695 1.805-.11.478 1.27-.8 1.354-1.406.108-.795.006-1.225-.044-1.685-.095-.842.425-1.009.46-1.715.028-.6-.462-1.103-.941-1.034-.602.28-.86.588-.717 1.264.143.675.605 1.115.336 1.503-.267.386-1.93-.76-1.85-.172zM150.211 72.765c1.305-1.039 2.708.837 3.547.789 1.037-.059 1.397-.849 1.397-.849.02-.075-.023-.143-.1-.207-.217-.376-.946-.752-2.4-.764-1.066-.01-1.862.156-2.412.575.863-.409 3.114-.453 4.25-.064-1.162-.322-3.515-.374-4.176.09-.86.604-1.474 2.873-.465 2.947.565.042-.861-1.546.36-2.517zM246.64 128.35c.099 1.644-2.28-2.077-.695 2.053 1.764 2.89.695-2.054 2.847 1.282.655 1.018-.014-2.61.861-2.385.733.396 1.605.27 1.66-.265-.256-1.344-1.039-2.316-.308-2.114 1.892 1.5 1.267-.478.89-1.19-.194-1.13.876.401 1.137-.044.005-.607-.926-2.058-1.538-2.277-.613-.218.136.809-.194 1.055-1.923-2.495-.372 1.054-.514 1.458-.255.72-.283-1.797-1.265-1.475-1.143.375.02 2.606-.365 2.408-1.327-.676-2.659-.857-2.516 1.493zM263.377 90.93c-.315.288-.17 1.603.375 1.726.528.12.267-1.528 1.767-.79 2.462.004.426-1.174 1.738-1.352 1.074.164 4.06-.746 2.165-1.495-2.093.478-3.913-2-4.467-2.365-1.136.18 1.593 3.248 1.593 3.248s-2.258-1.015-2.85-.514c-.39.332 2.18 1.023 1.911 1.385-.183.25-1.631-.395-2.232.156zM180.053 72.13c1.734-.995 3.533-.349 3.23-2.275-.139-.676-3.272.36-5.531 2.636-1.471 1.123-3.158 1.814-5.326 3.104-2.179 1.058-2.901 2.84-2.334 3.056 4.215.236 8.278-5.235 9.96-6.521zM191.02 64.575c.02.271.648-.042 1.708-1.292.396-.46 3.757-2.8 3.897-2.916 1.494-.92 3.312-1.797 5.566-2.623 1.015-.385 3.92-2.285 3.962-2.577-.008-.123-.57-.233-.757-.086-.32.51-6.978 2.99-8.41 3.365-1.486.487-3.15 1.962-3.83 2.91-1.29 1.424-2.436 1.919-2.81 2.35-.2.618.299.425.674.869zM123.615 139.947c-1.113.428-3.068 1.467-5.52 2.867 2.213-1.173 4.322-2.188 5.044-2.58.174-.045.33-.154.476-.287zM244.657 70.93c-1.019-1.944-3.083-3.269-4.008-3.63-.176.11.696.81 1.851 1.93.896.705 2.262 2.527 2.157 1.7zM260.75 78.844c-.905-.406-.958-.449-1.46-1.31-.571-.779-1.45-3.272-1.828-3.806-.376-.535-1.107-1.05-1.283-.94-.173.11.783.726 1.17 1.662.386.935 1.173 2.958 1.67 3.62.498.661 2.097 1.356 1.731.774zM237.591 139.16c.675 1.797 1.74 2.377 2.533 2.562.983.305 2.404-.8 2.741-1.49.472-.956.689-2.22.79-3.639.097-1.355-.168-3.108-.832-3.445.995 1.49.778 4.421-.365 6.129-.191.386-.856.926-1.192.738-1.35-.191-2.402-2.497-3.255-4.332.237 1.747 2.854 5.254 2.12 5.482-.98.15-1.757-.755-2.54-2.005zM185.551 107.532c.941-3.439 3.082-8.671 7.33-8.5 1.732.07-2.896-1.93-5.696.612-3.235 1.647-3.536 8.569-1.634 7.888zM203.96 112.51c-9.59 3.015-3.633 14.584-4.532 9.455-.77-4.305 2.842-7.615 4.455-7.725 3.997.59 4.196-2.383 3.577-3.159-1.366-2.376-1.448.783-3.5 1.43zM207.82 145.159c1.07.878 2.925-.29 4.6-2.768 2.164-3.205 9.764-7.313 6.976-7.63-2.485 3.25-8.834 2.235-7.805 4.655.473 3.268-4.93 4.791-3.771 5.743zM211.989 155.478c-2.157-2.397-1.681 1.371 1.485 3.52.976.759 1.286 3.052 2.955 2.001 3.314-3.117 10.26-5.18 7.898-6.69-1.963-.446-.825 2.55-5.898 3.585-1.497.296-4.04.611-6.44-2.416zM256.135 118.379c-.008 0 .673 1.097.334 1.582-.372.525.848-.286 1.722-.035.828.238 1.611.39 1.203-.169-1.56-2.2 1.962.622 1.526-.453-.532-1.31 1.32-1.125 1.32-1.125-1.942-.069-3.132-1.824-3.603-1.614-.459.205 1.393 1.416 1.208 1.77-.182.356-2.607-1.534-3.04-1.415-.433.12.824 1.26.62 1.554-.267.387-.85-.13-1.29-.095z"/><path class="st0" d="M314.43 127.394c-2.333-4.135-10.033-5.166-10.343-5.205-1.533-.247-2.818-.454-3.896-.625.231-.053.374-.091.4-.098l.142-.062c1.07-.668 1.74-1.667 1.933-2.888.337-2.132-.78-4.359-1.84-5.617-2.17-2.581-7.526-5.334-8.83-5.736-1.074-.331-9.914-2.645-10.73-2.69-.61-.065-8.665-2.2-14.288-3.714.745-.977 1.537-2.02 2.401-3.157 2.72-3.582 5.532-7.285 7.102-9.203 3.479-4.248 2.717-6.213 2.346-6.769-.763-4.468-4.346-5.517-6.438-5.744 1.224-1.062 3.126-2.995 4.366-5.62 1.833-3.878-.503-6.92-3.058-8.345-2.164-1.208-6.834-.17-8.729.72-.625.296-1.716.986-2.885 1.767.092-.35.174-.743.245-1.182.785-4.916-3.177-6.329-4.87-6.933-2.235-.797-7.536.7-7.828.786l-11.482 5.033c-.14.072-13.854 7.222-15.81 8.143-.107.052-10.767 5.09-13.274 7.304-1.435 1.267-6.547 4.563-9.93 6.744-1.784 1.15-3.073 1.981-3.427 2.252-.694.534-4.926 2.38-7.694 3.532-.41-.257-.603-.746.07-1.624.36-.407 1.311-1.11 2.56-1.97.938-.552 2.044-1.298 3.243-2.167 4.43-2.909 9.826-6.382 10.552-7.715 4.11-1.078 9.424-6.755 12.544-10.23 1.464-1.54 3.49-3.708 4.599-6.26.091-.193.204-.51.32-.874.78-1.751 1.23-3.488 1.315-5.159.243-4.67-4.044-6.475-5.632-6.604-2.119-.171-4.659 1.357-4.778 1.43l-4.879 3.147c-.024.01-2.449 1.06-6.386 2.288-4.167 1.299-9.191 4.577-10.098 5.427-.459.43-3.498 2.72-6.178 4.74-2.707 2.04-5.263 3.965-5.923 4.534-.935.805-7.285 4.708-11.432 7.217.34-1.211.732-3.426 1.114-8.24.433-5.459-.222-9.712-1.895-12.301-.069-.107-.156-.253-.26-.427-1.065-1.782-3.885-6.523-8.32-5.486-3.355.778-4.507 3.253-5.126 4.582-.09.192-.17.364-.245.506-.507.947-2.06 6.31-1.989 7.371.044.644-.097 1.662-.152 2.026-1.188 1.618-5.477 11.511-6.363 13.57l-6.216 16.344-4.944 9.446a179.631 179.631 0 0 0-1.91 3.03c-.176.207-.376.428-.575.648-3.918 4.33-12.074 10.99-15.629 13.752l-34.858 21.82c-3.96 2.1-8.16 4.354-10.212 5.457-.8.43-1.28.69-1.28.69l-1.642.73-24.34 10.84-18.03 7.34-13.43 4.574-.496 1.496-9.966 30.061L0 207.55l12.832 2.346 18.45 3.373c-7.393-4.077-24.969-15.268-18.453-26.51 9.897-17.074 28.176-16.704 34.033-18.71 12.435.73 21.502-.05 28.138-1.26 5.401-.985 9.197-2.254 11.851-3.233 5.36-1.978 9.44-2.78 16.322-6.455 3.248-1.735 5.995-7.034 9.222-10.749.301-.27.69-.564 1.136-.869-10.026 5.962-23.458 14.398-25.16 14.315-1.106-.055 3.13-5.903 5.582-7.787.05-.068.128-.147.207-.225-.194.146-.41.3-.549.427 6.724-6.542 27.956-14.42 33.222-24.662.884-1.786 1.457-2.806 1.796-3.253a311.232 311.232 0 0 0 1.666-5.88c1.262-4.353 2.03-8.63 3.134-12.368.423-1.435.91-2.782 1.484-4.023.1-.218.206-.432.314-.643.003-.006.005-.014.009-.02.25-.49.525-.955.813-1.404.164-.255.328-.51.507-.751.086-.118.158-.25.246-.366-.182.33-.364.662-.55.967-.506.952-1.07 2.237-1.704 4.155-.503 1.527-1.046 3.44-1.633 5.906-1.441 9.84-7.877 27.916-7.74 29.642.421 7.932-4.305 13.345-4.94 14.286-2.452 3.096-6.068 5.028-8.278 7.068-3.589 2.627-6.644 5.349-10.482 8.844-1.694 1.507-9.986 7.939-19.868 15.407-17.165 12.974-39.143 29.086-39.774 28.02-1.622.265-4.001 1.998-5.212.337l-.941.596 3.67.672 9.768 2.361s8.242-3.65 14.153-7.535c1.108-.73 2.144-1.464 3.017-2.187 5.012-4.975 13.269-13.685 20.334-21.891 3.543-4.113 8.479-8.161 19.625-17.359 5.034-4.507 11.278-8.7 14.052-12.519 2.265-3.12 4.935-6.344 8.829-8.796 2.158-1.072 3.518-2.055 4.06-4.587 1.085-2.392 1.721-4.854 1.954-7.978-.467-4.236-.36-10.146.999-16.826.83-5.054 5.041-11.343 3.489-13.337-.887-2.007-2.535-3.13-2.394-5.252l2.193-4.187 5.298-13.927c.483-.833.967-1.47 1.366-1.568.342-.292 1.633-.462 3.224-.631-.326.081-.555.16-.596.214-.166.22 2.602-.12 2.551.276-.05.397-3.417.548-3.36 1.007.03.234 1.897.11 1.786.443-.111.332-2.901-.262-3.267-.002-.366.262 2.086.366 1.996.713-.118.459-.862.161-1.262.36-.4.2 1.362 1.034.87 1.364-.49.33-1.104.074-1.361.295-.257.22.786 1.728.795 2.08-.192.545-1.774-.096-1.329.647.48.31 2.309-.06 1.945-.48-.603-.702-1.031-1.373-.545-1.879.486-.506 3.519-1.189 2.948-1.575-1.896-1.252 2.034-1.42 1.495-2.209-.844-1.236.843-1.415.843-1.415-.107-.091-.318-.134-.563-.16 2.02-.246 3.949-.587 4.764-1.22-2.664.762-10.548 2.073-10.079-.01.846-1.57 5.772-.287 6.531-1.974-2.171 1.268-5.59.575-5.847-.48a3.072 3.072 0 0 1-.108-.508c2.046-4.605 3.959-8.674 4.394-9.11l.122-.122.01-.051a10.48 10.48 0 0 1 2.502-.789c.026-.004.053-.014.08-.018 2.452-.417 4.593.057 5.557.234-.412.1-.525.099-1.052.65-.246.245-2.519.359-3.826-.263-.857.027-1.691.208-2.105.732-.278.35-.1 1.013-.336 1.285-.524.488-1.817 1.4-1.396 1.582.3.182 1.637-.398 1.761.228.057.278-1.427.323-1.682.566-.255.244 1.176.49 1.019.837-.185.096-1.374-.15-1.49.094-.32.437.524 1.672.889 1.41.685-.825 1.195-.949 2.71-.726.713.042 1.91-.86 1.544-.898-.698.007-1.04-.073-1.295-.38-.242-.166 1.2-.32 2.201-.19.53.017 1.047-.307.899-.919-.158-.342-1.21.222-1.495-.254-.31-.26.326-.76 1.188-.679.339.112-.11.499.52.376.63-.12 1.945-2.553 2.478-2.544.312-.017.442.706.442.706.316-.043 1.266-1.671 1.672-3.186.07-.147.142-.284.21-.443.408-.956 1.431-4.365 1.7-6.655.07-.597.068-1.078.01-1.459.053.07.114.143.164.213.44.622.79 1.201 1.033 1.607.112.19.206.345.28.46 1.544 2.391 2.142 6.415 1.728 11.638-.562 7.09-1.144 8.394-1.493 9.173l-.083.19.402.172.089.038.275.458c.47-.284 11.52-6.938 12.888-8.115.634-.546 3.295-2.552 5.868-4.49 2.966-2.235 5.767-4.345 6.267-4.815.835-.782 5.737-3.955 9.685-5.186 3.998-1.247 6.47-2.318 6.57-2.37l4.942-3.18c.023-.014 2.349-1.415 4.127-1.27.48.04 2.09.503 3.287 1.73.823.845 1.456 2.042 1.367 3.755a11.67 11.67 0 0 1-.201 1.608c.2-2.76-.62-4.43-.62-4.43.036.52.012 1.043-.025 1.563a14.846 14.846 0 0 1-.84 3.925c-1.036 2.896-2.767 5.343-4.031 6.432-2.021 1.742-4.183 4.028-6.729 3.31-2.545-.72-3.337-1.958-4.244-2.12-.907-.162-.043 3.3-2.101 4.51s-3.972-.71-4.597.58c-.625 1.289.378 4.252.378 4.252.74 5.656-4.613 6.91-6.8 8.84-2.187 1.931-5.506 1.622-6.833.464-1.327-1.159-1.259 1.155-1.259 1.155s-.584.172-1.032.806c-.35.497-.59 1.302-.423 2.526.034.248.056.485.128.77.886 3.487-2.946 3.854-3.657 3.902-.71.048-2.47-2.24-4.83 2.379-2.362 4.617-9.043 3.376-9.576 3.412-.532.036.457-5.112 2.075-7.54 1.617-2.428 5.498-3.047 5.282-6.242-.217-3.194-3.7-2.89-3.7-2.89l-1.225 1.834c-.077-.013-.135-.033-.157-.064-.391-.323.45-1.182 1.383-1.77-1.119.31-1.938 1.585-2.504 2.025-.235.183-.43.236-.578-.006.112-.879.579-3.945 1.44-5.748a5.114 5.114 0 0 0-.3.46c-.64 1.072-.915 2.387-1.185 4.004-.022.123-.043.246-.063.375-.477 2.923-1.026 6.815-3.596 12.088-1.397 2.305-2.964 6.384-2.192 7.66l-.008.047c.452.849.88 2.692.78 3.226 0 0-4.19 1.487-3.087 2.094.8.44 2.232.283 3.953-.103a48.197 48.197 0 0 0 2.06-.515c.543-.147 1.192-.41 1.88-.732 2.644-1.234 5.866-3.358 5.866-3.358l3.138-2.352s1.855-.838 2.332.198c.836 1.815 3.027-2 3.849-2.4.82-.4 2.88.429 5.032-2.035 2.15-2.464 8.406-.927 8.95-.786.545.142 3.824 1.167 6.527-3.651 0 0 2.393-2.837 4.201-5.099 1.809-2.262 4.785-1.916 6.869-5.19 2.083-3.275 5.52-1.838 5.73-3.795.3-.035.362-.285.39-.621.04-.479-.002-1.16.334-1.922.528-1.199 2.29-1.855 3.5-1.428 1.211.425 2.29.771 3.715 3.225.522.053-1.148-2.685-2.03-3.18-.75-.42 2.292-1.156 3.098.388.96-.749-3.276-1.752-3.478-2.856-.014-.078.055-.177.16-.283.636-.315 1.637-.824 2.826-1.433 1.9-.714 4.22-1.33 5.415-1.254.345.085.769.177 1.227.255.26.044.526.084.8.112 1.486.157 3.718-3.171 5.072-4.088 1.353-.916 7.57-2.74 7.57-2.74s3.376-1.478 3.848-2.401c.472-.923 2.767-1.258 3.44-1.838.143-.123.124-.206.04-.27 1.381-.21 2.776-.298 3.562-.018 1.794.639 3.434 1.512 4.02 3.253.23.688.314 1.499.153 2.504-.089.554-.194 1.01-.312 1.397-1.44 1.748-4.291 3.85-6.663 4.573-1.064.253-2.118-.52-3.804-4.86a5.625 5.625 0 0 1-.157-.501 9.293 9.293 0 0 1-.127-.533c-.196-.939-.329-2.297.124-3.399.104-.254.236-.494.41-.71a3.427 3.427 0 0 0-.505.781c-.88 1.862-.063 4.243-.022 4.647.852 2.6 2.71 4.892 2.043 5.596-.374 1.425-4.815 4.09-5.61 4.187-2.305.282-4.252-3.332-4.949-4.699-.121 1.323 2.994 5.214 2.539 6.216-.387 1.371-10.875 7.345-12.274 7.83-.758.264-1.55.403-2.082.08-.339-.06-1.108-2.869-1.936-3.66 1.125 4.13-.639 4.385-.923 5.175-.27.745.009 1.511-.39 2.378-1.59 3.01-17.013 13.297-19.264 14.134-1.56.99 1.227 1.144 1.872.94.645-.202 2.31-1.067 3.59-1.309 1.28-.243 2.69.51 3.78.244.672-.165 1.426-3.487 10.01-10.144 1.232-1.327 5.915-4.076 6.513-4.303.597-.229 1.28-.339 1.822.313.667.8-.568-2.344.082-2.648.648-.305.981-.478 2.079-.519.755-.028 1.838.058 6.266 3.369-3.645-4.482-6.002-2.675-3.338-5.944 1.602-1.966 5.31-3.959 8.422-5.466.891-.432 2.967-1.106 3.33-.618.443.6-.444-.97-.275-1.85.488-1.523 1.938-2.138 3.083-2.543 1.867-.659 3.997 2.324 4.18 2.17.281-.129-2.1-2.006-2.003-3.197-.009-.714 1.142-.793 1.598-.748.643.06-.402-.544.137-1.262.003-.005.01-.01.013-.014.08-.054.149-.103.239-.165.172-.088.348-.168.528-.25.705-.316 1.424-.643 2.01-1.516 1.346-.833 2.645-1.604 2.56-1.642-.024-.012-.115.025-.204.059.292-.189.554-.349.807-.502.043-.027.096-.062.138-.087.321-.192.603-.35.815-.45.278-.131.612-.258.97-.377a.173.173 0 0 1-.012.017l-.008.013-.02.028c-.282.411-.605.936-.874 1.42-.555.9-.884 1.642-1.09 2.291-.064.198-.166.425-.196.597-.291 1.194.861 4.77 4.146 7.383.92.51.765 1.391.682 1.864-.013.071-.015.128-.021.19l-.095.064.09-.008c-.001.013-.005.03-.004.044 0 .011.01.02.012.031-.067.029-.142.074-.21.106-1.507.712-3.435 2.162-7.546 5.452-1.56 1.248-13.446 12.128-14.212 12.888-1.11 1.1-4.547 4.687-7.834 7.91-.63.618-7.817 6.552-8.789 7.216-3.597 2.463-5.959 5.71-6.744 7.624-.108.219-.19.413-.21.535l.042-.057c-.046.154-.104.32-.12.445 2.833-4.219 9.475-9.859 12.625-10.612.694-.091.71 1.025 1.677 2.232.023.028.05.055.073.083.098.118.193.236.312.353-.137-.261-.228-.47-.326-.691-.098-.923-.44-3.29 1.287-1.569.842 2.01 1.588 6.102 2.995 5.996a.679.679 0 0 1-.23-.148c.11.068.22.142.344.141-1.47-1.921-1.26-4.257-1.32-5.383-.29-5.706 8.545-12.435 13.364-15.47 4.094-1.44 6.457.947 4.11-1.754 1.016.79 1.921 2.28 1.91 1.862-3.055-4.006-1.749-4.136-1.39-4.292.608-.263 1.907.631 2.177.676.495.222-1.204-.962-.798-2.255.782-2.48 4.661-7.058 7.99-10.34.307-.288.626-.513.942-.712l.078.08.156-.011c.151-.01.228-.062.586-.467l.747-.07c-1.081.441-1.77 1.238-2.513 2.082-.831.976-2.047 2.566-2.705 4.278-.093.242-.102.583-.035.976.423 2.465 3.906 6.982 8.93 2.791a14.404 14.404 0 0 0 1.945-1.957c-.269.229-.518.405-.774.601-6.906 5.288-9.48-.861-9.432-1.247-.123-1.663 2.04-4.52 2.708-5.314 1.05-1.569 2.385-2.101 2.807-2.247 1.584.036 5.478.572 6.172 5.033l.002.01.036.151.09.111c.012.014 1.08 1.435-2.266 5.523-1.583 1.933-4.401 5.644-7.127 9.233a893.265 893.265 0 0 1-5.077 6.646c-3.218 3.782-7.528 8.485-13.103 13.183-4.767 4.41-9.328 8.763-13.683 11.466-10.128 5.23-11.792 15.977-11.792 15.977s.117-.355.358-.948c-.014.08-.04.159-.051.24.04-.155.096-.298.139-.45 1.072-2.573 4.207-8.868 10.442-12.546 1.074-.241.754 2.087 1.266 2.548.322.29-.008-1.462.658-2.04.817-1.03 1.094.652 1.358.87.245.2-.269-2.88 1.898-4.72 2.168-1.84 8.583-5.92 9.447-8.008.862-2.087.301 1.672 1.471 1.875.055-3.034.702-3.957.98-4.33.386-.515 7.498-8.403 8.479-8.228.46.105-.508 1.245-1.171 2.116-.752.91-1.586 1.996-1.86 2.622-.237.54-.073 1.358.496 2.238.693 1.072 1.816 1.965 3.12 2.56 2.305 1.026 5.258-4.792 4.94-4.292-2.002 2.95-3.143 4.027-4.436 3.527-.017-.007-.034-.007-.05-.014-1.099-.555-1.97-.595-2.864-1.84a6.562 6.562 0 0 1-.53-.871c-.531-1.048.569-2.033 1.139-2.93 1.814-2.493 3.152-3.364 3.108-3.609a2.05 2.05 0 0 0 .36-.36 5.144 5.144 0 0 1 2.572.51 4.442 4.442 0 0 1 1.464 1.89c.307.758.449 1.742.11 2.951-.96 3.447-4.907 7.998-4.961 8.06-.045.057-2.067 2.574-4.622 5.586-.186.201-.356.388-.53.578l.175-.163c-.849.997-1.742 2.03-2.642 3.045.437-.665 1.322-1.635 2.468-2.883l-5.711 5.32.453.62c-1.414 1.488-2.681 2.709-3.557 3.323l-29.265 27.781-.456.522c-4.09 3.362-15.602 8.557-17.9 10.004-2.503 1.576-7.803 3.23-11.295 4.264-2.747 1.017-5.484 3.37-10.435 3.728-1.525.184-2.681-.977-4.191-1.32-2.802.21-3.123 2.793-4.055 3.306-1.873 1.956-4.45 2.057-7.855 2.806-3.187.295-6.503-4.482-6.559-4.443-3.13-2.299 5.776 9.259-8.65 11.223-2.29.135-9.63 6.45-19.172 16.99-7.306 8.067-17.134 13.098-23.183 15.657-2.854 1.208-4.852 1.865-5.347 2.021l-.152.048.847.065 12.766.982.125.009s11.72-11.944 20.108-18.951l.543-.449a64.87 64.87 0 0 1 3.043-2.38c.195-.19.458-.413.752-.651a37.257 37.257 0 0 1 1.912-1.43c2.53-1.79 6.08-4.043 8.79-5.723 2.23-1.381 3.885-2.373 3.885-2.373s.826-.629 2.108-1.548c2.818-2.021 7.838-5.452 11.129-6.724 2.267-.874 13.049-3.944 15.623-4.79 2.575-.843 16.784-6.749 18.755-7.73 1.906-.951 10.994-6.122 14.6-8.278l.367-.22c.19-.048.425-.101.687-.158 4.201-.906 17.24-2.928 21.666-3.582 1.204-.227 2.959-.566 4.948-.923 3.773-.258 8.095-.575 9.256-.812.613-.122 1.743-.157 2.837-.187 1.19-.034 2.315-.065 3.02-.21.405-.081 1.206-.162 2.133-.255 2.029-.204 4.806-.483 6.917-1.088.88-.252 1.805-.477 2.77-.712 2.38-.578 5.079-1.233 7.953-2.523 4.112-1.844 3.806-4.629 3.659-5.966l-.021-.209c-.092-.933-.795-2.225-1.246-2.974.262-.075.63-.167 1.1-.264 2.07-.183 5.228-.376 7.814-.741 4.961-.232 6.56-.518 9.684-1.095l1.106-.202c3.409-.62 5.41-2.04 6.118-4.344.854-2.776-.001-4.884-.77-6.083 5.527.706 7.203-.413 7.597-.787 3.636-2.155 2.627-6.398 1.574-8.362zm-187.505-12.133c-.772 2.032-.481 4.96-2.986 9.648-5.112 9.561-26.723 17.28-30.725 21.612-2.384 2.58-5.744 4.654-9.046 6.603-3.159 1.866-8.801 4.831-12.847 2.006-2.878-2.01 3.152-6.853 9.14-10.914l12.811-8.02 2.63-1.646 10.71-6.705.868-.542 8.53-5.341c.464-.36 7.956-6.197 13.182-11.217-.965 1.701-1.824 3.348-2.267 4.516zm35.57-53.555c-.02.05-.042.085-.063.131-.743 1.67-1.419 1.714-3.131 1.423-3.48-.592-5.8.038-7.004.564-.048-.031-.07-.139-.095-.236.046-.452.08-.97.052-1.388-.048-.713 1.363-5.858 1.865-6.796.083-.156.172-.345.271-.558l.037-.077c.585-1.254 1.57-3.27 4.364-3.917 2.583-.603 4.597 1.338 5.904 3.094-.101 1.634-1.477 6.056-2.2 7.76zm23.95 26.737c-.006.023-.008.045-.015.068-.465 1.504-2.58 2.955-4.328 4.015 1.794-1.64 3.192-3.144 4.344-4.083zm-20.13-2.675a1.95 1.95 0 0 1 .237-.45c-.092.313-.236.724-.454 1.277.075-.276.156-.551.216-.827zm-6.747 16.236c-.567-1.545.957-4.127 2.736-7.225-2.337 4.803-2.826 6.927-1.905 7.518-.37-.009-.677-.08-.831-.293zm71.666-35.097.488-.252c-.193.163-.364.316-.522.461l-.026.024a.738.738 0 0 1 .032-.217l.028-.016zm68.738 46.64c.011.012.027.026.038.039.97 1.153 1.823 3.034 1.601 4.679-.003.027.005.057 0 .084-.019.126-.094.22-.127.338a5.418 5.418 0 0 1-.217.575c-.057.112-.092.238-.164.342a3.128 3.128 0 0 1-.868.852c-.376.094-2.086.491-3.75.448 2.525-.186 3.633-1.031 3.917-2.96.157-1.085-.083-2.074-.488-2.956-1.056-2.303-3.335-3.803-3.335-3.803s2.168 1.482 2.09 2.926c-.216.21-.373.314-.512.377-.57.263-.714-.417-2.218.083-.239.174-.375.345-.456.515-.505 1.06 1.74 2.004 2.128 2.447a.67.67 0 0 1 .207.362c.03.163-.043.307-.179.438-.206.2-.548.365-.939.492-.755.25-1.63.371-1.785.362-2.551-.162-4.492-1.576-6.901-1.204-1.788.26-2.408 1.424-5.045.543-5.305-2.651-14.024-1.146-16.174-.91l-.064.072-.525.576c.133-.197.264-.388.396-.594a22.561 22.561 0 0 0 1.42-2.548c.295-.624.557-1.245.725-1.845 1.098-3.939-1.99-6.003-2.08-6.057-1.598-.774-3.121-.75-4.34-.468.863-1.064 2.058-2.605 3.498-4.487.032-.022.07-.054.097-.07.005-.011.031-.012.039-.022.651-.81 9.544 2.25 14.114 4.323 1.22.554 2.147 1.04 2.505 1.359 1.02-.545 2.218-.717 3.481-.656 1.509.071 3.11.478 4.624 1.029 3.648 1.324 6.773 3.432 6.773 3.432s-1.987-1.403-4.712-2.89a48.003 48.003 0 0 0-1.168-.617l.104.03c.301.094.93.374 1.705.764 2.014 1.016 5.09 2.85 6.585 4.6zm13.374 14.143c.048.074.107.142.15.219.042.08.47.905.705 1.996a3.711 3.711 0 0 0-.625-1.324c-.24-.33-.483-.607-.632-.855-.773-1.294-2.165-1.614-2.683-2.091 1.14 1.564 3.166 3.434 2.538 3.906-.115.062-.208.094-.301.126-.78.265-.877-.371-1.319.028-.05.045-.101.09-.163.167-.252.87.203.914.194 1.853-.001.053.012.08.008.14-.032.254-1.28 2.827-3.265 1.157-.62-.439-1.075-.994-1.443-1.447-.299-.367-.543-.671-.747-.753-.154-.091-.259-.17-.388-.254-.648-.424-1.037-.777-1.241-1.063-.426-.598-.187-.936-.514-1.173-2.313-.017.425 4.02-.046 4.102-.005.002 0 .015-.005.015 0-.006-.004-.01-.004-.016-.096-1.106-1.86-.62-1.922.214-.128.967-1.431-1.813-6.185-1.117-1.38.203-.008-.831-2.212-.602-.738-.014-1.621.65-2.613.058-.693.095-.179 1.112-3.36.927-6.139-.749-7.651.316-12.115.59-3.318.11-6.974-.902-8.786-1.308a9.556 9.556 0 0 0-.696-.134c-.08-.012-.188-.035-.246-.038-.404-.01-.668-.096-.875-.209-.887-.484-.244-1.718-.25-2.284-.161-.05-.272.154-.404.41-.244.467-.565 1.112-1.431.718-.442-.42-.32-2.62-.105-5.542-.598-.776-1.123 4.882-.427 6.088-.609-.154-1.099.092-1.414.286-.712.486-3.558 1.061-5.002.8 3.844-4.308 7.798-9.228 8.052-9.546l.031-.037c.361.89.51 2.19.208 4.504 1.15-2.558.414-3.807.576-4.525.034-.15.14-.282.258-.408.447-.48 1.362-.772 1.89-.652.776.177 1.474.695 1.89 1.226.003.006.006.01.008.017.51 1.05.669 2.094.606 5.827.694-3.627.304-4.329.407-5.574.003-.044.003-.084.008-.13.059-.444.248-2.383 1.893-2.036 3.96 1.396 12.024.872 12.648.853 2.145-.103 4.906.323 5.692.85.122.17.12.315.08.463-.174.63-1.376 1.339.072 4.544.364.249-1.073-3.209.618-2.977.175.05.344.217.5.436.168.238.31.556.413.952.045.174.09.35.117.549.066-.26.056-.507.034-.75-.042-.469-.18-.895-.321-1.282-.135-.366-.253-.702-.204-.969-.003-.053.001-.101 0-.154-.007-.477.073-.88.663-.457.637.456 1.612.443 4.127.838 1.267.2 2.896.494 5.127 1.019 5.208 1.102 4.706.082 8.245 1.313-.524-.324-1.711-.78-3.156-1.27a93.69 93.69 0 0 0-1.988-.648c.305.044 1.541.24 3.055.675 2.226.64 5.016 1.802 6.275 3.76zm-9.218 16.175c-.89 1.003-2.322 1.675-4.407 2.055l-1.11.203c-.39.073-.753.14-1.105.203-.979.037-1.744.006-2.093.106-1.012.26-1.88.425-2.636.537-.834.071-1.775.136-2.926.195a8.063 8.063 0 0 1-.231-.013l-.297.038c-.47.022-.934.045-1.472.067-1.764.075-3.18.196-4.338.335-.46-.02-.922-.038-1.365-.1-1.182-.474-.91.835-3.652.957-.589.044-1.055.07-1.435.086a32.95 32.95 0 0 0-3.064-.265c2.59.013 4.835-.097 5.406-.485 1.534-1.04 2.75-.855 2.75-.855s.267-.018 2.672-.047c2.404-.03 12.902-1.009 13.815-1.338.605-.219 5.152-1.651 6.367-4.356a5.938 5.938 0 0 1-.382 1.698c-.012.03-.016.06-.029.09-.012.03-.028.054-.04.083a5.76 5.76 0 0 1-.428.806zm-67.752 20.298c-3.769.67-8.876 1.576-12.183 1.95-1.66.05-2.789-.097-2.896-.536l-.01-.68c-.003-.022.046-.089.06-.127 1.168.237 4.143.663 7.713-.202 4.605-1.114 11.393-1.574 12.102-2.96.708-1.385-.364.56 2.45.637s9.68-1.191 10.497-.98c.817.213 2.175.522 4.392-.297 2.218-.82 3.355.174 3.754.146 1.331-.09 5.82-.929 6.202-1.222.381-.294 9.502-1.848 11.567-4.93.18-.269.283-.529.396-.788-.174 1.077-.854 2.293-3.043 3.274-2.784 1.25-5.432 1.893-7.767 2.46a72.19 72.19 0 0 0-2.813.722c-1.318.379-2.927.62-4.446.802-1.572-.165-2.07-.613-2.554-.335-1.061.712-1.972.716-2.787.85-1.14.188-4.706-.13-7.379.301-1.582.387-3.655.516-4.472.554-.77.036-2.753.381-3.413-.503-.587.524-2.282 1.128-4.444 1.7l-.926.164zm27.477-42.603c.105.164.027.094-.099-.036l.06-.072c.011.035.013.069.039.108zm1.015 11.03 6.755 1.012s7.84-.362 14.632-.696a2153.792 2153.792 0 0 0 6.159-.312c5.193-.277 8.746 1.683 10.139 2.625l.343.315c-1.597-.68-5.262-1.113-9.566-1.208-.5-.012-1.548.062-1.782-.99-.329.977-1.285.946-2.094.943-2.993-.01-6.541.023-10.72.084-5.012.16-12.564.583-14.006-.818-.925 1.157-5.27.712-8.836.256l8.976-1.212zm48.836.433c.534-1.153.649-2.033.566-2.742.243 1.518.028 3.41-2.013 4.589l-.139.115c-.011.01-.875.82-4.302.698a20.937 20.937 0 0 0-.868-.113c2.693-.243 5.985-.88 6.756-2.547zm-9.74 3.556c.224.307.415.628.562.975-.1-.154-.18-.304-.303-.464a9.828 9.828 0 0 0-.927-1.044s-.033-.04-.119-.107c-.214-.164-.764-.493-2.009-.801.804.138 1.446.33 1.876.581.105.065.193.15.29.229.036.029.073.056.109.086.19.17.367.338.52.545zm-49.44-2.594c.59.071 1.288.159 2.044.251-1.455-.069-2.554-.108-2.96-.08-.18.011-.323.015-.448.014l1.364-.185zm-1.534.045.103.14a2.08 2.08 0 0 1-.223-.017c.04-.043.079-.08.12-.123zm.098 1.35c.633-.114 3.377-.968 3.166 1.86-.063.829 1.31-3.164 2.794-.04.374.783.919-1.905 2.153-1.625 1.032.237 2.17 1.109 3.433 1.205 2.021.195 14.1-.908 15.656-.54 1.892.45.468 1.82 1.688 2.045.61-.126 1.168-.476 1.315-1.13.282-.307.03-.746.543-.99.417-.196 1.661.378 2.363.325.945-.071 2.066-.934 3.542-.971 1.199-.032 4.606.412 5.694 1.884 1.226.363-.394-1.61.647-1.526.456.035 1.077.725 1.766.611.69-.111.62-.456 1.519-.621 1.87-.387 3.124.055 3.951 2.184.232 1.533-.542 3.555-1.563 4.091-1.105 1.126-5.31 2.797-6.588.495-.452-.642-1.65-1.903-2.544-2.034-1.592.01 1.89 3.434.582 4.64-.57.463-2.994.347-4.018.292-1.137-.059-4.92 1.027-6.282-.315-.281-.2-.697-.952-1.276-.794-.5.39-.582-2.276-.35-4.315-1.113.092-.206 4.968-.801 5.244-.519.243-2.816-.34-3.676.332-.922.487-1.229.896-3.155 1.296-1.926.399-5.156-.118-6.62-.234-1.633-.129-2.785.54-3.65.384-1.255-.227-1.106-.175-1.836-.466-.923-.369-2.122.482-2.74.354-.58-.12-.427-.92-.427-.92s1.217-3.51.566-5.19c.11 3.2-1.288 4.637-1.753 4.873-.721.368-1.888-3.247-1.324-7.131-1.319 3.348.078 6.432-.076 7.236-.212 1.104-2.697 1.73-6.551 1.795-.878.016-7.597-.878-7.607-1.94-.166-1.204 4.318-3.703 5.823-4.753 1.004-.701 2.902-4.845 5.636-5.61zm1.432 12.219s1.773-1.458 1.827-.66 1.313-.355 1.313-.355.48 1.17 1.28 1.116c.798-.054 5.36.172 5.36.172s3.07.214 6.45.327c-2.467.002-5.193.109-7.81.317-.642.022-1.728-.64-1.992-.374-.927.683-3.09.72-3.253-.537.003-.731-.75.814-1.282.807-.366.015-.36-1.099-.718-.773-.72 1.016-2.365 1.038-2.633 1.028-7.816-.003-14.202.013-14.428-1.045.415-.356.768-.653.976-.8.035-.027.147-.129.3-.269-.32.426-.524.748-.512.868 0 0 10.393 1.434 15.122.178zm-8.856 6.057c.176 1.517.411 5.523-.63 5.624-.637.06-1.648-.416-1.886-1.384-.958 4.082-1.662-2.155-1.74-3.324-.961 2.535 1.717 5.308-1.68 6.63-3.37 1.577-9.966 4.489-11.465.479 1.017-2.744-1.694-2.072-.494-3.335.975-1.026 6.424-4.395 7.708-6.76.584-.739 2.527-1.655 3.87-.953 3.426.936 4.285.566 5.715 1.388 1.761 1.08 1.743 3.954 1.563 5.46 1.682-2.913-1.277-5.976.04-6.84 1.41-1.519 10.69.18 11.883.5.914.244 1.126.714 1.852.775.904-.007 1.377-.694 2.218-.598 3.023.217 3.879-1.806 6.185-1.526 1.344.305 3.885.334 6.206-.39 1.114-.162 5.24.377 5.008 3.488-.217 1.83-2.05 2.947-4.723 2.326-1.027-.019-2.292.975-3.22 1.823-1.459 1.647-6.068 2.387-8.344 2.17-2.437-.231-1.98-3.054-2.569-3.062-.432-.095-.82 1.34-1.548 2.089-.707.674-2.756 1.122-4.017 1.327-1.178.192-4.534.589-5.514.699-.882.098-3.063.168-3.857-1.293-.441-.283.738-3.322-.561-5.313zm31.955-4.762a.8.8 0 0 0 .035.013l-.041-.015.006.002zm-9.385-.459a59.064 59.064 0 0 1 4.803-.032 123.47 123.47 0 0 0-4.803.032zm-1.158-84.955c.208-.295.3-.433.32-.542 2.05-.522 4.604-.742 5.781-.085.533.298 2.475 1.507 3.023 3.568.219.829.2 1.8-.214 2.9-.06.162-.116.323-.196.491-.066.141-.149.266-.22.403l-.033-.016c-.052.095-.136.217-.21.329-.938 1.452-3.575 4.127-4.864 4.215h-.004c-.458-.02-1.001-.275-1.57-.668-.726-.5-1.495-1.241-2.223-2.21-1.231-1.635-1.953-3.354-1.75-4.192.112-.586.49-1.47 1.039-2.482.032-.057.047-.102.079-.16.077-.125.149-.227.225-.345.31-.48.609-.913.817-1.206zm38.17 77.668c.032-.323.032-.61.032-.897 0-.007.003-.013.004-.02a5.97 5.97 0 0 1-.035.917z"/></svg>