<svg version="1.1" id="Layer_1" xmlns="http://www.w3.org/2000/svg" x="0" y="0" width="400" height="200" style="enable-background:new 0 0 400 200" xml:space="preserve"><style>.st0,.st1{fill:#3c3c3c}.st1{fill-rule:evenodd;clip-rule:evenodd}</style><path class="st0" d="M312.015 106.584c-5.92-3.754-11.306-6.344-15.58-7.49-4.668-1.23-11.32-2.25-16.51-.1-2.546 1.3-4.04 2.846-4.567 4.727-.623 2.223.086 4.88 2.231 8.362 3.585 5.817 9.32 9.441 12.4 11.388l.5.317-.274.153.735.446c.778.471.816.704.824.7l.001-.001c-.911 3.665-5.639 13.005-12.974 25.63-.264.29-.38.342-.513.408l-.118.053a2.166 2.166 0 0 0-.54.378c-.974.781-6.44 9.722-14.348 22.907-1.177 1.963-2.107 3.513-2.21 3.66-.26.378-1.012 1.046-1.673 1.635-.469.417-.91.81-1.194 1.11l.002.003c-1.98 2.109-21.908 40.604-25.937 48.405l-.41.794 3.243-.24-.52 1.041 2.47-.756s.668-1.345 1.758-3.532l.463-.034c.29-.534.592-1.091.901-1.664l.177-.327.176-.326c4.15-7.704 9.638-18.192 11.58-21.816 2.146-4.188 4.23-8.351 5.95-11.958a98.329 98.329 0 0 1 .985-2.093 3.592 3.592 0 0 1 .338-.7c.035-.054.075-.1.114-.148l.045-.059a1.33 1.33 0 0 1 .361-.29c.102-.057.213-.094.332-.116.2-.037.426-.02.679.061.092.03.183.057.283.104 2.352 1.124 3.82 1.76 3.336 2.875-.036.048-.088.131-.134.199a17.61 17.61 0 0 0-.542.89c-2.53 4.384-10.098 19.483-15.736 30.391l-.167.324-.168.323c-.324.626-.64 1.234-.949 1.827l8.214-3.165.425-.836 1.69-.527.096-.188c.604-1.188 14.808-29.113 15.353-31.04.344-1.22.242-2.266.151-3.19-.057-.59-.107-1.1-.029-1.567.13-.773 3.867-9.213 6.87-15.995 2.302-5.202 3.977-8.995 4.808-10.986l.364.134-.282-.329c.293-.709.464-1.157.5-1.32.104-.428.015-.804-.07-1.168-.081-.352-.166-.715-.097-1.186.229-1.205 8.744-18.045 12.372-23.934.146-.236.487-.79.598-.851.026-.008.125-.006.22-.005l.165-.02.106-.051c.032-.016.049-.043.078-.06.626.274 1.277.547 1.952.812.96.445 2.182.968 3.796 1.413l.091.025c2.554.705 8.536 2.355 13.658 1.047a10.762 10.762 0 0 0 1.982-.738c3.27-1.585 6.217-4.85 4.676-9.27-1.562-4.146-4.27-9.106-12.507-14.466zm-40.268 76.794c-.098.587-.04 1.185.023 1.82.085.875.174 1.782-.119 2.82-.264.932-4.407 9.29-8.518 17.475a3109.071 3109.071 0 0 1-6.669 13.194l-.357.112-.674.21-4.384 1.367 3.325-1.33s9.623-18.929 13.58-27.163l.046-.094c.07-.003.137.007.207-.003l.126-.016 1.393-.183.279-.036-.216-.093-.626-.271-.475-.206-.25-.108c.324-.684.584-1.247.783-1.693.184-.413.31-.714.365-.882l.026-.071c.537-1.902-.096-3.995.12-5.276.136-.991 9.864-19.854 12.95-26.123l.378-.776.008.003.26.096.147.054c-.947 2.257-2.958 6.799-4.785 10.927l-.226.51c-2.854 6.448-5 11.32-6.032 13.855-.414 1.015-.655 1.668-.685 1.881zm14.968-62.68c.337.222.618.404.813.538.262.18.78.463 1.41.78.434.28.855.545 1.26.791l-.683-.23a62.515 62.515 0 0 1-2.8-1.879zm28.815 8.633c-.771.146-1.918.255-3.491.156-2.433-.153-5.89-.815-10.57-2.632-.977-.38-2.008-.81-3.094-1.297l-.075-.026a.307.307 0 0 0-.017-.015c-.307-.138-.617-.28-.933-.427a1.09 1.09 0 0 0-.28.029l-.21-.07a49.855 49.855 0 0 1-2.392-1.136 1.211 1.211 0 0 0-.104-.288c-.6-.308-1.215-.635-1.843-.975l-.18.1c-1.414-.824-2.85-1.765-4.64-2.985-.016-.01-.029-.02-.044-.031a42.025 42.025 0 0 1-1.854-1.429c-2.986-2.493-5.919-5.676-7.445-9.437-.22-.908-2.657-5.685 5.84-6.535 2.98-.205 8.582.235 14.898 3.259 3.141 1.338 13.156 6.292 18.555 13.879.856 1.134 1.555 2.304 2.005 3.49.793 1.794 1.326 3.453-.335 5.378-.044.042-.098.076-.144.115-.96.564-2.004.808-3.647.877zm-31.724 23.62c-.01.46.074.833.146 1.144.025.107.041.195.057.284.029.156.044.3.012.43-.02.093-.11.334-.257.697l-.111-.13-.13-.151c-.017-.02-.028-.044-.043-.065.084-.19.133-.311.131-.337.106-.434-.102-.906-.216-1.479.077-.296.184-.623.32-.981.548-1.455 1.56-3.432 2.952-6.03-1.611 3.252-2.759 5.725-2.828 6.2-.022.149-.03.285-.033.418zm-4.218.056c.03-.068.053-.14.088-.203l.002-.003c1.273-2.424 7.117-11.946 14.314-27.19l.06-.126.045.024.066.036c.671.368 1.023.54 1.673.836l.008.004-.077.154-.376.744c-1.8 3.64-3.42 6.806-4.863 9.564-.753 1.47-1.452 2.835-2.08 4.066-.56.975-1.06 1.874-1.53 2.733l-1.248 2.33a121.144 121.144 0 0 0-1.477 2.933c-.342.7-.647 1.342-.914 1.913-.266.566-.501 1.074-.71 1.522-.058.161-.11.316-.156.464-.15.272-.295.53-.427.754-.479.96-.826 1.49-1.224 1.685-.07.013-.122.001-.185.005-.006.002-.012 0-.018.001-.342.02-.604-.074-.79-.25-.46-.434-.478-1.306-.18-1.996zm16.067-23.727c.197-.367.39-.723.567-1.055.262-.49.494-.845.715-1.117.038-.047.08-.114.116-.155l.224.101c-.06.038-.121.078-.179.13-.217.2-.427.516-.75 1.04-.314.51-.67 1.11-1.055 1.78l.362-.724zm24.321-7.221c.172.38.34.752.49 1.12-.057-.123-.11-.241-.173-.368a13.836 13.836 0 0 1-.317-.752zm-28.435 6.641c.592-1.413 1.002-2.564 1.215-3.426a1.032 1.032 0 0 0-.012-.363c-.012-.057-.038-.107-.058-.16l.082.044c.045.065.075.127.105.19.052.11.086.217.072.312-.088.357-.23.79-.4 1.262-.286.626-.624 1.346-1.004 2.141zm-30.025 56.954-.007-.042c-.017-.195.034-.478.149-.84l.007-.024v-.007c.191-.677.506-1.333.76-1.818 1.792-3.77 5.736-10.153 7.64-13.426l.045-.077 1.214-2.124c.278-.494.56-.995.843-1.502 1.855-3.322 3.77-6.82 5.104-8.898.112-.175.22-.341.323-.495l.007-.01.007-.008c.087-.103.171-.19.253-.265.047-.043.102-.081.154-.121.034-.026.07-.059.104-.08l.01-.01c.195-.126.415-.213.65-.183.045.016.086.037.13.054.081.025.16.06.236.103.238.122.44.278.59.461.243.235.448.573.266 1.098-.007.02-.023.055-.032.079a8.15 8.15 0 0 1-.21.477c-1.688 3.593-10.944 20.765-13.135 26.812-.23.637-.385 1.153-.442 1.514v.002l-.003.013c-1.59 1.95-2.325-.116-4.582-.488-.044-.042-.068-.112-.081-.195zm58.227-55.844a7.24 7.24 0 0 1-1.95.312c.92-.24 1.477-.422 2.077-.855.361-.187.7-.428 1.105-.798.932-.852 1.445-1.972.603-4.364 0-.002.002 0 .002-.002-.087-.518-.184-.947-.195-1.307.383.594.755 1.134.792.947-.112-.696-.241-1.228-.157-1.653 1.765 1.339.812 5.364.812 5.364s.463-.54.794-1.521c-.027.215-.056.406-.084.572-.877 1.436-2.296 2.556-3.798 3.305zm.98-13.95c.235.35.604 1.143.879 2.009-.562-.772-1.083-1.303-1.521-1.627.227.342.585 1.104.86 1.943-1.998-2.848-5.423-6.138-11.066-10.111 1.483.788 3.548 2.012 5.782 3.576.185-.062-.185-.6-1.007-1.424.522.335 1.059.688 1.606 1.063.331-.112-.928-1.593-3.352-3.502 5.222 3.607 7.967 7.012 9.633 10.083-.672-.992-1.298-1.637-1.814-2.01zm-22.843-15.797c-.1-.019-.172-.027-.266-.044-1.98-.52-8.247-2.01-13.473-1.602 4.182-.542 8.72.252 12.166 1.16.598.16 1.222.357 1.863.574-.097-.029-.193-.06-.29-.088zm-21.06 1.912c-1.925 2.83-.604 5.506-.604 5.506s-.766-3.91 2.704-5.817c3.807-1.784 9.213-1.178 13.445-.22.306.073.615.136.917.216 1.521.4 2.99.88 4.314 1.363.06.052.12.101.178.15a44.867 44.867 0 0 1 3.37 1.367c5.024 2.308 9.734 6.015 12.238 8.155.196.168.374.322.542.47.84.734 1.33 1.2 1.33 1.2s-2.62-2.071-6.185-4.405a83.17 83.17 0 0 0-1.968-1.25c.208.142.414.282.614.421-2.352-1.414-5.136-2.964-7.976-4.26-7.666-3.496-14.61-3.436-14.61-3.436s-6.658.21-7.749 4.495a8.84 8.84 0 0 0-.116 1.182c-.009.151-.005.304-.001.457.003.158-.011.311.003.47.027 2.782 1.394 4.615 2.4 6.124a24.554 24.554 0 0 1-1.651-2.342c-2.067-3.355-2.758-5.886-2.176-7.965.188-.67.516-1.294.98-1.88zm-42.15 124.838.167-.323.167-.324c9.596-18.527 22.713-43.465 23.847-44.543l.081-.07c.254-.268.68-.647 1.131-1.05.739-.656 1.502-1.336 1.831-1.81.116-.168.81-1.325 2.245-3.716a2466.808 2466.808 0 0 1 5.54-9.195c3.818-6.287 7.926-12.925 8.601-13.468.018-.016.03-.022.046-.037.13-.114.225-.174.364-.237l.114-.053c.102-.049.204-.11.319-.2.054-.04.11-.088.17-.145l-.054.095-.002.003c-.67.747-.823 1.086-1.138 1.408-1.432 1.15-15.026 25.514-15.513 26.217-.488.703-2.15 2.254-2.832 2.975-1.112.763-16.094 30.443-22.401 43.003l-.161.322-.162.32c-.13.262-.257.513-.379.756l-1.026 2.048-2.056.151 1.1-2.127z"/><path class="st0" d="M291.906 116.624c-1.681 1.223-3.541 2.04-3.562 2.048l.047.108.054.121c.004-.002.15-.067.386-.18l.075-.035a22.265 22.265 0 0 0 2.82-1.63c.11-.075.219-.15.327-.23.636-.462 1.693-1.313 2.878-2.404 2.123-1.954 4.66-4.688 5.948-7.41l-.225-.107c-1.976 4.174-7.107 8.524-8.748 9.719z"/><path class="st0" d="M290.755 116.306c1.364-.964 5.26-4.137 6.872-7.206l-.221-.117c-1.582 3.011-5.535 6.229-6.796 7.118a17.567 17.567 0 0 1-2.718 1.543l.1.229a17.909 17.909 0 0 0 2.763-1.567zM301.202 109.915c-1.84 2.782-6.088 5.936-7.43 6.82-1.378.909-3.679 2.061-3.702 2.073l.112.224c.023-.012 2.337-1.17 3.728-2.088.856-.564 2.66-1.878 4.38-3.44 1.197-1.086 2.353-2.29 3.121-3.452l-.186-.122-.023-.015z"/><path class="st1" d="M260.208 70.707s11.845 7.717 21.097-7.963c7.069-13.884 1.014-20.682-4.661-23.959-7.28-4.203-20.224.776-23.674 13.283-3.571 12.946 7.238 18.64 7.238 18.64m-89.836 106.426c.585-1.032 4.89-9.668 6.618-12.675 1.728-3.009 2.096-4.963 4.45-4.827 5.118-10.388 6.069-11.513 4.652-13.544-1.45-2.072-4.335-6.073-3.91-7.845.254-1.064 14.819-40.354 16.79-45.943 1.972-5.592 6.82-21.063 8.164-25.154 1.339-4.09 5.513-14.985 3.516-18.875-1.998-3.895-4.834-3.065-3.304-2.207 1.53.857 2.606 2.882 2.528 5.761-.079 2.878-2.952 11.463-7.736 27.358-4.785 15.893-18.026 51.035-20.198 56.744-2.168 5.709-9.122 23.156-10.384 26.137-1.263 2.98.016 4.054.773 5.084.755 1.032 1.268 1.445.804 2.933-.464 1.486-4.257 9.349-4.547 10.084-.265.668 1.198-2.001 1.784-3.03zm75.662-119.237c-3.548 3.839-8.344 1.395-12.272-.49-3.926-1.884-3.489.459-2.846 1.192.643.736 8.021 3.423 6.191 7.236-1.828 3.814-18.62 28.44-23.876 36.433-5.258 7.993-5.856 10.121-4.173 7.804 1.683-2.32 18.179-27.516 25.574-37.892 7.396-10.379 10.404-8.65 12.26-7.191-5.81-1.51-9.88 5.49-16.889 15.06-7.007 9.567-21.816 32.73-25.393 38.403-3.575 5.674-15.005 25.344-15.558 26.498-.555 1.155-.828 2.021-.828 2.021l-2.703-4.14 1.077-.763s13.91-22.173 20.733-32.543c6.822-10.368 27.632-41.593 28.74-43.902 1.11-2.31-1.038-4.052-4.503-5.715-3.467-1.662-2.737-2.592-2.181-3.747.502-1.163 1.402-1.042 1.757-.998 1.5.427 7.36 4.804 11.242 3.826 3.878-.982 9.38-11.557 9.38-11.557s-2.185 6.627-5.732 10.465zm-75.093 112.056-8.276 17.439s-.458.008-.26-1.363c.198-1.373 5.176-14.149 5.176-14.149l3.36-1.927zm-3.385.45s1.214-3.967 1.521-4.7c.307-.73.53-.34.53-.34s.528.995 1.24 2.117c.709 1.12.614 1.394.614 1.394l-.215.448-3.509 2.039-.18-.958zm-2.01 15.885c.502-1.05 5.455-9.273 7.176-12.857 1.72-3.586 3.205-4.579 5.366-8.318 2.16-3.738 2.35-3.465 2.245-3.147-.106.315-.487 1.012-3.685 6.914-3.197 5.9-9.776 17.127-10.613 18.385-.832 1.262-1.316.836-1.316.836s.32-.762.826-1.813zm18.365-44.807c.298-2.363 5.493-17.395 5.493-17.395s17.918-53.928 19.484-59.856c1.566-5.928 2.72-8.928 3.382-10.598-.079-1.318.73-4.484 1.56-6.215.832-1.732 1.714-.315 1.713-.314 0 0-.832 1.731-1.55 3.234-.722 1.502-.293 3.27-.625 3.964-.33.694-2.13 2.958-2.823 6.177-3.083 14.72-18.459 57.428-22.718 69.666-4.26 12.238-3.636 12.123-3.636 12.123.002 0-.29-.187-.28-.786zM206.986 4.95c-8.426-2.942-17.121 3.701-20.37 14.868-3.25 11.168 3.35 17.69 8.226 19.117 1.764.49 3.389.755 4.885.837l.003-.01c14.221.744 16.885-15.33 16.885-15.33s2.395-8.465-2.498-14.646l.004-.012c-1.548-1.947-3.825-3.668-7.135-4.823zm6.28 35.428c.643-2.571-4.11-.164-4.675.518-.566.68 1.442.217.606 1.958-.835 1.742-3.64 2.086-5.19 1.341-1.55-.743-5.651-.926-10.728-3.098-11.86-4.955-11.236-17.966-7.836-25.546 3.4-7.583 12.373-19.027 24.891-12.724 11.924 6.008 10.711 18.568 6.912 29.46-3.74 10.726-2.847 13.42-2.847 13.42s-1.771-2.756-1.133-5.329zm-.942-4.285c8.3-8.565 6.823-21.369 3.529-26.357-2.49-3.763-11.238-11.413-21.403-4.221-4.96 3.836-13.784 16.718-7.988 28.358 2.875 4.473 7.288 5.996 7.288 5.996s10.273 4.787 18.574-3.776zm53.503 37.413c4.151.443 12.411-1.577 17.68-12.265 5.271-10.686 2.24-20.953-6.936-24.928-9.176-3.978-17.977 4.589-20.674 7.842-2.699 3.253-3.448 3.036-2.5 1.359 12.364-18.367 23.728-10.357 28.537-7.054 4.811 3.303 8.43 14.419.66 26.464-7.77 12.045-17.09 9.848-17.09 9.848s-9.57-2.325.323-1.266zM221.851 55.59c.818-1.597 1.45-4.112 1.45-4.112l.64.304s-.832 2.278-1.112 3.08c-.28.8.695 1.268.695 1.268s-.67-.008-1.673-.54zm-2.561-.66c.819-1.597 1.679-4.574 1.679-4.574l.638.306s-1.058 2.737-1.34 3.538c-.279.804.695 1.27.695 1.27s-.671-.008-1.672-.54zm-2.621-.63c.818-1.596 1.788-5.147 1.788-5.147l.639.305s-1.172 3.312-1.451 4.114c-.28.8.693 1.269.693 1.269s-.671-.01-1.67-.542zM197.66 44.132c-1.678-.408-3.262-.83-4.457-1.356-14.434-6.071-10.44-21.78-10.44-21.78s6.622-25.958 25.754-19.896c3.298 1.043 5.779 2.617 7.61 4.545l-.002.007c9.458 9.977 1.695 29.448.082 34.64-1.926 6.197 1.21 7.47 2.16 8.28.951.811 6.508 3.244 6.508 3.244s1.504.431.7 2.745c-.798 2.311-2.223 1.937-2.223 1.937s-5.07-1.57-7.286-1.585c-2.213-.014-4.441 5.815-5.348 9.79-4.345 15.97-23.765 71.064-25.045 74.14-1.28 3.079-.474 3.595-.474 3.595s21.031-33.583 24.217-38.448c3.19-4.866 22.607-33.759 24.388-36.896 1.783-3.135-.363-4.374-.363-4.374s-4.168-3.253-4.648-3.553c-.482-.299-1.538-1.434-.132-3.494 1.291-1.925 2.856-1.024 2.856-1.024s1.395.626 3.894 1.988c5.497 3.348 7.461.738 8.533-.312 1.074-1.05 1.24-1.395 8.802-12.119 7.56-10.724 19.476-14.529 28.647-7.285 9.171 7.243 8.336 19.348 2.867 28.377-11.59 16.75-22.974 10.859-31.264 5.034-8.289-5.824-10.499-4.184-13.77-.923-3.268 3.264-17.76 24.873-25.475 36.803-7.714 11.93-22.044 36.458-23.35 38.889-1.31 2.426-4.48 8.294-6.875 12.547-7.027 15.385-15.918 29.025-16.672 30.155-.757 1.13-2.15 1.202-2.546 1.076-.398-.127-.224-.333-.224-.333l8.754-19.274s.067-.328-.262-.483c-.326-.157-.522.152-.522.152l-8.85 18.536s-.22.745-.716.373c-.495-.374-1.248-1.227-.893-2.623.867-3.397 6.813-19.47 7.465-20.926.655-1.453 5.393-11.436 5.393-11.436s2.582-6.859 13.301-34.827c10.722-27.967 19.11-58.474 20.31-62.16 1.201-3.688.982-6.493-1.516-8.688-1.673-1.468-5.467-2.235-8.887-3.063v.005z"/><path class="st0" d="M153.178 230.086c1.066-20.782 3.325-69.584 1.62-70.047l.125.28c.066.365.735 1.673-.91 3.486-.481.453-.696 1.247-.79 2.412.04.4.059.818.021 1.251.008.568-.019 1.918-.074 3.79.005 2.263-.027 5.062-.296 8.456-.358 9.368-1.724 40.322-2.315 51.634l2.619-1.262zm1.04-56.134c-.064-2.739-.008-6.167.2-8.2.084-.796.5-1.47.643-1.57.236-.163.183.564.266 1.101.297 3.981-1.248 33.095-1.35 32.61-1.312 1.484.351-19.305.24-23.941z"/><path class="st0" d="M154.784 160.031c-.836-2.809-.792-7.502-.547-11.457.219-1.607.525-3.869-.145-5.825-.007-.033-.025-.07-.034-.102-.034-.091-.057-.185-.095-.274l.003.015c-.176-.417-.483-.92-.964-1.526-.148-.192-.312-.39-.498-.6.05.06.083.112.127.169.055.07.103.136.154.204a10.218 10.218 0 0 1-.194-.252c-.028-.042-.058-.079-.087-.121-.084-.101-.188-1.144-.305-2.766-.33-4.655-.754-14.138-1.02-20.208-.06-2.794-.11-4.965-.16-5.775-.16-1.3-.46-2.339-.856-3.405-.724-2.186-1.827-4.961-2.614-7.96a46.708 46.708 0 0 1-.54-2.48c-.063-.35-.133-.699-.181-1.05-.043-.302-.087-.6-.116-.9l-.014-.116c-.011-.06-.018-.152-.026-.232a5.352 5.352 0 0 1-.006-.806c.002-.014.002-.028.005-.045.017-.204.062-.434.114-.667.026-.119.064-.241.101-.372a4.95 4.95 0 0 1 .25-.708c.058-.123.117-.242.184-.364l.052-.085c.065-.106.128-.212.2-.316.054-.073.113-.147.169-.217.114-.146.251-.29.38-.432.41-.412.924-.789 1.572-1.105 1.553-.702 3.352-.755 4.641-.665 2.57.222 5.325 1.022 6.756 1.438-.01-.018-.03-.039-.038-.056l.041.029c-.041-.067-.097-.121-.142-.184a3.524 3.524 0 0 0-.217-.28c-1.642-1.938-5.054-2.554-7.862-2.494-.866.001-1.733.074-2.477.255-.61.125-1.119.282-1.445.467-.94.403-2.255 1.075-3.482 2.689a.486.486 0 0 1-.037.04c-.018.025-.03.053-.048.076-.074.098-.146.188-.219.294-.033.05-.055.11-.085.163a4.893 4.893 0 0 0-.433 1.007 6.62 6.62 0 0 0-.264 1.46 4.833 4.833 0 0 0-.026.357c-.007.192-.005.387-.002.583.005.137.005.27.014.409.013.209.035.42.062.634.015.123.023.244.041.366.046.294.104.59.17.887.009.045.015.087.025.13.083.364.182.728.299 1.085a50.104 50.104 0 0 0 .662 2.379c.888 3.067 2.203 7.41 2.64 9.73.015.1.035.206.043.294.037.406.03.953-.003 1.582a81.459 81.459 0 0 1-.228 2.626c-.374 3.341-1.065 7.571-1.428 10.23-.226 1.654-.414 3.465-.64 5.262-.37 2.377-.978 5.635-.998 5.742-.068.265-.129.542-.203.794-.006.017-.013.031-.015.048-.121.404-.254.784-.395 1.144-.024.061-.055.127-.08.191-.137.332-.285.655-.443.944-.034.055-.06.11-.095.166a5.93 5.93 0 0 1-.41.61c-.153.156-.398.326-.677.559a4.081 4.081 0 0 0-.561.562c-.12.147-.222.301-.314.456a7.006 7.006 0 0 0-.095.165 3.956 3.956 0 0 0-.12.263c-.054.127-.112.252-.155.398-.023.05-.04.123-.057.185a5.42 5.42 0 0 0-.162.704c-.01.055-.023.107-.03.162-.015.084-.025.178-.036.267-.175 1.265-.257 3.005-.37 4.451l-.016.21c-.237 2.581-.564 5.611-.897 7.92a52.612 52.612 0 0 1-.483 2.753c-.03.107-.052.22-.079.31a.363.363 0 0 0-.115.059c-.892.455-1.228 4.246-1.415 5.15-.966 6.532-1.28 21.5-1.28 21.5l-.028 2.755c-.41 13.065-1.28 42.76-1.478 49.578l1.103-.573c.172-8.468 1.615-66.135 2.952-74.383v-.005c.092-.562.188-1.053.288-1.44.044-.163.09-.3.134-.432.927 1.208 2.964 2.36 5.02 2.88a2.723 2.723 0 0 0-.11.269c-.06.147-.118.321-.172.51-.106-.034-.212-.069-.326-.113-.372-.138-.749 1.104-1.115 3.217-.313 1.807-.616 4.25-.9 7.032-.933 9.173-2.638 48.37-3.017 61.053a617 617 0 0 1 9.955-4.915c.522-9.642 1.695-34.571 1.93-38.603.585-10.06 1.04-20.504 1.005-25.14.003-1.47-.45-2.833.096-3.464.333-.228.643-.476.934-.74 1.276-1.162 2.09-2.64 2.013-4.208l.002-.004-.003.003c-.005-.001-.005-.005-.01-.005zm-5.403-70.706c-.011.003-.026.004-.037.008 1.346-.673 3.675-1.004 5.153-.84 2.544.286 4.449.73 6.495 2.41-.04-.022-.078-.035-.119-.058-4.352-2.306-7.978-2.417-11.492-1.52zm-3.065 7.891s-1.363-3.488.982-5.812c1.901-1.885 4.196-1.873 4.196-1.873s-.167.024-.434.088a7.77 7.77 0 0 0-1.458.523c-.084.048-.172.088-.257.14-.237.12-.455.252-.656.39-.063.042-.121.091-.18.135-.143.107-.287.213-.422.337-.062.054-.117.12-.175.18-.127.124-.255.237-.37.376-.089.12-.169.244-.247.366-.8 1.26-1.03 2.638-1.064 3.656a7.41 7.41 0 0 0 .085 1.495zm2.233 65.217c.705-3.963 1.452-10.253 1.563-12.26.06-1.076-.053-1.891-.197-2.674-.341-.814.345-1.193 1.34-1.691.617-.309 1.353-.668 2.035-1.206-1.992 4.209-1.684 16.215-.993 18.455.012.036.043.11.086.204-.369.267-.75.496-1.13.693a5.015 5.015 0 0 0-.482-.432c-.676-.535-1.482-.923-2.076-1.097-.053-.02-.099 0-.146.008zm-1.573 5.46c.034-.632-.057-.972-.279-1.184l.048-.001a9 9 0 0 0 1.663-.225c1.093.298.78 3.801.78 3.185-.688 16.84-2.285 49.82-2.765 57.188-.665.978-1.189-2.897-2.112-.241-.062-.021-.116-.064-.175-.088.832-9.983 2.755-53.95 2.84-58.635zm2.292-20.132c.396 2.336-1.073 13.265-1.871 16.547-.054.44-.416.64-.91.696a20.31 20.31 0 0 1-1.7-.214 7.62 7.62 0 0 1-.583-.194c-.074-.027-.149-.05-.219-.08-.441-.144-3.263-1.095-4.359-2.593.094-.182.192-.317.295-.34 1.131-.47 1.681-6.409 1.896-8.173.281-2.294.209-7.518.5-8.927a3.78 3.78 0 0 1 .227-.66c.06.14.13.278.222.42.47.607 1.163 1.21 1.996 1.675.329.182.683.346 1.056.475.367.127.749.232 1.147.287.634.005 1.832-.007 2.303 1.08zm-1.068-40.246c1.373 3.118 1.457 4.464 1.646 6.137.262 2.333-.22 7.986-.555 12.771-.458 4.203.386 12.33-1.626 12.539-1.314.138-.721-6.196-.261-10.315l.16-1.506c-.315 2.651-.612 5.297-.809 7.689.008.31.014.646.014 1.049 0 0-.623 9.875 2.114 4.871-.12 1.45-.243 2.625-.36 3.42-.1.66-.198 1.068-.295 1.126-.011.003-.024.005-.035.01-.075.032-.152.044-.224.072a1.67 1.67 0 0 1-1.108-.663c-1.33-1.717-.965-6.448-.32-11.693.255-2.089.555-4.255.807-6.342.012-.092.022-.182.032-.273.204-1.703.374-3.344.462-4.845.025-.445.047-.881.055-1.299l.446-3.83c.064-.55.124-1.078.186-1.584.154-1.289.277-2.305.338-2.784 0 .007.002.012 0 .019v-.03c.005-.494-.028-.964-.07-1.413-.174-1.842-.629-3.193-.597-3.126zm3.563 35.62c-.45.239-.867-.368-.887-2.052-.227-6.478.208-23.527.077-28.47-.002.004 0 .008 0 .015.056 1.962.167 4.724.294 7.796.052 1.28.11 2.613.166 3.962.049 1.124.095 2.258.14 3.388.131 3.2.247 6.326.317 8.918.097 3.68.098 6.278-.107 6.444zm2.662 16.684c-2 4.686-1.974-.688-1.947-5.532.025-4.379 1.165-10.116 1.647-8.92-.336 2.72-1.13 10.132.3 14.452z"/><path class="st0" d="M144.46 163.933c.805.266 1.897.284 2.082 0 1.071-.87 2.158-9.823 2.267-15.716-.243-1.55-1.322-.599-2.674-1.225-.15-.046-.263.027-.359.224-.011.023-.024.046-.034.073-.428 1.106-.485 5.364-2.162 15.816-.03.24.126.442.378.602.14.089.316.164.502.226z"/><path class="st1" d="M142.847-2.616c4.266.866 5.86.343 5.86.342 0 0-.24 1.037-.918 2.647-.515-.226-3.471-1.218-5.975.02.087 2.155-.847 3.69-.85 3.69 0 0-.273.097-.706.5 3.628 1.212 5.654.283 5.654.283s-.507 1.239-1.077 2.693c-.662-.543-3.953-.855-5.606-.125-.08 2.516-1.543 5.876-1.543 5.876s-.052-.002-.752.289c2.51 1.554 5.338.378 5.338.378s-.175.567-.915 2.49c-2.109-1.008-5.555-.126-5.555-.126l-.944 3.482s-.368 1.71-1.163 2.103c2.676 1.599 5.272.375 5.272.375s-.11.206-1.011 2.278c-.483-1.268-5.076-.37-5.076-.37l-.3 1.19s-6.346 23.692-7.198 27.184c-.147 1.314-.972 10.918-.972 10.918l-1.096-.034s-.164-8.13 1.559-19.496c1.72-11.369 13.674-38.13 16.64-45.792 2.966-7.66 7.725-22.285 10.937-31.089.913-2.497 2.202-6.602 3.614-11.37l-.444.199a312.089 312.089 0 0 1-5.772 17.27c-5.236 5.158-29.764 41.458-32.047 46.333-.96-.644-1.858-.794-1.858-.794s-4.255-17.336-9.092-37.856c-1.45.852-2.901 1.7-4.356 2.548 3.398 13.815 6.653 26.652 8.674 34.7 0 0 .064.619.616.915 5.382 2.464 4.847 6.58 4.877 7.64.028 1.06-.632.666-.632.666s-2.346-2.71-2.822-3.005c-.477-.295-.394-.029-.016 1.24 1.834 4.985 5.499 33.577 5.499 33.577s.54 2.17.517 2.864c-.021.695-.298.668-.298.668s-.61.018-1.276.202c-.666.188-.125.692-.125.692l3.397 3.11.046 35.813-3.85-.063-2.781-2.347.113-3.832-.424-31.933.787.024c.1-5.915-3.216-36.414-4.105-41.473-.461-2.629-4.79-19.21-9.652-38.615-.28.164-.562.328-.845.49 4.808 19.18 9.064 35.488 9.522 38.094.888 5.058 4.226 34.82 4.126 40.736l-.786-.026.4 32.673-.582.422s-.247 3.86-.134 6.262c.114 2.402.08 23.727.844 27.482.38 1.969.893 3.437 2.204 2.152.259-2.2 1.942-15.307 1.942-15.307l1.032 15.337s.721 1.412 1.584.051c.864-1.36 2.162-10.55 2.462-21.997.095-2.972.732-7.18.755-7.881.021-.704 1.757-33.199 2.56-38.726.027-.172-.414-.17-.414-.17.236-2.283 1.44-8.183 2.207-11.324.84-3.448 27.147-67.62 37.04-96.788-.111-.197-.22-.393-.322-.596a14.92 14.92 0 0 1-1.052-2.701c-1.885.816-3.77 1.628-5.645 2.45-3.366 9.483-6.919 18.86-7.476 20.352-1.026 2.746-5.794 16.113-5.834 17.418-.043 1.303-.826 4.228-.826 4.228s-.105.048-.955.49zm-26.304 105.33s.328 2.546.292 3.653c-.035 1.105-2.094 25.68-2.094 25.68-1.53-.458-1.233-26.71-1.347-29.112l-.035-1.869 1.554 1.596 1.63.051zm4.939.44s-.722 26.108-1.865 29.13c-.194.526-.402-.772-.342-2.64.06-1.881-1.674-26.612-1.673-26.612l3.88.123zm-4.516-73.935c-.125.221-.607.183-1.072-.084-.468-.266-.743-.663-.617-.882.127-.22.607-.183 1.073.084.467.268.743.662.616.882zm29.186-50.584S121.49 14.903 118.09 21.137c-1.582 2.902-.602-.36-.602-.36s9.348-15.736 28.663-42.142zm-24.485 65.89-.338-2.23c-.415-4.683-2.2-12.094-3.086-15.125-.887-3.03-.62-2.601-.213-2.167 2.08 2.526 2.429 2.588 2.429 2.588s1.118.176 1.143-.596c.068-2.158-.088-3.833-2.124-6.287 15.778-26.878 28.57-42.14 28.57-42.14S140.804.023 135.894 10.066c-4.91 10.042-14.226 34.46-14.226 34.46zm1.052 19.29.626.02-.818 10.706-.077-8.981-2.575-1.794-.946-.03s-.513-.106-.503-.376c.008-.268.52-.208.52-.208l.905-.062.045-1.414s-1.015-2.802-1.106-4.2c-.09-1.399 2.55-13.448 7.65-23.097-2.846 7.68-5.966 16.139-5.48 16.655.484.517 1.65-3.614 2.196-3.033.546.58-.855 11.194-.437 15.813zm1.573.153-1.338 17.506s-.336-4.238-.296-5.503c.132-2.513.955-12.024.955-12.024l.679.02zm33.985-106.675c4.901.984 5.345.444 5.383.36-.022.057-.28.698-.834 2.044-.665-1.53-5.139-.638-5.264-.464-.126.175.315-.585.715-1.94zm-3.87 10.717s.36-.904.872-2.578c4.4 1.18 5.485.466 5.485.466s-.366 1.01-.824 2.328c-.928-.904-4.855-.61-4.855-.61-.486.15-.678.394-.678.394zm-3.138 8.23s.263-.79.824-2.732c2.429.99 5.599.413 5.599.413s-.264.826-.906 2.351c-.861-1-5.517-.032-5.517-.032zm-2.678 7.573s.383-.822 1.037-2.666c2.022.717 5.269.345 5.268.345 0 0-.225.765-.876 2.492-1.355-1.113-5.43-.172-5.43-.172zm-3.022 8.336s.257-.587.86-2.71c4.626 1.121 5.39.291 5.389.29 0 0-.26.705-1.058 2.644-1.607-.729-5.19-.224-5.19-.224zM76.512 243.339l.762-32.406s1.095.149 1.08 1.459c-.017 1.306-.786 31.597-.786 31.597l-1.056-.65zm.987-33.851.123-1.909s1.012-.035.938.843c-.108 1.304-1.061 1.066-1.061 1.066zm.028-3.155.124-1.91s1.01-.035.938.844c-.11 1.304-1.063 1.066-1.063 1.066zm.11-3.171.124-1.91s1.012-.034.94.843c-.11 1.305-1.064 1.067-1.064 1.067zm.154-3.145.124-1.91s1.01-.034.938.844c-.109 1.306-1.062 1.066-1.062 1.066zm.066-3.206.124-1.908s1.01-.035.937.843c-.109 1.303-1.06 1.067-1.061 1.065zm.174-3.057.123-1.91s1.01-.034.938.843c-.11 1.305-1.062 1.067-1.06 1.067zm.144-3.261.123-1.91s1.01-.035.939.843c-.11 1.306-1.063 1.066-1.061 1.067zm.14-3.137.124-1.909s1.011-.036.938.842c-.108 1.305-1.06 1.068-1.061 1.067zm.011-3.233.123-1.91s1.012-.035.938.844c-.11 1.302-1.061 1.066-1.06 1.066zm.104-3.16.124-1.91s1.012-.035.938.842c-.11 1.305-1.062 1.068-1.062 1.068zm.19-2.99.124-1.91s1.01-.036.937.843c-.107 1.304-1.062 1.067-1.062 1.067zm.048-3.072.124-1.908s1.011-.036.937.842c-.108 1.305-1.06 1.066-1.06 1.066zm.163-3.255.123-1.91s1.012-.035.94.842c-.11 1.305-1.063 1.068-1.063 1.068zm1.764 36.121 12.763.4-.005 1.712-12.617-.406-.14-1.706zm.12-3.016 12.761.473-.003 1.712-12.616-.48-.141-1.705zm.006-3.069 12.816.541-.007 1.712-12.668-.547-.141-1.706zm.134-3.174 12.702.546-.005 1.713-12.558-.552-.139-1.707zm-.019-3.168 12.773.495-.006 1.711-12.625-.5-.142-1.706zm.21-3.026 12.57.484-.005 1.71-12.424-.489-.141-1.706zm.041-3.146 12.436.528-.005 1.712-12.289-.533-.142-1.707zM81.071 186l12.502.475-.004 1.715-12.357-.485-.14-1.705zm.047-3.175 12.396.501-.005 1.713-12.249-.508-.142-1.706zm.114-3.252 12.282.503-.005 1.713-12.137-.509-.14-1.707zm.068-2.908 12.24.453-.004 1.713-12.094-.46-.142-1.706zm.098-3.187 12.083.49-.005 1.713-11.936-.495-.142-1.708zm.2-3.087 11.921.49-.005 1.713-11.777-.498-.14-1.705zm-2.016 74.243.83-33.676 12.867.32-.865 41.277-12.832-7.921zm.425-76.806.844-10.132s-.539.001-1.002 1.226c-.555 1.47-.854 9.336-.854 9.336s.43.443 1.012-.43zm1.696 1.289.337-11.239 7.939-3.617 1.952 1.065 1.166-1.018s1.13 6.281.395 15.187l-11.789-.378zm.436-15.022s2.75-.637 3.316-1.385c.564-.747.197-1.23-.434-1.62l-.705-.435-2.177 3.44zm10.592-30.841s1.924-20.643-.662-30.123c-1.398-5.127-5.475-9.024-7.81-10.472 2.874.382 7.24 3.444 9.215 9.765 2.93 9.378.687 31.823.687 31.823l-1.43-.993zm-8.377-39.286c8.73 4.188 8.513 17.022 8.529 22.008.033 10.592-1.423 41.595-1.423 41.595-.028 1.208-7.522 1.1-8.506.963-.47-.067-.327-43.895.161-58.737.097-2.945 1.215-5.84 1.24-5.83zm-9.298 158.886 18.302 11.298 1.192-95.114s-.063-4.209-1.211-6.376c-.825-2.69-1.124-6.885-.963-8.726.158-1.844.762-15.065 1.026-16.838.265-1.772 1.184-2.588 1.184-2.588-.002-.001 1.898-22.344-.688-31.825C91.312 83.206 83.72 81.84 83.72 81.84s.174 2.181-1.236 6.705c-.108 5.33-.216 60.176-.216 60.176l1.742 1.214-4.553 7.149s-1.266 1.156-1.626 10.477c-.362 9.32-2.775 75.296-2.775 75.295z"/><path class="st0" d="M238.95 131.778c-2.52 4.424-8.832 11.487-11.609 14.261 1.597-3.134 3.503-6.917 4.211-8.568l.344-.804c1.879-4.396 3.501-8.19 6.494-12.792 2.633-4.045 5.788-11.738 5.637-11.844-.151-.106-6.31 5.228-8.37 8.603-1.434 2.346-5.437 8.467-11.637 14.601-5.378 5.319-15.979 17.08-21.613 27.428-1.38 2.538-3.896 7.208-6.81 12.618-8.747 16.243-21.966 40.79-23.283 42.512-1.57 2.05-4.364 6.948-4.04 8.483.342 1.616 6.883 6.095 6.95 6.138.642.418 1.242.64 1.9.5.938-.199 1.993-1.126 3.452-3.254 2.625-3.825 32.526-44.04 38.177-50.84 5.757-6.935 10.779-14.574 13.102-19.94.728-1.68 1.665-4.095 2.748-6.892 2.484-6.403 5.576-14.375 7.996-18.217 3.353-5.324 8.474-16.749 8.313-16.857-.16-.11-8.025 7.95-11.962 14.864zm-62.203 100.15c.122.08.272.078.393.017l.132.086c-.687.312-1.146.02-1.614-.284-1.811-1.177-6.406-4.702-6.606-5.635-.204-.967 1.942-5.287 3.894-7.836 1.356-1.77 13.767-25.338 23.05-42.576a4383.36 4383.36 0 0 1 6.806-12.614c5.59-10.266 16.43-21.998 21.777-27.285 6.264-6.195 10.226-12.723 11.675-15.095 1.391-2.277 4.64-5.08 6.457-6.801-.975 2.226-3.363 6.494-5.507 9.79-3.03 4.659-4.63 8.256-6.522 12.685l-.344.803c-2.172 5.077-9.48 19.307-16.3 29.586-7.157 10.785-36.2 58.108-37.375 61.176-.15.395-.284.737-.4 1.037-.785 2.007-.443 2.344.484 2.946zm55.792-80.507c-3.194 7.899-8.595 17.993-13.05 23.646-4.456 5.652-36.844 48.465-38.415 50.682-1.572 2.217-1.936 1.98-1.258.738.68-1.244 16.314-28.26 16.314-28.26l43.078-62.033s-3.473 7.33-6.669 15.227zm8.319-16.206a.396.396 0 0 0-.184-.218l-2.018-1.094a.383.383 0 0 0-.077-.033c.16-.236.314-.47.46-.702a.5.5 0 0 0 .09.072l2.019 1.092c.054.029.11.043.166.047-.15.268-.303.545-.456.836zm1.068-1.867c-.085.134-.17.275-.256.418a.398.398 0 0 0-.143-.132l-2.017-1.094a.313.313 0 0 0-.066-.028c.067-.114.133-.227.196-.339.075-.13.151-.262.23-.393.03.038.068.07.114.096l2.02 1.095c.04.023.085.035.13.043l-.208.334zm.587-.962a.388.388 0 0 0-.13-.115l-2.019-1.094a.365.365 0 0 0-.112-.04c.15-.245.302-.49.46-.736a.4.4 0 0 0 .128.112l1.994 1.08c.038.022.08.034.12.041-.15.26-.297.51-.44.752zm.812-1.4a.393.393 0 0 0-.112-.092l-1.994-1.081a.425.425 0 0 0-.103-.037c.156-.237.315-.474.475-.71.029.032.062.06.103.083l1.877 1.02a.396.396 0 0 0 .185.045l-.431.773zm.766-1.386a.37.37 0 0 0-.14-.132l-1.877-1.017c-.015-.01-.032-.014-.046-.02.174-.25.35-.502.528-.748a.406.406 0 0 0 .18.206l1.496.81c.085.048.184.059.274.04a.559.559 0 0 0 .06-.02c-.158.297-.316.592-.475.88zm.718-1.337a.385.385 0 0 0-.197-.262l-1.497-.813a.38.38 0 0 0-.167-.046c.19-.258.38-.517.572-.773a.39.39 0 0 0 .183.217l1.335.725c.08.042.165.054.247.042-.157.305-.317.61-.476.91zm.775-1.482a.392.392 0 0 0-.165-.17l-1.337-.725a.4.4 0 0 0-.162-.046c.191-.248.38-.496.572-.74.032.073.09.136.166.177l1.142.62c.068.036.143.05.213.046-.143.28-.284.559-.429.838zm.739-1.448a.379.379 0 0 0-.143-.136l-1.142-.62c-.036-.018-.072-.028-.108-.038.19-.241.382-.481.57-.715a.4.4 0 0 0 .167.173l.78.424a.395.395 0 0 0 .273.04.254.254 0 0 0 .051-.018c-.147.295-.296.592-.448.89zm.694-1.38a.4.4 0 0 0-.19-.232l-.78-.422a.365.365 0 0 0-.092-.035c.188-.231.375-.458.558-.68.036.048.078.09.133.118l.574.313c.076.04.16.052.24.041-.144.295-.292.594-.443.897zm.582-1.639-.574-.311c-.005-.005-.012-.005-.02-.008.824-.979 1.58-1.843 2.205-2.545a331.11 331.11 0 0 1-1.457 3.015.383.383 0 0 0-.154-.15z"/><path class="st0" d="M215.862 162.501c.258-.469-27.21 40.097-30.026 44.738-1.87 3.079-5.8 9.125-7.98 11.995-4.95 6.53-7.684 6.22-7.357 6.456.213.153 2.429 2.696 3.803 3.177 1.307.459 1.933-1.423 2.275-2.273 2.18-5.452 37.383-60.623 39.285-64.093z"/></svg>