<?xml version="1.0" encoding="utf-8"?>
<!-- Generator: Adobe Illustrator 26.0.1, SVG Export Plug-In . SVG Version: 6.00 Build 0)  -->
<svg version="1.1" id="Ebene_1" xmlns="http://www.w3.org/2000/svg" xmlns:xlink="http://www.w3.org/1999/xlink" x="0px" y="0px"
	 viewBox="0 0 22 22" style="enable-background:new 0 0 22 22;" xml:space="preserve" width="16" height="16">
<style type="text/css">
	.st0{fill:#CACAC9;}
</style>
<path class="st0" d="M19.5,0.8h-17c-0.9,0-1.7,0.8-1.7,1.7v17c0,0.9,0.8,1.7,1.7,1.7h17c0.9,0,1.7-0.8,1.7-1.7v-17
	C21.2,1.6,20.4,0.8,19.5,0.8z M14.3,16.5l0,2.8c0,0.2-0.2,0.4-0.5,0.4h-2.7c-0.3,0-0.5-0.2-0.5-0.4v-2.8h0v-0.9c0-1-0.8-1.7-1.8-1.7
	h-1c-1,0-1.8,0.8-1.8,1.7h0v3.7c0,0.2-0.2,0.4-0.5,0.4H2.9c-0.3,0-0.5-0.2-0.5-0.4V2.7c0-0.2,0.2-0.4,0.5-0.4h2.7
	c0.2,0,0.4,0.2,0.5,0.4v7.8c0.6-0.2,1.2-0.3,1.8-0.3h0.9v0c1,0,1.8-0.8,1.8-1.7l0.1-0.9c0-0.2,0.2-0.4,0.4-0.4h2.7
	c0.2,0,0.4,0.2,0.4,0.4h0v0.9c0,1.4-0.5,2.6-1.4,3.5c0.9,1,1.4,2.2,1.4,3.6h0V16.5z M17.2,6.2l-0.7,0.7c-0.4,0.4-1,0.4-1.4,0
	l-0.1-0.1c-0.4-0.4-0.4-1,0-1.3l0.7-0.7l0,0c0.1-0.1,0.3-0.1,0.4,0l0.1,0.1c0.1,0.1,0.1,0.3,0,0.3l-0.7,0.7c-0.1,0.1-0.1,0.3,0,0.4
	l0.1,0.1c0.1,0.1,0.3,0.1,0.4,0l0.7-0.7c0.1-0.1,0.3-0.1,0.4,0l0.1,0.1C17.2,6,17.2,6.1,17.2,6.2z M17.2,3.3L17.2,3.3
	c-0.2,0.2-0.4,0.2-0.5,0.1L16,2.7c-0.1-0.1-0.3-0.1-0.4,0l-0.1,0.1c-0.1,0.1-0.1,0.3,0,0.4l0.7,0.7c0.1,0.1,0.1,0.3,0,0.3L16,4.4
	c-0.1,0.1-0.3,0.1-0.4,0L15,3.7c-0.4-0.4-0.4-1,0-1.3l0.1-0.1c0.4-0.4,1-0.4,1.4,0l0.7,0.7l0,0C17.3,3,17.3,3.2,17.2,3.3z M19.8,6.8
	l-0.1,0.1c-0.4,0.4-1,0.4-1.4,0l-0.7-0.7l0,0c-0.1-0.1-0.1-0.2,0-0.3l0.1-0.1c0.1-0.1,0.3-0.1,0.4,0l0.7,0.7c0.1,0.1,0.3,0.1,0.4,0
	l0.1-0.1c0.1-0.1,0.1-0.3,0-0.4l-0.7-0.7c-0.1-0.1-0.1-0.2,0-0.3l0.1-0.1c0.1-0.1,0.3-0.1,0.4,0l0.7,0.7C20.1,5.8,20.1,6.4,19.8,6.8
	z M19.8,3.7l-0.7,0.7l0,0c-0.1,0.1-0.3,0.1-0.4,0l-0.1-0.1c-0.1-0.1-0.1-0.3,0-0.3l0.7-0.7c0.1-0.1,0.1-0.3,0-0.4l-0.1-0.1
	c-0.1-0.1-0.3-0.1-0.4,0L18,3.4c-0.1,0.1-0.3,0.1-0.4,0l-0.1-0.1c-0.1-0.1-0.1-0.2,0-0.3l0.7-0.7c0.4-0.4,1-0.4,1.4,0l0.1,0.1
	C20.2,2.7,20.2,3.3,19.8,3.7z"/>
</svg>
