<?xml version="1.0" encoding="utf-8"?>
<!-- Generator: Adobe Illustrator 26.0.1, SVG Export Plug-In . SVG Version: 6.00 Build 0)  -->
<svg version="1.1" id="Ebene_1" xmlns="http://www.w3.org/2000/svg" xmlns:xlink="http://www.w3.org/1999/xlink" x="0px" y="0px"
	 viewBox="0 0 22 22" style="enable-background:new 0 0 22 22;" xml:space="preserve" width="16" height="16">
<style type="text/css">
	.st0{fill:#CACAC9;}
</style>
<image style="overflow:visible;" width="2212" height="540" xlink:href="LI-Logo.png"  transform="matrix(0.24 0 0 0.24 -171.9231 191.7508)">
</image>
<path class="st0" d="M19.5,0.8h-17c-0.9,0-1.7,0.8-1.7,1.7v17c0,0.9,0.8,1.7,1.7,1.7h17c0.9,0,1.7-0.8,1.7-1.7v-17
	C21.2,1.6,20.4,0.8,19.5,0.8z M7,18.3L7,18.3l-3,0V8.6h3V18.3z M5.5,7.3L5.5,7.3c-1,0-1.8-0.8-1.8-1.8c0-1,0.8-1.8,1.8-1.8
	c1,0,1.8,0.8,1.8,1.8C7.3,6.5,6.5,7.3,5.5,7.3z M18.3,18.3h-3v-5.1c0-1.4-0.5-2.2-1.6-2.2c-1.2,0-1.8,0.8-1.8,2.2v5.1H8.9V8.6h2.9
	v1.3c0,0,0.9-1.6,2.9-1.6c2.1,0,3.6,1.3,3.6,3.9V18.3z"/>
</svg>
