<svg width="22" height="22" fill="none" xmlns="http://www.w3.org/2000/svg"><g clip-path="url(#a)"><path d="m11.487 17.794-4.513-.074c-1.462-.026-2.927.026-4.36-.245C.436 17.071.282 15.09.12 13.427a25.804 25.804 0 0 1 .284-7.033c.237-1.3 1.17-2.076 2.614-2.16 4.872-.307 9.777-.27 14.64-.127.513.013 1.03.084 1.536.166 2.5.398 2.56 2.643 2.722 4.533.162 1.91.094 3.83-.215 5.727-.248 1.57-.722 2.887-2.722 3.014-2.507.166-4.956.3-7.47.258.001-.01-.013-.01-.02-.01Zm-2.653-3.976c1.889-.984 3.741-1.952 5.62-2.93-1.893-.984-3.742-1.952-5.62-2.93v5.86Z" fill="#CACAC9"/></g><defs><clipPath id="a"><path fill="#fff" d="M0 0h22v22H0z"/></clipPath></defs></svg>