<?xml version="1.0" encoding="utf-8"?>
<!-- Generator: Adobe Illustrator 28.1.0, SVG Export Plug-In . SVG Version: 6.00 Build 0)  -->
<!DOCTYPE svg PUBLIC "-//W3C//DTD SVG 1.1//EN" "http://www.w3.org/Graphics/SVG/1.1/DTD/svg11.dtd" [
	<!ENTITY ns_extend "http://ns.adobe.com/Extensibility/1.0/">
	<!ENTITY ns_ai "http://ns.adobe.com/AdobeIllustrator/10.0/">
	<!ENTITY ns_graphs "http://ns.adobe.com/Graphs/1.0/">
	<!ENTITY ns_vars "http://ns.adobe.com/Variables/1.0/">
	<!ENTITY ns_imrep "http://ns.adobe.com/ImageReplacement/1.0/">
	<!ENTITY ns_sfw "http://ns.adobe.com/SaveForWeb/1.0/">
	<!ENTITY ns_custom "http://ns.adobe.com/GenericCustomNamespace/1.0/">
	<!ENTITY ns_adobe_xpath "http://ns.adobe.com/XPath/1.0/">
]>
<svg version="1.1" id="Layer_1" xmlns:x="&ns_extend;" xmlns:i="&ns_ai;" xmlns:graph="&ns_graphs;"
	 xmlns="http://www.w3.org/2000/svg" xmlns:xlink="http://www.w3.org/1999/xlink" x="0px" y="0px" width="500px" height="200px"
	 viewBox="0 0 500 200" style="enable-background:new 0 0 500 200;" xml:space="preserve">
<style type="text/css">
	.st0{fill:#45C2B1;}
	.st1{fill:#000F9F;}
</style>
<metadata>
	<sfw  xmlns="&ns_sfw;">
		<slices></slices>
		<sliceSourceBounds  bottomLeftOrigin="true" height="16383" width="678.8178" x="-324.625" y="-8613"></sliceSourceBounds>
	</sfw>
</metadata>
<g>
	<path class="st0" d="M466.8354,79.9609c4.6584,0,8.381,3.7925,8.381,8.5455c0,4.7522-3.7226,8.5447-8.381,8.5447
		c-4.6124,0-8.3112-3.7925-8.3112-8.5447C458.5242,83.7534,462.223,79.9609,466.8354,79.9609z M466.8354,95.459
		c3.7686,0,6.6714-3.0434,6.6714-6.9527c0-3.9101-2.9028-6.9535-6.6714-6.9535c-3.7226,0-6.6015,3.0434-6.6015,6.9535
		C460.2339,92.4156,463.1128,95.459,466.8354,95.459z M463.9803,85.3224h-0.796v-1.2647h4.1897
		c1.6619,0,2.7852,1.0542,2.7852,2.6923c0,1.3585-0.8897,2.1536-1.6142,2.3411v0.0469c0,0,0.2812,0.0707,0.4909,0.4687
		l0.9136,1.7556c0.1636,0.2804,0.375,0.3043,0.5608,0.3043h0.2574v1.217h-0.8881c-0.6562,0-0.9613-0.0699-1.2647-0.6554
		l-1.217-2.3173c-0.2114-0.398-0.4449-0.4449-0.796-0.4449h-0.9596v3.4175h-1.6619V85.3224z M467.0468,88.2481
		c0.8659,0,1.4283-0.5616,1.4283-1.4983c0-0.9128-0.5625-1.4275-1.4283-1.4275h-1.4045v2.9258H467.0468z"/>
	<g>
		<path class="st1" d="M130.5391,97.2352c0-1.4799-0.2462-2.6829-0.74-3.6087c-0.4937-0.9247-1.1721-1.6486-2.0352-2.1744
			c-0.8643-0.5233-1.9281-0.8779-3.1914-1.0638c-1.2645-0.1847-2.6693-0.277-4.2096-0.277c-3.3305,0-6.8777,0.6476-10.6391,1.9429
			c-0.8656-1.6031-1.5132-3.1138-1.9429-4.5334c-0.4322-1.4184-0.6476-3.1138-0.6476-5.0887
			c2.7124-0.9247,5.4261-1.6031,8.1409-2.0352c2.7136-0.4309,5.2414-0.6476,7.5869-0.6476c6.4135,0,11.4259,1.5427,15.0334,4.6257
			c3.6087,3.0855,5.4125,8.019,5.4125,14.8031v27.7545c-2.1596,0.6796-4.7809,1.3273-7.8639,1.9429
			c-3.0855,0.6156-6.5686,0.9259-10.4544,0.9259c-3.1458,0-6.0294-0.2783-8.6507-0.8336c-2.6225-0.554-4.8732-1.4799-6.7533-2.7752
			c-1.8826-1.2953-3.3305-2.9599-4.3487-4.9951c-1.017-2.0365-1.5267-4.5334-1.5267-7.4945c0-2.9599,0.6316-5.4421,1.8973-7.4477
			c1.2632-2.0032,2.8983-3.6075,4.9028-4.8104c2.0044-1.2029,4.2404-2.066,6.7078-2.5905c2.4662-0.5233,4.9336-0.7868,7.401-0.7868
			c1.789,0,3.7614,0.0923,5.921,0.2783V97.2352z M130.5391,106.7637c-0.74-0.1219-1.5415-0.2302-2.4046-0.3238
			c-0.8643-0.0923-1.6351-0.1379-2.3135-0.1379c-3.0227,0-5.4125,0.5405-7.1695,1.6191c-1.7582,1.0798-2.6373,2.822-2.6373,5.2266
			c0,1.6043,0.3386,2.838,1.0182,3.7011c0.6772,0.8643,1.4947,1.4959,2.4514,1.8961c0.9554,0.4026,1.9737,0.6476,3.0535,0.74
			c1.0786,0.0936,2.0192,0.1391,2.822,0.1391c0.9247,0,1.8493-0.0763,2.7752-0.2315c0.9247-0.1527,1.7262-0.2918,2.4046-0.4162
			V106.7637z"/>
		<path class="st1" d="M184.1052,117.4041c0.74,1.2337,1.3556,2.6681,1.8506,4.3019c0.4925,1.6351,0.74,3.562,0.74,5.7819
			c-2.4674,0.9874-4.7809,1.6191-6.9392,1.8973c-2.1596,0.277-4.4103,0.4162-6.7533,0.4162c-4.0101,0-7.4933-0.6341-10.4544-1.8973
			c-2.9599-1.2632-5.4125-3.0067-7.3554-5.2266c-1.9429-2.2211-3.4081-4.8572-4.3943-7.9107
			c-0.9875-3.0522-1.4799-6.368-1.4799-9.9459c0-3.5152,0.4765-6.7841,1.4344-9.8068c0.9554-3.0202,2.4046-5.6735,4.3475-7.9562
			c1.9429-2.2802,4.3635-4.0705,7.2631-5.3657c2.8983-1.2953,6.2596-1.9429,10.0838-1.9429c1.3568,0,2.6053,0.032,3.7466,0.0923
			c1.1414,0.0628,2.2359,0.1847,3.2849,0.3706c1.0478,0.1847,2.0956,0.4322,3.1458,0.74c1.0478,0.309,2.2199,0.7092,3.5152,1.2029
			c0,1.4196-0.1847,3.0067-0.5553,4.7649c-0.3694,1.757-0.9567,3.4388-1.757,5.0419c-1.8506-0.6156-3.4696-1.033-4.8572-1.2497
			c-1.3876-0.2155-2.9771-0.3238-4.7649-0.3238c-3.8255,0-6.7078,1.2497-8.6507,3.7479c-1.9429,2.4969-2.9143,6.0589-2.9143,10.6847
			c0,4.9964,1.0478,8.6359,3.1458,10.9174c2.0956,2.2827,4.9336,3.4228,8.5115,3.4228c0.9247,0,1.7718-0.0135,2.5437-0.0456
			c0.7708-0.0308,1.5267-0.1071,2.2667-0.2315c0.7412-0.1231,1.4947-0.3078,2.2667-0.5553
			C182.1463,118.0837,183.0562,117.7735,184.1052,117.4041z"/>
		<path class="st1" d="M194.2826,90.8513h-6.0134l-0.4629-1.8505l17.3001-22.1118h2.1288v13.9708h11.1944
			c0.1847,0.9247,0.3078,1.757,0.3694,2.4982c0.0616,0.74,0.0936,1.512,0.0936,2.3123c0,0.8643-0.032,1.6979-0.0936,2.4982
			c-0.0616,0.8028-0.1847,1.6966-0.3694,2.6829h-11.1944v18.7813c0,1.9121,0.1527,3.4548,0.4617,4.6257
			c0.309,1.1721,0.7547,2.098,1.342,2.7752c0.5861,0.6796,1.31,1.1426,2.1744,1.3876c0.8631,0.2475,1.8801,0.3706,3.0535,0.3706
			c0.9247,0,1.8333-0.0763,2.7284-0.2315c0.8939-0.1527,1.6794-0.2918,2.3591-0.4162c0.4309,1.1721,0.74,2.3911,0.9259,3.6543
			c0.1847,1.2645,0.277,2.3911,0.277,3.3773c0,0.6784-0.016,1.2485-0.0455,1.7114c-0.032,0.4617-0.0788,0.9099-0.1391,1.3408
			c-2.838,0.6784-5.7683,1.0182-8.7898,1.0182c-5.6132,0-9.8991-1.31-12.859-3.9326c-2.9611-2.6201-4.4411-6.8925-4.4411-12.8135
			V90.8513z"/>
		<path class="st1" d="M228.0505,90.8513h-6.1993c-0.1847-0.8003-0.3238-1.6498-0.4162-2.5437
			c-0.0923-0.8939-0.1379-1.7422-0.1379-2.545c0-1.6646,0.1847-3.2985,0.554-4.9028h19.0595v47.831
			c-2.2211,0.3706-4.3807,0.5553-6.4763,0.5553c-2.0352,0-4.164-0.1847-6.384-0.5553V90.8513z M226.1076,72.81
			c-0.3706-2.0956-0.5553-4.1628-0.5553-6.198c0-1.9737,0.1847-4.0384,0.5553-6.1993c1.0478-0.1847,2.1744-0.3238,3.3773-0.4162
			c1.2017-0.0923,2.2962-0.1379,3.2837-0.1379c1.0478,0,2.1891,0.0456,3.4228,0.1379c1.2337,0.0923,2.3738,0.2315,3.4241,0.4162
			c0.1847,1.0502,0.3078,2.082,0.3694,3.1003c0.0603,1.017,0.0923,2.0512,0.0923,3.099c0,0.9874-0.032,2.0045-0.0923,3.0535
			c-0.0616,1.049-0.1847,2.0968-0.3694,3.1446c-1.0502,0.1859-2.1744,0.3103-3.3773,0.3706
			c-1.2029,0.0616-2.3295,0.0923-3.3773,0.0923c-0.9875,0-2.0968-0.0308-3.3305-0.0923
			C228.2955,73.1202,227.1554,72.9959,226.1076,72.81z"/>
		<path class="st0" d="M260.1525,107.8743c-3.4548-0.9862-6.1525-2.4514-8.0954-4.3943c-1.9429-1.9429-2.9143-4.8572-2.9143-8.743
			c0-4.6861,1.6806-8.3564,5.0419-11.0097c3.3613-2.6508,7.9415-3.9781,13.7393-3.9781c2.4059,0,4.7797,0.2167,7.1239,0.6476
			c2.343,0.4322,4.7181,1.0798,7.1239,1.9429c-0.1244,1.6043-0.4322,3.2702-0.9259,4.9964
			c-0.4937,1.7274-1.0798,3.2382-1.757,4.5334c-1.4812-0.6168-3.115-1.1574-4.904-1.6191c-1.789-0.4629-3.6703-0.6944-5.6428-0.6944
			c-2.098,0-3.7331,0.3238-4.904,0.9714c-1.1721,0.6476-1.7582,1.6819-1.7582,3.099c0,1.3581,0.4162,2.3135,1.2497,2.8688
			c0.8323,0.5553,2.0192,1.0798,3.562,1.5723l5.2734,1.5735c1.7262,0.4937,3.2837,1.0946,4.6713,1.8038
			c1.3888,0.7092,2.5745,1.5883,3.562,2.6361c0.9862,1.0502,1.7582,2.3455,2.3135,3.8858c0.5553,1.5427,0.8323,3.4241,0.8323,5.644
			c0,2.2827-0.4777,4.4103-1.4332,6.384c-0.9579,1.9737-2.3455,3.6863-4.164,5.1343c-1.8198,1.4504-4.0249,2.5905-6.6142,3.4228
			c-2.5905,0.8335-5.5209,1.2497-8.7898,1.2497c-1.4799,0-2.838-0.0468-4.0705-0.1391c-1.2349-0.0923-2.4218-0.2475-3.562-0.463
			c-1.1426-0.2167-2.2667-0.4777-3.3773-0.7855c-1.1106-0.309-2.3123-0.7092-3.6075-1.2029
			c0.1219-1.6659,0.4162-3.3453,0.8791-5.0419c0.4617-1.6966,1.0638-3.3453,1.8038-4.9508c2.0352,0.8028,3.9621,1.4036,5.7819,1.805
			c1.8185,0.4014,3.7159,0.6008,5.6895,0.6008c0.8631,0,1.805-0.0763,2.822-0.2315c1.0182-0.1527,1.9577-0.4309,2.822-0.8323
			c0.8631-0.4002,1.5871-0.9247,2.1744-1.5723c0.5848-0.6476,0.8791-1.4947,0.8791-2.545c0-1.4799-0.4482-2.5437-1.342-3.1914
			c-0.8951-0.6476-2.1436-1.2177-3.7466-1.7114L260.1525,107.8743z"/>
		<path class="st0" d="M310.7587,129.8014c-3.8858,0-7.2631-0.6341-10.1306-1.8973c-2.8675-1.2632-5.2426-3.0215-7.1239-5.2734
			c-1.8826-2.2507-3.2997-4.8868-4.2552-7.9095c-0.9579-3.0214-1.4344-6.2916-1.4344-9.8068c0-3.5164,0.4765-6.8149,1.4344-9.9004
			c0.9554-3.083,2.3726-5.7499,4.2552-8.0018c1.8813-2.2507,4.2564-4.0249,7.1239-5.3202
			c2.8676-1.2953,6.2448-1.9429,10.1306-1.9429s7.2766,0.6476,10.1774,1.9429c2.8983,1.2953,5.3029,3.0695,7.2162,5.3202
			c1.9109,2.2519,3.3305,4.9188,4.2552,8.0018c0.9259,3.0855,1.3876,6.3839,1.3876,9.9004c0,3.5152-0.4617,6.7853-1.3876,9.8068
			c-0.9247,3.0227-2.3443,5.6588-4.2552,7.9095c-1.9133,2.2519-4.3179,4.0101-7.2162,5.2734
			C318.0353,129.1673,314.6445,129.8014,310.7587,129.8014z M310.7587,119.8087c3.4536,0,5.9358-1.2793,7.4478-3.839
			c1.5107-2.5585,2.2667-6.2448,2.2667-11.0553c0-4.8117-0.756-8.4967-2.2667-11.0565c-1.512-2.5585-3.9941-3.839-7.4478-3.839
			c-3.3933,0-5.8447,1.2805-7.3554,3.839c-1.5119,2.5597-2.2667,6.2448-2.2667,11.0565c0,4.8104,0.7548,8.4968,2.2667,11.0553
			C304.914,118.5294,307.3654,119.8087,310.7587,119.8087z"/>
		<path class="st0" d="M340.8255,61.0603c2.2211-0.3694,4.4091-0.5541,6.5686-0.5541c2.0968,0,4.2564,0.1847,6.4763,0.5541v48.5722
			c0,1.9121,0.1071,3.4548,0.3238,4.6257c0.2155,1.1721,0.5553,2.082,1.0182,2.7297c0.463,0.6476,1.0638,1.0958,1.8038,1.3408
			c0.74,0.2475,1.6659,0.3706,2.7752,0.3706c0.4937,0,1.033-0.0308,1.6191-0.0923c0.5861-0.0616,1.1573-0.1539,1.7114-0.2783
			c0.6784,2.5302,1.0182,4.9964,1.0182,7.401c0,0.495,0,0.9419,0,1.342c0,0.4014-0.0616,0.8483-0.1847,1.342
			c-0.9875,0.3078-2.1743,0.5233-3.562,0.6476c-1.3876,0.1219-2.6693,0.1847-3.8402,0.1847c-4.7501,0-8.5571-1.31-11.4258-3.9326
			c-2.8676-2.6201-4.3019-6.8925-4.3019-12.8135V61.0603z"/>
		<path class="st0" d="M360.8084,80.9521c1.4799-0.3078,2.8515-0.4925,4.1172-0.5553c1.2632-0.0603,2.359-0.0923,3.2837-0.0923
			c1.2337,0,2.4662,0.032,3.7011,0.0923c1.2325,0.0628,2.3738,0.2167,3.4228,0.4629l10.4544,35.6184l10.2697-35.6184
			c1.0478-0.1859,2.1584-0.3238,3.3305-0.4162c1.1709-0.0936,2.343-0.1391,3.5152-0.1391c0.9259,0,1.9897,0.032,3.1926,0.0923
			c1.2017,0.0628,2.5745,0.2475,4.116,0.5553l-18.1324,47.7387c-1.1734,0.1847-2.4058,0.3078-3.7011,0.3706
			c-1.2953,0.0603-2.3751,0.0923-3.2382,0.0923c-0.9247,0-1.9749-0.032-3.1458-0.0923c-1.1721-0.0628-2.2827-0.2179-3.3305-0.463
			L360.8084,80.9521z"/>
		<path class="st0" d="M422.795,108.8002c0.2462,3.6999,1.5415,6.3827,3.8858,8.0486c2.343,1.6646,5.4261,2.4982,9.2515,2.4982
			c2.0956,0,4.2404-0.1995,6.4295-0.6021c2.1891-0.4002,4.2712-0.9714,6.2448-1.7114c0.6784,1.2349,1.2645,2.7149,1.7582,4.4411
			c0.4937,1.7274,0.7708,3.578,0.8323,5.5504c-4.8104,1.8506-10.239,2.7764-16.2831,2.7764c-4.4398,0-8.2493-0.6181-11.4259-1.8505
			c-3.1766-1.2337-5.7671-2.9451-7.7703-5.1343c-2.0057-2.1891-3.4856-4.7957-4.4411-7.8183
			c-0.9567-3.0215-1.4344-6.3212-1.4344-9.8991c0-3.5164,0.4925-6.8149,1.4799-9.8991c0.9862-3.0842,2.4526-5.7671,4.3955-8.0498
			c1.9429-2.2803,4.3475-4.0852,7.2163-5.4113c2.8676-1.326,6.2128-1.9897,10.0383-1.9897c3.3305,0,6.2904,0.5873,8.8809,1.7582
			c2.5905,1.1721,4.7957,2.7752,6.6154,4.8104c1.8185,2.0352,3.1914,4.4571,4.1172,7.2631c0.9247,2.8072,1.3876,5.8139,1.3876,9.02
			c0,1.1721-0.0468,2.3295-0.1391,3.4696c-0.0923,1.1414-0.2007,2.0512-0.3238,2.7297H422.795z M441.5762,99.6411
			c-0.1244-2.9611-0.9419-5.351-2.4526-7.1707c-1.512-1.8185-3.6235-2.7297-6.3372-2.7297c-3.0842,0-5.4273,0.8643-7.0316,2.5905
			c-1.6043,1.7274-2.5597,4.164-2.8675,7.3098H441.5762z"/>
	</g>
	<g>
		<g>
			<path class="st0" d="M124.3929,28.404v-6.9392c-2.7737,0.0055-5.5127,0.1599-8.2126,0.4474l0.7253,6.9012
				C119.367,28.5507,121.8641,28.4096,124.3929,28.404z"/>
			<path class="st0" d="M124.3929,17.6824v-6.9392c-3.1521,0.0055-6.265,0.1802-9.3334,0.5062l0.7253,6.9012
				C118.6149,17.8494,121.4857,17.688,124.3929,17.6824z"/>
			<path class="st0" d="M124.3929-0.0181l-10.46,0.5481l0.7314,6.9579c3.1984-0.3395,6.4429-0.5214,9.7286-0.527V-0.0181z"/>
			<path class="st0" d="M124.3929,49.9556V42.908c-2.0168,0.0055-4.0081,0.1191-5.9712,0.3298l0.7367,7.0105
				C120.8795,50.0638,122.6244,49.9611,124.3929,49.9556z"/>
			<path class="st0" d="M108.1125,52.7686l-2.3027-6.6879c-1.8901,0.6592-3.737,1.4101-5.531,2.2567l2.9905,6.413
				C104.8422,54.0089,106.4551,53.3459,108.1125,52.7686z"/>
			<path class="st0" d="M97.5988,22.2346l-2.2586-6.5597c-2.9563,1.0275-5.8445,2.1987-8.6511,3.5193l2.9317,6.287
				C92.2091,24.2629,94.8724,23.1825,97.5988,22.2346z"/>
			<path class="st0" d="M101.0887,32.37L98.83,25.81c-2.6008,0.9047-5.1419,1.9357-7.6112,3.0984l2.932,6.2875
				C96.4017,34.1354,98.718,33.1951,101.0887,32.37z"/>
			<path class="st0" d="M91.8138,5.4336l-9.7117,3.9238l2.9888,6.4097c2.9256-1.3765,5.9364-2.597,9.018-3.6677L91.8138,5.4336z"/>
			<path class="st0" d="M62.7846,21.1953l-7.9051,6.8718l4.9823,5.1593c2.328-2.2567,4.7738-4.3894,7.3262-6.3952L62.7846,21.1953z"
				/>
			<path class="st0" d="M80.3806,43.7171l-4.2695-5.4645c-2.1536,1.6937-4.2176,3.4941-6.1817,5.3994l4.817,4.988
				C76.5365,46.9027,78.4177,45.2615,80.3806,43.7171z"/>
			<path class="st0" d="M73.7841,35.274l-4.269-5.4641c-2.4483,1.9244-4.7947,3.9704-7.0277,6.1354l4.8164,4.9877
				C69.3629,38.9362,71.5266,37.0491,73.7841,35.274z"/>
			<path class="st0" d="M86.9769,52.1601l-4.2695-5.4647c-1.8589,1.4629-3.6404,3.0178-5.3357,4.6633l4.8171,4.988
				C83.7102,54.8694,85.3089,53.4737,86.9769,52.1601z"/>
			<path class="st0" d="M93.6407,60.6893l-4.3367-5.5507c-1.5641,1.2322-3.0632,2.5413-4.4895,3.927l4.8849,5.0585
				C90.9497,62.9088,92.2692,61.7697,93.6407,60.6893z"/>
			<path class="st0" d="M55.4869,55.3022l-5.8162-3.7771c-1.69,2.6025-3.2458,5.2975-4.6625,8.0768l6.1802,3.149
				C52.4944,60.1877,53.9287,57.7025,55.4869,55.3022z"/>
			<path class="st0" d="M64.474,61.1386l-5.8165-3.7774c-1.4861,2.2898-2.8545,4.661-4.1003,7.1062l6.1806,3.149
				C61.873,65.3874,63.1196,63.2261,64.474,61.1386z"/>
			<path class="st0" d="M40.4684,45.5491l-5.2372,9.0711l6.4081,3.2651c1.477-2.8971,3.0992-5.7062,4.8609-8.419L40.4684,45.5491z"
				/>
			<path class="st0" d="M73.4609,66.9748l-5.8167-3.7774c-1.2823,1.9771-2.4631,4.0241-3.5379,6.1354l6.1805,3.1492
				C71.251,70.5869,72.3103,68.7495,73.4609,66.9748z"/>
			<path class="st0" d="M82.5393,72.8702l-5.9078-3.8365c-1.0786,1.6645-2.0719,3.3876-2.9759,5.1647l6.2898,3.2048
				C80.736,75.8444,81.5954,74.3299,82.5393,72.8702z"/>
			<path class="st0" d="M27.2968,75.8417l-1.9986,10.2819l7.1387,1.0033c0.4497-3.2374,1.0599-6.4232,1.835-9.5461L27.2968,75.8417z
				"/>
			<path class="st0" d="M55.0772,82.7681l-6.7329-1.6788c-0.6535,2.6355-1.168,5.3237-1.5469,8.0557l6.8706,0.9656
				C54.0132,87.6204,54.4817,85.1703,55.0772,82.7681z"/>
			<path class="st0" d="M44.6745,80.1744l-6.7327-1.6786c-0.7434,2.9957-1.3287,6.0518-1.7599,9.1575l6.8706,0.9656
				C43.45,85.755,43.9893,82.937,44.6745,80.1744z"/>
			<path class="st0" d="M76.0254,87.991l-6.8758-1.7143c-0.4737,1.9146-0.8468,3.8675-1.1212,5.8522l7.0157,0.9859
				C75.2834,91.3754,75.612,89.6688,76.0254,87.991z"/>
			<path class="st0" d="M65.4797,85.3617l-6.7329-1.6786c-0.5636,2.275-1.0073,4.5956-1.3339,6.9539l6.8706,0.9656
				C64.5763,89.4861,64.9743,87.4034,65.4797,85.3617z"/>
			<path class="st0" d="M74.7412,104.3943l-7.0319,0.6153c0.1753,1.9969,0.4503,3.965,0.8268,5.8982l6.9222-1.3456
				C75.1297,107.8689,74.8944,106.1441,74.7412,104.3943z"/>
			<path class="st0" d="M24.7052,108.772l1.4576,10.3724l7.0902-1.3782c-0.6133-3.1544-1.0612-6.3656-1.3459-9.6243L24.7052,108.772
				z"/>
			<path class="st0" d="M53.2639,106.2733l-6.9112,0.6047c0.2406,2.7495,0.6185,5.4591,1.1363,8.1209l6.8112-1.3239
				C53.8281,111.2491,53.4832,108.7794,53.2639,106.2733z"/>
			<path class="st0" d="M63.9422,105.3391l-6.9112,0.6047c0.2079,2.3732,0.5345,4.7121,0.9816,7.0096l6.811-1.3239
				C64.4224,109.5678,64.1289,107.4689,63.9422,105.3391z"/>
			<path class="st0" d="M42.5855,107.2077l-6.9114,0.6047c0.2732,3.1258,0.7029,6.2062,1.2914,9.2321l6.811-1.3239
				C43.2339,112.9303,42.8376,110.0899,42.5855,107.2077z"/>
			<path class="st0" d="M49.3875,133.4449l-6.337,2.8215c1.2729,2.8479,2.6901,5.6157,4.2435,8.2971l6.0064-3.4678
				C51.868,138.6231,50.5613,136.0708,49.3875,133.4449z"/>
			<path class="st0" d="M78.8662,120.3202l-6.441,2.8677c0.8132,1.8195,1.7185,3.5877,2.7107,5.3011l6.1086-3.5269
				C80.3761,123.4598,79.5777,121.9157,78.8662,120.3202z"/>
			<path class="st0" d="M32.9757,140.7519l4.7553,9.3328l6.2888-3.6309c-1.6194-2.7954-3.0967-5.6806-4.4238-8.6494
				L32.9757,140.7519z"/>
			<path class="st0" d="M59.1793,129.0854l-6.3375,2.8215c1.1197,2.5051,2.3661,4.9397,3.7325,7.2986l6.0067-3.4681
				C61.3357,133.5875,60.1999,131.3685,59.1793,129.0854z"/>
			<path class="st0" d="M68.9709,124.7259l-6.3375,2.8217c0.9664,2.1623,2.0422,4.2636,3.2215,6.2998l6.0067-3.4679
				C70.8034,128.5521,69.8381,126.6663,68.9709,124.7259z"/>
			<path class="st0" d="M56.5251,163.338l-5.3177,4.959l7.5347,7.2761l4.7684-5.4855
				C61.0676,167.9579,58.7341,165.7081,56.5251,163.338z"/>
			<path class="st0" d="M80.0326,141.4169l-5.0716,4.7295c1.6085,1.7268,3.3079,3.3656,5.0867,4.9174l4.5493-5.2335
				C83.0007,144.4375,81.4759,142.9666,80.0326,141.4169z"/>
			<path class="st0" d="M87.9592,134.0255l-5.1621,4.8137c1.3533,1.4532,2.7831,2.8325,4.2796,4.1386l4.6241-5.3192
				C90.389,136.5137,89.145,135.2996,87.9592,134.0255z"/>
			<path class="st0" d="M64.3608,156.0312l-5.0713,4.729c2.119,2.2738,4.3573,4.4315,6.7007,6.4748l4.549-5.2329
				C68.3785,160.118,66.3147,158.1281,64.3608,156.0312z"/>
			<path class="st0" d="M72.1969,148.724l-5.0718,4.7293c1.8636,2.0001,3.8328,3.8987,5.8938,5.6962l4.5493-5.2334
				C75.6897,152.2777,73.8954,150.5472,72.1969,148.724z"/>
			<path class="st0" d="M90.8604,163.1159l-3.2569,6.1254c2.4032,1.2874,4.8842,2.4451,7.428,3.4812l2.5988-6.4324
				C95.3119,165.3452,93.0508,164.2896,90.8604,163.1159z"/>
			<path class="st0" d="M95.8923,153.6522l-3.2568,6.1252c2.0745,1.1117,4.2157,2.1116,6.4113,3.0067l2.599-6.4326
				C99.6754,155.548,97.7539,154.6503,95.8923,153.6522z"/>
			<path class="st0" d="M85.8283,172.5798l-3.2566,6.1249c2.7323,1.463,5.5526,2.7786,8.4444,3.956l2.5988-6.4321
				C90.9484,175.1426,88.3476,173.9291,85.8283,172.5798z"/>
			<path class="st0" d="M77.4136,188.4057l9.493,4.4268l2.693-6.6655c-3.0148-1.2272-5.9549-2.5987-8.8032-4.1236L77.4136,188.4057z
				"/>
			<path class="st0" d="M100.9687,144.105l-3.3011,6.2085c1.7454,0.9361,3.5472,1.7781,5.3948,2.5319l2.6393-6.5326
				C104.0817,145.653,102.4987,144.9246,100.9687,144.105z"/>
			<path class="st0" d="M116.5889,149.3232l-1.1098,7.0068c1.9466,0.3123,3.9244,0.5294,5.9309,0.6389l0.3717-7.0925
				C120.0241,149.7797,118.2936,149.5965,116.5889,149.3232z"/>
			<path class="st0" d="M108.7387,198.887l10.417,1.0949l0.3729-7.1155c-3.2723-0.1751-6.498-0.526-9.6729-1.0322L108.7387,198.887z
				"/>
			<path class="st0" d="M113.2103,170.6552l-1.0856,6.8538c2.6793,0.428,5.4014,0.7249,8.1631,0.8734l0.3632-6.9297
				C118.1337,171.3167,115.6526,171.0459,113.2103,170.6552z"/>
			<path class="st0" d="M111.533,181.2448l-1.0855,6.8537c3.0458,0.4859,6.14,0.8226,9.2791,0.9908l0.3632-6.9297
				C117.195,182.0042,114.3416,181.6931,111.533,181.2448z"/>
			<path class="st0" d="M114.8875,160.0657l-1.0856,6.8538c2.3129,0.3701,4.6628,0.627,7.047,0.7561l0.3632-6.9299
				C119.0723,160.6295,116.9634,160.3984,114.8875,160.0657z"/>
			<path class="st0" d="M133.0662,149.2393l1.2292,6.9708c1.9771-0.3417,3.9184-0.7852,5.821-1.3254l-1.948-6.7932
				C136.5012,148.5626,134.7993,148.9415,133.0662,149.2393z"/>
			<path class="st0" d="M138.6748,181.0473l1.2048,6.8323c3.0912-0.5376,6.1265-1.2345,9.1008-2.0823l-1.9123-6.669
				C144.3251,179.9098,141.5257,180.5521,138.6748,181.0473z"/>
			<path class="st0" d="M136.8135,170.4907l1.2048,6.8324c2.72-0.4722,5.3905-1.0846,8.0075-1.8299l-1.9123-6.6693
				C141.7277,169.503,139.293,170.0607,136.8135,170.4907z"/>
			<path class="st0" d="M134.952,159.9343l1.2048,6.8324c2.3486-0.4069,4.6545-0.9351,6.9143-1.5778l-1.9124-6.6691
				C139.1302,159.0961,137.06,159.5695,134.952,159.9343z"/>
			<path class="st0" d="M141.7697,198.5988l10.2059-2.3563l-1.9527-6.8101c-3.1004,0.8842-6.2644,1.6108-9.4865,2.1714
				L141.7697,198.5988z"/>
			<path class="st0" d="M153.8978,153.2785l3.363,6.0671c2.0762-1.1486,4.0815-2.408,6.0178-3.7607l-3.9778-5.6809
				C157.5621,151.1179,155.7619,152.248,153.8978,153.2785z"/>
			<path class="st0" d="M172.9072,187.5724l8.8828-5.5506l-4.0514-5.786c-2.6553,1.8578-5.4053,3.5867-8.2527,5.1644
				L172.9072,187.5724z"/>
			<path class="st0" d="M164.2899,172.0265l3.363,6.0668c2.7316-1.5132,5.3699-3.1721,7.9173-4.954l-3.9774-5.6805
				C169.2431,169.1019,166.8096,170.6312,164.2899,172.0265z"/>
			<path class="st0" d="M159.0938,162.6524l3.3631,6.0672c2.404-1.331,4.7256-2.79,6.9676-4.3573l-3.9778-5.6811
				C163.4025,160.1096,161.2857,161.4396,159.0938,162.6524z"/>
			<path class="st0" d="M148.6564,143.8229l3.4082,6.1485c1.7485-0.9662,3.4371-2.0258,5.0679-3.164l-4.0351-5.7625
				C151.6665,142.0418,150.1913,142.9772,148.6564,143.8229z"/>
			<path class="st0" d="M181.7562,55.1028l3.0859-2.0815c-0.8274-1.2217-1.7223-2.3932-2.6699-3.5193l-2.8506,2.3919
				C180.1857,52.9206,181.0018,53.9889,181.7562,55.1028z"/>
			<path class="st0" d="M167.5433,42.7881l4.1742-5.5395c-2.1884-1.6495-4.4666-3.1847-6.824-4.6024l-3.5729,5.9464
				C163.4702,39.8848,165.5476,41.2843,167.5433,42.7881z"/>
			<path class="st0" d="M155.3159,4.8796l-10.1175-2.711l-1.4438,6.7921c3.2037,0.675,6.3426,1.5235,9.4165,2.5199L155.3159,4.8796z
				"/>
			<path class="st0" d="M139.8873,52.3639l2.1771-6.7005c-1.888-0.6102-3.8156-1.1297-5.7833-1.5423l-1.4644,6.8894
				C136.5432,51.3704,138.2311,51.8309,139.8873,52.3639z"/>
			<path class="st0" d="M146.5458,31.8712l2.144-6.5988c-2.5953-0.8405-5.2455-1.5561-7.9505-2.1253l-1.4427,6.7875
				C141.7629,30.4531,144.1794,31.1052,146.5458,31.8712z"/>
		</g>
		<g>
			<path class="st0" d="M110.5956,15.2558l-1.1452-6.8431c-3.2221,0.5297-6.3858,1.2303-9.4881,2.0839l1.8541,6.6855
				C104.6871,16.3929,107.6142,15.7454,110.5956,15.2558z"/>
			<path class="st0" d="M115.6087,45.2132l-0.8502-5.0801c-2.106,0.3435-4.1737,0.7989-6.2017,1.3542l1.3765,4.9634
				C111.7893,45.9433,113.6815,45.527,115.6087,45.2132z"/>
			<path class="st0" d="M114.1345,36.4031l-1.1454-6.8443c-2.4782,0.4057-4.9111,0.943-7.2972,1.5977l1.8544,6.6867
				C109.7006,37.2529,111.8972,36.7684,114.1345,36.4031z"/>
			<path class="st0" d="M83.767,24.425l-3.3106-6.0974c-2.8572,1.5492-5.6178,3.252-8.2851,5.0824l3.9284,5.7159
				C78.5679,27.4328,81.1231,25.858,83.767,24.425z"/>
			<path class="st0" d="M93.9982,43.2686l-3.3113-6.0985c-2.1984,1.1901-4.3236,2.4969-6.3759,3.9035l3.9289,5.7166
				C90.0932,45.521,92.013,44.3424,93.9982,43.2686z"/>
			<path class="st0" d="M88.8825,33.8467l-3.3109-6.098c-2.5277,1.3696-4.9708,2.8743-7.3306,4.4928l3.9289,5.7166
				C84.3306,36.4769,86.5679,35.1003,88.8825,33.8467z"/>
			<path class="st0" d="M98.2606,51.1191l-2.4579-4.5269c-1.8689,1.0104-3.6765,2.1191-5.4214,3.3137l2.9165,4.2436
				C94.895,53.0568,96.5498,52.0433,98.2606,51.1191z"/>
			<path class="st0" d="M61.3947,41.8668l-5.1133-4.6855c-2.1951,2.3844-4.2721,4.8786-6.2111,7.4827l5.5753,4.1256
				C57.4403,46.3802,59.363,44.0729,61.3947,41.8668z"/>
			<path class="st0" d="M69.2958,49.107l-5.1141-4.6862c-1.9426,2.109-3.7811,4.3144-5.497,6.6177l5.5769,4.1266
				C65.833,53.0563,67.5168,51.0377,69.2958,49.107z"/>
			<path class="st0" d="M77.1968,56.3469L72.083,51.661c-1.6899,1.8335-3.2897,3.7503-4.7824,5.7529l5.576,4.126
				C74.2248,59.7321,75.6705,58.002,77.1968,56.3469z"/>
			<path class="st0" d="M83.7802,62.3794l-3.7962-3.4785c-1.437,1.5578-2.7988,3.1861-4.0683,4.8879l4.1393,3.063
				C81.2174,65.2945,82.4646,63.805,83.7802,62.3794z"/>
			<path class="st0" d="M65.5293,74.1792l-6.3624-2.7664c-0.9988,2.2772-1.8886,4.6117-2.6488,7.0048l6.6182,2.0868
				C63.8231,78.3434,64.627,76.2354,65.5293,74.1792z"/>
			<path class="st0" d="M45.8668,65.6298l-6.3621-2.7664c-1.297,2.96-2.4526,5.9947-3.4396,9.1054l6.618,2.0866
				C43.5969,71.177,44.6663,68.369,45.8668,65.6298z"/>
			<path class="st0" d="M73.7204,77.7409l-4.7232-2.0537c-0.8497,1.9357-1.6068,3.9201-2.2536,5.9546l4.9131,1.549
				C72.2491,81.3288,72.9423,79.5125,73.7204,77.7409z"/>
			<path class="st0" d="M55.699,69.9048l-6.3643-2.7672c-1.1478,2.6185-2.1707,5.3032-3.0442,8.0552l6.6202,2.0874
				C53.7108,74.7607,54.6477,72.3025,55.699,69.9048z"/>
			<path class="st0" d="M60.12,99.9814c0-1.7234,0.0883-3.4258,0.2218-5.1155l-6.9158-0.5444
				c-0.1476,1.8696-0.2452,3.753-0.2452,5.6598c0,0.613,0.0311,1.2186,0.0465,1.8281l6.9346-0.1816
				C60.148,101.0791,60.12,100.5337,60.12,99.9814z"/>
			<path class="st0" d="M38.6744,99.9814c0-2.2901,0.117-4.5522,0.2938-6.7977l-6.9157-0.5444
				c-0.1908,2.4254-0.3174,4.8685-0.3174,7.342c0,0.8012,0.0403,1.5928,0.0606,2.3892l6.9346-0.1816
				C38.7116,101.4531,38.6744,100.7217,38.6744,99.9814z"/>
			<path class="st0" d="M69.0539,99.9814c0-1.4873,0.0762-2.9565,0.1916-4.4147l-5.1341-0.4042
				c-0.1259,1.5917-0.209,3.1954-0.209,4.8189c0,0.519,0.0262,1.0316,0.0392,1.5475l5.1481-0.1348
				C69.0779,100.9232,69.0539,100.4552,69.0539,99.9814z"/>
			<path class="st0" d="M49.3984,99.9814c0-2.0068,0.1027-3.9889,0.2578-5.9566l-6.9183-0.5445
				c-0.1691,2.1474-0.2812,4.3109-0.2812,6.5011c0,0.7072,0.0356,1.4058,0.0534,2.1086l6.9372-0.1816
				C49.4311,101.2661,49.3984,100.6277,49.3984,99.9814z"/>
			<path class="st0" d="M41.4046,121.495l-6.7188,1.7376c0.8191,3.1637,1.8125,6.2565,2.9482,9.2809l6.4989-2.4298
				C43.0819,127.285,42.1626,124.4227,41.4046,121.495z"/>
			<path class="st0" d="M51.7878,118.8096l-6.721,1.7382c0.7247,2.7991,1.6037,5.5355,2.6087,8.2113l6.5011-2.4306
				C53.2562,123.8783,52.4514,121.3728,51.7878,118.8096z"/>
			<path class="st0" d="M70.819,113.8878l-4.9879,1.29c0.5359,2.0697,1.1861,4.0932,1.9295,6.0718l4.8249-1.8039
				C71.905,117.6347,71.3097,115.7825,70.819,113.8878z"/>
			<path class="st0" d="M62.1688,116.1249l-6.7187,1.7376c0.6302,2.4345,1.3948,4.8143,2.2689,7.1415l6.4991-2.4298
				C63.4285,120.4726,62.738,118.3235,62.1688,116.1249z"/>
			<path class="st0" d="M70.8909,135.5955l-5.7839,3.8281c1.3861,2.082,2.8716,4.0922,4.4625,6.0132l5.3522-4.412
				C73.4848,139.2902,72.1426,137.4756,70.8909,135.5955z"/>
			<path class="st0" d="M53.0166,147.4262l-5.7837,3.8282c1.8007,2.7064,3.7297,5.3196,5.7967,7.8168l5.3522-4.4118
				C56.469,152.3485,54.6832,149.9305,53.0166,147.4262z"/>
			<path class="st0" d="M78.3374,130.6667l-4.2939,2.842c1.1787,1.7701,2.4423,3.4781,3.7954,5.1112l3.9735-3.2754
				C80.5736,133.8501,79.4166,132.2867,78.3374,130.6667z"/>
			<path class="st0" d="M61.9544,141.5104l-5.7853,3.8291c1.5934,2.3943,3.3008,4.7058,5.1298,6.9149l5.3533-4.4129
				C64.9774,145.8188,63.4136,143.7026,61.9544,141.5104z"/>
			<path class="st0" d="M85.4638,151.156l-4.2217,5.5018c1.9784,1.5155,4.0314,2.9379,6.1646,4.2435l3.6245-5.9146
				C89.1045,153.8083,87.2506,152.5242,85.4638,151.156z"/>
			<path class="st0" d="M90.8992,144.0726l-3.1343,4.0846c1.6823,1.2877,3.4279,2.4963,5.2418,3.6055l2.6909-4.391
				C94.0372,146.3568,92.4393,145.251,90.8992,144.0726z"/>
			<path class="st0" d="M78.9409,159.6568l-4.2221,5.5024c2.2746,1.7433,4.6348,3.3791,7.0874,4.8811l3.6248-5.915
				C83.1852,162.7503,81.0236,161.2526,78.9409,159.6568z"/>
			<path class="st0" d="M72.4175,168.1582l-4.2216,5.5018c2.5707,1.9711,5.2384,3.8204,8.0104,5.5187l3.6243-5.9144
				C77.2653,171.6929,74.7965,169.9818,72.4175,168.1582z"/>
			<path class="st0" d="M107.1241,152.6625l-1.6343,4.8843c2.0005,0.6642,4.0448,1.2295,6.1309,1.6845l1.1149-5.0287
				C110.8263,153.7867,108.9551,153.2698,107.1241,152.6625z"/>
			<path class="st0" d="M100.8887,171.2984l-2.2015,6.5793c2.7059,0.9008,5.4712,1.6675,8.293,2.2855l1.5018-6.774
				C105.8983,172.8239,103.3664,172.1227,100.8887,171.2984z"/>
			<path class="st0" d="M97.4873,181.4638l-2.2013,6.5793c3.0585,1.0192,6.1845,1.8864,9.3742,2.5859l1.5016-6.7738
				C103.21,183.2083,100.3176,182.4063,97.4873,181.4638z"/>
			<path class="st0" d="M104.29,161.1329l-2.2014,6.5793c2.3532,0.7826,4.7579,1.4484,7.212,1.9849l1.5018-6.7736
				C108.5864,162.4397,106.4149,161.8389,104.29,161.1329z"/>
			<path class="st0" d="M125.3287,164.396l0.0605,6.9377c2.5194-0.0292,5.0065-0.1911,7.4574-0.4762l-0.7855-6.8937
				C129.8484,164.2219,127.6031,164.3689,125.3287,164.396z"/>
			<path class="st0" d="M125.4223,175.1153l0.0605,6.9377c2.8977-0.0325,5.7583-0.2178,8.5774-0.5445l-0.7855-6.8935
				C130.6938,174.9147,128.0751,175.0849,125.4223,175.1153z"/>
			<path class="st0" d="M125.2508,155.4641l0.0449,5.1504c2.1411-0.0259,4.2545-0.1645,6.3373-0.408l-0.5831-5.1176
				C129.144,155.3122,127.2102,155.4398,125.2508,155.4641z"/>
			<path class="st0" d="M125.5159,185.8344l0.0605,6.9377c3.2762-0.0359,6.51-0.2442,9.6972-0.6127l-0.7854-6.8935
				C131.5392,185.6072,128.5472,185.8007,125.5159,185.8344z"/>
			<path class="st0" d="M143.2815,152.2218l1.7194,4.8555c2.0001-0.7186,3.955-1.5321,5.8522-2.4488l-2.2179-4.6499
				C146.8997,150.8181,145.1113,151.5637,143.2815,152.2218z"/>
			<path class="st0" d="M153.4203,180.853l2.3159,6.54c3.0627-1.096,6.0574-2.3363,8.9628-3.7359l-2.9868-6.2619
				C159.0242,178.6906,156.2538,179.8384,153.4203,180.853z"/>
			<path class="st0" d="M146.2634,160.6424l2.3159,6.5403c2.3543-0.8443,4.6564-1.7993,6.8895-2.8769l-2.9874-6.2633
				C150.4658,159.0159,148.3884,159.8795,146.2634,160.6424z"/>
			<path class="st0" d="M149.8418,170.7476l2.3161,6.5403c2.7086-0.9702,5.3569-2.0676,7.9262-3.3062l-2.9871-6.2625
				C154.7452,168.8537,152.3212,169.859,149.8418,170.7476z"/>
			<path class="st0" d="M184.0624,36.0258l2.8476-2.7023c-1.2583-1.3286-2.584-2.5912-3.9735-3.7831l-2.5497,2.9854
				C181.6721,33.6286,182.8984,34.7966,184.0624,36.0258z"/>
			<path class="st0" d="M164.8589,61.8896l3.7342-3.5436c-1.4496-1.5326-2.9773-2.989-4.5782-4.3643l-3.3434,3.9147
				C162.1357,59.1549,163.533,60.4874,164.8589,61.8896z"/>
			<path class="st0" d="M150.3193,50.8492l2.3778-4.5679c-1.8626-0.9802-3.7825-1.8627-5.7525-2.6482l-1.8876,4.7918
				C146.859,49.1442,148.6155,49.952,150.3193,50.8492z"/>
			<path class="st0" d="M164.341,23.9134l3.2026-6.1522c-2.8539-1.4983-5.7953-2.8475-8.8135-4.0477l-2.5424,6.4543
				C158.9799,21.2786,161.7011,22.5269,164.341,23.9134z"/>
			<path class="st0" d="M132.9587,45.1185l0.7615-5.0949c-2.0711-0.3155-4.1776-0.521-6.3112-0.6204l-0.2245,5.1458
				C129.1366,44.6407,131.0638,44.8295,132.9587,45.1185z"/>
			<path class="st0" d="M137.4488,15.0742l1.0256-6.8628c-3.1712-0.4791-6.3958-0.7903-9.6626-0.9387l-0.3026,6.9315
				C131.5317,14.3421,134.515,14.6305,137.4488,15.0742z"/>
			<path class="st0" d="M134.2792,36.2829l1.0259-6.8641c-2.4379-0.37-4.9169-0.6107-7.4284-0.7264l-0.3027,6.9328
				C129.8409,35.7304,132.0788,35.9483,134.2792,36.2829z"/>
		</g>
	</g>
</g>
</svg>
