<?xml version="1.0" encoding="utf-8"?>
<!-- Generator: Adobe Illustrator 28.1.0, SVG Export Plug-In . SVG Version: 6.00 Build 0)  -->
<!DOCTYPE svg PUBLIC "-//W3C//DTD SVG 1.1//EN" "http://www.w3.org/Graphics/SVG/1.1/DTD/svg11.dtd" [
	<!ENTITY ns_extend "http://ns.adobe.com/Extensibility/1.0/">
	<!ENTITY ns_ai "http://ns.adobe.com/AdobeIllustrator/10.0/">
	<!ENTITY ns_graphs "http://ns.adobe.com/Graphs/1.0/">
	<!ENTITY ns_vars "http://ns.adobe.com/Variables/1.0/">
	<!ENTITY ns_imrep "http://ns.adobe.com/ImageReplacement/1.0/">
	<!ENTITY ns_sfw "http://ns.adobe.com/SaveForWeb/1.0/">
	<!ENTITY ns_custom "http://ns.adobe.com/GenericCustomNamespace/1.0/">
	<!ENTITY ns_adobe_xpath "http://ns.adobe.com/XPath/1.0/">
]>
<svg version="1.1" id="Layer_1" xmlns:x="&ns_extend;" xmlns:i="&ns_ai;" xmlns:graph="&ns_graphs;"
	 xmlns="http://www.w3.org/2000/svg" xmlns:xlink="http://www.w3.org/1999/xlink" x="0px" y="0px" width="500px" height="200px"
	 viewBox="0 0 500 200" style="enable-background:new 0 0 500 200;" xml:space="preserve">
<style type="text/css">
	.st0{fill:#0A2240;}
</style>
<metadata>
	<sfw  xmlns="&ns_sfw;">
		<slices></slices>
		<sliceSourceBounds  bottomLeftOrigin="true" height="101.0014" width="500" x="48.2825" y="366.4516"></sliceSourceBounds>
	</sfw>
</metadata>
<g>
	<g>
		<path class="st0" d="M34.3594,147.0183c-22.3643-6.1348-35.146-25.5341-34.3218-49.1964
			c0.7853-22.5471,15.6381-41.6851,37.1552-46.4169c7.2448-1.5932,15.0841-1.4731,22.5408-0.8369
			c7.593,0.6478,11.1737,5.71,10.6489,12.5403c-0.4705,6.1242-5.3333,9.6909-12.6735,10.2172
			c-6.3725,0.4569-13.17,0.507-18.9288,2.8386c-11.4581,4.639-17.1595,17.0421-14.7528,28.854
			c2.4505,12.0272,12.6866,20.7912,25.2461,21.1566c9.1658,0.2667,18.3695,0.4067,27.5058-0.1815
			c2.8274-0.182,6.5106-2.2675,8.0655-4.6262c13.0473-19.7917,25.7992-39.7815,38.4182-59.8512
			c8.9815-14.2844,25.1782-14.8179,34.1791-0.5639c14.1752,22.448,28.0428,45.0909,41.9536,67.7048
			c2.9097,4.73,4.7636,9.8463,1.5015,15.1826c-4.8183,7.8821-15.806,7.7009-20.7988-0.3885
			c-11.4545-18.5586-22.7805-37.1964-34.1652-55.798c-3.8682-6.3203-6.7278-6.3712-10.5616-0.1543
			c-11.0346,17.8933-22.2143,35.7005-32.9818,53.7534c-3.8412,6.4402-8.7125,9.5096-16.2515,8.9841
			C79.0822,150.4283,45.7138,151.5608,34.3594,147.0183z"/>
		<path class="st0" d="M312.6521,73.2869c-5.2758-0.065-8.9261,2.038-11.6971,6.5457
			c-12.4186,20.2016-24.9473,40.3361-37.5261,60.4385c-8.3958,13.4173-24.4912,13.5231-32.8491,0.0753
			c-14.7703-23.7653-29.329-47.6624-43.9361-71.529c-3.8471-6.2857-2.4036-13.3669,3.3291-17.0894
			c5.7903-3.7599,13.2711-2.1298,17.2344,4.3389c11.15,18.1982,22.0822,36.5302,33.0438,54.8432
			c4.381,7.3191,8.2204,7.5246,12.7857,0.2936c10.9721-17.3789,21.9077-34.7821,32.685-52.2821
			c3.6643-5.9501,8.4941-8.7536,15.5999-8.7012c25.6271,0.1888,51.2566,0.0292,76.885,0.0671
			c8.8536,0.0131,13.8187,4.796,13.1341,12.4029c-0.5617,6.242-5.2285,10.5683-11.7703,10.617
			C368.1806,73.3922,323.5663,73.4215,312.6521,73.2869z"/>
		<path class="st0" d="M472.4391,105.9825c-4.4357-4.3938-4.812-7.1554-0.9405-11.9739c0.5352-0.6662,1.0987-1.3103,1.6731-1.9458
			c3.4861-3.3865,7.0144-6.7314,10.5211-10.097c4.316-3.8803,8.8744-7.5284,12.7545-11.799
			c1.4149-1.5573,2.3465-3.3034,2.8579-5.1059c0.316-0.7881,0.5593-1.6537,0.6947-2.6356c0-0.829-0.1374-1.7009-0.3858-2.5825
			c-0.4592-2.8121-1.9054-5.4685-4.2291-7.4769c-2.1134-1.8267-4.6806-2.7448-7.3186-2.7711
			c-3.4997-0.4586-6.7798,0.7424-9.6146,3.4734c-7.5123,7.2373-14.7784,14.7295-22.2316,22.0289
			c-3.6157,3.541-6.1426,5.3366-8.6476,5.3894c-2.1606-0.5117-4.4347-2.2321-7.4122-5.1788
			c-7.5286-7.4507-14.8362-15.1331-22.5476-22.3876c-2.8704-2.7004-6.3521-3.7469-9.6824-3.3261
			c-3.0098,0.0623-5.8857,1.3225-8.2,3.8029c-4.9014,5.253-4.3292,12.4891,1.4518,18.1028
			c7.5988,7.3788,15.2685,14.6858,22.7931,22.1393c4.4357,4.3938,4.812,7.1554,0.9405,11.9739
			c-0.5354,0.6663-1.0989,1.3106-1.6735,1.9462c-3.4859,3.3863-7.0142,6.7311-10.5207,10.0965
			c-4.3161,3.8803-8.8745,7.5284-12.7545,11.7991c-1.4149,1.5574-2.3466,3.3036-2.8581,5.1062
			c-0.316,0.788-0.5592,1.6535-0.6945,2.6353c0,0.829,0.1375,1.7007,0.3857,2.5822c0.4591,2.8122,1.9053,5.4687,4.2291,7.4772
			c2.1134,1.8267,4.6806,2.7448,7.3186,2.7711c3.4997,0.4586,6.7799-0.7424,9.6147-3.4734
			c7.5123-7.2373,14.7783-14.7295,22.2317-22.0289c3.6156-3.541,6.1425-5.3365,8.6476-5.3894
			c2.1606,0.5116,4.4348,2.2321,7.4123,5.1788c7.5285,7.4507,14.8362,15.133,22.5476,22.3875
			c2.8705,2.7005,6.3524,3.747,9.6828,3.3261c3.0096-0.0625,5.8854-1.3227,8.1996-3.8029
			c4.9014-5.253,4.3292-12.4891-1.4518-18.1028C487.6335,120.743,479.9637,113.4361,472.4391,105.9825z"/>
		<path class="st0" d="M320.9573,112.2761c-8.0541-0.0436-13.1929-4.6736-13.1719-11.7323
			c0.0203-6.8108,5.0968-11.5655,12.858-11.5994c19.2867-0.0843,38.5746-0.0837,57.861,0.0433
			c8.0899,0.0532,13.0309,4.8367,12.9121,11.9785c-0.1142,6.8684-5.1105,11.2496-13.0721,11.3011
			C368.8594,112.3287,330.6007,112.3283,320.9573,112.2761z"/>
		<path class="st0" d="M349.7542,150.2817c-9.6387,0-19.2775,0.0248-28.916-0.0078c-7.8235-0.0265-12.9466-4.4819-13.0727-11.283
			c-0.1311-7.0638,4.9195-11.7629,13.0289-11.795c19.2769-0.0762,38.5546-0.0784,57.8315-0.0106
			c7.9713,0.028,12.7303,4.4462,12.7469,11.4981c0.0165,6.9741-4.8985,11.5134-12.7028,11.5641
			C369.0318,150.3101,349.7542,150.2753,349.7542,150.2817z"/>
	</g>
	<path class="st0" d="M140.6533,133.0332c-8.0427-0.0475-14.4011-5.3571-14.3409-11.9756
		c0.0614-6.7555,6.4196-11.9648,14.449-11.8381c7.9474,0.1254,14.0409,5.1962,14.0908,11.7258
		C154.9043,127.757,148.6514,133.0803,140.6533,133.0332z"/>
</g>
</svg>
