<?xml version="1.0" encoding="utf-8"?>
<!-- Generator: Adobe Illustrator 28.1.0, SVG Export Plug-In . SVG Version: 6.00 Build 0)  -->
<!DOCTYPE svg PUBLIC "-//W3C//DTD SVG 1.1//EN" "http://www.w3.org/Graphics/SVG/1.1/DTD/svg11.dtd" [
	<!ENTITY ns_extend "http://ns.adobe.com/Extensibility/1.0/">
	<!ENTITY ns_ai "http://ns.adobe.com/AdobeIllustrator/10.0/">
	<!ENTITY ns_graphs "http://ns.adobe.com/Graphs/1.0/">
	<!ENTITY ns_vars "http://ns.adobe.com/Variables/1.0/">
	<!ENTITY ns_imrep "http://ns.adobe.com/ImageReplacement/1.0/">
	<!ENTITY ns_sfw "http://ns.adobe.com/SaveForWeb/1.0/">
	<!ENTITY ns_custom "http://ns.adobe.com/GenericCustomNamespace/1.0/">
	<!ENTITY ns_adobe_xpath "http://ns.adobe.com/XPath/1.0/">
]>
<svg version="1.1" id="Layer_1" xmlns:x="&ns_extend;" xmlns:i="&ns_ai;" xmlns:graph="&ns_graphs;"
	 xmlns="http://www.w3.org/2000/svg" xmlns:xlink="http://www.w3.org/1999/xlink" x="0px" y="0px" width="499px" height="200px"
	 viewBox="0 0 499 200" style="enable-background:new 0 0 499 200;" xml:space="preserve">
<style type="text/css">
	.st0{fill:#FF6600;}
</style>
<metadata>
	<sfw  xmlns="&ns_sfw;">
		<slices></slices>
		<sliceSourceBounds  bottomLeftOrigin="true" height="65.1379" width="500" x="47.64" y="-453.5139"></sliceSourceBounds>
	</sfw>
</metadata>
<g>
	<g>
		<g>
			<path class="st0" d="M495.1318,74.9477c0-1.5788-0.9385-3.7287-3.3603-3.7287h-4.0278c-0.1949,0-0.3534,0.1586-0.3534,0.3541
				v8.9837c-0.0003,0.0075-0.003,0.0152-0.003,0.0225c0,0.0083,0.0027,0.0152,0.003,0.0229
				c0.0114,0.185,0.1635,0.3313,0.3511,0.3313h1.4317c0.1933,0,0.3494-0.1548,0.3531-0.3477c0-0.0017,0.001-0.0035,0.001-0.0064
				c0-0.0023-0.001-0.0046-0.001-0.0064v-1.484v-0.0569v-0.0634c0.0279-0.1621,0.1656-0.2858,0.3339-0.2922h0.0196h0.0086
				c0,0,1.2413,0,1.5682,0s0.4142,0.1588,0.4672,0.3444c0.053,0.1856,0.5687,1.6827,0.5687,1.6827l0.0061,0.016
				c0.0538,0.1253,0.1781,0.2128,0.3232,0.2141h1.4607c0.1943-0.0012,0.3522-0.158,0.3522-0.3541
				c0-0.0395-0.0077-0.0773-0.0201-0.1133l-0.0127-0.0335l-0.8864-2.37C494.7135,77.3088,495.1318,76.0008,495.1318,74.9477z
				 M491.1862,77.016h-1.2831h-0.0291h-0.0257c-0.1683-0.0127-0.3016-0.1424-0.322-0.3076v-0.0528v-0.0331v-3.3492v-0.0461v-0.0395
				c0.0204-0.1679,0.157-0.298,0.3271-0.3088h0.0258h0.0187h1.2883c0.993,0,1.8781,0.8302,1.8781,2.0689
				C493.0642,76.1855,492.1791,77.016,491.1862,77.016z"/>
			<path class="st0" d="M490.815,67.4311c-4.7889,0-8.685,3.8962-8.685,8.685c0,4.789,3.8961,8.685,8.685,8.685
				c4.7888,0,8.685-3.896,8.685-8.685C499.5,71.3273,495.6038,67.4311,490.815,67.4311z M490.815,82.864
				c-3.7206,0-6.7477-3.0271-6.7477-6.7479c0-3.7206,3.0271-6.7477,6.7477-6.7477c3.7208,0,6.7477,3.0271,6.7477,6.7477
				C497.5627,79.8369,494.5358,82.864,490.815,82.864z"/>
			<path class="st0" d="M29.0599,130.9689c13.8386,0,23.8153-8.4609,26.0945-21.91c0.0151-0.0667,0.0201-0.1353,0.0317-0.2005
				c0.0117-0.0921,0.0268-0.1872,0.0268-0.286c0-1.2056-0.9716-2.1821-2.1687-2.1888h-0.0117c-0.0151,0-0.0184,0-0.0184,0h-8.4593
				h-0.0176h-0.0209c-0.9815,0.0066-1.8017,0.6671-2.0676,1.5618c-0.0242,0.1203-0.051,0.2373-0.0744,0.3545
				c-1.4647,6.8842-5.9034,11.5594-13.3143,11.5594c-11.8754,0-16.3392-10.1099-16.3392-20.1307
				c0-10.5268,4.4638-20.6316,16.3392-20.6316c5.9377,0,11.1874,3.7197,12.7609,8.8514c0.0058,0.0193,0.0117,0.0343,0.0176,0.0535
				c0.2433,0.9122,1.051,1.5876,2.03,1.6228c0.0267,0,0.0534,0.0051,0.0802,0.0051c0.0267,0,0.0535-0.0051,0.0769-0.0051h8.323
				c0.0268,0,0.0535,0.0051,0.077,0.0051c0.03,0,0.0568-0.0051,0.0835-0.0051c1.1706-0.0451,2.1102-1.0007,2.1102-2.1796
				c0-0.1354-0.0151-0.2625-0.0384-0.3845c-0.0134-0.0544-0.0267-0.1078-0.0384-0.1648
				C51.882,74.7211,41.386,67.9791,29.0599,67.9791C10.4491,67.9791-0.5,81.8778-0.5,99.7287
				C-0.5,117.0786,10.4491,130.9689,29.0599,130.9689z"/>
			<path class="st0" d="M474.7366,69.4138H433.323c-1.2122,0-2.1904,0.9807-2.1904,2.1913v6.7747
				c0,1.0734,0.7741,1.9622,1.7924,2.1487c0.1272,0.0242,0.2609,0.0409,0.3979,0.0409c0.1339,0,0.2676-0.0167,0.398-0.0409h13.7014
				v46.7819c-0.0033,0.0134-0.0067,0.025-0.0067,0.0385c0,0.0151,0.0033,0.0268,0.0067,0.0401
				c0.0185,1.1939,0.99,2.1521,2.1839,2.1521h8.864c1.1454,0,2.0751-0.8813,2.1687-2.0015
				c0.0067-0.0619,0.0218-0.1237,0.0218-0.1907c0-0.0635-0.0152-0.1254-0.0218-0.1889V80.5284h13.6997
				c0.1305,0.0242,0.2643,0.0409,0.398,0.0409c0.1371,0,0.2677-0.0167,0.4013-0.0409c1.015-0.1864,1.7909-1.0753,1.7909-2.1487
				V71.605C476.9288,70.3945,475.9456,69.4138,474.7366,69.4138z"/>
			<path class="st0" d="M324.1531,111.6876c0-13.6386-13.4706-16.4194-17.8517-17.5163
				c-15.0726-3.8743-17.9403-4.4613-17.9403-9.0947c0-5.0523,4.8878-6.8197,9.0981-6.8197c5.697,0,10.4308,1.5099,11.6163,7.1249
				c0.0134,0.1196,0.0317,0.2399,0.0668,0.3553c0.0853,0.3178,0.2392,0.6037,0.45,0.8436c0,0,0,0,0,0.0033
				c0.0685,0.0795,0.1455,0.1522,0.2224,0.2216c0.0234,0.0191,0.0451,0.0351,0.0618,0.0509
				c0.0703,0.0569,0.1438,0.1104,0.2207,0.1597c0.0452,0.0284,0.0887,0.051,0.1371,0.0761c0.062,0.0318,0.1239,0.0661,0.189,0.0936
				c0.1221,0.0485,0.2458,0.0895,0.3763,0.1171c0,0,0.0117,0,0.0201,0.005c0.1036,0.0184,0.2106,0.0385,0.3227,0.0435
				c0.0419,0,0.0803,0.0133,0.1222,0.0133c0.0418,0,0.0835-0.0133,0.1187-0.0133h8.3372c0.0385,0,0.0802,0.0133,0.1221,0.0133
				c0.0401,0,0.0769-0.0133,0.1203-0.0133c1.1454-0.0628,2.0568-1.005,2.0684-2.1638c0-0.0066,0-0.0091,0-0.0141
				c0-0.0393-0.015-0.0812-0.015-0.1221c-1.209-12.2032-12.1363-17.0724-23.9666-17.0724c-10.8638,0-22.4885,5.8968-22.4885,18.1919
				c0,11.2845,9.0161,14.7397,17.9437,17.0991c8.8388,2.3527,17.8516,3.4463,17.8516,9.9307c0,6.1487-7.0764,7.4964-11.7099,7.4964
				c-6.4745,0-12.2466-2.6169-13.1697-9.1984c-0.0117-0.0669-0.0184-0.1338-0.0268-0.2057c-0.0568-0.2542-0.1605-0.49-0.2976-0.6989
				c-0.0067-0.0135-0.0134-0.0235-0.0184-0.0301c-0.0619-0.0987-0.1372-0.1922-0.2174-0.2743
				c-0.0134-0.0166-0.0318-0.0351-0.0502-0.0518c-0.0735-0.0736-0.1505-0.1438-0.2341-0.2041
				c-0.0201-0.02-0.0468-0.0335-0.0703-0.0534c-0.0819-0.0569-0.1655-0.1087-0.2592-0.1554
				c-0.0267-0.0118-0.0518-0.0285-0.0802-0.0403c-0.0954-0.0434-0.194-0.0786-0.2976-0.107
				c-0.0235-0.0083-0.0503-0.0166-0.077-0.0299c-0.1254-0.0251-0.2625-0.052-0.398-0.0603c-0.0117,0-0.0217-0.0033-0.0217-0.0033
				c-0.0468-0.0033-0.0819-0.0133-0.1238-0.0133c-0.0385,0-0.0735,0.01-0.1137,0.0133h-8.2686
				c-0.0385-0.0033-0.0736-0.0133-0.112-0.0133c-0.0419,0-0.0769,0.01-0.1154,0.0133c-1.152,0.0567-2.0683,0.9982-2.0768,2.1636
				c0,0.0052,0,0.0102,0,0.0135c0,0.0251,0.0084,0.0484,0.0084,0.0752c1.0618,13.2317,12.9055,19.1325,25.5166,19.1325
				C315.4798,130.9689,324.1531,122.7221,324.1531,111.6876z"/>
			<path class="st0" d="M101.1496,127.3488v-6.742c0-1.1872-0.9532-2.1536-2.1354-2.1838c-0.0217,0-0.0368-0.0033-0.0535-0.0033
				c-0.0184,0-0.0368,0.0033-0.0535,0.0033H75.2198c-1.152-0.0619-2.0667-1.0067-2.0667-2.1771
				c0-0.0886-0.0068-44.5605-0.0068-44.5605c0-0.0267,0.0084-0.0527,0.0084-0.0803c0-0.0333-0.0084-0.0567-0.0084-0.0877
				c-0.0468-1.1663-1.0016-2.1036-2.1838-2.1036h-8.8489c-1.2073,0-2.1889,0.9807-2.1889,2.1913v55.7438
				c0,1.2156,0.9815,2.1922,2.1889,2.1922h36.847C100.1697,129.541,101.1496,128.5644,101.1496,127.3488z"/>
			<path class="st0" d="M146.4309,132.5689c-0.0268,0-0.0502-0.0101-0.0787-0.0101c-0.0267,0-0.0535,0.0101-0.0802,0.0101H146.4309z
				"/>
			<path class="st0" d="M108.5588,129.541h39.5257c1.209,0,2.1905-0.9765,2.1905-2.1922v-6.7437
				c0-1.1789-0.938-2.1403-2.1102-2.1821h-0.1589h-26.1838h-0.102c0,0-0.0201,0-0.0351-0.0033
				c-1.1437-0.0452-2.0584-0.9666-2.0985-2.112v-0.0334v-0.102v-10.2351v-0.0921v-0.0401c0.0401-1.1488,0.9547-2.0734,2.0985-2.1185
				h0.0084h0.1571h21.1659c0.0166,0,0.0351,0.0067,0.0534,0.0067c0.0167,0,0.0318-0.0067,0.0502-0.0067h1.6304h0.1037
				c1.1772-0.0251,2.1269-0.9799,2.1386-2.1672c0-0.0066,0-0.01,0-0.015c0-0.0085,0-0.0185,0-0.0251l-0.0234-5.9058
				c-0.0117-1.1496-0.908-2.0751-2.0416-2.1462l-23.1423-0.0091h-0.0268c-0.0267-0.0043-0.0502-0.0109-0.0736-0.0109
				c-1.1437-0.0444-2.0584-0.964-2.0985-2.1136v-0.1112v-0.0225v-8.3782v-0.1238v-0.0101c0.0401-1.147,0.9547-2.0693,2.0985-2.1169
				c0.0151,0,0.0301-0.0025,0.0452-0.0025h0.0885h23.7995c0.0201,0,0.0418,0.0058,0.0618,0.0058
				c0.0201,0,0.0418-0.0058,0.0619-0.0058h1.6085h0.1271c1.1706-0.0335,2.1102-0.9815,2.1253-2.1554c0-0.0117,0-0.0184,0-0.0284
				c0-0.0068,0-0.016,0-0.026v-6.691c0-0.0067,0-0.0167,0-0.0227c0-0.01,0-0.0166,0-0.03
				c-0.0151-1.1964-0.9882-2.1612-2.1904-2.1612h-38.8536c-1.209,0-2.1922,0.9807-2.1922,2.1913v55.7438
				C106.3666,128.5644,107.3498,129.541,108.5588,129.541z"/>
			<path class="st0" d="M372.6047,118.423h-0.1571h-26.1889h-0.0937c-0.0133,0-0.0233,0-0.0385-0.0033
				c-1.1453-0.0452-2.0634-0.9666-2.0984-2.112v-0.0334v-0.102v-10.2351v-0.0921v-0.0401c0.0351-1.1488,0.9532-2.0734,2.0984-2.1185
				h0.0068h0.1555h22.9047h0.1021c1.1789-0.0251,2.1269-0.9799,2.1353-2.1672c0-0.0066,0.0033-0.01,0.0033-0.015
				c0-0.0085-0.0033-0.0185-0.0033-0.0251l-0.0202-5.9058c-0.015-1.1496-0.9096-2.0751-2.0416-2.1462l-23.1423-0.0091h-0.0301
				c-0.0201-0.0043-0.0451-0.0109-0.0703-0.0109c-1.1453-0.0444-2.0634-0.964-2.0984-2.1136v-0.1112v-0.0225v-8.3782v-0.1238
				v-0.0101c0.0351-1.147,0.9532-2.0693,2.0984-2.1169c0.0152,0,0.0251-0.0025,0.0385-0.0025h0.0904h25.5384h0.1237
				c1.1688-0.0335,2.1102-0.9815,2.127-2.1554c0-0.0117,0-0.0184,0-0.0284c0-0.0068,0-0.016,0-0.026v-6.691
				c0-0.0067,0-0.0167,0-0.0227c0-0.01,0-0.0166,0-0.03c-0.0168-1.1964-0.9883-2.1612-2.1889-2.1612H332.997
				c-1.2073,0-2.1922,0.9807-2.1922,2.1913v55.7438c0,1.2156,0.9849,2.1922,2.1922,2.1922h39.5291
				c1.2072,0,2.1938-0.9765,2.1938-2.1922v-6.7437C374.7199,119.4263,373.7784,118.4648,372.6047,118.423z"/>
			<path class="st0" d="M211.4365,126.4408l-20.7862-55.5856l-0.0569-0.1455c-0.341-0.7625-1.1068-1.296-1.9964-1.296h-10.5344
				c-0.908,0-1.6805,0.5468-2.0166,1.331l-0.0068,0.0184l-21.1406,55.6878l-0.0586,0.1589
				c-0.0835,0.2307-0.1354,0.4815-0.1354,0.739c0,1.214,0.9731,2.1838,2.1821,2.1922h0.005h0.0117h8.66h0.0134h0.0083
				c0.8962-0.0084,1.6655-0.5484,1.9999-1.326l0.0301-0.0786l1.9998-6.0681l0.0518-0.1539l0.1138-0.3093
				c0.311-0.6621,0.9414-1.132,1.6988-1.2273h0.2743h0.2724h22.0972h0.2141h0.3327c0.7375,0.092,1.351,0.5451,1.6754,1.1787
				l0.1221,0.3579l0.0835,0.2408l1.8293,5.9612l0.0385,0.0986c0.3328,0.7759,1.102,1.3176,2,1.326h0.0116h0.0083h8.9978h0.0083
				h0.0151c1.2022-0.0084,2.1788-0.9782,2.1788-2.1922c0-0.2441-0.0469-0.4782-0.1238-0.7006L211.4365,126.4408z M190.0081,110.5238
				h-0.1304h-0.1572h-13.2683h-0.1271h-0.1572c-1.1387-0.0736-2.045-1.015-2.045-2.1738c0-0.2257,0.0418-0.4414,0.107-0.6471
				l0.0535-0.1488l0.0384-0.1087l6.7387-17.4101l0.0501-0.1379l0.0686-0.1957c0.3479-0.7507,1.0986-1.2776,1.9849-1.2776
				c0.9531,0,1.7573,0.6162,2.055,1.4732h0.0151l6.7286,17.8239h-0.0117c0.0602,0.1989,0.1037,0.4046,0.1037,0.6287
				C192.0549,109.5088,191.1469,110.4502,190.0081,110.5238z"/>
			<path class="st0" d="M254.1177,128.434l0.1153,0.1973c0.4013,0.5484,1.0434,0.9096,1.7742,0.9096h9.827
				c1.2123,0,2.1922-0.9765,2.1922-2.1922V71.7472c0-0.0484,0.0117-0.0927,0.0117-0.1422c0-0.0509-0.0117-0.0986-0.0117-0.148
				c-0.0769-1.1378-1.0167-2.0433-2.1737-2.0433h-8.0279c-1.1689,0-2.1102,0.9146-2.1771,2.0635
				c-0.0033,0.0401-0.0117,0.0827-0.0117,0.1278c0,0.0394,0.0084,0.0803,0.0117,0.1264v30.5137v0.1939v0.1272
				c-0.087,1.137-1.0217,2.0317-2.1755,2.0317c-0.7224,0-1.3578-0.3579-1.7608-0.8997l-0.1153-0.1872l-0.0335-0.052L231.049,70.4898
				l-0.0954-0.1547c-0.3963-0.5559-1.0434-0.9213-1.7775-0.9213h-9.7534c-1.1638,0-2.1052,0.908-2.1771,2.0492v0.0201
				c-0.0033,0.0484-0.0151,0.092-0.0151,0.1397c0,0.0443,0.0117,0.0894,0.0151,0.1354v55.5907c0,1.2156,0.9799,2.1922,2.1888,2.1922
				h8.0045c1.1905,0,2.1503-0.9464,2.1871-2.1253c0-0.0268,0.0051-0.0435,0.0051-0.0669c0-0.0234-0.0051-0.0401-0.0051-0.0585
				V96.9814v-0.3771v-0.3386c0.1689-1.0359,1.0619-1.8309,2.1471-1.8309c0.7524,0,1.4095,0.3745,1.8058,0.9464l0.0385,0.0602v0.0033
				L254.1177,128.434z"/>
			<path class="st0" d="M407.4402,69.4138h-24.9297c-1.2073,0-2.1872,0.9807-2.1872,2.1913v55.605
				c-0.0033,0.0468-0.0184,0.0936-0.0184,0.1387c0,0.0518,0.0151,0.0936,0.0184,0.1421c0.0703,1.1437,1.0116,2.05,2.1737,2.05
				h8.8606c1.1957,0,2.1622-0.9582,2.1855-2.1521c0-0.01,0.0067-0.0217,0.0067-0.0401c0-0.0134-0.0067-0.0284-0.0067-0.0401v-9.1851
				v-0.3528v-0.393c0.1723-1.0033,1.0251-1.7674,2.0668-1.8075h0.1204h0.0535h11.6564c14.989,0,20.7979-13.312,20.7979-23.0779
				C428.238,82.7205,422.4291,69.4138,407.4402,69.4138z M403.8166,105.2934h-7.9409h-0.1806h-0.1589
				c-1.0417-0.0786-1.8677-0.8812-1.9932-1.903v-0.3277v-0.2039V82.1278v-0.2851v-0.2441c0.1255-1.0392,0.9716-1.8444,2.025-1.9112
				h0.1589h0.1154h7.9744c6.1467,0,11.6247,5.1392,11.6247,12.8051C415.4413,100.1532,409.9633,105.2934,403.8166,105.2934z"/>
		</g>
	</g>
</g>
</svg>
