<svg version="1.1" id="Layer_1" xmlns="http://www.w3.org/2000/svg" x="0" y="0" width="500" height="200" style="enable-background:new 0 0 500 200" xml:space="preserve"><style>.st0{fill:#58595b}.st1{fill:#b91c83}</style><path class="st0" d="M196.573 165.316v-22.145h-22.93v22.145h-4.2v-47.41h4.2v21.384h22.93v-21.383h4.2v47.41zM225.024 146.528l13.952-28.621h4.347l-16.16 32.82v14.59h-4.2v-14.59l-16.159-32.82h4.336zM248.956 151.808c0 6.771 2.356 9.81 11.243 9.81 2.925 0 7.045-.342 9.97-1.036v-17.878h4.198v20.643c-4.415 1.252-9.832 1.935-14.452 1.935-11.528 0-15.17-4.837-15.17-13.394v-20.575c0-8.626 4.2-13.395 15.739-13.395 4.051 0 9.468.49 13.03 1.24l-.432 3.517c-3.983-.626-8.467-1.104-12.53-1.104-8.83 0-11.608 2.754-11.608 9.798v20.439h.012zM281.15 117.907h4.199v47.421h-4.199zM292.325 117.907h26.698v3.767h-22.499v17.593h20.928v3.892h-20.928v18.39h22.567v3.767h-26.766zM329.857 122.038v43.29h-3.995v-47.421h6.134l22.487 43.358v-43.358h3.995v47.42h-6.123zM365.09 117.907h26.697v3.767h-22.498v17.593h20.928v3.892h-20.928v18.39h22.566v3.767H365.09z"/><path class="st0" d="M260.928 139.29h13.44v3.869h-13.44z"/><path class="st1" d="M399.093 160.138c3.323.786 6.896 1.446 10.083 1.446 7.146 0 9.377-1.582 9.377-7.181v-4.53c0-4.529-1.912-6.714-7.01-6.714h-9.48v-3.914h9.047c5.235 0 7.58-2.174 7.58-6.146v-5.018c0-4.734-2.333-6.441-8.49-6.441-3.186 0-8.285.569-11.266 1.126l-.57-3.539c2.903-.637 8.149-1.274 11.688-1.274 9.127 0 12.734 3.402 12.734 9.843v4.95c0 4.382-1.274 6.863-5.656 8.558 3.892.854 5.52 3.471 5.52 8.285v5.098c0 7.5-3.926 10.573-13.622 10.573-2.97 0-7.045-.604-10.572-1.582l.637-3.54zM433.347 145.253v8.729c0 5.803 3.54 7.43 9.275 7.43 6.657 0 8.91-2.048 8.91-7.43v-4.245c0-4.95-1.559-6.6-8.205-6.6-3.402-.012-7.43 1.047-9.98 2.116m0-4.176c2.265-.922 6.862-1.833 10.117-1.833 9.411 0 12.177 3.63 12.177 10.71v3.891c0 7.078-3.323 11.255-13.02 11.255s-13.37-4.177-13.37-11.255v-19.96c0-11.324 3.743-15.921 17.263-15.921 1.912 0 5.656.284 8.068.99l-.5 3.47c-1.844-.42-4.746-.784-6.863-.784-11.812 0-13.872 2.97-13.872 12.313v7.124zM466.144 152.707c0 5.804 2.333 8.706 10.049 8.706 7.716 0 10.049-2.902 10.049-8.706v-22.362c0-5.803-2.333-8.705-10.05-8.705-7.715 0-10.048 2.902-10.048 8.705v22.362zm24.206.285c0 7.078-3.744 12.097-14.146 12.097s-14.157-5.019-14.157-12.097V130.06c0-7.079 3.756-12.109 14.157-12.109s14.146 5.02 14.146 12.109v22.93z"/><path d="M494.515 110.931a2.865 2.865 0 0 0-2.857 2.856 2.868 2.868 0 0 0 2.857 2.868 2.863 2.863 0 1 0 0-5.724m0 8.341a5.495 5.495 0 0 1-5.485-5.485c0-3.027 2.47-5.474 5.485-5.474 3.027 0 5.485 2.459 5.485 5.474a5.488 5.488 0 0 1-5.485 5.485" style="fill:#ba1c84"/><linearGradient id="SVGID_1_" gradientUnits="userSpaceOnUse" x1="22.697" y1="101.019" x2="152.123" y2="101.019" gradientTransform="matrix(1 0 0 -1 0 200.66)"><stop offset="0" style="stop-color:#9cd9e7"/><stop offset=".339" style="stop-color:#478bc4"/><stop offset=".6" style="stop-color:#3783c0"/><stop offset=".917" style="stop-color:#9cd9e7"/><stop offset="1" style="stop-color:#3783c0"/></linearGradient><path d="M108.492 40.272s-.945.546-2.606 1.457c0 0-25.196-18.425-47.25-23.74 0 0-22.487-5.62-29.02 3.506 0 0-3.129 4.336.763 12.006l13.19 26.8 16.205 31.58s8.82 15.807 18.777 32.91c0 0 25.878 45.009 48.138 57.538 0 0 11.732 7.409 16.262-5.508 0 0 3.3-9.331 5.03-23.659 0 0 1.82-16.17.512-32.979l-.308-3.278 3.346-1.433s2.22 21.713-1.934 48.262c0 0-3.05 20.166-10.163 24.115 0 0-6.145 4.53-20.336-7.067 0 0-20.029-17.64-34.789-41.72 0 0-14.248-21.895-26.254-44.552 0 0-11.642-22.362-24.672-47.546 0 0-7.431-13.895-10.162-23.182 0 0-4.598-11.971 13.44-13.03 0 0 11.585-2.333 39.33 9.298-.035-.034 14.122 5.906 32.5 20.222z" style="fill:url(#SVGID_1_)"/><linearGradient id="SVGID_00000004540685655249464080000015636850730307761550_" gradientUnits="userSpaceOnUse" x1="28.829" y1="171.22" x2="116.459" y2="171.22" gradientTransform="matrix(1 0 0 -1 0 200.66)"><stop offset="0" style="stop-color:#3783c0"/><stop offset=".074" style="stop-color:#3783c0"/><stop offset=".63" style="stop-color:#3783c0"/><stop offset="1" style="stop-color:#9cd9e7"/></linearGradient><path style="fill:url(#SVGID_00000004540685655249464080000015636850730307761550_)" d="m105.886 41.729-1.673.91S88.019 31.305 76.229 26.275c0 0-17.07-8.421-29.429-8.399 0 0-12.609-.592-17.457 3.972 0 0 2.379-4.791 11.255-5.394 0 0 8.25-1.252 20.985 2.31 0 0 9.48 2.743 19.005 7.693.011.011 11.607 5.52 25.298 15.272z"/><linearGradient id="SVGID_00000102528420613827287650000005072161451981146034_" gradientUnits="userSpaceOnUse" x1="20.244" y1="100.246" x2="139.4" y2="100.246" gradientTransform="matrix(1 0 0 -1 0 200.66)"><stop offset="0" style="stop-color:#3783c0"/><stop offset=".181" style="stop-color:#9cd9e7"/><stop offset=".537" style="stop-color:#3783c0"/><stop offset=".869" style="stop-color:#c7e8f0"/><stop offset="1" style="stop-color:#9cd9e7"/></linearGradient><path style="fill:url(#SVGID_00000102528420613827287650000005072161451981146034_)" d="M31.29 11.39s-7.375 1.342-9.856 5.45c0 0-1.969 2.686-.842 6.419 0 0 .524 2.23 2.606 7.636 0 0 2.435 6.293 7.238 16.057 0 0 5.326 10.914 10.572 21.156 0 0 4.848 9.468 9.992 19.414 0 0 4.142 7.91 10.674 19.141 0 0 8.968 15.466 12.689 21.463 0 0 9.16 15.284 14.703 22.419 0 0 11.847 16.023 22.362 26.06 0 0 6.1 6.111 13.19 10.14 0 0 8.887 5.269 14.782 1.07 0 0-3.926 2.913-12.814-1.901 0 0-4.074-2.026-9.286-6.782 0 0-5.975-5.634-12.871-13.315 0 0-5.428-6.1-12.507-15.409 0 0-4.973-7.17-9.297-13.952 0 0-7.465-12.347-11.517-19.107 0 0-6.327-10.435-10.982-18.96 0 0-10.765-20.438-15.693-30.077 0 0-6.122-11.79-11.277-21.758 0 0-4.165-7.67-7.91-16.957 0 0-1.297-3.266-2.241-6.43 0 0-1.104-3.63.694-6.725 0 0 1.411-3.414 7.59-5.053z"/><linearGradient id="SVGID_00000019661486545911127600000004836585477984701834_" gradientUnits="userSpaceOnUse" x1="121.51" y1="49.986" x2="148.977" y2="49.986" gradientTransform="matrix(1 0 0 -1 0 200.66)"><stop offset="0" style="stop-color:#3783c0"/><stop offset=".537" style="stop-color:#3783c0"/></linearGradient><path style="fill:url(#SVGID_00000019661486545911127600000004836585477984701834_)" d="m148.151 116.894-1.422.603s.466 4.973.614 14.476c0 0 .16 5.177-.114 14.634 0 0-.284 10.493-1.889 18.903 0 0-1.388 7.294-3.698 12.12 0 0-3.039 8.136-11.744 5.303 0 0-3.335-.922-8.388-4.052 0 0 5.44 4.53 10.208 5.36 0 0 6.51 1.696 9.958-4.506 0 0 1.218-1.696 2.89-8.25 0 0 1.548-5.509 2.891-14.203 0 0 1.354-8.023 1.49-19.21-.01 0 .285-12.973-.796-21.178z"/><linearGradient id="SVGID_00000040558855062461666570000013024379631319308723_" gradientUnits="userSpaceOnUse" x1="142.985" y1="102.975" x2="150.382" y2="102.975" gradientTransform="matrix(1 0 0 -1 0 200.66)"><stop offset="0" style="stop-color:#3783c0"/><stop offset=".537" style="stop-color:#3783c0"/></linearGradient><path style="fill:url(#SVGID_00000040558855062461666570000013024379631319308723_)" d="M146.376 89.536s1.195 2.766 2.47 7.215c0 0 .933 3.471 1.536 7.75 0 0-2.026.763-3.517 1.332 0 0-1.49-8.91-3.88-14.84 0 0 1.82-.796 3.39-1.457z"/><linearGradient id="SVGID_00000009579062007970549280000012938215882690178448_" gradientUnits="userSpaceOnUse" x1="113.601" y1="144.393" x2="133.892" y2="144.393" gradientTransform="matrix(1 0 0 -1 0 200.66)"><stop offset="0" style="stop-color:#3783c0"/><stop offset=".537" style="stop-color:#3783c0"/></linearGradient><path style="fill:url(#SVGID_00000009579062007970549280000012938215882690178448_)" d="M116.298 46.69s-1.16.456-2.697 1.298c0 0 5.588 4.7 11.323 11.55 0 0 1.855 2.197 3.915 4.905 0 0 3.915 1.002 5.053 1.4 0 0-3.403-4.916-7.545-9.423 0 0-4.006-4.563-10.049-9.73z"/><linearGradient id="SVGID_00000032617138886229525490000007033698435663192716_" gradientUnits="userSpaceOnUse" x1="136.97" y1="102.192" x2="136.97" y2="167.985" gradientTransform="matrix(1 0 0 -1 0 200.66)"><stop offset="0" style="stop-color:#9cd9e7"/><stop offset=".032" style="stop-color:#8dcce1"/><stop offset=".101" style="stop-color:#72b6d7"/><stop offset=".181" style="stop-color:#5ca3ce"/><stop offset=".274" style="stop-color:#4b94c8"/><stop offset=".39" style="stop-color:#408ac3"/><stop offset=".551" style="stop-color:#3985c1"/><stop offset="1" style="stop-color:#3783c0"/></linearGradient><path style="fill:url(#SVGID_00000032617138886229525490000007033698435663192716_)" d="M136.043 69.03s-2.254-.478-4.586-.922c0 0 4.71 6.919 7.943 14.157 0 0 1.82-.98 3.084-1.741-.012 0-2.526-5.531-6.441-11.494z"/><linearGradient id="SVGID_00000083801733988375917630000018297517755003193495_" gradientUnits="userSpaceOnUse" x1="56.283" y1="178.81" x2="167.43" y2="110.411" gradientTransform="matrix(1 0 0 -1 0 200.66)"><stop offset="0" style="stop-color:#b12f91"/><stop offset=".191" style="stop-color:#c270ad"/><stop offset=".534" style="stop-color:#ca8ebe"/><stop offset=".671" style="stop-color:#c270ad"/><stop offset=".855" style="stop-color:#b12f91"/><stop offset="1" style="stop-color:#b12f91"/></linearGradient><path style="fill:url(#SVGID_00000083801733988375917630000018297517755003193495_)" d="M56.234 85.007s16.82-13.303 31.136-23.352c0 0 10.811-8.478 27.028-16.58 0 0 17.57-9.605 37.144-13.201 0 0 13.235-2.777 19.688-.831 0 0 13.246 2.64 15.534 13.212 0 0 2.685 8.16-6.624 19.073 0 0-3.96 5.508-10.424 11.141 0 0-4.199-1.9-9.616-3.323 0 0 9.252-8.216 10.89-16.24 0 0 1.981-10.548-4.733-14.27 0 0-6.908-5.394-22.578-2.31 0 0-18.083 2.834-31.614 10.515 0 0-5.554 2.914-20.45 11.756 0 0-16.467 10.788-35.38 24.41z"/><linearGradient id="SVGID_00000173844504157355260410000010867654208138772888_" gradientUnits="userSpaceOnUse" x1="52.319" y1="145.906" x2="187.143" y2="145.906" gradientTransform="matrix(1 0 0 -1 0 200.66)"><stop offset=".347" style="stop-color:#b12f91"/><stop offset=".717" style="stop-color:#b12f91"/><stop offset="1" style="stop-color:#be3d95"/></linearGradient><path style="fill:url(#SVGID_00000173844504157355260410000010867654208138772888_)" d="M56.234 85.007s20.04-15.75 33.344-24.877c0 0 15.386-11.71 36.883-20.62 0 0 19.744-8.706 37.383-8.956 0 0 13.873-1.207 21.418 9.81 0 0 2.583 3.743 1.695 9.695 0 0 .968-9.138-1.946-14.862 0 0-4.04-7.83-16.034-9.81 0 0-13.827-4.324-40.752 6.122 0 0-11.927 4.393-19.71 8.763 0 0-17.856 9.491-30.021 18.197 0 0-12.029 8.455-26.174 18.948-.023-.012 1.604 3.05 3.914 7.59z"/><linearGradient id="SVGID_00000131346341139134877830000013056380574770399872_" gradientUnits="userSpaceOnUse" x1="0" y1="98.08" x2="51.455" y2="98.08" gradientTransform="matrix(1 0 0 -1 0 200.66)"><stop offset=".347" style="stop-color:#b12f91"/><stop offset=".717" style="stop-color:#b12f91"/><stop offset="1" style="stop-color:#b73894"/></linearGradient><path style="fill:url(#SVGID_00000131346341139134877830000013056380574770399872_)" d="M47.551 80.876s2.322 4.564 3.904 7.522c0 0-10.584 7.557-24.558 17.093l-11.494 8.421s-8.114 6.146-.353 4.393c0 0 4.677-1.024 8.512-2.196 0 0 1.423 1.513 3.243 3.175 0 0-10.424 3.676-18.595 4.722 0 0-7.977 1.491-8.182-2.446 0 0-.75-3.676 5.485-8.695 0 0 8.501-6.93 19.062-14.919-.011 0 11.699-8.853 22.976-17.07z"/><path d="M156.14 74.685s4.677 1.059 9.002 3.528c0 0-10.857 7.91-18.766 11.312l-7.92 3.403s-14.556 6.6-36.713 11.676c0 0-12.2 2.913-24.285 4.12 0 0-3.562.386-7.784.83 0 0-1.32-2.344-2.219-3.95 0 0 9.685-1.444 17.64-2.65 0 0 15.146-2.254 32.774-8.547.011.011 24.65-7.647 38.271-19.722z" style="fill:#b13391"/><linearGradient id="SVGID_00000037677717078181310910000010358083872538989186_" gradientUnits="userSpaceOnUse" x1="156.789" y1="142.697" x2="171.401" y2="142.697" gradientTransform="matrix(1 0 0 -1 0 200.66)"><stop offset="0" style="stop-color:#ca8ebe"/><stop offset=".349" style="stop-color:#c270ad"/><stop offset=".61" style="stop-color:#c270ad"/><stop offset="1" style="stop-color:#b12f91"/></linearGradient><path style="fill:url(#SVGID_00000037677717078181310910000010358083872538989186_)" d="M169.99 44.779s3.539 7.237-.592 14.668c0 0-2.845 5.895-9.298 11.7l-3.311-.9s7.59-6.805 9.98-11.664c.011-.012 5.633-8.752 3.22-13.804z"/><linearGradient id="SVGID_00000034806695598858463680000013655209654118050224_" gradientUnits="userSpaceOnUse" x1="66.556" y1="111.049" x2="156.14" y2="111.049" gradientTransform="matrix(1 0 0 -1 0 200.66)"><stop offset=".094" style="stop-color:#ca8ebe"/><stop offset=".51" style="stop-color:#ca8ebe"/><stop offset="1" style="stop-color:#c270ad"/></linearGradient><path style="fill:url(#SVGID_00000034806695598858463680000013655209654118050224_)" d="m156.14 74.685-3.494-1.08s-8.512 6.782-18.401 11.311c0 0-11.63 6.52-32.911 12.017 0 0-5.565 1.707-16.706 3.95 0 0-12.792 2.218-18.072 3.129l.9 1.604s7.556-1.138 16.216-2.435c0 0 12.825-1.923 24.182-5.462 0 0 12.439-3.687 22.76-8.091.012 0 16.217-6.578 25.526-14.943z"/><linearGradient id="SVGID_00000085949235091133952460000007221702891962914461_" gradientUnits="userSpaceOnUse" x1="34.066" y1="89.9" x2="63.779" y2="89.9" gradientTransform="matrix(1 0 0 -1 0 200.66)"><stop offset=".347" style="stop-color:#b12f91"/><stop offset=".717" style="stop-color:#b12f91"/><stop offset="1" style="stop-color:#b73894"/></linearGradient><path style="fill:url(#SVGID_00000085949235091133952460000007221702891962914461_)" d="M61.663 106.663s1.058 1.821 2.116 3.665c0 0-20.438 2.651-26.902 4.53 0 0-1.536-.945-2.811-1.992 0 0 9.23-2.993 27.597-6.203z"/><linearGradient id="SVGID_00000166642827706537505800000017401897805919351460_" gradientUnits="userSpaceOnUse" x1="32.78" y1="91.698" x2="61.651" y2="91.698" gradientTransform="matrix(1 0 0 -1 0 200.66)"><stop offset=".094" style="stop-color:#ca8ebe"/><stop offset=".51" style="stop-color:#ca8ebe"/></linearGradient><path style="fill:url(#SVGID_00000166642827706537505800000017401897805919351460_)" d="m60.74 105.059.911 1.604s-17.104 2.948-27.596 6.203c0 0-.273-.16-1.275-1.036 0 0 16.41-4.461 27.96-6.771z"/><linearGradient id="SVGID_00000057141133246025216440000010687792111892031386_" gradientUnits="userSpaceOnUse" x1="11.639" y1="84.129" x2="23.574" y2="84.129" gradientTransform="matrix(1 0 0 -1 0 200.66)"><stop offset=".191" style="stop-color:#c270ad"/><stop offset=".591" style="stop-color:#ca8ebe"/></linearGradient><path style="fill:url(#SVGID_00000057141133246025216440000010687792111892031386_)" d="M23.574 116.12s-.444-.41-1.457-1.684c0 0-10.89 3.186-9.252 1.752 0 0-3.186 2.789.717 2.402-.011 0 3.323-.421 9.992-2.47z"/><linearGradient id="SVGID_00000104677835973187045480000010687705074473739672_" gradientUnits="userSpaceOnUse" x1="40.393" y1="147.496" x2="85.914" y2="147.496" gradientTransform="matrix(1 0 0 -1 0 200.66)"><stop offset="0" style="stop-color:#8d53a0"/><stop offset=".626" style="stop-color:#a28ab9"/></linearGradient><path style="fill:url(#SVGID_00000104677835973187045480000010687705074473739672_)" d="m85.31 53.837.604-.387s-13.52-3.038-24.046-3.13c0 0-10.994-.66-21.475 3.563l1.07 2.162s6.031-3.084 15.488-4.29c.012-.012 12.314-1.548 28.36 2.082z"/><linearGradient id="SVGID_00000016784136306461588270000009714796454672959900_" gradientUnits="userSpaceOnUse" x1="41.463" y1="143.888" x2="85.311" y2="143.888" gradientTransform="matrix(1 0 0 -1 0 200.66)"><stop offset=".102" style="stop-color:#87479a"/><stop offset=".444" style="stop-color:#87479a"/></linearGradient><path style="fill:url(#SVGID_00000016784136306461588270000009714796454672959900_)" d="M85.31 53.837s-13.018-3.311-26.447-2.287c0 0-9.752.694-17.4 4.495 0 0 .58 1.32 3.061 6.145 0 0 7.58-3.573 19.278-4.154 0 0 6.077-.42 14.669.433 0-.011 3.699-2.618 6.84-4.632z"/><linearGradient id="SVGID_00000016759690085325133250000012636006136063580034_" gradientUnits="userSpaceOnUse" x1="19.498" y1="121.178" x2="39.346" y2="121.178" gradientTransform="matrix(1 0 0 -1 0 200.66)"><stop offset="0" style="stop-color:#a381ba"/><stop offset=".113" style="stop-color:#996bae"/><stop offset=".255" style="stop-color:#8f57a3"/><stop offset=".397" style="stop-color:#894b9c"/><stop offset=".537" style="stop-color:#87479a"/><stop offset="1" style="stop-color:#87479a"/></linearGradient><path style="fill:url(#SVGID_00000016759690085325133250000012636006136063580034_)" d="m36.524 59.266 2.822 5.576s-7.305 3.641-13.326 13.52c0 0-6.43 9.33-2.583 20.46l-1.127.877s-4.608-6.68-2.025-18.31c0 0 1.229-12.132 16.24-22.123z"/><linearGradient id="SVGID_00000019679656902964577990000010637399775490357397_" gradientUnits="userSpaceOnUse" x1="17.773" y1="120.688" x2="36.524" y2="120.688" gradientTransform="matrix(1 0 0 -1 0 200.66)"><stop offset="0" style="stop-color:#8d53a0"/><stop offset=".328" style="stop-color:#8e56a1"/><stop offset="1" style="stop-color:#a28ab9"/></linearGradient><path style="fill:url(#SVGID_00000019679656902964577990000010637399775490357397_)" d="M36.524 59.266S29.377 62.166 21.97 72.91c0 0-4.404 5.724-4.188 15.25 0 0 0 6.03 3.21 12.518l1.32-.98s-3.096-4.87-2.766-12.449c0 0 .205-8.421 3.88-14.18-.01 0 3.62-7.544 13.1-13.803z"/><linearGradient id="SVGID_00000090296726894869638000000000681960022017092516_" gradientUnits="userSpaceOnUse" x1="12.046" y1="120.097" x2="48.346" y2="120.097" gradientTransform="matrix(1 0 0 -1 0 200.66)"><stop offset=".111" style="stop-color:#87479a"/><stop offset=".484" style="stop-color:#87479a"/><stop offset="1" style="stop-color:#a786bd"/></linearGradient><path style="fill:url(#SVGID_00000090296726894869638000000000681960022017092516_)" d="m36.524 59.266-1.513-3.062s-9.89 4.131-16.718 13.713c0 0-6.828 8.24-6.372 21.167 0 0 .125 8.046 3.607 13.838 0 0 2.697-2.128 5.554-4.301 0 0-1.742-3.016-2.845-8.706 0 0-1.15-5.2.591-11.813 0 0 1.127-4.756 4.439-8.91-.012 0 5.883-8.353 13.257-11.926z"/><linearGradient id="SVGID_00000102535226471371238170000007893762195969189276_" gradientUnits="userSpaceOnUse" x1="25.235" y1="85.09" x2="72.508" y2="85.09" gradientTransform="matrix(1 0 0 -1 0 200.66)"><stop offset="0" style="stop-color:#8d53a0"/><stop offset=".612" style="stop-color:#a28ab9"/><stop offset=".656" style="stop-color:#ae91bf"/><stop offset=".731" style="stop-color:#bc99c5"/><stop offset=".825" style="stop-color:#c49ec9"/><stop offset="1" style="stop-color:#c69fca"/></linearGradient><path style="fill:url(#SVGID_00000102535226471371238170000007893762195969189276_)" d="M26.237 105.98s4.643 5.85 13.576 10.527c0 0 14.555 8.217 32.16 7.704l.535.9s-16.956.898-29.11-5.065c0 0-10.094-4.05-18.163-13.337l1.002-.728z"/><linearGradient id="SVGID_00000091706533302050616620000000433515295207929005_" gradientUnits="userSpaceOnUse" x1="26.237" y1="90.622" x2="36.422" y2="90.622" gradientTransform="matrix(1 0 0 -1 0 200.66)"><stop offset="0" style="stop-color:#a381ba"/><stop offset=".63" style="stop-color:#a381ba"/></linearGradient><path style="fill:url(#SVGID_00000091706533302050616620000000433515295207929005_)" d="M36.422 114.573c-2.902-2.06-4.359-3.369-4.359-3.369-3.164-2.833-5.166-5.701-5.166-5.701l-.66.478s2.663 3.38 7.943 7.124l2.242 1.468z"/><linearGradient id="SVGID_00000117640555977797598240000005298223157403598233_" gradientUnits="userSpaceOnUse" x1="19.443" y1="81.225" x2="76.764" y2="81.225" gradientTransform="matrix(1 0 0 -1 0 200.66)"><stop offset=".102" style="stop-color:#87479a"/><stop offset=".444" style="stop-color:#87479a"/></linearGradient><path style="fill:url(#SVGID_00000117640555977797598240000005298223157403598233_)" d="M19.443 110.942s4.12 5.053 12.53 10.356c0 0 7.931 5.417 20.79 8.342 0 0 11.096 3.243 24.001 2.39 0 0-1.684-2.709-4.245-6.93 0 0-11.22.568-22.214-2.459 0 0-14.054-3.596-25.059-15.943 0 .011-3.732 2.742-5.803 4.244z"/><linearGradient id="SVGID_00000174595327298853607790000010165821648621823635_" gradientUnits="userSpaceOnUse" x1="48.087" y1="72.164" x2="88.547" y2="72.164" gradientTransform="matrix(1 0 0 -1 0 200.66)"><stop offset="0" style="stop-color:#8d53a0"/><stop offset=".328" style="stop-color:#8e56a1"/><stop offset=".622" style="stop-color:#a28ab9"/><stop offset=".662" style="stop-color:#ae91bf"/><stop offset=".729" style="stop-color:#bc99c5"/><stop offset=".813" style="stop-color:#c49ec9"/><stop offset=".97" style="stop-color:#c69fca"/></linearGradient><path style="fill:url(#SVGID_00000174595327298853607790000010165821648621823635_)" d="m76.741 132.007.774 1.217s-22.385 2.584-41.571-9.684c0 0 9.15 4.87 22.464 7.25 0-.012 10.64 1.877 18.333 1.217z"/><linearGradient id="SVGID_00000116918398137532963330000010102330606774954904_" gradientUnits="userSpaceOnUse" x1="19.386" y1="77.454" x2="78.801" y2="77.454" gradientTransform="matrix(1 0 0 -1 0 200.66)"><stop offset="0" style="stop-color:#8b539f"/><stop offset=".464" style="stop-color:#87479a"/><stop offset=".682" style="stop-color:#8d53a0"/><stop offset="1" style="stop-color:#a28ab9"/></linearGradient><path style="fill:url(#SVGID_00000116918398137532963330000010102330606774954904_)" d="M19.386 110.885s4.142 7 13.462 12.962c0 0 10.97 7.227 21.975 9.787 0 0 10.766 2.697 23.978 1.65l-1.286-2.06s-7.055.797-16.216-.614c0 0-10.8-1.468-19.062-5.793 0 0-2.242-1.035-6.077-3.163-.011 0-10.913-5.997-16.774-12.769z"/><linearGradient id="SVGID_00000116207538905105096530000013666876940963510676_" gradientUnits="userSpaceOnUse" x1="78.483" y1="102.401" x2="184.089" y2="102.401" gradientTransform="matrix(1 0 0 -1 0 200.66)"><stop offset=".102" style="stop-color:#87479a"/><stop offset=".444" style="stop-color:#87479a"/></linearGradient><path style="fill:url(#SVGID_00000116207538905105096530000013666876940963510676_)" d="M160.168 71.09c11.392 3.015 17.879 8.034 17.879 8.034 5.416 3.79 5.792 8.17 5.792 8.17 1.366 6.055-3.3 9.605-3.3 9.605-6.339 5.099-21.28 10.993-21.28 10.993-13.236 5.44-27.097 10.322-27.097 10.322-12.165 4.518-25.514 8.034-25.514 8.034-13.906 4.188-24.092 5.178-24.092 5.178l-4.074-6.646c9.708-.535 23.295-3.96 23.295-3.96 10.652-2.743 17.366-4.984 17.366-4.984 11.96-4.12 26.277-9.059 26.277-9.059 2.834-1.024 4.973-1.866 4.973-1.866 6.475-2.379 15.022-6.453 15.022-6.453 13.61-6.85 14.487-12.085 14.487-12.085 2.116-7.34-14.453-12.905-14.453-12.905l-20.507-5.497s-6.612-1.297-11.232-2.39c-4.62-1.104 0 0 0 0s9.49 1.753 14.953 2.766c5.44.99 9.184 2.128 11.505 2.742z"/><linearGradient id="SVGID_00000176007728113601785090000004948438287097922698_" gradientUnits="userSpaceOnUse" x1="78.084" y1="99.641" x2="180.133" y2="99.641" gradientTransform="matrix(1 0 0 -1 0 200.66)"><stop offset="0" style="stop-color:#c69fca"/><stop offset=".219" style="stop-color:#a28ab9"/><stop offset=".26" style="stop-color:#9d7eb4"/><stop offset=".346" style="stop-color:#966bab"/><stop offset=".447" style="stop-color:#915da5"/><stop offset=".573" style="stop-color:#8e55a1"/><stop offset=".808" style="stop-color:#8d53a0"/></linearGradient><path style="fill:url(#SVGID_00000176007728113601785090000004948438287097922698_)" d="M145.397 106.379s-11.744 4.518-24.49 8.216c0 0-14.68 4.507-24.922 6.749 0 0-10.037 2.276-17.9 2.697l.443.75s7.738-.33 20.712-3.333c0 0 14.361-3.38 25.195-7.42 0 0 7.625-2.663 12.017-4.154 0 0 9.992-3.38 12.974-4.575 0 0 7.385-2.72 12.745-5.326 0 0 5.395-2.344 9.435-5.018 0 0 4.608-2.8 7.135-6.237 0 0 3.653-3.869-.876-8.307 0 0-1.582-1.593-4.2-3.175 0 0 6.077 3.915 5.235 8.296 0 0-.09 2.47-3.425 5.713 0 0-2.117 2.105-4.882 3.676 0 0-5.133 2.936-9.65 5.155 0 0-6.578 2.947-10.538 4.427l-5.008 1.866z"/><linearGradient id="SVGID_00000105428422088469177420000000959052865064948900_" gradientUnits="userSpaceOnUse" x1="91.615" y1="125.599" x2="179.015" y2="125.599" gradientTransform="matrix(1 0 0 -1 0 200.66)"><stop offset=".178" style="stop-color:#87479a"/><stop offset=".8" style="stop-color:#87479a"/><stop offset=".913" style="stop-color:#a786bd"/><stop offset="1" style="stop-color:#c69fca"/></linearGradient><path style="fill:url(#SVGID_00000105428422088469177420000000959052865064948900_)" d="m91.615 60.597 6.396-3.767s19.699 5.28 29.406 7.306l9.411 2.14s13.497 2.378 26.026 6.065c0 0 13.52 3.38 15.864 10.743 0 0 2.253 4.427-5.656 10.208 0 0 4.61-3.232.285-9.047 0 0-5.975-6.658-17.184-9.548 0 0-14.737-4.632-24.684-6.578-.022-.011-19.334-3.482-39.864-7.522z"/><linearGradient id="SVGID_00000098215388127357510980000005560307062985390744_" gradientUnits="userSpaceOnUse" x1="98.011" y1="140.899" x2="122.546" y2="140.899" gradientTransform="matrix(1 0 0 -1 0 200.66)"><stop offset=".213" style="stop-color:#a28ab9"/><stop offset=".273" style="stop-color:#a28ab9"/><stop offset=".626" style="stop-color:#a28ab9"/></linearGradient><path style="fill:url(#SVGID_00000098215388127357510980000005560307062985390744_)" d="M122.546 63.01s-10.663-2.356-24.535-6.191l.535-.308c0 .012 10.833 2.902 24 6.498z"/><linearGradient id="SVGID_00000160880990024500564610000008761692573835338380_" gradientUnits="userSpaceOnUse" x1="82.545" y1="87.191" x2="182.712" y2="87.191" gradientTransform="matrix(1 0 0 -1 0 200.66)"><stop offset=".102" style="stop-color:#c69fca"/><stop offset=".558" style="stop-color:#a28ab9"/><stop offset=".867" style="stop-color:#8d509f"/><stop offset="1" style="stop-color:#87479a"/></linearGradient><path style="fill:url(#SVGID_00000160880990024500564610000008761692573835338380_)" d="M82.545 131.427s.296.5.774 1.229c0 0 13.656-1.218 34.197-8.274 0 0 11.892-3.812 28.245-10.105 0 0 15.955-5.61 25.23-10.63 0 0 8.83-4.04 11.721-9.365 0 0-1.092 2.504-6.338 5.292 0 0-7.818 4.665-19.745 9.229 0 0-14.293 5.587-25.798 9.832 0 0-14.59 5.246-33.697 10.117.012 0-7.727 1.957-14.589 2.674z"/><linearGradient id="SVGID_00000052806131416634939390000005381483581890010815_" gradientUnits="userSpaceOnUse" x1="83.319" y1="84.591" x2="180.084" y2="84.591" gradientTransform="matrix(1 0 0 -1 0 200.66)"><stop offset=".37" style="stop-color:#a28ab9"/><stop offset=".645" style="stop-color:#8d53a0"/><stop offset="1" style="stop-color:#87479a"/></linearGradient><path style="fill:url(#SVGID_00000052806131416634939390000005381483581890010815_)" d="M83.319 132.655s.671 1.082 1.343 2.106c0 0 11.846-1.036 29.019-5.85 0 0 14.965-4.278 32.98-11.39 0 0 5.667-2.334 15.567-6.852 0 0 5.042-2.47 9.525-5.189 0 0 3.62-2.253 8.33-8.103 0 0-1.65 1.97-5.667 4.393 0 0-7.704 4.359-16.694 7.887 0 0-5.952 2.435-19.449 7.396 0 0-14.976 5.372-25.65 8.775.022 0-16.957 5.53-29.304 6.827z"/><linearGradient id="SVGID_00000176744920220338188670000015139258365583079595_" gradientUnits="userSpaceOnUse" x1="141.596" y1="101.974" x2="146.865" y2="101.974" gradientTransform="matrix(1 0 0 -1 0 200.66)"><stop offset="0" style="stop-color:#9cd9e7"/><stop offset="1" style="stop-color:#3783c0"/></linearGradient><path style="fill:url(#SVGID_00000176744920220338188670000015139258365583079595_)" d="m142.985 90.993-1.389.603s1.616 4.12 2.709 9.07c0 0 .683 3.084 1.092 5.713 0 0 .58-.16 1.468-.558 0 0-.592-3.675-1.695-7.932-.012 0-.945-3.937-2.185-6.896z"/><linearGradient id="SVGID_00000062905944427397152810000000865485659914330784_" gradientUnits="userSpaceOnUse" x1="143.128" y1="107.018" x2="108.629" y2="179.616" gradientTransform="matrix(1 0 0 -1 0 200.66)"><stop offset="0" style="stop-color:#9cd9e7"/><stop offset="1" style="stop-color:#3783c0"/></linearGradient><path style="fill:url(#SVGID_00000062905944427397152810000000865485659914330784_)" d="M131.457 68.108s-1.503-.308-2.356-.421c0 0 5.735 7.681 9.024 15.317 0 0 .751-.444 1.275-.728 0-.011-3.107-7.078-7.943-14.168z"/><linearGradient id="SVGID_00000175321815869423864850000006366223738292947340_" gradientUnits="userSpaceOnUse" x1="124.984" y1="136.611" x2="101.285" y2="175.31" gradientTransform="matrix(1 0 0 -1 0 200.66)"><stop offset="0" style="stop-color:#9cd9e7"/><stop offset="1" style="stop-color:#3783c0"/></linearGradient><path style="fill:url(#SVGID_00000175321815869423864850000006366223738292947340_)" d="M112.065 48.841s9.002 8.353 14.692 15.158c0 0 1.172.228 2.082.456 0 0-5.041-7.454-15.238-16.456 0 0-.648.364-1.536.842z"/></svg>