<?xml version="1.0" encoding="utf-8"?>
<!-- Generator: Adobe Illustrator 28.1.0, SVG Export Plug-In . SVG Version: 6.00 Build 0)  -->
<!DOCTYPE svg PUBLIC "-//W3C//DTD SVG 1.1//EN" "http://www.w3.org/Graphics/SVG/1.1/DTD/svg11.dtd" [
	<!ENTITY ns_extend "http://ns.adobe.com/Extensibility/1.0/">
	<!ENTITY ns_ai "http://ns.adobe.com/AdobeIllustrator/10.0/">
	<!ENTITY ns_graphs "http://ns.adobe.com/Graphs/1.0/">
	<!ENTITY ns_vars "http://ns.adobe.com/Variables/1.0/">
	<!ENTITY ns_imrep "http://ns.adobe.com/ImageReplacement/1.0/">
	<!ENTITY ns_sfw "http://ns.adobe.com/SaveForWeb/1.0/">
	<!ENTITY ns_custom "http://ns.adobe.com/GenericCustomNamespace/1.0/">
	<!ENTITY ns_adobe_xpath "http://ns.adobe.com/XPath/1.0/">
]>
<svg version="1.1" id="Ebene_1" xmlns:x="&ns_extend;" xmlns:i="&ns_ai;" xmlns:graph="&ns_graphs;"
	 xmlns="http://www.w3.org/2000/svg" xmlns:xlink="http://www.w3.org/1999/xlink" x="0px" y="0px" width="500px" height="200px"
	 viewBox="0 0 500 200" style="enable-background:new 0 0 500 200;" xml:space="preserve">
<style type="text/css">
	.st0{fill:#FF6600;}
</style>
<metadata>
	<sfw  xmlns="&ns_sfw;">
		<slices></slices>
	</sfw>
</metadata>
<g>
	<path class="st0" d="M55.0789,54.7938c29.0231,0,42.6963,21.6126,42.4213,45.3464c-0.2698,26.8862-14.6412,45.3464-42.4213,45.3464
		s-42.1568-18.4654-42.4266-45.3464C12.3773,76.4065,26.0558,54.7938,55.0789,54.7938L55.0789,54.7938 M22.1892,100.1402
		c0,18.5977,10.2245,37.8089,32.8897,37.8089s32.8897-19.2165,32.8897-37.8089c0-18.5871-10.2245-37.8089-32.8897-37.8089
		C32.4137,62.3313,22.1892,81.5531,22.1892,100.1402L22.1892,100.1402z"/>
	<path class="st0" d="M195.1909,66.0973c-6.0829-2.8827-14.784-3.7661-21.5598-3.7661c-25.0085,0-39.1048,16.0799-39.1048,37.8089
		c0,22.1099,13.6785,37.8089,39.1048,37.8089c6.3579,0,16.027-0.7511,21.5598-3.7661l0.5554,7.5427
		c-5.2524,2.8828-16.027,3.7608-22.1098,3.7608c-30.3984,0-48.6364-18.2062-48.6364-45.3464
		c0-26.627,18.7881-45.3464,48.6364-45.3464c5.665,0,17.1378,0.8781,22.1098,3.2689L195.1909,66.0973L195.1909,66.0973z"/>
	<path class="st0" d="M291.8289,66.0973c-6.0775-2.8827-14.784-3.7661-21.5544-3.7661c-25.0138,0-39.1154,16.0799-39.1154,37.8089
		c0,22.1099,13.6838,37.8089,39.1154,37.8089c6.3579,0,16.027-0.7511,21.5544-3.7661l0.5554,7.5427
		c-5.2471,2.8828-16.027,3.7608-22.1098,3.7608c-30.4037,0-48.6523-18.2062-48.6523-45.3464
		c0-26.627,18.7987-45.3464,48.6523-45.3464c5.6597,0,17.1325,0.8781,22.1098,3.2689L291.8289,66.0973L291.8289,66.0973z"/>
	<polygon class="st0" points="305.6925,54.5135 304.1004,54.5135 304.1004,145.1374 305.6925,145.1374 	"/>
	<polygon class="st0" points="208.9381,54.5135 207.346,54.5135 207.346,145.1374 208.9381,145.1374 	"/>
	<polygon class="st0" points="112.2948,54.5135 110.7027,54.5135 110.7027,145.1374 112.2948,145.1374 	"/>
	<polygon class="st0" points="1.5921,54.5135 0,54.5135 0,145.1374 1.5921,145.1374 	"/>
	<path class="st0" d="M351.6895,90.1008c-1.2589-0.7617-2.8986-1.2166-4.5383-1.2166c-2.5178,0-4.1575,1.7138-4.1575,3.9671
		c0,1.7085,0.6876,2.7822,4.5013,4.9932c4.1205,2.3644,5.4904,4.6917,5.4904,7.7384c0,4.2316-2.6341,7.548-7.7437,7.548
		c-2.1317,0-4.1522-0.4602-5.5645-1.1425v-3.4699c1.5234,0.9151,3.5069,1.7191,5.0673,1.7191c3.015,0,4.7341-2.0206,4.7341-4.1945
		c0-2.0576-0.5395-3.2371-4.1205-5.4111c-4.8028-2.8986-5.866-4.5383-5.866-7.9712c0-4.3849,3.3535-6.67,7.3946-6.67
		c1.7508,0,3.618,0.3808,4.8028,0.878V90.1008z"/>
	<path class="st0" d="M374.6404,112.8666h-3.6603l-4.0729-16.429h-0.0794l-3.7396,16.429h-3.655l-5.1519-19.444h3.3588
		l3.6973,16.2386h0.0793l3.6973-16.2386h3.8084l3.8507,16.2386h0.0741l3.6603-16.2386h3.2054L374.6404,112.8666z"/>
	<path class="st0" d="M383.4472,93.4226h3.2001v19.444h-3.2001V93.4226z M386.7955,85.4144v3.8137h-3.5016v-3.8137H386.7955z"/>
	<path class="st0" d="M400.9447,112.6391c-0.767,0.2698-1.8354,0.4972-2.7082,0.4972c-2.9356,0-4.5013-1.1795-4.5013-4.6177V96.0144
		h-3.0891v-2.5918h3.0891v-3.9671l3.2054-0.9521v4.9192h3.9988v2.5918h-3.9935v11.4781c0,2.211,0.566,3.052,2.0153,3.052
		c0.804,0,1.37-0.2327,1.9835-0.4972V112.6391z"/>
	<path class="st0" d="M416.3105,93.4226v2.8986l-9.0026,13.8001h9.1931v2.7452h-12.4725v-2.8986l9.0026-13.8001h-8.6958v-2.7452
		H416.3105z"/>
	<path class="st0" d="M420.8859,101.6582c0.0793-4.5383,1.9042-6.0617,3.9618-6.0617c2.5601,0,3.819,2.0206,3.819,6.0617H420.8859z
		 M431.8615,104.0967v-1.7138c0-5.7179-2.4384-9.2301-6.8286-9.2301c-4.8398,0-7.511,3.8877-7.511,9.9917
		c0,6.0987,2.6712,9.9865,7.8125,9.9865c1.9465,0,3.93-0.4232,5.4534-1.1425l-0.1587-2.8986
		c-1.1055,0.804-2.8563,1.6027-4.4537,1.6027c-3.5492,0-5.3-2.0999-5.3-6.6012h10.9861V104.0967z"/>
	<path class="st0" d="M434.6437,97.6171c0-1.4123-0.1111-2.8246-0.1481-4.1945h3.0891l0.1164,3.052h0.0741
		c1.0314-2.3644,2.6711-3.3165,5.5275-3.3165v3.1631c-0.3808-0.0741-0.804-0.1164-1.2219-0.1164
		c-2.4755,0-4.2316,2.1369-4.2316,6.3685v10.2932h-3.2001V97.6171H434.6437z"/>
	<path class="st0" d="M446.2382,84.2666h3.2001v28.5947h-3.2001V84.2666z"/>
	<path class="st0" d="M462.9369,105.7734c0,2.6712-1.7614,4.9192-4.5436,4.9192c-2.211,0-3.2794-1.3382-3.2794-3.3958
		c0-2.248,1.7931-4.0411,5.5645-4.0411c0.878,0,1.682,0,2.2586,0.0793V105.7734z M453.9766,97.7705
		c1.1055-1.2219,3.015-2.0206,4.9985-2.0206c1.3329,0,2.5918,0.3438,3.2371,1.2166c0.6136,0.841,0.7299,1.6768,0.7299,3.1261v0.8728
		h-1.8724c-6.6753,0-9.1507,2.7875-9.1507,6.5589c0,3.7396,2.4014,5.6068,5.6068,5.6068c2.9674,0,4.5701-1.4123,5.4481-2.8986
		h0.0793l0.1904,2.6289h2.8986c-0.0741-0.6876-0.1534-1.8249-0.1534-2.9727V99.7487c0-2.7505-0.841-3.9248-1.6768-4.7711
		c-0.6136-0.6136-2.3274-1.8301-5.1836-1.8301c-1.9148,0-3.8877,0.5765-5.4904,1.6027L453.9766,97.7705z"/>
	<path class="st0" d="M468.9986,97.6171c0-1.4123-0.1163-2.8246-0.1481-4.1945h3.0891l0.1111,2.8986h0.0741
		c1.0314-2.211,2.6711-3.1631,4.9192-3.1631c3.3905,0,5.6756,1.9465,5.6756,6.2151v13.4986h-3.2001v-12.5413
		c0-3.089-1.1425-4.422-3.2001-4.422c-2.5178,0-4.1152,1.7508-4.1152,5.263v11.7002h-3.2001V97.6171H468.9986z"/>
	<path class="st0" d="M496.6359,103.1446c0,4.8821-1.3329,7.3946-4.2633,7.3946c-2.9356,0-4.2739-2.5178-4.2739-7.3946
		c0-4.8821,1.3383-7.3946,4.2739-7.3946C495.303,95.7499,496.6359,98.2624,496.6359,103.1446z M499.8466,84.2666h-3.2107v11.8219
		h-0.0688c-1.2959-2.0576-2.7505-2.9356-4.9615-2.9356c-4.0041,0-6.7123,3.2794-6.7123,9.9917c0,6.707,2.7082,9.9865,6.7123,9.9865
		c2.8246,0,4.2739-1.5974,5.1096-3.1261h0.0794l0.1163,2.8616H500c-0.037-1.1795-0.1481-2.4014-0.1481-3.581v-25.019H499.8466z"/>
</g>
</svg>
