<?xml version="1.0" encoding="utf-8"?>
<!-- Generator: Adobe Illustrator 28.1.0, SVG Export Plug-In . SVG Version: 6.00 Build 0)  -->
<!DOCTYPE svg PUBLIC "-//W3C//DTD SVG 1.1//EN" "http://www.w3.org/Graphics/SVG/1.1/DTD/svg11.dtd" [
	<!ENTITY ns_extend "http://ns.adobe.com/Extensibility/1.0/">
	<!ENTITY ns_ai "http://ns.adobe.com/AdobeIllustrator/10.0/">
	<!ENTITY ns_graphs "http://ns.adobe.com/Graphs/1.0/">
	<!ENTITY ns_vars "http://ns.adobe.com/Variables/1.0/">
	<!ENTITY ns_imrep "http://ns.adobe.com/ImageReplacement/1.0/">
	<!ENTITY ns_sfw "http://ns.adobe.com/SaveForWeb/1.0/">
	<!ENTITY ns_custom "http://ns.adobe.com/GenericCustomNamespace/1.0/">
	<!ENTITY ns_adobe_xpath "http://ns.adobe.com/XPath/1.0/">
]>
<svg version="1.1" id="Layer_1" xmlns:x="&ns_extend;" xmlns:i="&ns_ai;" xmlns:graph="&ns_graphs;"
	 xmlns="http://www.w3.org/2000/svg" xmlns:xlink="http://www.w3.org/1999/xlink" x="0px" y="0px" width="300px" height="300px"
	 viewBox="0 0 300 300" style="enable-background:new 0 0 300 300;" xml:space="preserve">
<style type="text/css">
	.st0{fill:#3C3C3C;}
</style>
<metadata>
	<sfw  xmlns="&ns_sfw;">
		<slices></slices>
		<sliceSourceBounds  bottomLeftOrigin="true" height="181.0046" width="300" x="0" y="59.4977"></sliceSourceBounds>
	</sfw>
</metadata>
<g>
	<path class="st0" d="M223.1104,200.3788c4.6331,15.0111-8.3367,25.1515-21.1382,20.1459
		c-1.4539,7.3439-5.5052,12.2212-13.1283,13.7036c-7.7411,1.5054-12.6159-3.7632-18.2997-7.8683
		c-0.3451,1.161-0.6134,2.065-0.8826,2.9687c-3.0479,10.2351-14.5674,14.4085-23.4775,8.3924
		c-4.0143-2.7105-7.8294-5.7149-11.8959-8.7042c-1.5816,1.7333-3.0703,3.3764-4.5714,5.0081
		c-8.3245,9.0479-20.8868,6.7791-25.4586-4.5909c-0.1428-0.3551-0.3739-0.6748-0.543-0.974
		c-11.8012,2.1869-16.1588,0.0012-20.8767-10.5186c-5.3649,1.5801-10.5857,1.4438-15.1221-2.3571
		c-4.4075-3.6929-5.9062-8.5398-5.1566-14.3938c-7.416-1.1544-12.5973-4.9375-14.045-12.5905
		c-1.4697-7.7693,3.8165-12.569,8.5499-17.9557c-3.9488-3.0448-7.743-5.9705-11.7511-9.0609
		c-1.2377,1.7042-2.352,3.2463-3.4746,4.7823c-1.5295,2.0927-3.3987,2.4503-5.5213,0.956
		c-11.4392-8.053-22.8838-16.0986-34.2809-24.2106c-2.5856-1.8404-2.6504-3.4883-0.5305-6.4766
		c12.6615-17.8481,25.3363-35.6867,38.0071-53.5282c4.9275-6.9383,9.8415-13.8863,14.7911-20.8089
		c2.0974-2.9335,3.63-3.2182,6.5957-1.1372c11.1194,7.8024,22.2191,15.6327,33.305,23.4824c2.7934,1.978,3.031,3.5438,1.1117,6.3827
		c-1.017,1.5042-2.0848,2.9742-3.2505,4.6313c4.0662,2.4849,8.2907,3.6301,12.85,3.0257c4.7213-0.6259,9.4085-1.509,14.1084-2.2924
		c0.4981-0.083,1.0586-0.1346,1.4608-0.3977c8.0117-5.2393,17.2247-4.9932,26.1702-5.3715
		c17.3762-0.735,34.467,1.6118,50.9571,7.0617c5.1683,1.7081,8.6906,0.7227,12.3178-2.9713
		c-1.1567-1.7871-2.3429-3.6508-3.5609-5.4935c-1.4847-2.2463-1.303-4.2292,1.0092-5.7514
		c11.7674-7.7469,23.5461-15.4768,35.3412-23.1816c2.5739-1.6813,4.3415-0.4711,5.8116,1.7724
		c6.939,10.5895,13.9028,21.1629,20.8613,31.7396c9.6863,14.7228,19.3789,29.4414,29.0616,44.1664
		c2.3875,3.6308,2.1004,5.0797-1.5089,7.4512c-10.7583,7.0692-21.5273,14.1222-32.2931,21.18
		c-4.582,3.0039-5.5727,2.8082-8.5189-1.6609c-0.4987-0.7565-1.0103-1.5047-1.7786-2.6473
		c-7.5078,4.5504-14.8013,9.1528-19.2212,17.0669c-0.3618,0.6478-0.4612,1.5546-0.3895,2.3134
		C235.7101,191.8746,232.8661,196.5347,223.1104,200.3788z M87.8645,101.5366c-12.9577,18.2688-25.6639,36.183-38.4778,54.249
		c4.1297,3.1724,8.1123,6.2317,12.0581,9.2628c12.0511-10.9816,19.9026-10.2646,27.8989,2.3536
		c6.9288-4.7498,13.1069-5.3407,18.4949-1.1435c2.2173,1.7273,4.1057,4.248,5.3233,6.7979
		c2.0893,4.3753,0.9952,8.8605-1.1743,13.0482c9.7619,3.248,12.4463,7.5954,11.9438,19.1977
		c0.824,0.2198,1.6901,0.4324,2.5453,0.6821c5.6614,1.653,10.0658,5.373,10.3144,11.0749c0.2278,5.2249,3.0867,7.3766,6.5258,9.8018
		c2.1535,1.5187,4.187,3.2146,6.3946,4.6461c1.2401,0.8041,2.6751,1.5386,4.1091,1.7705c3.7529,0.6071,7.228-1.3945,8.7143-4.6976
		c1.602-3.5603,0.7343-7.4158-2.6648-10.0363c-6.1005-4.7031-12.3457-9.2191-18.5273-13.8175
		c-1.8706-1.3915-3.8065-2.709-5.5733-4.2223c-1.6111-1.3799-2.0052-3.4397-0.4207-4.7694c1.026-0.8611,3.0143-0.793,4.5568-0.7373
		c0.7615,0.0275,1.4995,0.9565,2.2318,1.4995c12.8667,9.5395,25.716,19.1023,38.6035,28.6137
		c4.4637,3.2944,9.4964,2.7692,12.3901-1.1514c2.8683-3.8862,1.8109-8.9642-2.5271-12.168
		c-2.3649-1.7466-4.7225-3.503-7.0835-5.2548c-8.3855-6.2219-16.79-12.4184-25.1458-18.6797
		c-2.8123-2.1073-3.0401-5.2664-0.3502-6.2825c1.2863-0.4859,3.4636-0.0499,4.6302,0.7993
		c10.8188,7.8746,21.51,15.9239,32.2268,23.9378c3.0803,2.3034,6.0303,4.793,9.2077,6.9512
		c3.6451,2.4759,8.2926,1.7572,11.0195-1.4149c2.5927-3.016,2.5312-7.5997-0.2766-10.8726
		c-0.9114-1.0624-2.0619-1.9467-3.1944-2.7901c-13.4971-10.0515-27.0124-20.0786-40.519-30.1172
		c-0.813-0.6042-1.9995-1.1027-2.2983-1.9126c-0.4997-1.3547-1.0845-3.4908-0.4231-4.256c0.8459-0.9786,2.8989-1.2333,4.4182-1.1993
		c0.9216,0.0206,1.8295,1.1607,2.7235,1.8246c12.7777,9.4893,25.548,18.9885,38.329,28.4733
		c4.5547,3.38,9.6792,2.9695,12.6797-0.9788c2.9265-3.8509,1.7929-9.0785-2.7611-12.3617
		c-13.5677-9.7816-27.1537-19.538-40.7429-29.29c-0.8164-0.5859-1.6611-1.2407-2.5965-1.537
		c-14.8872-4.7155-26.4227-14.2941-37.0058-25.2751c-0.4523-0.4693-1.0109-0.8367-1.5888-1.3076
		c-4.1345,5.6618-8.0059,11.241-12.1654,16.5973c-7.1597,9.2198-20.2468,11.7745-30.4354,6.1398
		c-7.0469-3.8972-8.4191-10.3271-3.5381-16.7415c4.7246-6.2089,9.4867-12.3893,14.2212-18.5908
		c0.5836-0.7645,1.0981-1.5815,2.0372-2.9436C103.2288,106.5462,95.3671,106.2651,87.8645,101.5366z M229.2008,172.8529
		c7.0688-5.898,13.7115-11.4403,20.6661-17.243c-11.7602-17.8631-23.8573-36.2378-35.9896-54.6659
		c-1.459,0.9212-2.7083,1.4742-3.6578,2.3506c-3.8869,3.588-7.8675,3.4097-12.7894,1.7917
		c-21.089-6.9327-42.7112-9.356-64.8096-6.1452c-5.1206,0.744-9.4522,3.0717-12.639,7.1724
		c-6.341,8.1594-12.5986,16.3838-18.8434,24.617c-2.0958,2.7632-1.6818,4.3999,1.3306,6.1078
		c7.498,4.251,16.7729,2.2009,22.1925-5.0551c4.4246-5.924,8.687-11.9686,13.0304-17.9532
		c2.8131-3.8762,4.6308-3.9293,7.8687-0.3362c8.5332,9.4694,17.8205,18.047,29.4312,23.6685
		c10.5166,5.0918,21.0711,6.5346,31.4654-0.4839c1.9371-1.308,3.9822-1.3267,5.304,0.793c1.2821,2.056,0.649,4.0872-1.4969,5.1277
		c-4.6815,2.2699-9.4763,4.3069-14.1931,6.4248C206.9837,156.8731,218.3885,165.0761,229.2008,172.8529z M37.8517,159.7964
		c16.8078-23.7057,33.4732-47.2107,50.2198-70.8301c-9.9471-7.0084-19.5963-13.8069-29.3807-20.7007
		C41.8334,92.024,25.212,115.45,8.4674,139.0496C18.3226,146.0079,27.9151,152.7807,37.8517,159.7964z M213.8185,87.6158
		c15.9789,24.278,31.8177,48.3431,47.7286,72.5176c10.1599-6.6542,19.975-13.0826,30.0326-19.6698
		c-15.9459-24.2349-31.7778-48.2967-47.7104-72.5114C233.715,74.5966,223.8261,81.0674,213.8185,87.6158z M68.9534,204.1022
		c0.5449,3.4322,2.4482,6.1854,5.3695,7.2855c3.1916,1.2018,6.1524,0.4438,8.7035-2.4933
		c7.2959-8.3996,14.5636-16.8242,21.7651-25.3044c3.1817-3.7466,2.8458-8.5258-0.5876-11.3152
		c-3.322-2.6989-7.8889-2.136-11.0433,1.5034c-7.2205,8.3306-14.434,16.6686-21.5194,25.1132
		C70.4153,200.3526,69.833,202.3517,68.9534,204.1022z M83.1814,172.3124c-0.5016-3.3894-2.3851-6.0543-5.3921-7.2063
		c-2.9914-1.146-6.2542-0.4026-8.5352,2.1984c-3.9355,4.4878-7.8048,9.0355-11.6201,13.6258
		c-3.0698,3.6933-2.8471,8.2927,0.399,11.1044c3.3755,2.9238,7.9709,2.4581,11.2755-1.2911
		c3.8131-4.3261,7.6101-8.6738,11.2143-13.1715C81.7255,176.0714,82.3128,174.0797,83.1814,172.3124z M117.2238,201.5141
		c-0.2086-4.0849-1.7366-6.4067-4.7082-7.7083c-3.017-1.3215-6.268-0.711-8.5841,1.8863
		c-4.1735,4.6805-8.2778,9.4281-12.2554,14.2749c-2.8266,3.4442-2.3999,7.8447,0.7453,10.6199
		c3.0625,2.7023,7.7411,2.591,10.6619-0.6355c4.3427-4.7973,8.5058-9.7632,12.581-14.7901
		C116.6178,203.9853,116.9123,202.2769,117.2238,201.5141z M122.1954,212.0078c-1.7703,1.0249-3.7119,1.8438-5.2648,3.1303
		c-1.6924,1.402-3.0865,3.1861-4.4998,4.895c-2.7082,3.2745-2.4777,7.5608,0.4697,10.3798
		c2.9866,2.8565,7.5424,2.8517,10.6414-0.1587c1.8058-1.7542,3.4997-3.6421,5.0859-5.5976c1.975-2.4349,2.0707-5.211,0.7403-7.9537
		C128.0116,213.9065,125.622,212.594,122.1954,212.0078z"/>
</g>
</svg>
