<?xml version="1.0" encoding="utf-8"?>
<!-- Generator: Adobe Illustrator 28.1.0, SVG Export Plug-In . SVG Version: 6.00 Build 0)  -->
<!DOCTYPE svg PUBLIC "-//W3C//DTD SVG 1.1//EN" "http://www.w3.org/Graphics/SVG/1.1/DTD/svg11.dtd" [
	<!ENTITY ns_extend "http://ns.adobe.com/Extensibility/1.0/">
	<!ENTITY ns_ai "http://ns.adobe.com/AdobeIllustrator/10.0/">
	<!ENTITY ns_graphs "http://ns.adobe.com/Graphs/1.0/">
	<!ENTITY ns_vars "http://ns.adobe.com/Variables/1.0/">
	<!ENTITY ns_imrep "http://ns.adobe.com/ImageReplacement/1.0/">
	<!ENTITY ns_sfw "http://ns.adobe.com/SaveForWeb/1.0/">
	<!ENTITY ns_custom "http://ns.adobe.com/GenericCustomNamespace/1.0/">
	<!ENTITY ns_adobe_xpath "http://ns.adobe.com/XPath/1.0/">
]>
<svg version="1.1" id="Layer_1" xmlns:x="&ns_extend;" xmlns:i="&ns_ai;" xmlns:graph="&ns_graphs;"
	 xmlns="http://www.w3.org/2000/svg" xmlns:xlink="http://www.w3.org/1999/xlink" x="0px" y="0px" width="300px" height="300px"
	 viewBox="0 0 300 300" style="enable-background:new 0 0 300 300;" xml:space="preserve">
<style type="text/css">
	.st0{fill:#FFFFFF;}
	.st1{fill:none;}
</style>
<metadata>
	<sfw  xmlns="&ns_sfw;">
		<slices></slices>
		<sliceSourceBounds  bottomLeftOrigin="true" height="228.8772" width="300" x="0" y="35.5614"></sliceSourceBounds>
	</sfw>
</metadata>
<path class="st0" d="M149.7414,36.9645c0.902,0,1.6035,0.7015,1.6035,1.6035v9.4207c0,0.902-0.7015,1.6035-1.6035,1.6035
	s-1.6035-0.7015-1.6035-1.6035V38.568C148.2381,37.666,148.9397,36.9645,149.7414,36.9645 M149.7414,35.5614
	c-1.6035,0-3.0066,1.3029-3.0066,3.0066v9.4207c0,1.6035,1.3029,3.0066,3.0066,3.0066s3.0066-1.3029,3.0066-3.0066V38.568
	C152.748,36.8643,151.4452,35.5614,149.7414,35.5614L149.7414,35.5614z"/>
<path class="st0" d="M126.7911,38.2673c0.5011,0,1.1024,0.3007,1.4031,0.8018l4.8106,8.1178
	c0.4009,0.7015,0.2004,1.7037-0.6013,2.1046c-0.2004,0.1002-0.5011,0.2004-0.8018,0.2004c-0.5011,0-1.1024-0.3007-1.4031-0.8018
	l-4.7103-8.1178c-0.4009-0.7015-0.2004-1.7037,0.6013-2.1046C126.29,38.2673,126.5906,38.2673,126.7911,38.2673 M126.7911,36.8643
	c-0.5011,0-1.0022,0.1002-1.5033,0.4009c-1.4031,0.8018-1.9042,2.6057-1.1024,4.0088l4.8106,8.1178
	c0.5011,0.902,1.5033,1.5033,2.5055,1.5033c0.5011,0,1.0022-0.1002,1.5033-0.4009c1.4031-0.8018,1.9042-2.6057,1.0022-4.0088
	l-4.8106-8.1178C128.7955,37.4656,127.8935,36.8643,126.7911,36.8643C126.7911,36.8643,126.7911,36.8643,126.7911,36.8643z"/>
<path class="st0" d="M172.6918,38.2673c0.3007,0,0.5011,0.1002,0.8018,0.2004c0.7015,0.4009,1.0022,1.4031,0.6013,2.1046
	l-4.8106,8.1178c-0.3007,0.5011-0.8018,0.8018-1.4031,0.8018c-0.3007,0-0.5011-0.1002-0.8018-0.2004
	c-0.7015-0.4009-1.0022-1.4031-0.6013-2.1046l4.8105-8.1178C171.6896,38.568,172.1907,38.2673,172.6918,38.2673 M172.6918,36.8643
	c-1.0022,0-2.0044,0.6013-2.5055,1.5033l-4.8106,8.1178c-0.4009,0.7015-0.5011,1.5033-0.3007,2.2048
	c0.2004,0.7015,0.7015,1.4031,1.4031,1.804c0.5011,0.3007,1.0022,0.4009,1.5033,0.4009c1.0022,0,2.0044-0.6013,2.5055-1.5033
	l4.8106-8.1178c0.8018-1.4031,0.4009-3.207-1.0022-4.0088C173.7942,36.9645,173.1929,36.8643,172.6918,36.8643L172.6918,36.8643
	L172.6918,36.8643z"/>
<rect x="189.5287" y="146.104" class="st1" width="10.3227" height="54.8203"/>
<rect x="232.3226" y="149.5114" class="st1" width="10.5231" height="51.4128"/>
<rect x="211.3767" y="165.8473" class="st1" width="10.3227" height="35.077"/>
<rect x="261.4866" y="107.7197" class="st1" width="10.4229" height="93.3047"/>
<path class="st0" d="M296.3632,79.1571H100.1326c-3.0066,1.6035-3.9086,4.2092-3.9086,7.6167c0.1002,20.1442,0,40.2884,0,60.4326
	v5.6123l21.0462,30.5671l23.8523,13.5297c0,0,4.2092,3.1068,7.4163,8.3183c3.207,5.1112,5.5121,12.1266,2.0044,20.2444h5.5121
	c45.3996,0.1002,90.7992,0,136.1988,0c5.913,0,7.6167-1.7037,7.6167-7.6167c0-43.6959,0-87.2915,0.1002-130.8872
	C300.1715,83.4665,299.3698,80.8608,296.3632,79.1571L296.3632,79.1571L296.3632,79.1571z M193.738,107.9202
	c-0.3007,0.902-1.1024,1.3029-2.2048,1.0022c-2.5055-0.7015-5.1112-1.5033-7.6167-2.2048c-0.902-0.3007-1.4031-1.0022-1.3029-1.804
	c0.1002-0.8018,0.8018-1.3029,1.804-1.3029c0.5011,0.1002,1.1024,0.3007,1.7037,0.5011c2.1046,0.6013,4.2092,1.2026,6.3139,1.9042
	C193.4373,106.3167,193.9384,107.1184,193.738,107.9202L193.738,107.9202z M107.3484,109.1228
	c-0.8018,0-1.5033-0.6013-1.6035-1.3029c-0.1002-0.902,0.3007-1.5033,1.1024-1.7037c1.7037-0.5011,3.4075-1.0022,5.1112-1.5033
	c1.0022-0.3007,2.0044-0.6013,3.0066-0.902c0.8018-0.2004,1.6035,0.2004,1.9042,1.0022c0.3007,0.8018-0.1002,1.6035-0.902,1.9042
	c-2.7059,0.902-5.5121,1.6035-8.218,2.5055H107.3484z M122.2812,113.6327c-1.9042,2.0044-3.9086,3.9086-5.913,5.913
	c-0.8018,0.8018-1.7037,0.8018-2.4053,0.2004c-0.6013-0.7015-0.6013-1.6035,0.2004-2.3051c2.0044-2.0044,4.0088-4.0088,5.913-6.0132
	c0.5011-0.5011,1.2026-0.902,1.804-0.4009c0.5011,0.3007,0.8018,0.8018,1.2026,1.3029
	C122.8825,112.8309,122.6821,113.2318,122.2812,113.6327C122.2812,113.6327,122.2812,113.6327,122.2812,113.6327z
	 M129.8979,119.1448c-0.7015,2.5055-1.4031,4.9108-2.2048,7.4163c-0.3007,1.1024-1.1024,1.6035-2.0044,1.4031
	c-0.902-0.3007-1.3029-1.1024-1.0022-2.2048c0.7015-2.5055,1.5033-5.1112,2.2048-7.6167c0.3007-0.8018,0.8018-1.3029,1.804-1.2026
	c0.8018,0.1002,1.3029,0.8018,1.3029,1.7037C129.9981,118.6437,129.9981,118.9444,129.8979,119.1448L129.8979,119.1448z
	 M106.246,80.8608h25.7565c0.7015,0,1.0022,0.2004,1.2026,0.8018c4.2092,13.4295,8.4185,26.8589,12.6277,40.2884
	c0.1002,0.2004,0.1002,0.4009,0.2004,0.902C132.6038,108.8221,119.475,94.8916,106.246,80.8608z M149.8416,123.9554h-0.2004
	c-4.5099-14.3315-8.9196-28.6629-13.4295-43.0946h27.1596C158.7612,95.2925,154.3516,109.6239,149.8416,123.9554L149.8416,123.9554
	L149.8416,123.9554z M153.4496,123.6547c-0.0668,0-0.1002-0.0334-0.1002-0.1002c0.1002-0.5011,0.3007-1.0022,0.4009-1.5033
	c4.2092-13.4295,8.3183-26.7587,12.5275-40.1882c0.2004-0.8018,0.6013-1.1024,1.5033-1.1024h25.5561
	C179.9076,95.1922,166.6786,109.4235,153.4496,123.6547L153.4496,123.6547L153.4496,123.6547z M173.7942,127.9641
	c-0.8018,0.3007-1.7037-0.2004-1.9042-1.0022c-0.8018-2.7059-1.6035-5.4119-2.4053-8.1178
	c-0.3007-1.0022,0.6013-1.9042,1.9042-1.9042c0.2004,0.2004,0.902,0.6013,1.0022,1.1024c0.902,2.6057,1.6035,5.3117,2.4053,8.0176
	C175.0971,126.8617,174.596,127.6635,173.7942,127.9641z M185.4197,119.6459c-0.6013,0.7015-1.6035,0.7015-2.3051-0.1002
	l-6.0132-6.0132c-0.5011-0.5011-0.8018-1.1024-0.4009-1.804c0.3007-0.5011,0.8018-0.8018,1.3029-1.3029
	c0.6013,0.4009,1.1024,0.5011,1.4031,0.8018c2.0044,2.0044,4.0088,3.9086,6.0132,5.913
	C186.021,118.0424,186.1212,118.9444,185.4197,119.6459L185.4197,119.6459z M199.8514,200.9242h-10.3227V146.104h10.3227V200.9242z
	 M221.6993,200.9242h-10.3226v-35.077h10.3226V200.9242L221.6993,200.9242z M242.8457,200.9242h-10.5231v-51.4128h10.5231V200.9242z
	 M271.9095,201.0245h-10.4229v-93.3047h10.4229V201.0245z"/>
<path class="st0" d="M54.3321,149.0103c16.8369-0.1002,30.2664-13.7301,30.1662-30.6673
	c-0.1002-16.8369-13.8304-30.4669-30.4669-30.3666c-16.8369,0.2004-30.2664,13.8304-30.1662,30.6673
	C23.9655,135.5809,37.5954,149.1105,54.3321,149.0103z"/>
<path class="st0" d="M142.6258,215.9572c-0.1002-0.4009-0.2004-0.8018-0.3007-1.2026c-0.1002-0.6013-0.3007-1.1024-0.4009-1.5033
	c0-0.1002-0.1002-0.1002-0.1002-0.1002c-0.1002-0.1002-0.2004-0.3007-0.2004-0.4009c0-0.1002-0.1002-0.2004-0.1002-0.2004
	c0-0.1002,0-0.2004-0.1002-0.3007l-0.1002-0.1002c-0.1002-0.1002-0.1002-0.3007-0.1002-0.4009
	c-0.2004-0.902-0.8018-1.7037-1.2026-2.5055c-0.1002,0-0.2004-0.1002-0.3007-0.3007c-0.2004-0.3007-0.6013-0.6013-0.902-0.902
	c-0.4009-0.4009-0.902-0.902-1.4031-1.3029l-0.4009-0.4009l-18.24-11.8259h-0.1002c-3.3073-1.804-6.5143-3.6079-9.7213-5.6123
	c-0.2004-0.1002-0.4009-0.3007-0.6013-0.6013l-0.2004-0.3007l-13.6299-20.8457l-0.1002-0.1002
	c-0.6013-0.7015-1.1024-1.3029-1.6035-1.9042c-5.4119-5.8128-11.7257-9.7213-19.7433-9.8215
	c-12.9284-0.2004-25.8567-0.3007-38.6849,0.3007c-8.6189,0.3007-16.0352,4.2092-21.1464,11.6255
	c-5.8128,8.4185-9.8216,17.5385-11.6255,27.5605c-2.6057,14.2312-1.3029,28.5627-1.2026,42.8941
	c0.1002,6.2136,5.3117,11.7257,11.6255,13.1288c2.6057,0.6013,5.3117,0.3007,8.4185,0.5011c0,2.0044-0.1002,4.3095,0,6.5143
	c0.1002,4.6101,1.9042,6.5143,6.7147,6.5143c18.5407,0.1002,37.1816,0.1002,55.7223,0c4.8106,0,6.6145-1.9042,6.6145-6.9152
	c0.1002-10.6233,0.1002-21.2466,0.1002-31.7697v-4.7103c1.4031,0.7015,2.4053,1.2026,3.3073,1.7037
	c7.5165,4.109,14.9328,8.218,22.4493,12.2268c8.6189,4.6101,19.4427,1.804,24.2532-6.6145
	c0.2004-0.3007,0.4009-0.6013,0.6013-0.8018c1.9042-3.1068,2.5055-6.0132,2.6057-8.4185v-0.6013
	c0-0.6013-0.1002-1.1024-0.1002-1.5033C142.8263,216.5585,142.7261,216.2579,142.6258,215.9572L142.6258,215.9572L142.6258,215.9572
	z"/>
<path class="st0" d="M141.8241,58.5118l-7.8172,12.5275l-1.5033-2.3051l-6.4141-10.2224L141.8241,58.5118 M146.8351,55.7056
	h-25.7565c4.3095,6.9152,8.5187,13.6299,12.8282,20.5451C138.3164,69.3355,142.6258,62.6208,146.8351,55.7056L146.8351,55.7056z"/>
<path class="st0" d="M173.2931,58.5118l-7.8172,12.5275l-1.804-3.0066l-6.0132-9.6211L173.2931,58.5118 M178.3041,55.7056h-25.7565
	c4.3095,6.9152,8.5187,13.6299,12.8282,20.5451C169.7854,69.3355,173.9947,62.6208,178.3041,55.7056L178.3041,55.7056z"/>
<path class="st0" d="M118.2724,62.3201l7.9174,12.6277h-15.7345l3.7081-6.0132L118.2724,62.3201 M118.2724,57.1087
	c-4.3095,6.9152-8.6189,13.7301-12.8281,20.5451h25.7565C126.8913,70.7386,122.5818,64.0238,118.2724,57.1087L118.2724,57.1087z"/>
<path class="st0" d="M149.7414,62.3201l7.8172,12.5275h-15.7345L149.7414,62.3201 M149.7414,57.1087
	c-4.3095,6.9152-8.6189,13.7301-12.8282,20.5451h25.7565C158.2601,70.7386,154.0509,64.0238,149.7414,57.1087L149.7414,57.1087z"/>
<path class="st0" d="M181.2105,62.3201l3.7081,5.913l4.2092,6.6145h-15.6343l7.4163-11.9262L181.2105,62.3201 M181.2105,57.1087
	c-4.3095,6.9152-8.6189,13.7301-12.8282,20.5451h25.6563C189.7292,70.7386,185.5199,64.0238,181.2105,57.1087L181.2105,57.1087z"/>
</svg>
