<?xml version="1.0" encoding="utf-8"?>
<!-- Generator: Adobe Illustrator 28.1.0, SVG Export Plug-In . SVG Version: 6.00 Build 0)  -->
<!DOCTYPE svg PUBLIC "-//W3C//DTD SVG 1.1//EN" "http://www.w3.org/Graphics/SVG/1.1/DTD/svg11.dtd" [
	<!ENTITY ns_extend "http://ns.adobe.com/Extensibility/1.0/">
	<!ENTITY ns_ai "http://ns.adobe.com/AdobeIllustrator/10.0/">
	<!ENTITY ns_graphs "http://ns.adobe.com/Graphs/1.0/">
	<!ENTITY ns_vars "http://ns.adobe.com/Variables/1.0/">
	<!ENTITY ns_imrep "http://ns.adobe.com/ImageReplacement/1.0/">
	<!ENTITY ns_sfw "http://ns.adobe.com/SaveForWeb/1.0/">
	<!ENTITY ns_custom "http://ns.adobe.com/GenericCustomNamespace/1.0/">
	<!ENTITY ns_adobe_xpath "http://ns.adobe.com/XPath/1.0/">
]>
<svg version="1.1" id="Layer_1" xmlns:x="&ns_extend;" xmlns:i="&ns_ai;" xmlns:graph="&ns_graphs;"
	 xmlns="http://www.w3.org/2000/svg" xmlns:xlink="http://www.w3.org/1999/xlink" x="0px" y="0px" width="300px" height="300px"
	 viewBox="0 0 300 300" style="enable-background:new 0 0 300 300;" xml:space="preserve">
<style type="text/css">
	.st0{fill:#FFFFFF;}
</style>
<metadata>
	<sfw  xmlns="&ns_sfw;">
		<slices></slices>
		<sliceSourceBounds  bottomLeftOrigin="true" height="260.1387" width="299.9998" x="0.0001" y="0.0003"></sliceSourceBounds>
	</sfw>
</metadata>
<path class="st0" d="M67.9505,62.8624c-0.8499-0.8675-2.0865-1.3008-3.7129-1.3008c-1.5905,0-2.8179,0.4333-3.6853,1.3008
	c-0.8667,0.8667-1.3008,2.1323-1.3008,3.7931v28.9951c0,1.6264,0.4341,2.8821,1.3008,3.7671
	c0.8675,0.885,2.0949,1.3275,3.6853,1.3275c1.6615,0,2.9081-0.4425,3.7396-1.3275c0.8308-0.885,1.2465-2.1407,1.2465-3.7671V84.9743
	h15.7716v10.6762c0,1.6264,0.4242,2.8821,1.2733,3.7671c0.8483,0.885,2.0865,1.3275,3.7129,1.3275
	c1.5889,0,2.8087-0.4425,3.6578-1.3275c0.8483-0.885,1.274-2.1407,1.274-3.7671V66.6554c0-1.6608-0.4257-2.9264-1.274-3.7931
	c-0.8491-0.8675-2.0689-1.3008-3.6578-1.3008c-1.6264,0-2.8645,0.4333-3.7129,1.3008c-0.8491,0.8667-1.2733,2.1323-1.2733,3.7931
	v10.1351H69.2237V66.6554C69.2237,64.9947,68.7988,63.729,67.9505,62.8624L67.9505,62.8624z"/>
<path class="st0" d="M100.8205,99.9595c0.7589,0.5235,1.6982,0.7857,2.8179,0.7857c1.4093,0,2.4571-0.3248,3.1435-0.9752
	s1.3551-1.6982,2.0055-3.1435l1.7511-4.1187h17.0384l1.7511,4.1187c0.6137,1.4452,1.3092,2.4931,2.0865,3.1435
	c0.7765,0.6504,1.8878,0.9752,3.333,0.9752c1.0837,0,1.9963-0.253,2.7369-0.7589c0.7406-0.5052,1.1923-1.2274,1.3551-2.1675
	c0.1628-0.9393-0.0459-1.9864-0.6236-3.1435l-13.4948-29.0494c-0.6863-1.4093-1.4903-2.4388-2.4113-3.0892
	c-0.9217-0.6504-1.9971-0.9752-3.2252-0.9752s-2.3219,0.3248-3.2787,0.9752c-0.9576,0.6504-1.7609,1.6799-2.4113,3.0892
	L99.8998,94.6753c-0.5067,1.1571-0.6695,2.195-0.4884,3.116c0.1804,0.9217,0.6504,1.6447,1.4093,2.1683L100.8205,99.9595z
	 M118.9767,72.4548h0.1078l5.2424,12.4111h-10.5476l5.1975-12.4111H118.9767z"/>
<path class="st0" d="M161.9267,91.7215c-0.9576,0.6328-2.6283,0.9485-5.0137,0.9485c-1.5171,0-3.1435-0.1804-4.8776-0.5419
	c-1.7341-0.3607-3.2879-0.8667-4.6606-1.5171c-1.0486-0.4693-1.9879-0.587-2.8187-0.3523
	c-0.8315,0.2354-1.4995,0.6863-2.0047,1.3551c-0.5067,0.6687-0.8132,1.4361-0.9217,2.3028
	c-0.1085,0.8675,0.0359,1.6898,0.4333,2.4663c0.3974,0.7773,1.0845,1.4002,2.0597,1.8694c1.1197,0.5419,2.3845,1.0119,3.7939,1.4093
	c1.4093,0.3982,2.8997,0.6955,4.471,0.8942c1.5721,0.1979,3.08,0.2981,4.5253,0.2981c2.4931,0,4.7332-0.2897,6.7203-0.8675
	c1.9871-0.577,3.6861-1.3994,5.0947-2.4656c1.4093-1.0654,2.4931-2.3578,3.252-3.8749c0.7589-1.5179,1.138-3.2153,1.138-5.0947
	c0-2.782-0.8667-5.0404-2.6016-6.7745c-1.7341-1.7341-4.3541-2.9807-7.8583-3.7396l-6.2869-1.3551
	c-1.6982-0.3607-2.8637-0.8033-3.4958-1.3275c-0.6321-0.5235-0.9485-1.1655-0.9485-1.9244c0-0.7582,0.2446-1.4269,0.7322-2.0047
	c0.4876-0.5778,1.2007-1.0203,2.1407-1.3283c0.9393-0.3065,2.0773-0.4601,3.414-0.4601c1.2282,0,2.5015,0.1177,3.8214,0.3523
	c1.3184,0.2354,2.5015,0.587,3.5493,1.0562c1.1197,0.47,2.0865,0.6061,2.8997,0.4066c0.8132-0.1979,1.4636-0.6045,1.9512-1.219
	s0.7673-1.3283,0.8399-2.1407c0.0718-0.8132-0.0726-1.5989-0.4333-2.3578c-0.3615-0.7589-0.9576-1.3551-1.7884-1.7884
	c-1.4093-0.8308-3.0808-1.4544-5.0137-1.8702c-1.9329-0.415-3.839-0.6229-5.7176-0.6229c-2.4212,0-4.6162,0.2981-6.585,0.8942
	c-1.9695,0.5961-3.6678,1.4361-5.0939,2.5198c-1.4284,1.0845-2.5298,2.3945-3.3063,3.9291
	c-0.7773,1.5362-1.1655,3.2436-1.1655,5.1222c0,2.8546,0.8483,5.1849,2.5473,6.9908c1.6982,1.8075,4.2815,3.0716,7.7505,3.7939
	l6.3404,1.3551c1.6982,0.3615,2.8813,0.7948,3.5501,1.3008c0.668,0.506,1.0027,1.1747,1.0027,2.0055
	c0,0.9401-0.4792,1.7257-1.4361,2.357L161.9267,91.7215z"/>
<path class="st0" d="M197.208,91.7215c-0.9576,0.6328-2.6283,0.9485-5.0137,0.9485c-1.5171,0-3.1435-0.1804-4.8776-0.5419
	c-1.7341-0.3607-3.2879-0.8667-4.6606-1.5171c-1.0486-0.4693-1.9879-0.587-2.8187-0.3523
	c-0.8315,0.2354-1.4995,0.6863-2.0047,1.3551c-0.5067,0.6687-0.8132,1.4361-0.9217,2.3028
	c-0.1085,0.8675,0.0359,1.6898,0.4333,2.4663c0.3974,0.7773,1.0845,1.4002,2.0597,1.8694c1.1197,0.5419,2.3845,1.0119,3.7939,1.4093
	c1.4093,0.3982,2.8997,0.6955,4.471,0.8942c1.5721,0.1979,3.08,0.2981,4.5253,0.2981c2.4931,0,4.7332-0.2897,6.7203-0.8675
	c1.9871-0.577,3.6861-1.3994,5.0947-2.4656c1.4093-1.0654,2.4931-2.3578,3.252-3.8749c0.7589-1.5179,1.138-3.2153,1.138-5.0947
	c0-2.782-0.8667-5.0404-2.6016-6.7745c-1.7341-1.7341-4.3541-2.9807-7.8583-3.7396l-6.2869-1.3551
	c-1.6982-0.3607-2.8637-0.8033-3.4958-1.3275c-0.6321-0.5235-0.9485-1.1655-0.9485-1.9244c0-0.7582,0.2446-1.4269,0.7322-2.0047
	c0.4876-0.5778,1.2007-1.0203,2.1407-1.3283c0.9393-0.3065,2.0773-0.4601,3.414-0.4601c1.2282,0,2.5015,0.1177,3.8214,0.3523
	c1.3184,0.2354,2.5015,0.587,3.5493,1.0562c1.1197,0.47,2.0865,0.6061,2.8997,0.4066c0.8132-0.1979,1.4636-0.6045,1.9512-1.219
	s0.7673-1.3283,0.8399-2.1407c0.0718-0.8132-0.0726-1.5989-0.4333-2.3578c-0.3615-0.7589-0.9576-1.3551-1.7884-1.7884
	c-1.4093-0.8308-3.0808-1.4544-5.0137-1.8702c-1.9329-0.415-3.839-0.6229-5.7176-0.6229c-2.4212,0-4.6162,0.2981-6.585,0.8942
	c-1.9695,0.5961-3.6678,1.4361-5.0939,2.5198c-1.4284,1.0845-2.5298,2.3945-3.3063,3.9291
	c-0.7773,1.5362-1.1655,3.2436-1.1655,5.1222c0,2.8546,0.8483,5.1849,2.5473,6.9908c1.6982,1.8075,4.2815,3.0716,7.7505,3.7939
	l6.3404,1.3551c1.6982,0.3615,2.8813,0.7948,3.5501,1.3008c0.668,0.506,1.0027,1.1747,1.0027,2.0055
	c0,0.9401-0.4792,1.7257-1.4361,2.357L197.208,91.7215z"/>
<path class="st0" d="M221.9752,63.2957c-0.8499-0.8675-2.0865-1.3008-3.7129-1.3008c-1.5905,0-2.8179,0.4333-3.6853,1.3008
	c-0.8667,0.8667-1.3008,2.1132-1.3008,3.7396v28.1819c0,1.5905,0.4425,2.8278,1.3283,3.7129
	c0.885,0.8858,2.1216,1.3275,3.7121,1.3275h18.1562c1.3726,0,2.4296-0.3607,3.1702-1.0837
	c0.7406-0.7222,1.1113-1.7525,1.1113-3.0892s-0.3707-2.3578-1.1113-3.0625s-1.7976-1.057-3.1702-1.057h-13.2243V67.0352
	C223.2485,65.4088,222.8236,64.1623,221.9752,63.2957L221.9752,63.2957z"/>
<path class="st0" d="M268.5563,69.7447c1.3008,0,2.276-0.3332,2.9264-1.002c0.6504-0.6687,0.976-1.6348,0.976-2.8997
	c0-1.2282-0.3256-2.1683-0.976-2.8187c-0.6504-0.6504-1.6256-0.9752-2.9264-0.9752h-18.3724c-1.699,0-2.9899,0.4425-3.8749,1.3275
	c-0.8858,0.8858-1.3283,2.1598-1.3283,3.8214v27.9106c0,1.6623,0.4425,2.9364,1.3283,3.8214
	c0.885,0.8858,2.1759,1.3275,3.8749,1.3275h18.3724c1.3008,0,2.276-0.3248,2.9264-0.9752s0.976-1.6073,0.976-2.8729
	c0-1.2274-0.3256-2.1759-0.976-2.8454c-0.6504-0.668-1.6256-1.0027-2.9264-1.0027h-14.0367V84.703h12.8444
	c1.2641,0,2.2309-0.3248,2.8997-0.9752c0.668-0.6504,1.0027-1.6073,1.0027-2.8729c0-1.2641-0.3348-2.2218-1.0027-2.8722
	c-0.6687-0.6504-1.6356-0.9752-2.8997-0.9752h-12.8444v-7.2629L268.5563,69.7447L268.5563,69.7447z"/>
<path class="st0" d="M165.3132,134.7808c1.3008,0,2.276-0.3332,2.9264-1.002c0.6504-0.6687,0.9752-1.6348,0.9752-2.8997
	c0-1.2282-0.3248-2.1683-0.9752-2.8187c-0.6504-0.6504-1.6256-0.9752-2.9264-0.9752h-18.0476c-1.699,0-2.9899,0.4425-3.8749,1.3275
	c-0.8858,0.8858-1.3283,2.1598-1.3283,3.8214v28.399c0,1.6623,0.4425,2.9356,1.3283,3.8206c0.885,0.885,2.1216,1.3275,3.7121,1.3275
	c3.2872,0,4.9319-1.7158,4.9319-5.1482v-10.5142h12.0863c1.2641,0,2.2302-0.3256,2.8989-0.976s1.0027-1.6073,1.0027-2.8722
	c0-1.2282-0.334-2.1683-1.0027-2.8187s-1.6348-0.9752-2.8989-0.9752h-12.0863v-7.6963h13.2785V134.7808z"/>
<path class="st0" d="M173.4421,132.1257v28.6153c0,1.5905,0.4341,2.8278,1.3008,3.7129c0.8675,0.885,2.0949,1.3275,3.6853,1.3275
	c1.6615,0,2.9081-0.4425,3.7396-1.3275c0.8308-0.885,1.2465-2.1224,1.2465-3.7129v-9.701h2.9807
	c0.8675,0,1.6348,0.1544,2.3035,0.4609c0.668,0.3072,1.2198,0.8583,1.6531,1.6531l4.9319,9.0506
	c0.6856,1.229,1.472,2.1323,2.3578,2.7101c0.885,0.577,2.0322,0.8667,3.4415,0.8667c1.4086,0,2.4831-0.3164,3.2245-0.9485
	c0.7398-0.6313,1.1288-1.4445,1.1648-2.4388c0.0359-0.9928-0.2354-2.0139-0.8124-3.0617l-2.7101-4.8776
	c-0.7948-1.5179-1.7884-2.6467-2.9807-3.3873c-0.5702-0.3541-1.1842-0.6181-1.8369-0.8029
	c0.7392-0.2088,1.4363-0.4616,2.0807-0.7692c2.0055-0.9569,3.5409-2.3303,4.6071-4.1187c1.0654-1.7884,1.5989-3.8932,1.5989-6.3137
	c0-3.7579-1.1839-6.6935-3.5501-8.8075c-2.367-2.1132-5.7176-3.1702-10.0533-3.1702h-13.3328c-1.5905,0-2.8271,0.4333-3.7121,1.3008
	C173.8846,129.2528,173.4421,130.4993,173.4421,132.1257L173.4421,132.1257z M183.4144,134.7272h6.6125
	c1.9145,0,3.3773,0.3883,4.3892,1.1648c1.0111,0.7773,1.5179,1.9244,1.5179,3.4415c0,1.5905-0.5067,2.7644-1.5179,3.5226
	c-1.0119,0.7589-2.4747,1.1388-4.3892,1.1388h-6.6125v-9.2676V134.7272z"/>
<path class="st0" d="M211.7041,132.2343v27.9106c0,1.6623,0.4425,2.9364,1.3283,3.8214c0.885,0.8858,2.1759,1.3275,3.8749,1.3275
	h18.3724c1.3008,0,2.276-0.3248,2.9264-0.9752s0.976-1.6073,0.976-2.8729c0-1.2274-0.3256-2.1759-0.976-2.8454
	c-0.6504-0.668-1.6256-1.0027-2.9264-1.0027H221.243v-7.8583h12.8444c1.2641,0,2.2309-0.3248,2.8997-0.9752
	c0.668-0.6504,1.0027-1.6073,1.0027-2.8729c0-1.2641-0.3348-2.2218-1.0027-2.8722c-0.6687-0.6504-1.6356-0.9752-2.8997-0.9752
	H221.243v-7.2629h14.0367c1.3008,0,2.276-0.3332,2.9264-1.002c0.6504-0.6687,0.976-1.6348,0.976-2.8997
	c0-1.2282-0.3256-2.1683-0.976-2.8187c-0.6504-0.6504-1.6256-0.9752-2.9264-0.9752h-18.3724c-1.699,0-2.9899,0.4425-3.8749,1.3275
	c-0.8858,0.8858-1.3283,2.1598-1.3283,3.8214V132.2343z"/>
<path class="st0" d="M244.9807,160.1449c0,1.6623,0.4425,2.9364,1.3283,3.8214c0.885,0.8858,2.1759,1.3275,3.8749,1.3275h18.3724
	c1.3008,0,2.276-0.3248,2.9264-0.9752s0.976-1.6073,0.976-2.8729c0-1.2274-0.3256-2.1759-0.976-2.8454
	c-0.6504-0.668-1.6256-1.0027-2.9264-1.0027h-14.0367v-7.8583h12.8444c1.2641,0,2.2309-0.3248,2.8997-0.9752
	c0.668-0.6504,1.0027-1.6073,1.0027-2.8729c0-1.2641-0.3348-2.2218-1.0027-2.8722c-0.6687-0.6504-1.6356-0.9752-2.8997-0.9752
	h-12.8444v-7.2629h14.0367c1.3008,0,2.276-0.3332,2.9264-1.002c0.6504-0.6687,0.976-1.6348,0.976-2.8997
	c0-1.2282-0.3256-2.1683-0.976-2.8187s-1.6256-0.9752-2.9264-0.9752h-18.3724c-1.699,0-2.9899,0.4425-3.8749,1.3275
	c-0.8858,0.8858-1.3283,2.1598-1.3283,3.8214v27.9106L244.9807,160.1449z"/>
<path class="st0" d="M299.5787,51.965c-4.2794-20.4945-18.4265-32.0332-39.3043-32.0335
	c-62.686-0.0017-125.3718-0.0008-188.0575,0.0002c-1.2693,0-2.5389-0.0075-3.8076,0.0216
	c-18.4198,0.4238-34.4391,14.1156-36.0926,32.4281c-1.1988,13.274-0.5755,26.7226-0.5342,40.0926
	c0.0118,3.9125,3.8109,6.3167,7.4769,5.2785c2.6081-0.7387,4.1242-2.9828,4.1319-6.3408
	c0.0254-11.1332-0.0453-22.2668,0.0258-33.3997c0.0963-15.1025,11.2031-26.3223,26.3221-26.3362
	c64.0527-0.059,128.1056-0.0558,192.1583-0.0031c15.2823,0.0126,26.3561,11.2305,26.3721,26.5504
	c0.0386,36.8179,0.0279,73.636-0.0224,110.4536c-0.0032,2.4178-0.243,4.9009-0.8252,7.2411
	c-2.7667,11.1185-12.5448,19.0399-24.012,19.2191c-12.0066,0.1876-24.0184,0.0361-36.028,0.0403
	c-4.4939,0.0017-6.4176,1.6149-7.18,5.9744c-0.1513,0.8654-0.2939,1.7336-0.4899,2.5894
	c-2.4524,10.7152-9.0423,18.464-18.0417,25.4026v-3.4899c-0.0002-7.715,0.0138-15.4304-0.005-23.1454
	c-0.0132-5.4233-1.9835-7.3642-7.453-7.3718c-15.3297-0.0208-30.6593-0.0539-45.9888-0.0145
	c-1.896,0.005-3.0936-0.3678-4.2131-2.2011c-3.3911-5.5536-8.4242-8.4414-15.0927-8.3776
	c-8.9822,0.0858-17.9659,0.025-26.9488,0.0141c-0.8185-0.001-1.6369-0.0969-2.7894-0.1699
	c2.0616-3.7304,3.9062-7.1464,5.8226-10.5218c6.4847-11.4219,6.3401-28.7167-10.5432-37.5071
	c-5.0696-2.6396-7.6025-2.1847-10.6439,2.7632c-7.7148,12.5513-15.4478,25.0918-23.1117,37.6743
	c-2.6473,4.3461-6.4251,6.4673-11.4531,6.08c-1.0163-0.0783-2.5876-0.9341-2.8288-1.7492c-1.2028-4.0692-2.657-8.2106-2.888-12.3895
	c-0.4469-8.0813-0.0986-16.2046-0.149-24.3101c-0.0254-4.0992-2.6299-6.6131-6.3527-6.3124
	c-3.35,0.2709-5.4617,2.7332-5.3106,6.8005c0.4679,12.5995-1.6409,25.3432,2.2758,37.8607
	c-0.7964,0.0717-1.3684,0.1674-1.9405,0.1681c-8.2997,0.0107-16.5993-0.0191-24.8986,0.0199
	c-5.024,0.0233-7.146,2.1627-7.1489,7.1532c-0.0126,21.2899-0.0109,42.5798-0.0013,63.8698
	c0.0023,5.2376,2.0586,7.3126,7.2411,7.3216c11.424,0.0197,22.8482,0.0518,34.2721,0.005c3.4664-0.0141,6.5124,0.9827,9.2418,3.0781
	c3.3292,2.5559,6.6507,5.1231,10.0164,7.6305c5.585,4.1607,11.7876,7.2484,18.7569,7.5023
	c12.6717,0.4618,25.3856,0.8069,38.0434,0.2778c10.3126-0.4311,16.8324-10.1593,14.4597-20.1995
	c-0.3904-1.6518,0.0117-2.3471,1.3633-3.2539c6.5821-4.416,9.0943-12.6195,6.0414-19.8582
	c-0.6957-1.6493-0.411-2.5101,0.7092-3.7748c4.2452-4.7918,5.421-10.5128,3.1114-16.3565c-1.1552-2.9232-1.0547-4.72,0.7345-7.2039
	c1.2444-1.7275,2.263-2.4136,4.3571-2.3952c12.8876,0.1131,25.7766,0.0774,38.6651,0.0909c0.9294,0.001,1.8589,0,2.6922,0
	c0.133,0.647,0.2064,0.8382,0.2067,1.0295c0.0155,9.9612,0.0197,19.9224,0.0365,29.8836c0.012,7.1508,4.3109,9.6637,10.5763,6.076
	c14.7425-8.4418,25.9734-19.8551,30.6265-36.9362h3.2447c9.7638,0.0002,19.5303,0.1475,29.2909-0.0323
	c16.4006-0.3019,30.7744-11.6802,35.0067-27.4798c0.4771-1.781,0.8676-3.585,1.2983-5.3782V52.7029
	C299.8556,52.4578,299.6336,52.2289,299.5787,51.965L299.5787,51.965z M31.466,249.3703H11.9275v-54.5529H31.466V249.3703z
	 M134.6327,201.4462c-0.2746,2.4195-1.955,3.7379-4.3459,4.0497c-0.9638,0.1259-1.9554,0.0298-2.9222,0.1416
	c-2.7674,0.3197-4.6835,2.2405-4.9772,4.9147c-0.342,3.1142,1.0994,5.4441,3.9737,6.3162c0.835,0.2532,1.7408,0.2727,2.5754,0.5268
	c2.2936,0.6982,3.7255,2.1919,3.6082,4.6843c-0.1169,2.4877-1.5801,3.9385-4.0365,4.2322c-1.642,0.1962-3.325,0.0762-4.9582,0.3141
	c-2.9386,0.428-4.6925,2.4698-4.8232,5.3669c-0.1364,3.0262,1.5645,5.2739,4.5194,5.9434c0.7608,0.1723,1.5461,0.2438,2.2997,0.4402
	c2.4549,0.6393,3.5537,2.3318,3.3613,4.7771c-0.1958,2.4866-1.6791,3.9486-4.15,4.1034c-2.4319,0.1521-4.8801,0.0287-7.3204,0.0657
	c-4.1867,0.0638-6.5439,1.9034-6.8313,5.2876c-0.3088,3.6401,1.5415,5.6576,5.9195,6.4543c2.7791,0.506,4.3459,2.2164,4.3002,4.6946
	c-0.0449,2.4281-1.7936,4.4794-4.4997,4.4785c-11.9027-0.004-23.8095-0.0422-35.7059-0.3844
	c-4.7758-0.1374-9.0124-2.3547-12.833-5.2114c-2.7359-2.0456-5.4386-4.1359-8.1548-6.208
	c-6.2264-4.7496-8.2743-5.648-16.1203-6.9885v-54.7749c1.8601,0,3.6714-0.0204,5.4822,0.0032
	c9.7088,0.1271,17.0164-3.8512,22.0524-12.2955c6.6932-11.2232,13.6473-22.2907,20.5892-33.5877
	c4.2211,2.2594,5.6736,6.0878,5.4298,10.2497c-0.1874,3.1998-1.2551,6.4923-2.5901,9.4459
	c-1.8816,4.163-4.4225,8.0238-6.5911,12.0622c-4.1273,7.6859,0.6345,15.6887,9.3654,15.7246
	c10.3495,0.0428,20.6993,0.0034,31.0487,0.0214c0.9655,0.0017,2.0221-0.0644,2.8781,0.287
	C133.2905,197.4485,134.914,198.9678,134.6327,201.4462L134.6327,201.4462z"/>
<path class="st0" d="M43.379,118.7379c0.1255-3.2222-2.5376-6.0137-5.8033-6.0831c-3.0703-0.0653-5.7873,2.6058-5.8469,5.7481
	c-0.06,3.1685,2.4868,5.793,5.6721,5.8456C40.6938,124.303,43.2541,121.9429,43.379,118.7379L43.379,118.7379z"/>
</svg>
