<?xml version="1.0" encoding="utf-8"?>
<!-- Generator: Adobe Illustrator 28.1.0, SVG Export Plug-In . SVG Version: 6.00 Build 0)  -->
<!DOCTYPE svg PUBLIC "-//W3C//DTD SVG 1.1//EN" "http://www.w3.org/Graphics/SVG/1.1/DTD/svg11.dtd" [
	<!ENTITY ns_extend "http://ns.adobe.com/Extensibility/1.0/">
	<!ENTITY ns_ai "http://ns.adobe.com/AdobeIllustrator/10.0/">
	<!ENTITY ns_graphs "http://ns.adobe.com/Graphs/1.0/">
	<!ENTITY ns_vars "http://ns.adobe.com/Variables/1.0/">
	<!ENTITY ns_imrep "http://ns.adobe.com/ImageReplacement/1.0/">
	<!ENTITY ns_sfw "http://ns.adobe.com/SaveForWeb/1.0/">
	<!ENTITY ns_custom "http://ns.adobe.com/GenericCustomNamespace/1.0/">
	<!ENTITY ns_adobe_xpath "http://ns.adobe.com/XPath/1.0/">
]>
<svg version="1.1" id="Layer_1" xmlns:x="&ns_extend;" xmlns:i="&ns_ai;" xmlns:graph="&ns_graphs;"
	 xmlns="http://www.w3.org/2000/svg" xmlns:xlink="http://www.w3.org/1999/xlink" x="0px" y="0px" width="300px" height="300px"
	 viewBox="0 0 300 300" style="enable-background:new 0 0 300 300;" xml:space="preserve">
<style type="text/css">
	.st0{fill:#FFFFFF;}
</style>
<metadata>
	<sfw  xmlns="&ns_sfw;">
		<slices></slices>
		<sliceSourceBounds  bottomLeftOrigin="true" height="271.7017" width="299.9998" x="0" y="0"></sliceSourceBounds>
	</sfw>
</metadata>
<path class="st0" d="M182.4443,126.9165c1.7348-0.6754,3.234-1.3178,4.7776-1.8246c0.4691-0.154,1.1723-0.113,1.5805,0.1408
	c13.0446,8.1121,23.5197,18.404,26.8023,34.0593c2.9234,13.9426-1.6731,25.9429-10.883,36.3807
	c-0.519,0.5882-1.7198,0.8004-2.6051,0.8048c-10.793,0.0532-21.5863,0.0289-32.3796,0.0365
	c-8.0296,0.0056-12.6671,4.5994-12.7066,12.5887c-0.0193,3.9134-0.0033,7.8271-0.0033,12.3129
	c-6.705,0.6935-13.244,1.6205-19.8137,1.9688c-5.1244,0.2716-10.2907-0.0979-15.4305-0.3454
	c-1.8854-0.0908-3.4002,0.2463-4.9884,1.3676c-12.1517,8.5783-24.3736,17.0571-36.5737,25.5668
	c-0.268,0.1869-0.5124,0.4611-0.8094,0.5425c-0.7358,0.2015-1.888,0.6773-2.1595,0.3834c-0.4771-0.5165-0.709-1.5904-0.5451-2.3187
	c2.223-9.8799,4.5327-19.7403,6.8185-29.606c0.3845-1.6594,0.757-3.3217,1.0901-4.7854c-4.8721-2.9675-9.7663-5.6067-14.29-8.7754
	c-9.1532-6.4114-16.5223-14.4636-20.2553-25.2031c-5.0507-14.5301-1.9079-27.7362,7.4359-39.5805
	c8.8261-11.188,20.59-18.3165,33.8045-23.0109c6.4327-2.2852,13.1987-3.6349,19.8236-5.3708
	c0.8489-0.2224,1.7567-0.2195,2.8565-0.3463c-1.0681,11.7639,2.5568,21.518,12.0535,28.4572
	c9.4523,6.9067,19.7729,7.3954,30.7031,2.814c1.7869,2.3998,3.604,4.84,5.7205,7.6824h-3.0946
	c-22.3224,0-44.6448-0.0002-66.9672,0.0011c-0.7357,0-1.4874-0.0793-2.204,0.0418c-1.8301,0.3095-2.9493,1.3868-2.9978,3.3021
	c-0.0487,1.9264,1.0485,3.0559,2.8496,3.4341c0.8651,0.1816,1.791,0.0928,2.6894,0.093c24.203,0.0036,48.4061,0.0179,72.609-0.0306
	c1.6283-0.0033,2.6681,0.4428,3.6454,1.7979c3.7299,5.1714,7.5776,10.2583,11.4206,15.3471
	c4.6769,6.1931,11.9116,6.8784,17.7158,1.709c1.5266-1.3597,3.0436-2.7308,4.54-4.1236c4.9107-4.5706,5.5389-10.6515,1.5411-16.0841
	c-6.7355-9.1529-13.5438-18.2521-20.3184-27.3761c-0.4368-0.5883-0.8479-1.1957-1.4523-2.0508L182.4443,126.9165z
	 M132.1506,176.3462c-13.2353,0-26.4705-0.0005-39.7058,0.0013c-0.7351,0-1.4789-0.0497-2.2035,0.0423
	c-1.7512,0.2224-2.8387,1.229-3.0242,3.0008c-0.1997,1.9074,0.7917,3.117,2.5565,3.6639c0.6059,0.1878,1.2914,0.1604,1.9406,0.1605
	c26.879,0.0071,53.758,0.0085,80.637-0.0057c0.8041-0.0004,1.9005,0.1191,2.3516-0.3295c0.9482-0.9429,2.0297-2.1642,2.1917-3.386
	c0.2241-1.6898-1.0928-2.8123-2.8359-3.0907c-0.7187-0.1148-1.4672-0.0551-2.2021-0.0553
	c-13.2352-0.0024-26.4705-0.0017-39.7057-0.0017L132.1506,176.3462z"/>
<path class="st0" d="M156.7292,83.8701c14.232-11.187,26.7852-23.7226,36.5951-39.2392
	c12.4567,21.5853,24.7248,42.8439,37.1781,64.4235c-18.3423,0.7693-35.4401,5.3562-52.2485,12.1044
	C171.0556,108.6886,163.9253,96.3364,156.7292,83.8701z"/>
<path class="st0" d="M285.066,193.0484c-0.6656-0.3957-1.4563-0.7747-2.1453-1.29c-5.3557-4.0057-12.2086-1.1866-13.0156,5.4497
	c-0.2711,2.229-1.259,3.2018-3.4961,3.092c-1.8763-0.0922-3.7614-0.0545-5.6412-0.0117c-1.8869,0.043-2.8166-0.8054-3.0723-2.7013
	c-0.974-7.2212-7.4619-9.9361-13.3095-5.5717c-1.489,1.1114-2.7704,1.212-4.1049-0.1654c-1.4223-1.468-2.8699-2.9121-4.3303-4.3423
	c-1.2625-1.2363-1.3085-2.4652-0.2734-3.908c4.4434-6.1936,1.9622-12.2907-5.4926-13.4772
	c-1.8773-0.2988-2.7148-1.2747-2.6885-3.1336c0.0278-1.9629,0.0221-3.9268,0.0007-5.8899
	c-0.0216-1.9821,0.8857-2.9235,2.9052-3.1624c6.831-0.808,9.7785-7.6621,5.5878-13.0586c-1.3934-1.7944-1.3368-3.1628,0.283-4.6605
	c1.38-1.276,2.6971-2.6225,4.0029-3.9755c1.2215-1.2657,2.4457-1.3759,3.9036-0.348c6.3807,4.4987,12.1662,2.0278,13.6438-5.6364
	c0.1843-0.9561,1.5108-2.2376,2.4643-2.39c2.2327-0.3568,4.5608-0.1514,6.8492-0.1121c1.6608,0.0285,2.4362,0.9969,2.7074,2.5972
	c1.2758,7.5282,7.3553,10.083,13.4199,5.6242c1.5438-1.135,2.8068-1.0065,4.0946,0.3322c1.3604,1.414,2.747,2.8044,4.1622,4.1634
	c1.3628,1.3086,1.3858,2.5886,0.272,4.1058c-4.4361,6.0427-1.8108,12.2085,5.6899,13.3962c1.6209,0.2567,2.5157,1.0492,2.5134,2.738
	c-0.003,2.2087-0.0072,4.4174,0.0036,6.6261c0.0083,1.7003-0.9217,2.4727-2.511,2.7604c-7.71,1.3956-10.001,7.0915-5.6235,13.6296
	c0.5141,0.7678,0.7063,2.4528,0.2251,3.058c-1.6167,2.0333-3.5875,3.7891-5.4695,5.6027c-0.3208,0.3092-0.871,0.3802-1.5551,0.659
	L285.066,193.0484z M246.3681,164.051c0.004,9.6422,7.8314,17.4505,17.4757,17.4331c9.4729-0.0171,17.3312-7.863,17.3645-17.3372
	c0.034-9.654-7.7483-17.4891-17.3963-17.5145C254.1311,146.607,246.364,154.3628,246.3681,164.051L246.3681,164.051z"/>
<path class="st0" d="M249.3024,117.0478c-4.6738-0.4354-7.7974-2.6441-10.0179-6.5089
	c-10.0096-17.4222-20.076-34.8117-30.1191-52.2146c-4.4092-7.6404-8.9096-15.2304-13.1876-22.9436
	c-3.803-6.8567,0.2788-14.7897,8.0041-15.9067c4.1761-0.6038,8.3161,1.5716,10.7613,5.7867
	c6.3526,10.9511,12.6637,21.9263,18.9927,32.891c8.0439,13.9358,16.1064,27.8608,24.1253,41.811
	c3.2087,5.582,2.0322,11.779-2.9607,14.9064C253.2335,115.9133,251.1795,116.3393,249.3024,117.0478L249.3024,117.0478z"/>
<path class="st0" d="M150.0416,86.0414c7.7505,13.4347,15.2895,26.5027,23.006,39.8785
	c-8.4912,4.0536-15.528,10.4776-24.6553,12.7033c-10.4548,2.5494-21.2996-3.0783-25.7135-12.8765
	c-4.4076-9.7841-1.4813-21.7598,7.3766-27.7901C136.3769,93.653,143.1978,90.0835,150.0416,86.0414L150.0416,86.0414z"/>
<path class="st0" d="M45.2113,281.2157c-12.2305-6.5192-22.5486-18.2968-31.1742-31.7
	C7.301,239.0485,2.0245,227.9005,0.3769,215.3845c-1.5749-11.964,1.6613-22.0221,12.0744-29.0471
	c4.9631-3.3483,9.2373-2.6565,12.6739,2.151c2.5583,3.5789,5.066,7.1974,7.4862,10.8706c3.0446,4.6208,2.2261,8.7599-2.2751,12.0889
	c-1.1782,0.8714-2.4403,1.6331-3.5882,2.5408c-3.2173,2.544-4.2756,6.0352-2.6231,9.8049
	c5.408,12.337,12.8945,23.2816,22.5712,32.6736c2.9861,2.8982,6.5041,3.1436,10.0605,1.0243
	c0.8382-0.4995,1.6218-1.0908,2.429-1.642c6.1178-4.1774,9.955-3.4876,14.1727,2.5696c2.2348,3.2095,4.493,6.4042,6.6547,9.6626
	c3.2187,4.8517,2.447,9.0033-2.2009,12.3825c-9.7583,7.0945-19.9498,7.0111-32.6008,0.7516L45.2113,281.2157z"/>
<path class="st0" d="M177.1107,131.382c2.8316,3.7987,5.5173,7.3911,8.1917,10.9919c4.4347,5.9708,8.8823,11.9321,13.2835,17.9276
	c2.0312,2.767,1.8236,4.8045-0.6387,7.1281c-1.5455,1.4584-3.111,2.8995-4.7284,4.2769c-2.3656,2.0146-5.0492,1.9325-6.8802-0.4856
	c-7.8864-10.415-15.6741-20.9047-23.6168-31.5264c4.8003-2.7731,9.4511-5.46,14.3888-8.3125H177.1107z"/>
<path class="st0" d="M255.7336,17.1125c-0.5442,1.3062-0.781,2.0943-1.1779,2.7911c-2.4239,4.2556-4.8613,8.5038-7.3414,12.7268
	c-1.3498,2.2984-3.2323,2.9368-5.063,1.8328c-1.7399-1.0492-2.129-2.9548-0.9077-5.12c2.4862-4.4078,5.0308-8.7827,7.5612-13.1654
	c0.9229-1.5985,2.3823-2.5185,4.0814-1.7568c1.1581,0.5192,1.9656,1.8211,2.8475,2.6916L255.7336,17.1125z"/>
<path class="st0" d="M275.0703,75.2342c-2.4508,0-4.9021,0.0313-7.3522-0.0087c-2.5207-0.0411-3.9286-1.266-3.9693-3.3575
	c-0.0413-2.1224,1.3466-3.4618,3.8243-3.4853c5.0645-0.0481,10.13-0.0467,15.1945-0.0009c2.48,0.0224,3.8848,1.3556,3.8557,3.464
	c-0.0286,2.077-1.4616,3.3378-3.9558,3.379C280.1357,75.2665,277.6027,75.234,275.0703,75.2342L275.0703,75.2342z"/>
<path class="st0" d="M280.9592,39.5769c-0.4199,0.5277-1.0012,1.796-1.9889,2.4061c-4.2312,2.6138-8.5572,5.078-12.9011,7.5029
	c-1.8131,1.0122-3.5083,0.6474-4.6796-1.1559c-1.0869-1.6735-0.5532-3.6291,1.4079-4.7948
	c4.2766-2.5423,8.5732-5.0558,12.9337-7.4497C278.1496,34.7578,280.8247,36.2693,280.9592,39.5769z"/>
<path class="st0" d="M248.102,69.2802c-3.8733-6.7062-7.5929-13.1462-11.3239-19.6061c3.5746-1.5001,8.7355,0.3544,11.6474,4.0582
	c3.5318,4.4924,3.5277,10.4685-0.3234,15.5479H248.102z"/>
<path class="st0" d="M240.1045,200.8672c-23.189-0.0134-46.3781-0.0118-69.5671-0.0012c-5.6244,0.0024-7.7855,2.6618-7.7948,9.7641
	c-0.0289,21.7694-0.0256,43.5392-0.002,65.3086c0.0077,7.2297,2.0653,9.8744,7.6788,9.8919
	c11.5404,0.0366,23.0803,0.011,34.6203,0.011c11.7578-0.0012,23.5155,0.0301,35.2733-0.0155
	c5.3093-0.0204,7.3649-2.608,7.3743-9.3101c0.0297-22.0487,0.0281-44.0973,0.0012-66.146c-0.0085-6.915-2.1-9.4994-7.5839-9.5027
	L240.1045,200.8672z M176.9297,262.7128c-2.3027-0.8684-3.7484-2.47-4.2825-4.8757c-0.0936-0.4218-0.1368-0.8635-0.1384-1.2963
	c-0.0118-2.9777-0.0301-5.9554,0.0004-8.9323c0.0289-2.7807,1.6888-5.1693,4.1572-6.0824c0.0871-0.0322,0.182-0.0436,0.2634-0.0627
	L176.9297,262.7128L176.9297,262.7128z M194.2777,260.9695c-0.0912,5.1856-5.44,8.1319-9.9001,5.5161
	c-2.1631-1.2686-3.1316-3.2957-3.1495-5.7718c-0.0212-2.9061-0.0049-5.8125-0.0049-8.7186c0-2.858-0.0138-5.716,0.0037-8.5736
	c0.0183-2.9712,1.7588-5.5064,4.3188-6.3446c4.3978-1.4396,8.662,1.4628,8.7341,6.0922
	C194.3722,249.1014,194.3828,255.0377,194.2777,260.9695L194.2777,260.9695z M229.1651,265.614
	c-0.0668,5.751-4.8045,10.4232-10.5543,10.5682c-2.2266,0.0562-4.4564,0.0028-6.6842,0.0342
	c-0.25,0.0033-0.6327,0.1685-0.7255,0.366c-0.984,2.1004-2.582,3.3983-4.855,3.8661c-0.0924,0.0191-0.1771,0.0745-0.265,0.1128
	h-1.5992c-1.3057-0.2952-2.5604-0.7019-3.5685-1.6432c-1.9367-1.808-2.676-4.013-1.977-6.5767
	c0.73-2.6797,2.538-4.3143,5.2865-4.7365c3.0363-0.4666,5.5931,0.9706,6.9089,3.77c0.1759,0.3737,0.3758,0.4759,0.7638,0.4727
	c2.1069-0.0179,4.2142,0.013,6.321-0.0142c2.9777-0.0391,5.589-1.9721,6.2249-4.6429c-1.2943,0.386-2.5515,0.3408-3.7977-0.0541
	c-2.6638-0.844-4.4914-3.2485-4.515-6.1977c-0.0476-5.9094-0.0835-11.8205,0.0065-17.7287c0.079-5.2198,5.4563-8.1938,9.931-5.5434
	c2.0784,1.2307,3.1023,3.1801,3.1129,5.5691c0.0338,7.4598,0.0729,14.9199-0.0142,22.3784L229.1651,265.614z M229.6593,224.6014
	c-2.8829-4.9132-6.8772-8.6555-11.9809-11.1845c-4.8033-2.3801-9.8997-3.2802-15.2253-2.7717
	c-4.6078,0.4397-8.8708,1.9371-12.7345,4.4967c-5.0764,3.3637-8.7214,7.9023-10.9394,13.5719
	c-0.9576,2.4464-1.5047,4.9962-1.7734,7.6092c-0.0224,0.2166-0.173,0.5284-0.3469,0.6034
	c-1.3622,0.5871-2.7452,1.1273-4.1299,1.6855c-0.0863-17.1082,13.9994-32.4633,32.6791-32.4642
	c18.6708-0.0008,32.7638,15.3437,32.6799,32.664c-0.5227-0.3045-0.9901-0.6323-1.5019-0.8615
	c-0.791-0.3546-1.6004-0.6795-2.4261-0.9401c-0.3896-0.1234-0.5333-0.2785-0.5704-0.6832
	c-0.3798-4.1812-1.6041-8.1018-3.7305-11.7256L229.6593,224.6014z M237.9117,256.4349c-0.0216,2.9639-1.8638,5.5312-4.4238,6.2217
	v-21.2194c1.727,0.5854,3.0376,1.6855,3.7504,3.3453c0.39,0.9087,0.6201,1.9497,0.6481,2.9386
	C237.9703,250.6235,237.9328,253.5304,237.9117,256.4349L237.9117,256.4349z"/>
</svg>
