<?xml version="1.0" encoding="utf-8"?>
<!-- Generator: Adobe Illustrator 28.1.0, SVG Export Plug-In . SVG Version: 6.00 Build 0)  -->
<!DOCTYPE svg PUBLIC "-//W3C//DTD SVG 1.1//EN" "http://www.w3.org/Graphics/SVG/1.1/DTD/svg11.dtd" [
	<!ENTITY ns_extend "http://ns.adobe.com/Extensibility/1.0/">
	<!ENTITY ns_ai "http://ns.adobe.com/AdobeIllustrator/10.0/">
	<!ENTITY ns_graphs "http://ns.adobe.com/Graphs/1.0/">
	<!ENTITY ns_vars "http://ns.adobe.com/Variables/1.0/">
	<!ENTITY ns_imrep "http://ns.adobe.com/ImageReplacement/1.0/">
	<!ENTITY ns_sfw "http://ns.adobe.com/SaveForWeb/1.0/">
	<!ENTITY ns_custom "http://ns.adobe.com/GenericCustomNamespace/1.0/">
	<!ENTITY ns_adobe_xpath "http://ns.adobe.com/XPath/1.0/">
]>
<svg version="1.1" id="Layer_1" xmlns:x="&ns_extend;" xmlns:i="&ns_ai;" xmlns:graph="&ns_graphs;"
	 xmlns="http://www.w3.org/2000/svg" xmlns:xlink="http://www.w3.org/1999/xlink" x="0px" y="0px" width="300px" height="300px"
	 viewBox="0 0 300 300" style="enable-background:new 0 0 300 300;" xml:space="preserve">
<style type="text/css">
	.st0{fill:#FFFFFF;}
</style>
<metadata>
	<sfw  xmlns="&ns_sfw;">
		<slices></slices>
		<sliceSourceBounds  bottomLeftOrigin="true" height="300" width="185.2616" x="57.3692" y="-300"></sliceSourceBounds>
	</sfw>
</metadata>
<g>
	<path class="st0" d="M162.2612,123.1264c2.5188-0.957,5.2741-1.5546,7.5223-2.9623c3.4615-2.1674,7.0436-4.4702,9.7341-7.4694
		c4.8707-5.4294,4.8928-12.8743,0.8365-18.7628c-3.9283-5.7026-10.9672-8.2205-17.5953-6.294
		c-6.7407,1.9592-11.3785,7.9472-11.553,14.9978c-0.0674,2.7248,0.0721,5.4572-0.0726,8.176
		c-0.0475,0.8917-0.6941,1.7515-1.0667,2.6259c-0.4279-0.92-1.1629-1.8198-1.2251-2.7639c-0.1723-2.6142-0.0186-5.2478-0.0756-7.872
		c-0.1596-7.3497-4.903-13.3685-11.9865-15.2741c-6.6881-1.7992-13.8906,1.0734-17.59,7.0155
		c-3.8133,6.125-3.1176,13.4187,1.8169,19.0471c3.4098,3.8894,6.8297,5.8331,16.7393,9.4883c0,12.9421,0,25.9317,0,39.1385
		c-3.7652,0-7.4296,0-11.2342,0c-0.0776-0.4209-0.2177-0.7982-0.2051-1.1703c0.1859-5.4821-2.2952-9.2759-6.902-12.2096
		c-14.1757-9.0277-22.8695-21.8918-26.0879-38.4123c-7.117-36.5325,23.7003-70.8456,60.8134-67.7191
		c31.9637,2.6927,55.1262,28.8936,53.2834,60.9417c-1.0735,18.6679-9.7387,33.5492-25.2177,44.072
		c-5.3051,3.6064-9.3416,7.3825-8.4135,14.5114c-4.009,0-7.6799,0-11.5208,0C162.2612,149.1467,162.2612,136.1584,162.2612,123.1264
		z"/>
	<path class="st0" d="M155.6592,245.5645c3.9496,6.5824,9.3608,9.4534,16.4876,7.9817c3.1179-0.6438,6.068-2.1296,9.0717-3.2916
		c14.3651-5.5574,28.722-11.1361,43.0842-16.7007c0.6398-0.2479,1.3042-0.432,2.2551-0.7433c0.0879,1.0463,0.22,1.8942,0.221,2.7422
		c0.0136,11.4987-0.0261,22.9976,0.0462,34.4958c0.0111,1.7613-0.4831,2.6695-2.1966,3.3307
		c-22.4493,8.6641-44.8687,17.4056-67.298,26.1216c-0.4582,0.178-0.9443,0.2842-1.6713,0.4989
		C155.6592,281.9399,155.6592,264.0631,155.6592,245.5645z"/>
	<path class="st0" d="M73.3277,232.6838c2.881,1.0756,5.5007,2.02,8.0957,3.0282c13.9982,5.4384,27.9904,10.8922,41.9844,16.3413
		c9.3544,3.6425,14.848,2.0492,20.8937-6.3098c0,18.1823,0,36.0524,0,54.2342c-1.0362-0.3444-2.0547-0.6347-3.0376-1.0165
		c-21.7979-8.4667-43.5837-16.9645-65.4004-25.3821c-1.9475-0.7514-2.7719-1.6591-2.7456-3.8943
		c0.1329-11.3078,0.0583-22.6181,0.0666-33.9275C73.1851,234.8738,73.2645,233.9903,73.3277,232.6838z"/>
	<path class="st0" d="M168.5957,243.2138c-0.7818-0.5782-2.1268-1.0999-2.7057-2.076c-4.6278-7.8025-9.1552-15.6659-13.6122-23.5677
		c-1.433-2.5404-0.6797-4.4622,2.0771-5.5371c22.9925-8.9652,46.0061-17.8766,68.9975-26.8445
		c2.4542-0.9573,4.0523-0.1885,5.2861,1.9586c4.3693,7.6039,8.7943,15.176,13.1281,22.8001
		c1.6358,2.8777,0.9756,4.6715-2.2019,5.9114c-22.8023,8.897-45.6212,17.7513-68.4386,26.6096
		C170.4744,242.7212,169.7816,242.8681,168.5957,243.2138z"/>
	<path class="st0" d="M148.8213,214.867c-0.7138,1.6481-1.025,2.605-1.5147,3.4596c-4.2098,7.347-8.4996,14.6486-12.6586,22.024
		c-1.4748,2.6154-3.3254,3.1093-6.0422,2.049c-22.6138-8.8254-45.254-17.5831-67.8759-26.3876
		c-3.6276-1.4118-4.2113-3.143-2.2666-6.5364c4.2104-7.3468,8.511-14.6425,12.6672-22.0197
		c1.4594-2.5904,3.2398-3.1911,6.001-2.1097c22.6038,8.8526,45.2447,17.6108,67.8337,26.5008
		C146.4302,212.4237,147.5596,213.8534,148.8213,214.867z"/>
	<path class="st0" d="M134.0271,181.8121c-5.4707-1.3864-7.4922-3.5789-7.5138-8.2471c15.5868,0,31.1748,0,46.7632,0.0002
		c0.5608,4.1943-1.7456,6.8262-7.1965,8.2132c-2.0715,8.7763-5.5236,11.4994-14.5884,11.5065
		c-1.4135,0.0011-2.8271,0.0089-4.2405-0.0022C139.4338,193.2211,135.3023,189.6908,134.0271,181.8121z"/>
	<path class="st0" d="M173.7714,192.7696c3.4541-4.2725,7.1044-7.439,8.9385-11.4384c1.8088-3.9443,1.7791-8.7318,2.6243-13.5379
		c8.1928,3.1781,16.8241,6.5264,26.3499,10.2215C198.7825,183.0358,186.6986,187.7386,173.7714,192.7696z"/>
	<path class="st0" d="M126.1518,192.7447c-12.8811-5.0105-24.9267-9.6961-37.817-14.7102
		c9.3958-3.6548,18.0273-7.0124,26.294-10.228c0.8419,4.7341,0.837,9.5867,2.6645,13.6061
		C119.1091,185.4061,122.7676,188.5618,126.1518,192.7447z"/>
	<path class="st0" d="M155.4317,13.8014c0,2.6178,0.0655,5.2377-0.0162,7.853c-0.1071,3.4285-2.2725,5.6466-5.3874,5.6706
		c-3.1277,0.0241-5.4084-2.1838-5.4666-5.5786c-0.0914-5.3347-0.0843-10.6731-0.0023-16.0082
		c0.0517-3.3622,2.3547-5.707,5.3768-5.7379c3.019-0.0309,5.3545,2.3053,5.4713,5.6464
		C155.5023,8.3618,155.4267,11.083,155.4317,13.8014z"/>
	<path class="st0" d="M103.7866,12.6968c0.7546,0.5848,2.6261,1.4218,3.5509,2.8653c2.9242,4.5645,5.5712,9.3139,8.1724,14.0754
		c1.558,2.8519,0.7036,5.8681-1.7978,7.3978c-2.6463,1.6183-5.7529,0.896-7.5354-2.0321c-2.8211-4.6342-5.5685-9.3205-8.146-14.0933
		C95.9372,17.0337,98.5288,12.6532,103.7866,12.6968z"/>
	<path class="st0" d="M190.0404,37.8504c-4.9292,0.0026-7.6536-4.1357-5.766-7.7655c2.649-5.094,5.5926-10.0445,8.608-14.9343
		c1.6095-2.6101,4.6514-3.1366,7.1728-1.6479c2.4542,1.449,3.4486,4.4243,1.9962,7.1015
		c-2.6917,4.9615-5.4734,9.8869-8.5109,14.6399C192.6731,36.6013,190.7952,37.3128,190.0404,37.8504z"/>
	<path class="st0" d="M137.852,111.5405c-3.5999-1.1443-6.5918-2.6321-8.8462-5.3213c-1.5831-1.8884-2.1124-4.2555-0.2927-5.9967
		c1.2649-1.2104,3.4529-2.0984,5.1824-2.0262c2.41,0.1005,3.8181,2.1159,3.9281,4.5951
		C137.9473,105.5773,137.852,108.373,137.852,111.5405z"/>
	<path class="st0" d="M162.116,111.5378c0-3.1751-0.0771-5.9755,0.0237-8.7695c0.0854-2.3663,1.4325-4.0048,3.6594-4.6341
		c2.2218-0.6278,4.1896,0.0497,5.5544,2.0132c1.3835,1.9904,1.2297,4.0065-0.2319,5.8515
		C168.8679,108.8437,165.7994,110.3794,162.116,111.5378z"/>
	<path class="st0" d="M150.2607,162.6567c-0.4909-0.618-1.4055-1.2329-1.41-1.8545c-0.0851-11.5992-0.0852-23.1994,0.0041-34.7985
		c0.0046-0.6053,0.9638-1.2033,1.4786-1.8046c0.2373,0.185,0.4746,0.37,0.7119,0.555c0,12.3789,0,24.7577,0,37.1366
		C150.7838,162.1461,150.5222,162.4014,150.2607,162.6567z"/>
</g>
</svg>
