<?xml version="1.0" encoding="utf-8"?>
<!-- Generator: Adobe Illustrator 28.1.0, SVG Export Plug-In . SVG Version: 6.00 Build 0)  -->
<!DOCTYPE svg PUBLIC "-//W3C//DTD SVG 1.1//EN" "http://www.w3.org/Graphics/SVG/1.1/DTD/svg11.dtd" [
	<!ENTITY ns_extend "http://ns.adobe.com/Extensibility/1.0/">
	<!ENTITY ns_ai "http://ns.adobe.com/AdobeIllustrator/10.0/">
	<!ENTITY ns_graphs "http://ns.adobe.com/Graphs/1.0/">
	<!ENTITY ns_vars "http://ns.adobe.com/Variables/1.0/">
	<!ENTITY ns_imrep "http://ns.adobe.com/ImageReplacement/1.0/">
	<!ENTITY ns_sfw "http://ns.adobe.com/SaveForWeb/1.0/">
	<!ENTITY ns_custom "http://ns.adobe.com/GenericCustomNamespace/1.0/">
	<!ENTITY ns_adobe_xpath "http://ns.adobe.com/XPath/1.0/">
]>
<svg version="1.1" id="Layer_1" xmlns:x="&ns_extend;" xmlns:i="&ns_ai;" xmlns:graph="&ns_graphs;"
	 xmlns="http://www.w3.org/2000/svg" xmlns:xlink="http://www.w3.org/1999/xlink" x="0px" y="0px" width="300px" height="300px"
	 viewBox="0 0 300 300" style="enable-background:new 0 0 300 300;" xml:space="preserve">
<style type="text/css">
	.st0{fill:#FFFFFF;}
</style>
<metadata>
	<sfw  xmlns="&ns_sfw;">
		<slices></slices>
		<sliceSourceBounds  bottomLeftOrigin="true" height="300" width="280.0203" x="9.9899" y="-300"></sliceSourceBounds>
	</sfw>
</metadata>
<g>
	<path class="st0" d="M205.686,140.169c-0.915,6.1669-0.2973,12.6541,0.2877,18.9342c1.8127,19.4713,3.9313,38.9177,5.9597,58.3679
		c0.468,4.4885,1.0521,8.9636,1.5307,13.0033c11.1963,0,21.8728,0,33.004,0c0.0863-0.4565,0.2695-1.149,0.3462-1.853
		c1.8424-16.9604,3.7865-33.9113,5.4677-50.887c1.0953-11.0755,2.3181-22.1759,2.556-33.284
		c0.2714-12.6541-10.1202-23.2827-22.6871-24.3703C219.5131,118.9848,207.5514,127.6089,205.686,140.169z"/>
	<path class="st0" d="M286.881,255.2667c-2.7996-1.5902-5.5502-3.2993-8.4562-4.6688
		c-21.4604-10.1126-44.0104-12.6522-67.2854-9.0998c-13.361,2.0371-26.0257,6.2993-37.6171,13.4559
		c-2.4553,1.5154-3.6781,3.4489-3.564,6.3952c0.1439,3.7404,0.0326,7.4924,0.0345,11.2386c0.0038,6.0115,1.3715,7.408,7.266,7.4099
		c17.5896,0.0019,35.1792,0.0019,52.7687,0.0019c17.9023-0.0019,35.8045,0.0096,53.7067-0.0077
		c4.4712-0.0058,6.2168-1.7705,6.2475-6.2455c0.0288-4.2679-0.0518-8.5359,0.0269-12.8018
		C290.0555,258.3933,289.0686,256.5077,286.881,255.2667z"/>
	<path class="st0" d="M179.996,292.1952c-0.094,6.468,1.2411,7.8031,7.8012,7.8031c6.9706,0,13.9412,0,20.9118,0
		c21.5352,0,43.0705,0.0057,64.6067-0.0038c5.0515-0.0019,6.657-1.6534,6.6637-6.7711c0.001-0.9265,0-1.8529,0-3.0345
		c-33.5132,0-66.6438,0-99.8904,0C180.0516,290.9791,180.0036,291.5871,179.996,292.1952z"/>
	<path class="st0" d="M195.1993,39.9448c10.2929,0.0671,20.5867,0.0249,30.5142,0.0249
		c-11.9061-11.9061-23.8773-23.8792-35.6961-35.6971c0,9.9994-0.0652,20.4841,0.0412,30.9688
		C190.0894,38.1801,192.0842,39.9237,195.1993,39.9448z"/>
	<path class="st0" d="M168.0726,288.075c-5.3862-2.9195-8.1177-7.5576-8.0889-13.7533c0.023-4.5825,0.0115-9.165,0.0038-13.7494
		c-0.0096-5.7679,2.2423-10.4847,7.2746-13.291c5.9761-3.3318,12.094-6.4968,18.4115-9.1055
		c5.7123-2.3574,11.7756-3.867,17.7143-5.7583c0.0211-0.3203,0.0882-0.6311,0.0566-0.9322
		c-2.7113-26.298-5.4505-52.5942-8.1349-78.8961c-0.6263-6.142-0.7433-12.305,1.3897-18.2226
		c5.5492-15.3856,16.8261-23.1619,33.0653-24.5679c0-19.993,0-39.8173,0-59.7988c-11.4658,0-22.7053,0.0403-33.9439-0.0115
		c-9.5266-0.046-15.798-6.3875-15.8249-15.938c-0.0288-10.2085-0.0058-20.415-0.0058-30.6235c0-1.0934,0-2.1905,0-3.4258
		c-1.3916,0-2.321,0-3.2494,0c-50.0996,0-100.1992-0.0038-150.2979,0.0038C16.1376,0.0067,9.9927,6.2043,9.9927,16.5739
		c-0.0038,88.9492-0.0038,177.8984,0,266.8495c0,10.3773,6.1439,16.571,16.4559,16.571
		c46.974,0.0077,93.9489,0.0038,140.9238,0.0038c1.0713,0,2.1426,0,3.071,0c-0.1698-3.1784-0.4335-5.8715-0.4124-8.5608
		C170.0445,289.8013,169.6264,288.9151,168.0726,288.075z M178.379,130.0047c0.9332,0,1.9047-0.0671,2.7938,0.1554
		c2.5617,0.6464,3.845,2.4246,3.7721,5.0256c-0.07,2.4648-1.3983,4.1279-3.8258,4.6669c-1.0972,0.2436-2.2778,0.1439-3.4211,0.1439
		c-21.8556,0.0058-43.7112,0.0038-65.5677,0.0038c-21.752,0-43.504,0.0019-65.257,0c-0.9361-0.0019-1.8875,0.0748-2.8053-0.0614
		c-2.4524-0.3683-3.937-1.7839-4.1806-4.3044c-0.2513-2.6068,0.8152-4.5038,3.3414-5.3056
		c1.0579-0.3357,2.2548-0.3184,3.3884-0.3184C90.5375,129.997,134.4577,129.9989,178.379,130.0047z M184.9698,165.0841
		c-0.0403,2.9348-1.9978,4.8223-5.2634,4.8952c-3.3184,0.0748-6.6397,0.0173-9.961,0.0173
		c-3.2168,0.0019-6.4335,0.0518-9.6493-0.0115c-3.3328-0.0652-5.2011-1.8491-5.2375-4.8549
		c-0.0365-2.9789,1.8376-5.0313,5.0726-5.0851c6.6397-0.1093,13.2823-0.0997,19.9211-0.0058
		C183.0727,160.0834,185.01,162.1397,184.9698,165.0841z M79.0544,22.127c22.9585-0.0153,41.5091,18.5141,41.4823,41.4362
		c-0.0269,22.8837-18.7002,41.5225-41.5408,41.4592c-22.8195-0.0614-41.5379-18.8843-41.4094-41.6395
		C37.716,40.5644,56.2321,22.1443,79.0544,22.127z M44.0766,160.1026c1.0185-0.1611,2.0755-0.0997,3.1141-0.0997
		c30.1699-0.0058,60.3407-0.0058,90.5106,0.0019c1.1423,0,2.3248-0.0959,3.4172,0.1592c2.5655,0.6004,3.8862,2.3843,3.8162,4.9834
		c-0.07,2.5991-1.4789,4.2813-4.0809,4.7628c-0.9092,0.1669-1.8664,0.0882-2.8024,0.0882
		c-15.2935,0.0038-30.5861,0.0019-45.8787,0.0019c-15.5017,0-31.0033,0.0096-46.504-0.0077
		c-3.7519-0.0038-5.6509-1.5537-5.812-4.6132C39.7128,162.6116,41.3221,160.5399,44.0766,160.1026z M41.4977,198.3566
		c-1.0444-1.101-1.5029-3.5409-1.0521-5.0409c0.4028-1.337,2.2922-2.3881,3.7347-3.1899c0.8056-0.4469,2.0381-0.1458,3.0777-0.1458
		c43.5011-0.0038,87.0023-0.0038,130.5034,0c1.0397,0,2.1033-0.0806,3.1142,0.1017c2.6058,0.4738,4.0003,2.1675,4.0675,4.7705
		c0.0652,2.6087-1.2641,4.3792-3.8268,4.9776c-1.0934,0.2551-2.2769,0.165-3.4182,0.165
		c-21.8556,0.0077-43.7092,0.0058-65.5648,0.0058c-21.8537,0-43.7093,0.0345-65.5629-0.0652
		C44.8286,199.9276,42.5728,199.4883,41.4977,198.3566z M149.9863,253.3466c-0.0077,4.9374-1.6611,6.6464-6.4901,6.6484
		c-29.0621,0.0115-58.1243,0.0134-87.1854-0.0019c-4.525-0.0019-6.2993-1.7436-6.3127-6.1822
		c-0.0269-9.1669-0.023-18.3319-0.0019-27.5007c0.0106-4.6362,1.7321-6.305,6.4738-6.3069
		c14.4793-0.0115,28.9586-0.0038,43.4369-0.0038c14.3747,0,28.7495-0.0038,43.1252,0c5.3757,0.0019,6.9486,1.5326,6.9553,6.7865
		C149.9978,235.64,149.9997,244.4942,149.9863,253.3466z"/>
	<path class="st0" d="M78.8683,95.9937c18.0212,0.1151,32.5724-14.1868,32.6894-32.1331
		c0.1199-18.0845-14.1407-32.7086-32.0036-32.8179c-18.2696-0.1113-32.7709,14.0429-32.9253,32.135
		C46.4743,81.3542,60.7417,95.8766,78.8683,95.9937z M61.5741,59.8861c1.851-1.7398,4.3005-1.6765,6.3683,0.2609
		c3.3261,3.1189,6.6081,6.2839,10.0704,9.5832c5.1637-6.2149,10.3754-12.5026,15.61-18.7731
		c1.9278-2.3095,4.1327-2.8446,6.2321-1.5921c2.3171,1.383,3.0326,4.3696,1.2372,6.5659
		C94.58,63.9027,87.9854,71.8075,81.3293,79.6605c-1.8069,2.1311-4.5432,2.227-6.5103,0.2724
		c-4.5211-4.4904-8.9598-9.0672-13.3437-13.6938C59.5888,64.2499,59.7346,61.6144,61.5741,59.8861z"/>
</g>
</svg>
