<?xml version="1.0" encoding="utf-8"?>
<!-- Generator: Adobe Illustrator 28.1.0, SVG Export Plug-In . SVG Version: 6.00 Build 0)  -->
<!DOCTYPE svg PUBLIC "-//W3C//DTD SVG 1.1//EN" "http://www.w3.org/Graphics/SVG/1.1/DTD/svg11.dtd" [
	<!ENTITY ns_extend "http://ns.adobe.com/Extensibility/1.0/">
	<!ENTITY ns_ai "http://ns.adobe.com/AdobeIllustrator/10.0/">
	<!ENTITY ns_graphs "http://ns.adobe.com/Graphs/1.0/">
	<!ENTITY ns_vars "http://ns.adobe.com/Variables/1.0/">
	<!ENTITY ns_imrep "http://ns.adobe.com/ImageReplacement/1.0/">
	<!ENTITY ns_sfw "http://ns.adobe.com/SaveForWeb/1.0/">
	<!ENTITY ns_custom "http://ns.adobe.com/GenericCustomNamespace/1.0/">
	<!ENTITY ns_adobe_xpath "http://ns.adobe.com/XPath/1.0/">
]>
<svg version="1.1" id="Layer_1" xmlns:x="&ns_extend;" xmlns:i="&ns_ai;" xmlns:graph="&ns_graphs;"
	 xmlns="http://www.w3.org/2000/svg" xmlns:xlink="http://www.w3.org/1999/xlink" x="0px" y="0px" width="300px" height="300px"
	 viewBox="0 0 300 300" style="enable-background:new 0 0 300 300;" xml:space="preserve">
<style type="text/css">
	.st0{fill-rule:evenodd;clip-rule:evenodd;fill:#FFFFFF;}
</style>
<metadata>
	<sfw  xmlns="&ns_sfw;">
		<slices></slices>
		<sliceSourceBounds  bottomLeftOrigin="true" height="300" width="259.5361" x="125.232" y="105"></sliceSourceBounds>
	</sfw>
</metadata>
<g>
	<path class="st0" d="M43.7397,227.5545c0.016,0.0283,0.032,0.0573,0.0481,0.085l28.3571,50.1062
		c0.0136,0.0252,0.0277,0.0505,0.0425,0.0752l6.2334,11.015c0.6156,1.0981,0.2348,2.5011-0.8577,3.1185l-0.0062,0.0037
		l-13.6708,7.748c-1.098,0.615-2.5005,0.2342-3.1179-0.8577l-0.0019-0.0037l-40.2354-71.0949l-0.0012-0.0031
		c-0.6199-1.0937-0.2403-2.4919,0.8485-3.1062l0.0043-0.0025l13.6936-7.7529c1.0931-0.6162,2.4906-0.2206,3.1167,0.8682
		l0.0031,0.0056L43.7397,227.5545z M33.1067,225.2111c-3.105,0.4437-5.2493,3.3274-4.8057,6.4324
		c0.4621,3.1056,3.3459,5.2678,6.4509,4.8057c3.1056-0.4436,5.2493-3.3453,4.8057-6.4509
		C39.0955,226.8933,36.2123,224.7489,33.1067,225.2111z M78.2599,268.6562L54.682,226.9943l35.8642-20.7644
		c8.2853-4.7921,16.6168-8.5749,25.7174-5.6197l0.0019,0.0006c11.7391,3.8062,30.8792,11.9196,50.4334,15.5095
		c4.5592,1.6187,7.5009,6.1687,6.2383,10.8628l-0.0006,0.0025c-1.2459,4.6412-5.2148,6.8804-10.633,6.2808
		c-10.7427-2.2201-20.717-5.4816-31.7819-8.4554c-2.6114-0.7019-5.3017,0.8491-6.0036,3.4605s0.8485,5.3011,3.4599,6.0029
		c11.3318,3.0452,21.5433,6.3714,32.554,8.6316c0,0,6.2704,1.0247,6.2759,1.026c8.9477,1.424,17.1579,0.1614,24.9915-4.4033
		l48.7838-28.412c9.8856-5.7595,17.1449-7.483,22.3036-6.4022c5.5131,1.1553,7.5989,6.0806,7.231,10.5381
		c-0.2378,2.8881-1.4166,5.7121-3.6947,7.1152l-88.5263,54.5046l-0.0049,0.0031c-6.9469,4.2875-14.5618,5.2567-22.4454,3.1537
		L91.2363,262.821c-1.2552-0.3365-2.5929-0.1602-3.7181,0.4899L78.2599,268.6562z M225.6788,171.6819l-0.0049,5.0534
		c0,4.8174-3.9331,8.7505-8.732,8.7505v8.7505c0,4.8168-3.9516,8.7499-8.7505,8.7499h-0.2348v8.7505
		c0,4.7995-3.9332,8.7505-8.732,8.7505h-11.3663c-4.7995,0-8.7505-3.951-8.7505-8.7505v-8.7505h-0.2169
		c-4.8168,0-8.7499-3.9332-8.7499-8.7499v-8.7505c-4.8174,0-8.7505-3.9332-8.7505-8.7505v-5.0534H225.6788z M144.5825,111.5207
		c-2.8382-5.709-4.879-12.0952-4.879-21.8655c0-29.7337,24.1042-53.8379,53.8378-53.8379c29.7331,0,53.8372,24.1042,53.8372,53.8379
		c0,29.8951-19.1062,28.1094-21.6862,72.1677h-17.9299v-54.3382h7.5915c9.5842,0,17.4327-7.8484,17.4327-17.4327
		c0-9.6077-7.8503-17.4511-17.4327-17.4511c-9.6052,0-17.4505,7.8453-17.4505,17.4511v7.5736h-8.724V90.052
		c0-9.6058-7.8453-17.4511-17.4512-17.4511c-9.5824,0-17.4327,7.8435-17.4327,17.4511c0,9.5842,7.8484,17.4327,17.4327,17.4327
		h7.5921v54.3382h-17.9299c-0.2834-4.8352-0.7653-9.119-1.4-12.9529l7.968-7.4165c2.0039-1.8658,3.142-4.4803,3.142-7.2181
		c-0.0006-2.7383-1.14-5.3528-3.1444-7.2174l-13.8218-12.8568c-1.8239-1.697-4.2234-2.6404-6.7146-2.6404H144.5825z
		 M197.9033,161.8229h-8.724v-54.3382h8.724V161.8229z M179.3203,97.6256h-7.5921c-4.1636,0-7.5736-3.41-7.5736-7.5736
		c0-4.1772,3.4082-7.5921,7.5736-7.5921c4.179,0,7.5921,3.4131,7.5921,7.5921V97.6256z M207.7624,97.6256V90.052
		c0-4.179,3.4131-7.5921,7.5915-7.5921c4.1661,0,7.5736,3.4149,7.5736,7.5921c0,4.1636-3.41,7.5736-7.5736,7.5736H207.7624z
		 M198.4708,17.6132c0,2.7205-2.209,4.9295-4.9295,4.9295c-2.7211,0-4.9295-2.209-4.9295-4.9295V4.9295
		c0-2.7205,2.2084-4.9295,4.9295-4.9295c2.7205,0,4.9295,2.209,4.9295,4.9295V17.6132z M157.1996,26.031
		c1.3587,2.3569,0.5478,5.3738-1.8098,6.7325c-2.3569,1.3587-5.3738,0.5478-6.7325-1.8098l-6.3326-10.9873
		c-1.3587-2.3569-0.5478-5.3738,1.8091-6.7325c2.3576-1.3587,5.3744-0.5478,6.7325,1.8091L157.1996,26.031z M125.6802,53.958
		c2.3557,1.3612,3.1623,4.3793,1.8011,6.7344c-1.3618,2.3557-4.3793,3.1629-6.735,1.8011L109.759,56.143
		c-2.3557-1.3618-3.1629-4.3793-1.8011-6.735c1.3612-2.3557,4.3793-3.1623,6.7344-1.8011L125.6802,53.958z M238.4037,30.9593
		c-1.3618,2.3557-4.3793,3.1623-6.735,1.8011c-2.3557-1.3618-3.1623-4.3793-1.8011-6.735l6.3511-10.9873
		c1.3612-2.3557,4.3793-3.1629,6.7343-1.8011c2.3557,1.3612,3.1629,4.3793,1.8011,6.7344L238.4037,30.9593z M266.3387,62.4916
		c-2.3545,1.3636-5.3726,0.5583-6.7362-1.7962c-1.363-2.3545-0.5583-5.3726,1.7968-6.7356l10.9694-6.3511
		c2.3545-1.363,5.3726-0.5583,6.7356,1.7962c1.3636,2.3545,0.5583,5.3732-1.7962,6.7362L266.3387,62.4916z M161.2412,134.2366
		l-13.8218,12.8661h-4.7786l-7.0326-7.7628l-7.0326,7.7628l-7.024-7.7628l-7.0326,7.7628H89.3643
		c-4.5894,8.5114-13.5784,14.2999-23.9286,14.2999c-14.9938,0-27.1568-12.163-27.1568-27.166
		c0-14.9938,12.163-27.1562,27.1568-27.1562c10.3502,0,19.3392,5.7879,23.9286,14.2993h58.0551L161.2412,134.2366z
		 M58.8721,126.1676c-4.4631,0-8.0789,3.6152-8.0789,8.069c0,4.4631,3.6158,8.0789,8.0789,8.0789
		c4.4538,0,8.069-3.6158,8.069-8.0789C66.9411,129.7828,63.326,126.1676,58.8721,126.1676L58.8721,126.1676z"/>
</g>
</svg>
