<?xml version="1.0" encoding="utf-8"?>
<!-- Generator: Adobe Illustrator 23.0.0, SVG Export Plug-In . SVG Version: 6.00 Build 0)  -->
<svg version="1.1" id="Layer_1" xmlns="http://www.w3.org/2000/svg" xmlns:xlink="http://www.w3.org/1999/xlink" x="0px" y="0px" 
	 viewBox="0 0 317.2 50.5" style="enable-background:new 0 0 317.2 50.5;" xml:space="preserve">
<style type="text/css">
	.st0{fill:#652467;}
	.st1{fill:url(#SVGID_1_);}
	.st2{opacity:0.5;fill:url(#SVGID_2_);enable-background:new    ;}
	.st3{fill:url(#SVGID_3_);}
	.st4{fill:#1E4687;}
	.st5{fill:url(#SVGID_4_);}
	.st6{fill:url(#SVGID_5_);}
	.st7{opacity:0.5;fill:url(#SVGID_6_);enable-background:new    ;}
	.st8{fill:#642667;}
	.st9{opacity:0.5;fill:url(#SVGID_7_);enable-background:new    ;}
	.st10{fill:#194888;}
	.st11{fill:url(#SVGID_8_);}
	.st12{fill:url(#SVGID_9_);}
	.st13{opacity:0.5;fill:url(#SVGID_10_);enable-background:new    ;}
	.st14{fill:url(#SVGID_11_);}
	.st15{fill:url(#SVGID_12_);}
	.st16{fill:url(#SVGID_13_);}
	.st17{opacity:0.5;fill:url(#SVGID_14_);enable-background:new    ;}
	.st18{fill:url(#SVGID_15_);}
	.st19{opacity:0.5;fill:url(#SVGID_16_);enable-background:new    ;}
	.st20{fill:url(#SVGID_17_);}
	.st21{fill:url(#SVGID_18_);}
	.st22{fill:url(#SVGID_19_);}
	.st23{fill:url(#SVGID_20_);}
	.st24{opacity:0.5;fill:url(#SVGID_21_);enable-background:new    ;}
</style>
<g>
	<path d="M168.3,11.6c-0.9-0.9-1.3-2.1-1.3-3.8V2.4c0-0.5,0.1-0.8,0.4-1.1c0.3-0.3,0.6-0.4,1.1-0.4s0.8,0.1,1.1,0.4s0.4,0.6,0.4,1.1
		v5.5c0,0.8,0.2,1.5,0.6,1.9c0.4,0.5,0.9,0.7,1.6,0.7c0.7,0,1.3-0.2,1.6-0.7c0.4-0.5,0.6-1.1,0.6-1.9V2.4c0-0.5,0.1-0.8,0.4-1.1
		c0.3-0.3,0.6-0.4,1.1-0.4s0.8,0.1,1.1,0.4s0.4,0.6,0.4,1.1v5.4c0,1.6-0.4,2.9-1.3,3.8s-2.2,1.3-3.9,1.3
		C170.5,12.9,169.2,12.5,168.3,11.6L168.3,11.6z"/>
	<path d="M189.5,1.4c0.3,0.3,0.4,0.6,0.4,1.1v8.9c0,0.5-0.1,0.8-0.4,1.1c-0.3,0.3-0.6,0.4-1,0.4c-0.5,0-0.9-0.2-1.1-0.5l-5.1-6.3
		v5.3c0,0.5-0.1,0.8-0.4,1.1c-0.3,0.3-0.6,0.4-1,0.4s-0.8-0.1-1-0.4c-0.3-0.3-0.4-0.6-0.4-1.1V2.5c0-0.4,0.1-0.8,0.4-1.1
		c0.3-0.3,0.6-0.4,1-0.4c0.5,0,0.9,0.2,1.1,0.5l5.1,6.3V2.5c0-0.5,0.1-0.8,0.4-1.1c0.3-0.3,0.6-0.4,1-0.4S189.2,1.1,189.5,1.4
		L189.5,1.4z"/>
	<path d="M192.4,12.4c-0.3-0.3-0.4-0.6-0.4-1.1V2.4c0-0.5,0.1-0.8,0.4-1.1c0.3-0.3,0.6-0.4,1.1-0.4s0.9,0.1,1.1,0.4
		c0.3,0.3,0.4,0.6,0.4,1.1v8.9c0,0.5-0.1,0.8-0.4,1.1c-0.3,0.3-0.7,0.4-1.1,0.4S192.7,12.7,192.4,12.4z"/>
	<path d="M200.3,12.4c-0.3-0.3-0.4-0.6-0.4-1.1V3.5h-2.3c-0.5,0-0.9-0.1-1.1-0.3c-0.2-0.2-0.4-0.5-0.4-0.9s0.1-0.7,0.4-0.9
		c0.2-0.2,0.6-0.3,1.1-0.3h7.8c0.5,0,0.9,0.1,1.1,0.3c0.2,0.2,0.4,0.5,0.4,0.9s-0.1,0.7-0.4,0.9c-0.2,0.2-0.6,0.3-1.1,0.3h-2.3v7.8
		c0,0.5-0.1,0.8-0.4,1.1c-0.3,0.3-0.7,0.4-1.1,0.4C200.9,12.8,200.6,12.7,200.3,12.4z"/>
	<path d="M208.1,12.4c-0.2-0.2-0.4-0.6-0.4-1.1V2.4c0-0.5,0.1-0.8,0.4-1.1c0.2-0.2,0.6-0.4,1.1-0.4h5.8c0.5,0,0.8,0.1,1.1,0.3
		c0.2,0.2,0.4,0.5,0.4,0.9c0,0.8-0.5,1.2-1.4,1.2h-4.2v2.2h3.9c1,0,1.4,0.4,1.4,1.2c0,0.4-0.1,0.7-0.4,0.9s-0.8,0.3-1.2,0.3h-3.9
		v2.4h4.2c1,0,1.4,0.4,1.4,1.2c0,0.4-0.1,0.7-0.4,0.9c-0.2,0.2-0.6,0.3-1.1,0.3H209C208.7,12.7,208.3,12.6,208.1,12.4L208.1,12.4z"
		/>
	<path d="M218,12.4c-0.2-0.2-0.4-0.6-0.4-1.1V2.4c0-0.5,0.1-0.8,0.4-1.1c0.2-0.2,0.6-0.4,1.1-0.4h3.4c1.3,0,2.4,0.2,3.4,0.7
		c0.9,0.5,1.7,1.1,2.2,2s0.7,1.9,0.7,3.1s-0.2,2.3-0.7,3.2s-1.2,1.6-2.1,2c-0.9,0.5-2.1,0.7-3.4,0.7h-3.4
		C218.6,12.7,218.3,12.6,218,12.4L218,12.4z M222.2,10.3c1.1,0,2-0.3,2.6-0.8c0.6-0.6,0.9-1.4,0.9-2.6c0-1.2-0.3-2-0.9-2.6
		s-1.4-0.8-2.6-0.8h-1.5v6.8L222.2,10.3L222.2,10.3z"/>
	<path d="M167.3,30.3c-0.2-0.2-0.4-0.6-0.4-1v-8.9c0-0.5,0.1-0.8,0.4-1c0.2-0.2,0.6-0.4,1-0.4h3.3c1.3,0,2.4,0.2,3.3,0.7
		c0.9,0.5,1.6,1.1,2.1,2s0.7,1.9,0.7,3.1s-0.2,2.3-0.7,3.1c-0.5,0.9-1.2,1.5-2.1,2c-0.9,0.5-2,0.7-3.3,0.7h-3.3
		C167.9,30.7,167.6,30.6,167.3,30.3L167.3,30.3z M171.5,28.3c1.1,0,2-0.3,2.6-0.8c0.6-0.6,0.9-1.4,0.9-2.6c0-1.1-0.3-2-0.9-2.6
		s-1.4-0.8-2.6-0.8H170v6.8C170,28.3,171.5,28.3,171.5,28.3z"/>
	<path d="M180.2,30.4c-0.3-0.3-0.4-0.6-0.4-1.1v-8.9c0-0.5,0.1-0.8,0.4-1.1c0.3-0.3,0.6-0.4,1.1-0.4s0.8,0.1,1.1,0.4
		c0.3,0.3,0.4,0.6,0.4,1.1v8.9c0,0.5-0.1,0.8-0.4,1.1c-0.3,0.3-0.7,0.4-1.1,0.4S180.4,30.7,180.2,30.4z"/>
	<path d="M186.9,30.6c-0.8-0.2-1.4-0.5-1.9-0.8c-0.2-0.1-0.3-0.3-0.4-0.4c-0.1-0.2-0.1-0.4-0.1-0.6c0-0.3,0.1-0.6,0.3-0.9
		c0.2-0.2,0.4-0.4,0.7-0.4c0.1,0,0.3,0,0.4,0.1c0.1,0,0.3,0.1,0.5,0.2c0.5,0.2,0.9,0.4,1.4,0.5c0.4,0.1,1,0.2,1.5,0.2
		c0.7,0,1.1-0.1,1.5-0.3c0.3-0.2,0.5-0.5,0.5-0.9c0-0.2-0.2-0.5-0.5-0.7s-0.9-0.4-1.8-0.5c-1.1-0.2-1.9-0.5-2.6-0.8
		c-0.6-0.3-1.1-0.7-1.3-1.1c-0.2-0.4-0.4-1-0.4-1.6c0-0.7,0.2-1.4,0.6-1.9c0.4-0.6,1-1,1.7-1.4c0.7-0.3,1.6-0.5,2.5-0.5
		c0.8,0,1.5,0.1,2.2,0.3s1.2,0.5,1.7,0.8c0.2,0.1,0.3,0.3,0.4,0.5c0.1,0.2,0.1,0.4,0.1,0.6c0,0.3-0.1,0.6-0.3,0.9
		c-0.2,0.2-0.4,0.4-0.7,0.4c-0.1,0-0.3,0-0.4-0.1s-0.3-0.1-0.5-0.3c0,0-0.2-0.1-0.5-0.3c-0.3-0.1-0.6-0.2-0.9-0.3
		c-0.3-0.1-0.7-0.1-1.1-0.1c-0.6,0-1,0.1-1.4,0.3s-0.5,0.5-0.5,0.9c0,0.2,0.1,0.4,0.2,0.5c0.1,0.1,0.3,0.3,0.7,0.4
		c0.3,0.1,0.8,0.3,1.5,0.4c1.1,0.2,1.9,0.5,2.5,0.8s1,0.7,1.3,1.1c0.2,0.4,0.4,0.9,0.4,1.5c0,0.7-0.2,1.4-0.6,1.9
		c-0.4,0.6-1,1-1.7,1.3s-1.6,0.5-2.6,0.5C188.5,30.8,187.7,30.7,186.9,30.6L186.9,30.6z"/>
	<path d="M196.3,30.4c-0.3-0.3-0.4-0.6-0.4-1.1v-8.9c0-0.5,0.1-0.8,0.4-1.1c0.3-0.3,0.6-0.4,1.1-0.4s0.8,0.1,1.1,0.4
		c0.3,0.3,0.4,0.6,0.4,1.1v8.9c0,0.5-0.1,0.8-0.4,1.1c-0.3,0.3-0.7,0.4-1.1,0.4C196.9,30.8,196.6,30.7,196.3,30.4z"/>
	<path d="M211.1,19.4c0.3,0.3,0.4,0.6,0.4,1.1v8.9c0,0.5-0.1,0.8-0.4,1.1c-0.3,0.3-0.6,0.4-1,0.4c-0.5,0-0.9-0.2-1.1-0.5l-5-6.3v5.3
		c0,0.5-0.1,0.8-0.4,1.1c-0.2,0.3-0.6,0.4-1,0.4s-0.8-0.1-1-0.4c-0.3-0.3-0.4-0.6-0.4-1.1v-8.9c0-0.4,0.1-0.8,0.4-1.1
		c0.3-0.3,0.6-0.4,1-0.4c0.5,0,0.8,0.2,1.1,0.5l5,6.3v-5.3c0-0.5,0.1-0.8,0.4-1.1c0.3-0.3,0.6-0.4,1-0.4
		C210.5,18.9,210.8,19.1,211.1,19.4L211.1,19.4z"/>
	<path d="M214,30.4c-0.3-0.3-0.4-0.6-0.4-1.1v-8.9c0-0.5,0.1-0.8,0.4-1c0.2-0.2,0.6-0.4,1-0.4h5.6c0.5,0,0.9,0.1,1.1,0.3
		c0.2,0.2,0.3,0.5,0.3,0.9s-0.1,0.7-0.4,0.9c-0.2,0.2-0.6,0.3-1.1,0.3h-4v2.2h3.6c0.5,0,0.8,0.1,1.1,0.3c0.2,0.2,0.4,0.5,0.4,0.9
		s-0.1,0.7-0.4,0.9c-0.2,0.2-0.6,0.3-1.1,0.3h-3.5v3.3c0,0.5-0.1,0.8-0.4,1.1c-0.3,0.3-0.6,0.4-1.1,0.4S214.3,30.7,214,30.4
		L214,30.4z"/>
	<path d="M223.5,30.3c-0.2-0.2-0.4-0.6-0.4-1v-8.9c0-0.5,0.1-0.8,0.4-1c0.2-0.2,0.6-0.4,1-0.4h5.7c0.5,0,0.8,0.1,1.1,0.3
		c0.2,0.2,0.4,0.5,0.4,0.9c0,0.8-0.5,1.2-1.4,1.2h-4.2v2.2h3.8c1,0,1.4,0.4,1.4,1.2c0,0.4-0.1,0.7-0.4,0.9c-0.2,0.2-0.6,0.3-1.1,0.3
		H226v2.4h4.2c1,0,1.4,0.4,1.4,1.2c0,0.4-0.1,0.7-0.4,0.9c-0.2,0.2-0.6,0.3-1.1,0.3h-5.5C224.1,30.7,223.8,30.6,223.5,30.3
		L223.5,30.3z"/>
	<path d="M235.5,30.1c-0.9-0.5-1.6-1.2-2-2.1c-0.5-0.9-0.7-2-0.7-3.2s0.2-2.3,0.7-3.2s1.2-1.6,2-2.1c0.9-0.5,1.9-0.7,3.1-0.7
		c1.4,0,2.6,0.4,3.7,1.1c0.2,0.1,0.3,0.3,0.4,0.4c0.1,0.2,0.1,0.4,0.1,0.6c0,0.3-0.1,0.6-0.3,0.9c-0.2,0.2-0.4,0.4-0.7,0.4
		c-0.2,0-0.3,0-0.4-0.1s-0.3-0.1-0.5-0.2c-0.4-0.2-0.8-0.4-1.1-0.5c-0.3-0.1-0.7-0.1-1.1-0.1c-1,0-1.7,0.3-2.2,0.9
		c-0.5,0.6-0.7,1.5-0.7,2.7s0.2,2.1,0.7,2.7c0.5,0.6,1.2,0.9,2.2,0.9c0.3,0,0.7,0,1-0.2c0.3-0.1,0.7-0.3,1.2-0.5
		c0.2-0.1,0.4-0.2,0.5-0.2s0.2-0.1,0.4-0.1c0.3,0,0.5,0.1,0.7,0.4c0.2,0.2,0.3,0.5,0.3,0.9c0,0.2,0,0.4-0.1,0.6
		c-0.1,0.2-0.2,0.3-0.4,0.4c-1.1,0.7-2.3,1.1-3.7,1.1C237.4,30.9,236.4,30.6,235.5,30.1L235.5,30.1z"/>
	<path d="M247.2,30.4c-0.3-0.3-0.4-0.6-0.4-1.1v-7.8h-2.3c-0.5,0-0.8-0.1-1.1-0.3c-0.2-0.2-0.4-0.5-0.4-0.9s0.1-0.7,0.4-0.9
		c0.2-0.2,0.6-0.3,1.1-0.3h7.7c0.5,0,0.8,0.1,1.1,0.3c0.2,0.2,0.4,0.5,0.4,0.9s-0.1,0.7-0.4,0.9c-0.2,0.2-0.6,0.3-1.1,0.3h-2.3v7.8
		c0,0.5-0.1,0.8-0.4,1.1s-0.7,0.4-1.1,0.4C247.8,30.8,247.5,30.7,247.2,30.4L247.2,30.4z"/>
	<path d="M264.4,29.5c0,0.4-0.1,0.7-0.4,0.9c-0.3,0.3-0.6,0.4-1,0.4c-0.2,0-0.5-0.1-0.7-0.2c-0.2-0.1-0.4-0.3-0.5-0.6l-0.7-1.7h-5.5
		l-0.8,1.7c-0.1,0.3-0.3,0.5-0.5,0.6s-0.4,0.2-0.7,0.2c-0.4,0-0.7-0.1-1-0.4c-0.3-0.2-0.5-0.6-0.5-0.9c0-0.2,0-0.4,0.1-0.6l4.4-9
		c0.1-0.3,0.4-0.5,0.6-0.7c0.3-0.2,0.6-0.2,0.9-0.2s0.6,0.1,0.9,0.2c0.3,0.2,0.5,0.4,0.6,0.7l4.4,9
		C264.3,29.1,264.4,29.3,264.4,29.5L264.4,29.5z M260,26l-1.7-3.7l-1.7,3.7H260L260,26z"/>
	<path d="M275.6,19.4c0.3,0.3,0.4,0.6,0.4,1.1v8.9c0,0.5-0.1,0.8-0.4,1.1s-0.6,0.4-1,0.4c-0.5,0-0.9-0.2-1.1-0.5l-5-6.3v5.3
		c0,0.5-0.1,0.8-0.4,1.1c-0.2,0.3-0.6,0.4-1,0.4s-0.8-0.1-1-0.4c-0.3-0.3-0.4-0.6-0.4-1.1v-8.9c0-0.4,0.1-0.8,0.4-1.1s0.6-0.4,1-0.4
		c0.5,0,0.8,0.2,1.1,0.5l5,6.3v-5.3c0-0.5,0.1-0.8,0.4-1.1s0.6-0.4,1-0.4S275.4,19.1,275.6,19.4L275.6,19.4z"/>
	<path d="M281.2,30.4c-0.3-0.3-0.4-0.6-0.4-1.1v-7.8h-2.3c-0.5,0-0.8-0.1-1.1-0.3c-0.2-0.2-0.4-0.5-0.4-0.9s0.1-0.7,0.4-0.9
		c0.2-0.2,0.6-0.3,1.1-0.3h7.7c0.5,0,0.8,0.1,1.1,0.3c0.2,0.2,0.4,0.5,0.4,0.9s-0.1,0.7-0.4,0.9c-0.2,0.2-0.6,0.3-1.1,0.3h-2.3v7.8
		c0,0.5-0.1,0.8-0.4,1.1s-0.7,0.4-1.1,0.4S281.5,30.7,281.2,30.4L281.2,30.4z"/>
	<path d="M178.3,37.3c0.3,0.3,0.4,0.6,0.4,1.1v9c0,0.4-0.1,0.8-0.4,1c-0.2,0.2-0.6,0.4-1,0.4s-0.7-0.1-1-0.4c-0.2-0.2-0.4-0.6-0.4-1
		v-4.9L174,46c-0.2,0.3-0.4,0.6-0.6,0.8c-0.2,0.1-0.5,0.2-0.7,0.2s-0.5-0.1-0.7-0.2s-0.4-0.4-0.6-0.8l-1.9-3.4v4.8
		c0,0.4-0.1,0.7-0.4,1c-0.2,0.2-0.6,0.4-1,0.4s-0.7-0.1-1-0.4c-0.2-0.2-0.4-0.6-0.4-1v-9c0-0.4,0.1-0.8,0.4-1.1
		c0.3-0.3,0.6-0.4,1-0.4c0.3,0,0.6,0.1,0.8,0.3s0.4,0.4,0.6,0.7l3,5.7l3-5.7c0.3-0.7,0.8-1,1.4-1C177.7,36.9,178,37.1,178.3,37.3
		L178.3,37.3z"/>
	<path d="M192.2,47.4c0,0.4-0.1,0.7-0.4,0.9c-0.3,0.3-0.6,0.4-1,0.4c-0.2,0-0.5-0.1-0.7-0.2s-0.4-0.3-0.5-0.6l-0.7-1.7h-5.4
		l-0.8,1.7c-0.1,0.3-0.3,0.5-0.5,0.6s-0.4,0.2-0.7,0.2c-0.4,0-0.7-0.1-1-0.4c-0.3-0.2-0.5-0.6-0.5-0.9c0-0.2,0-0.4,0.1-0.6l4.4-9
		c0.1-0.3,0.4-0.5,0.6-0.7c0.3-0.2,0.6-0.2,0.9-0.2c0.3,0,0.6,0.1,0.9,0.2c0.3,0.2,0.5,0.4,0.6,0.7l4.4,9
		C192.1,47,192.2,47.2,192.2,47.4L192.2,47.4z M187.8,44l-1.7-3.7l-1.7,3.7H187.8L187.8,44z"/>
	<path d="M203.5,37.3c0.3,0.3,0.4,0.6,0.4,1.1v8.9c0,0.5-0.1,0.8-0.4,1.1s-0.6,0.4-1,0.4c-0.5,0-0.9-0.2-1.1-0.5l-5-6.3v5.3
		c0,0.5-0.1,0.8-0.4,1.1c-0.2,0.3-0.6,0.4-1,0.4s-0.8-0.1-1-0.4c-0.3-0.3-0.4-0.6-0.4-1.1v-8.9c0-0.4,0.1-0.8,0.4-1.1
		c0.3-0.3,0.6-0.4,1-0.4c0.5,0,0.8,0.2,1.1,0.5l5,6.3v-5.3c0-0.5,0.1-0.8,0.4-1.1c0.3-0.3,0.6-0.4,1-0.4
		C202.8,36.9,203.2,37,203.5,37.3L203.5,37.3z"/>
	<path d="M207.2,47.5c-0.9-0.9-1.3-2.1-1.3-3.8v-5.3c0-0.5,0.1-0.8,0.4-1.1c0.3-0.3,0.6-0.4,1.1-0.4s0.8,0.1,1.1,0.4
		s0.4,0.6,0.4,1.1v5.5c0,0.8,0.2,1.5,0.6,1.9c0.4,0.5,0.9,0.7,1.6,0.7c0.7,0,1.3-0.2,1.6-0.7c0.4-0.5,0.6-1.1,0.6-1.9v-5.5
		c0-0.5,0.1-0.8,0.4-1.1s0.6-0.4,1.1-0.4s0.8,0.1,1.1,0.4c0.3,0.3,0.4,0.6,0.4,1.1v5.3c0,1.6-0.4,2.9-1.3,3.8
		c-0.9,0.9-2.2,1.3-3.9,1.3C209.4,48.8,208.1,48.4,207.2,47.5L207.2,47.5z"/>
	<path d="M218.7,48.3c-0.3-0.3-0.4-0.6-0.4-1.1v-8.9c0-0.5,0.1-0.8,0.4-1c0.2-0.2,0.6-0.4,1-0.4h5.6c0.5,0,0.9,0.1,1.1,0.3
		c0.2,0.2,0.3,0.5,0.3,0.9s-0.1,0.7-0.4,0.9c-0.2,0.2-0.6,0.3-1.1,0.3h-4v2.2h3.6c0.5,0,0.8,0.1,1.1,0.3c0.2,0.2,0.4,0.5,0.4,0.9
		s-0.1,0.7-0.4,0.9c-0.2,0.2-0.6,0.3-1.1,0.3h-3.6v3.3c0,0.5-0.1,0.8-0.4,1.1c-0.3,0.3-0.6,0.4-1.1,0.4S219,48.6,218.7,48.3
		L218.7,48.3z"/>
	<path d="M238.3,47.4c0,0.4-0.1,0.7-0.4,0.9c-0.3,0.3-0.6,0.4-1,0.4c-0.2,0-0.5-0.1-0.7-0.2s-0.4-0.3-0.5-0.6l-0.7-1.7h-5.4
		l-0.8,1.7c-0.1,0.3-0.3,0.5-0.5,0.6s-0.4,0.2-0.7,0.2c-0.4,0-0.7-0.1-1-0.4c-0.3-0.2-0.5-0.6-0.5-0.9c0-0.2,0-0.4,0.1-0.6l4.4-9
		c0.1-0.3,0.4-0.5,0.6-0.7c0.3-0.2,0.6-0.2,0.9-0.2s0.6,0.1,0.9,0.2c0.3,0.2,0.5,0.4,0.6,0.7l4.4,9C238.3,47,238.3,47.2,238.3,47.4
		L238.3,47.4z M233.9,44l-1.7-3.7l-1.7,3.7H233.9L233.9,44z"/>
	<path d="M241.7,48.1c-0.9-0.5-1.6-1.2-2-2.1c-0.5-0.9-0.7-2-0.7-3.2s0.2-2.3,0.7-3.2c0.5-0.9,1.2-1.6,2-2.1
		c0.9-0.5,1.9-0.7,3.1-0.7c1.4,0,2.6,0.4,3.7,1.1c0.2,0.1,0.3,0.3,0.4,0.4c0.1,0.2,0.1,0.4,0.1,0.6c0,0.3-0.1,0.6-0.3,0.9
		c-0.2,0.2-0.4,0.4-0.7,0.4c-0.2,0-0.3,0-0.4-0.1s-0.3-0.1-0.5-0.2c-0.4-0.2-0.8-0.4-1.1-0.5c-0.3-0.1-0.7-0.1-1.1-0.1
		c-1,0-1.7,0.3-2.2,0.9s-0.7,1.5-0.7,2.7s0.2,2.1,0.7,2.7s1.2,0.9,2.2,0.9c0.3,0,0.7,0,1-0.2c0.3-0.1,0.7-0.3,1.2-0.5
		c0.2-0.1,0.4-0.2,0.5-0.2s0.2-0.1,0.4-0.1c0.3,0,0.5,0.1,0.7,0.4c0.2,0.2,0.3,0.5,0.3,0.9c0,0.2,0,0.4-0.1,0.6s-0.2,0.3-0.4,0.4
		c-1.1,0.7-2.3,1.1-3.7,1.1C243.6,48.8,242.6,48.6,241.7,48.1L241.7,48.1z"/>
	<path d="M253.4,48.3c-0.3-0.3-0.4-0.6-0.4-1.1v-7.8h-2.4c-0.5,0-0.8-0.1-1.1-0.3c-0.2-0.2-0.4-0.5-0.4-0.9s0.1-0.7,0.4-0.9
		c0.2-0.2,0.6-0.3,1.1-0.3h7.7c0.5,0,0.8,0.1,1.1,0.3s0.4,0.5,0.4,0.9s-0.1,0.7-0.4,0.9c-0.3,0.2-0.6,0.3-1.1,0.3H256v7.8
		c0,0.5-0.1,0.8-0.4,1.1s-0.7,0.4-1.1,0.4S253.7,48.6,253.4,48.3L253.4,48.3z"/>
	<path d="M262,47.5c-0.9-0.9-1.3-2.1-1.3-3.8v-5.3c0-0.5,0.1-0.8,0.4-1.1s0.6-0.4,1.1-0.4s0.8,0.1,1.1,0.4c0.3,0.3,0.4,0.6,0.4,1.1
		v5.5c0,0.8,0.2,1.5,0.6,1.9c0.4,0.5,0.9,0.7,1.6,0.7s1.3-0.2,1.6-0.7s0.6-1.1,0.6-1.9v-5.5c0-0.5,0.1-0.8,0.4-1.1s0.6-0.4,1.1-0.4
		s0.8,0.1,1.1,0.4c0.3,0.3,0.4,0.6,0.4,1.1v5.3c0,1.6-0.4,2.9-1.3,3.8s-2.2,1.3-3.9,1.3S262.9,48.4,262,47.5L262,47.5z"/>
	<path d="M283.2,47.6c0,0.3-0.1,0.6-0.4,0.9c-0.3,0.2-0.6,0.4-1,0.4c-0.3,0-0.5-0.1-0.7-0.2s-0.4-0.3-0.6-0.5l-2.2-3.1
		c-0.2-0.2-0.3-0.4-0.5-0.5s-0.4-0.2-0.6-0.2h-1.1v3c0,0.5-0.1,0.8-0.4,1.1c-0.3,0.3-0.6,0.4-1.1,0.4s-0.8-0.1-1.1-0.4
		c-0.3-0.3-0.4-0.6-0.4-1.1v-8.9c0-0.5,0.1-0.8,0.4-1c0.2-0.2,0.6-0.4,1-0.4h4.1c1.4,0,2.5,0.3,3.2,0.9s1.1,1.5,1.1,2.7
		c0,0.9-0.2,1.6-0.7,2.2s-1.2,1-2.1,1.2c0.4,0,0.7,0.2,1,0.4c0.3,0.2,0.5,0.5,0.8,0.8l1,1.5C283.1,47,283.2,47.3,283.2,47.6
		L283.2,47.6z M279.6,41.7c0.3-0.2,0.4-0.6,0.4-1s-0.1-0.8-0.4-1.1c-0.3-0.2-0.8-0.3-1.4-0.3h-2.1V42h2.1
		C278.9,42,279.3,41.9,279.6,41.7z"/>
	<path d="M285.2,48.3c-0.2-0.2-0.4-0.6-0.4-1v-8.9c0-0.5,0.1-0.8,0.4-1c0.2-0.2,0.6-0.4,1-0.4h5.7c0.5,0,0.8,0.1,1.1,0.3
		s0.4,0.5,0.4,0.9c0,0.8-0.5,1.2-1.4,1.2h-4.2v2.2h3.8c1,0,1.4,0.4,1.4,1.2c0,0.4-0.1,0.7-0.4,0.9c-0.2,0.2-0.6,0.3-1.1,0.3h-3.8
		v2.4h4.2c1,0,1.4,0.4,1.4,1.2c0,0.4-0.1,0.7-0.4,0.9c-0.2,0.2-0.6,0.3-1.1,0.3h-5.7C285.8,48.6,285.4,48.5,285.2,48.3L285.2,48.3z"
		/>
	<path d="M304.8,47.6c0,0.3-0.1,0.6-0.4,0.9c-0.3,0.2-0.6,0.4-1,0.4c-0.3,0-0.5-0.1-0.7-0.2s-0.4-0.3-0.6-0.5l-2.2-3.1
		c-0.2-0.2-0.3-0.4-0.5-0.5s-0.4-0.2-0.6-0.2h-1.1v3c0,0.5-0.1,0.8-0.4,1.1c-0.3,0.3-0.6,0.4-1.1,0.4s-0.8-0.1-1.1-0.4
		c-0.3-0.3-0.4-0.6-0.4-1.1v-8.9c0-0.5,0.1-0.8,0.4-1c0.2-0.2,0.6-0.4,1-0.4h4.1c1.4,0,2.5,0.3,3.2,0.9c0.7,0.6,1.1,1.5,1.1,2.7
		c0,0.9-0.2,1.6-0.7,2.2s-1.2,1-2.1,1.2c0.4,0,0.7,0.2,1,0.4c0.3,0.2,0.5,0.5,0.8,0.8l1,1.5C304.7,47,304.8,47.3,304.8,47.6
		L304.8,47.6z M301.2,41.7c0.3-0.2,0.4-0.6,0.4-1s-0.1-0.8-0.4-1.1c-0.3-0.2-0.8-0.3-1.4-0.3h-2.2V42h2.1
		C300.4,42,300.9,41.9,301.2,41.7z"/>
	<path d="M308.2,48.5c-0.8-0.2-1.4-0.5-1.9-0.8c-0.2-0.1-0.3-0.3-0.4-0.4c-0.1-0.2-0.1-0.4-0.1-0.6c0-0.3,0.1-0.6,0.3-0.9
		c0.2-0.2,0.4-0.4,0.7-0.4c0.1,0,0.3,0,0.4,0.1s0.3,0.1,0.5,0.2c0.5,0.3,0.9,0.4,1.4,0.5c0.4,0.1,1,0.2,1.5,0.2
		c0.7,0,1.1-0.1,1.5-0.3c0.3-0.2,0.5-0.5,0.5-0.9c0-0.2-0.2-0.5-0.5-0.7s-0.9-0.4-1.8-0.5c-1.1-0.2-1.9-0.5-2.6-0.8
		c-0.6-0.3-1.1-0.7-1.3-1.1c-0.2-0.4-0.4-1-0.4-1.6c0-0.7,0.2-1.4,0.6-1.9c0.4-0.6,1-1,1.7-1.4c0.7-0.3,1.6-0.5,2.5-0.5
		c0.8,0,1.5,0.1,2.2,0.3s1.2,0.5,1.7,0.8c0.2,0.1,0.3,0.3,0.4,0.5s0.1,0.4,0.1,0.6c0,0.3-0.1,0.6-0.3,0.9c-0.2,0.2-0.4,0.4-0.7,0.4
		c-0.1,0-0.3,0-0.4-0.1c-0.1,0-0.3-0.1-0.5-0.3c0,0-0.2-0.1-0.5-0.3c-0.3-0.1-0.6-0.2-0.9-0.3s-0.7-0.1-1.1-0.1
		c-0.6,0-1,0.1-1.4,0.3c-0.3,0.2-0.5,0.5-0.5,0.9c0,0.2,0.1,0.4,0.2,0.5s0.3,0.3,0.7,0.4c0.3,0.1,0.8,0.3,1.5,0.4
		c1.1,0.2,1.9,0.5,2.5,0.8s1,0.7,1.3,1.1s0.4,0.9,0.4,1.5c0,0.7-0.2,1.4-0.6,1.9s-1,1-1.7,1.3s-1.6,0.5-2.6,0.5
		C309.9,48.8,309,48.7,308.2,48.5L308.2,48.5z"/>
	<path class="st0" d="M36.8,44.8c-2.4-4.8-7.3-7.7-12.6-7.7h-0.1c-4.7,0-8.4-3.4-8.4-8.8V11.2C15.7,5.6,11.1,1,5.5,1H1.6v27.3
		c0,12.5,8.8,20.6,22.4,20.6c5.2,0,9.6-1.2,13.1-3.4C37,45.3,36.9,45.1,36.8,44.8L36.8,44.8z"/>
	
		<linearGradient id="SVGID_1_" gradientUnits="userSpaceOnUse" x1="32.1394" y1="943.4805" x2="8.2429" y2="923.511" gradientTransform="matrix(1 0 0 1 0 -901.5239)">
		<stop  offset="0.12" style="stop-color:#C6187F;stop-opacity:0.6"/>
		<stop  offset="1" style="stop-color:#C6187F;stop-opacity:0"/>
	</linearGradient>
	<path class="st1" d="M36.8,44.8c-2.4-4.8-7.3-7.7-12.6-7.7h-0.1c-4.7,0-8.4-3.4-8.4-8.8V11.2C15.7,5.6,11.1,1,5.5,1H1.6v27.3
		c0,12.5,8.8,20.6,22.4,20.6c5.2,0,9.6-1.2,13.1-3.4C37,45.3,36.9,45.1,36.8,44.8L36.8,44.8z"/>
	
		<linearGradient id="SVGID_2_" gradientUnits="userSpaceOnUse" x1="8.5116" y1="901.0046" x2="8.5983" y2="923.0428" gradientTransform="matrix(1 0 0 1 0 -901.5239)">
		<stop  offset="0" style="stop-color:#000000;stop-opacity:0.4"/>
		<stop  offset="1" style="stop-color:#000000;stop-opacity:0"/>
	</linearGradient>
	<path class="st2" d="M15.6,11.2v15.6h-14V1h3.8C11.1,1,15.6,5.6,15.6,11.2z"/>
	
		<linearGradient id="SVGID_3_" gradientUnits="userSpaceOnUse" x1="3.8382" y1="904.3492" x2="3.8382" y2="936.8431" gradientTransform="matrix(1 0 0 1 0 -901.5239)">
		<stop  offset="0.12" style="stop-color:#C6187F;stop-opacity:0.6"/>
		<stop  offset="1" style="stop-color:#C6187F;stop-opacity:0"/>
	</linearGradient>
	<path class="st3" d="M6.1,41.6c-2.9-3.4-4.5-7.9-4.5-13.3V1H3v28.5C3,34.1,4.1,38.2,6.1,41.6L6.1,41.6z"/>
	<path class="st4" d="M35.8,1H32v27.3c0,3.6-1.4,6.3-3.8,7.7c6,1,9.6,6.2,10.8,8.2c4.5-3.6,7-9,7-15.9V11.2C46,5.6,41.4,1,35.8,1
		L35.8,1z"/>
	
		<linearGradient id="SVGID_4_" gradientUnits="userSpaceOnUse" x1="36.95" y1="903.0732" x2="37.111" y2="928.7166" gradientTransform="matrix(1 0 0 1 0 -901.5239)">
		<stop  offset="0" style="stop-color:#6ECCDF;stop-opacity:0.6"/>
		<stop  offset="1" style="stop-color:#6ECCDF;stop-opacity:0"/>
	</linearGradient>
	<path class="st5" d="M35.8,1H32v27.3c0,3.6-1.4,6.3-3.8,7.7c6,1,9.6,6.2,10.8,8.2c4.5-3.6,7-9,7-15.9V11.2C46,5.6,41.4,1,35.8,1
		L35.8,1z"/>
	
		<linearGradient id="SVGID_5_" gradientUnits="userSpaceOnUse" x1="31.7761" y1="932.1227" x2="32.0982" y2="910.6542" gradientTransform="matrix(1 0 0 1 0 -901.5239)">
		<stop  offset="0" style="stop-color:#6ECCDF;stop-opacity:0.5"/>
		<stop  offset="1" style="stop-color:#6ECCDF;stop-opacity:0"/>
	</linearGradient>
	<path class="st6" d="M33,1v24.9c0,4.5-1.9,7.1-2.4,7.7c0.2-0.3,0.4-0.7,0.5-1c0.1-0.2,0.2-0.4,0.2-0.6c0.4-1.1,0.6-2.3,0.6-3.7V1
		H33L33,1z"/>
	
		<linearGradient id="SVGID_6_" gradientUnits="userSpaceOnUse" x1="34.2159" y1="941.3086" x2="38.5765" y2="929.9487" gradientTransform="matrix(1 0 0 1 0 -901.5239)">
		<stop  offset="0" style="stop-color:#000000;stop-opacity:0.4"/>
		<stop  offset="1" style="stop-color:#000000;stop-opacity:0"/>
	</linearGradient>
	<path class="st7" d="M32,21.9v6.4c0,3.6-1.4,6.3-3.8,7.7c6,1,9.6,6.2,10.8,8.2c4.5-3.6,7-9,7-15.9v-6.4H32z"/>
	<path class="st8" d="M65.2,15.4v33.3h-1.9l0,0h-8c-0.9,0-1.9-0.3-2.6-0.9c-0.6-0.5-1.1-1.2-1.3-2.1c-0.1-0.3-0.1-0.6-0.1-1V32.8
		l0,0v-24c0.4,0.6,0.8,1.2,1.4,1.8c0.9,1,2.1,2,3.6,2.8c2.1,1.1,5,2,8.7,2H65.2L65.2,15.4z"/>
	
		<linearGradient id="SVGID_7_" gradientUnits="userSpaceOnUse" x1="58.2382" y1="913.6774" x2="58.2382" y2="924.1207" gradientTransform="matrix(1 0 0 1 0 -901.5239)">
		<stop  offset="0" style="stop-color:#000000;stop-opacity:0.4"/>
		<stop  offset="1" style="stop-color:#000000;stop-opacity:0"/>
	</linearGradient>
	<path class="st9" d="M65.2,15.4v33.3h-1.9l0,0h-8c-0.9,0-1.9-0.3-2.6-0.9c-0.6-0.5-1.1-1.2-1.3-2.1c-0.1-0.3-0.1-0.6-0.1-1V32.8
		l0,0v-24c0.4,0.6,0.8,1.2,1.4,1.8c0.9,1,2.1,2,3.6,2.8c2.1,1.1,5,2,8.7,2H65.2L65.2,15.4z"/>
	<path class="st10" d="M97.7,24.9c0,4.3-1,8.2-2.7,11.6c-0.9,1.6-1.9,3.1-3.1,4.4c-0.1,0.1-0.3,0.3-0.4,0.4l-0.1,0.1
		c-4.6,4.7-11.4,7.4-19.8,7.4h-4.4V36.4h7.7c0.8,0,4.1-0.2,6.2-2.7c0.2-0.2,0.3-0.4,0.5-0.6c0.1-0.1,0.1-0.2,0.2-0.2
		c1.3-2.1,2-4.8,2-7.9c0-3.1-0.8-5.7-2.1-7.9L81.6,17c-0.1-0.1-0.1-0.2-0.2-0.3c-2.5-3.2-7.6-3.3-8-3.3h-7.5c-0.2,0-0.3,0-0.5,0
		C53.2,13.2,51.6,5,51.4,2.1c0-0.1,0-0.2,0-0.3V1.1h20.8c9.5,0,17,3.6,21.4,9.6c0.6,0.9,1.2,1.8,1.7,2.7
		C96.8,16.7,97.8,20.6,97.7,24.9L97.7,24.9z"/>
	
		<linearGradient id="SVGID_8_" gradientUnits="userSpaceOnUse" x1="58.2382" y1="950.3586" x2="58.2382" y2="933.5726" gradientTransform="matrix(1 0 0 1 0 -901.5239)">
		<stop  offset="0.12" style="stop-color:#C6187F;stop-opacity:0.6"/>
		<stop  offset="1" style="stop-color:#C6187F;stop-opacity:0"/>
	</linearGradient>
	<path class="st11" d="M65.2,15.4v33.3h-1.9l0,0h-8c-0.9,0-1.9-0.3-2.6-0.9c-0.6-0.5-1.1-1.2-1.3-2.1c-0.1-0.3-0.1-0.6-0.1-1V32.8
		l0,0v-24c0.4,0.6,0.8,1.2,1.4,1.8c0.9,1,2.1,2,3.6,2.8c2.1,1.1,5,2,8.7,2H65.2L65.2,15.4z"/>
	
		<linearGradient id="SVGID_9_" gradientUnits="userSpaceOnUse" x1="48.5153" y1="913.9725" x2="77.0327" y2="928.2932" gradientTransform="matrix(1 0 0 1 0 -901.5239)">
		<stop  offset="0" style="stop-color:#6ECCDF;stop-opacity:0.6"/>
		<stop  offset="1" style="stop-color:#6ECCDF;stop-opacity:0"/>
	</linearGradient>
	<path class="st12" d="M97.7,24.9c0,4.3-1,8.2-2.7,11.6c-0.9,1.6-1.9,3.1-3.1,4.4c-0.1,0.1-0.3,0.3-0.4,0.4l-0.1,0.1
		c-4.6,4.7-11.4,7.4-19.8,7.4h-4.4V36.5h7.7c0.8,0,4.1-0.2,6.2-2.7c0.2-0.2,0.3-0.4,0.5-0.6c0.1-0.1,0.1-0.2,0.2-0.2
		c0.7-1.2,1.3-2.5,1.6-4c0,0,0,0,0-0.1c0.1-0.5,0.2-1,0.3-1.5v-0.1c0.1-0.7,0.1-1.4,0.1-2.1V25c0-0.1,0-0.2,0-0.2
		c0-3-0.8-5.5-2.1-7.6l-0.1-0.1c-0.1-0.1-0.1-0.2-0.2-0.3c-2.5-3.2-7.6-3.3-8-3.3h-7.5c-0.2,0-0.3,0-0.5,0
		c-12.2-0.2-13.8-8.4-14-11.3c0-0.1,0-0.2,0-0.3V1.2h20.8c9.5,0,17,3.6,21.4,9.6c0.6,0.9,1.2,1.8,1.7,2.7
		C96.9,16.8,97.8,20.6,97.7,24.9L97.7,24.9z"/>
	
		<linearGradient id="SVGID_10_" gradientUnits="userSpaceOnUse" x1="66.9843" y1="947.0351" x2="83.9436" y2="938.2519" gradientTransform="matrix(1 0 0 1 0 -901.5239)">
		<stop  offset="0" style="stop-color:#000000;stop-opacity:0.4"/>
		<stop  offset="1" style="stop-color:#000000;stop-opacity:0"/>
	</linearGradient>
	<path class="st13" d="M97.7,27c-0.2,3.5-1.2,6.7-2.6,9.5c-0.9,1.6-1.9,3.1-3.1,4.4c-0.1,0.1-0.3,0.3-0.4,0.4l-0.1,0.1
		c-4.6,4.7-11.4,7.4-19.8,7.4h-4.4V36.4H75c0.8,0,4.1-0.2,6.2-2.7c0.2-0.2,0.3-0.4,0.5-0.6c0.1-0.1,0.1-0.2,0.2-0.2
		c1-1.6,1.7-3.6,1.9-5.9H97.7L97.7,27z"/>
	
		<linearGradient id="SVGID_11_" gradientUnits="userSpaceOnUse" x1="67.2941" y1="938.9608" x2="83.9313" y2="931.3422" gradientTransform="matrix(1 0 0 1 0 -901.5239)">
		<stop  offset="0" style="stop-color:#6ECCDF;stop-opacity:0"/>
		<stop  offset="0.5" style="stop-color:#6ECCDF;stop-opacity:0.6"/>
		<stop  offset="1" style="stop-color:#6ECCDF;stop-opacity:0"/>
	</linearGradient>
	<path class="st14" d="M83.7,25.2c0,0.5,0,1.2-0.1,1.8c0,0.1,0,0.2,0,0.3v0.1c0,0.6,0,1.1,0,1.1c-0.2,2.3-0.9,4.3-1.9,5.9
		c-0.1,0.1-0.1,0.1-0.2,0.2c-0.1,0.2-0.3,0.4-0.5,0.6c-2.1,2.5-5.4,2.7-6.2,2.7h-7.7v-1.4h7.7c0.8,0,4.1-0.2,6.2-2.7
		c0.2-0.2,0.3-0.4,0.5-0.6c0.1-0.1,0.1-0.2,0.2-0.2c0.7-1.2,1.3-2.5,1.6-4c0.1-0.3,0.1-0.5,0.1-0.8V28c0-0.3,0.1-0.6,0.1-0.9l0,0
		C83.7,26.4,83.7,25.8,83.7,25.2L83.7,25.2z"/>
	
		<linearGradient id="SVGID_12_" gradientUnits="userSpaceOnUse" x1="83.6659" y1="926.4283" x2="83.7527" y2="926.3911" gradientTransform="matrix(1 0 0 1 0 -901.5239)">
		<stop  offset="0" style="stop-color:#000000;stop-opacity:0.4"/>
		<stop  offset="1" style="stop-color:#000000;stop-opacity:0"/>
	</linearGradient>
	<path class="st15" d="M83.7,24.9L83.7,24.9C83.7,24.9,83.7,24.8,83.7,24.9C83.7,24.8,83.7,24.8,83.7,24.9z"/>
	<path class="st10" d="M156.4,1.1v9.7h-3c0,0-0.1,0-0.3,0c-0.1,0-0.3,0-0.4,0c-0.1,0-0.2,0-0.4,0.1c-1.7,0.3-4.9,1.3-6.7,5.5
		c0,0,0,0.1-0.1,0.2l-1.6,4l-0.2,0.6l-0.9,2.3l0,0l-6.7,16.4c-0.1,0.1-0.1,0.3-0.2,0.4c-0.5,1.1-1.4,2-2.3,2.7
		c-0.1,0.1-0.3,0.2-0.4,0.3c-0.3,0.2-0.6,0.3-0.9,0.4c-0.8,0.3-1.6,0.5-2.5,0.5s-1.7-0.2-2.5-0.5c-0.3-0.1-0.6-0.3-0.9-0.4
		c-1.3-0.7-2.4-1.9-3-3.4l-5.2-12.7l-2.5-6.1l-0.2-0.6l-1.6-4c0,0,0-0.1-0.1-0.2c-1.8-4.2-5-5.3-6.7-5.5c-0.1,0-0.3,0-0.4-0.1
		c-0.2,0-0.3,0-0.4,0c-0.2,0-0.3,0-0.3,0h-3V1h8.5c1.5,0,3,0.3,4.3,0.9c1.2,0.5,2.2,1.3,3.1,2.2c0.7,0.7,1.3,1.5,1.8,2.4
		c0.1,0.2,0.2,0.5,0.3,0.7l8.8,20.3l8.8-20.3c0.1-0.2,0.2-0.5,0.3-0.7c0.5-0.9,1.1-1.7,1.8-2.4c0.9-0.9,1.9-1.6,3.1-2.2
		c1.3-0.6,2.8-0.9,4.3-0.9L156.4,1.1L156.4,1.1z"/>
	
		<linearGradient id="SVGID_13_" gradientUnits="userSpaceOnUse" x1="129.6882" y1="900.8311" x2="129.6882" y2="921.1475" gradientTransform="matrix(1 0 0 1 0 -901.5239)">
		<stop  offset="0" style="stop-color:#6ECCDF;stop-opacity:0.7"/>
		<stop  offset="1" style="stop-color:#6ECCDF;stop-opacity:0"/>
	</linearGradient>
	<path class="st16" d="M156.4,1.1v9.7h-3c0,0-0.1,0-0.3,0c-0.1,0-0.3,0-0.4,0c-0.1,0-0.2,0-0.4,0.1c-1.7,0.3-4.9,1.3-6.7,5.5
		c0,0,0,0.1-0.1,0.2l-1.6,4l-0.2,0.6l-0.9,2.3l0,0l-6.7,16.4c-0.5,1.3-1.4,2.4-2.5,3.1c-0.1,0.1-0.3,0.2-0.4,0.3
		c-0.3,0.2-0.6,0.3-0.9,0.4c-0.8,0.3-1.6,0.5-2.5,0.5s-1.7-0.2-2.5-0.5c-0.3-0.1-0.6-0.3-0.9-0.4c-1.3-0.7-2.4-1.9-3-3.4l-5.2-12.7
		l-2.5-6.1l-0.2-0.6l-1.6-4c0,0,0-0.1-0.1-0.2c-1.8-4.2-5-5.3-6.7-5.5c-0.1,0-0.3,0-0.4-0.1c-0.2,0-0.3,0-0.4,0c-0.2,0-0.3,0-0.3,0
		h-3V1h8.5c1.5,0,3,0.3,4.3,0.9c1.2,0.5,2.2,1.3,3.1,2.2c0.7,0.7,1.3,1.5,1.8,2.4c0.1,0.2,0.2,0.5,0.3,0.7l8.8,20.3l8.8-20.3
		c0.1-0.2,0.2-0.5,0.3-0.7c0.5-0.9,1.1-1.7,1.8-2.4c0.9-0.9,1.9-1.6,3.1-2.2c1.3-0.6,2.8-0.9,4.3-0.9L156.4,1.1L156.4,1.1z"/>
	<path class="st8" d="M153.9,12.9h2.6v36h-8.8c-0.3,0-0.6,0-1-0.1c-1.8-0.4-3-2.1-3-3.8V26.1l0.4-1l0.1-0.3l3.1-7.5
		c0,0,0-0.1,0.1-0.2c0.1-0.1,0.1-0.3,0.2-0.4c0.7-1.5,1.6-2.2,2-2.5c0.2-0.1,0.2-0.2,0.2-0.2c1.1-0.6,2.1-0.9,2.9-1
		c0.1,0,0.3,0,0.4-0.1c0.2,0,0.3,0,0.4,0C153.7,12.8,153.8,12.8,153.9,12.9L153.9,12.9z"/>
	<path class="st0" d="M115.2,25.1l0.4,1v18.8c0,1.8-1.2,3.4-3,3.8c-0.3,0.1-0.6,0.1-1,0.1h-8.8V12.9h2.6c0,0,0.1,0,0.3,0
		c0.1,0,0.3,0,0.4,0s0.2,0,0.4,0.1c0.7,0.1,1.8,0.4,2.9,1c0,0,0.1,0,0.2,0.2c0.4,0.3,1.3,1,2,2.5c0.1,0.1,0.1,0.3,0.2,0.4
		c0,0.1,0,0.1,0.1,0.2l3.1,7.5L115.2,25.1L115.2,25.1z"/>
	
		<linearGradient id="SVGID_14_" gradientUnits="userSpaceOnUse" x1="109.6614" y1="912.8723" x2="109.327" y2="928.6051" gradientTransform="matrix(1 0 0 1 0 -901.5239)">
		<stop  offset="0" style="stop-color:#000000;stop-opacity:0.4"/>
		<stop  offset="1" style="stop-color:#000000;stop-opacity:0"/>
	</linearGradient>
	<path class="st17" d="M115.7,26.1v18.8c0,1.8-1.2,3.4-3,3.8c-0.3,0.1-0.6,0.1-1,0.1h-8.8V12.9h2.6c0,0,0.1,0,0.3,0
		c0.1,0,0.3,0,0.4,0s0.2,0,0.4,0.1c0.7,0.1,1.8,0.4,2.9,1c0,0,0.1,0,0.2,0.2c0.4,0.3,1.3,1,2,2.5c0.1,0.1,0.1,0.3,0.2,0.4
		c0,0.1,0,0.1,0.1,0.2l3.1,7.5l0.1,0.3L115.7,26.1L115.7,26.1z"/>
	
		<linearGradient id="SVGID_15_" gradientUnits="userSpaceOnUse" x1="108.7757" y1="951.843" x2="109.1102" y2="934.475" gradientTransform="matrix(1 0 0 1 0 -901.5239)">
		<stop  offset="0.12" style="stop-color:#C83492;stop-opacity:0.6"/>
		<stop  offset="1" style="stop-color:#C83492;stop-opacity:0"/>
	</linearGradient>
	<path class="st18" d="M115.2,25.1l0.4,1v18.8c0,1.8-1.2,3.4-3,3.8c-0.3,0.1-0.6,0.1-1,0.1h-8.8V12.9h2.6c0,0,0.1,0,0.3,0
		c0.1,0,0.3,0,0.4,0s0.2,0,0.4,0.1c0.7,0.1,1.8,0.4,2.9,1c0,0,0.1,0,0.2,0.2c0.4,0.3,1.3,1,2,2.5c0.1,0.1,0.1,0.3,0.2,0.4
		c0,0.1,0,0.1,0.1,0.2l3.1,7.5L115.2,25.1L115.2,25.1z"/>
	
		<linearGradient id="SVGID_16_" gradientUnits="userSpaceOnUse" x1="150.2482" y1="912.8345" x2="150.0871" y2="929.0505" gradientTransform="matrix(1 0 0 1 0 -901.5239)">
		<stop  offset="0" style="stop-color:#000000;stop-opacity:0.4"/>
		<stop  offset="1" style="stop-color:#000000;stop-opacity:0"/>
	</linearGradient>
	<path class="st19" d="M156.4,12.9v36h-8.8c-0.3,0-0.6,0-1-0.1c-0.6-0.1-1.1-0.4-1.6-0.8c-0.9-0.7-1.4-1.9-1.4-3V26.1l0.4-1l0.1-0.3
		l0.9-2.1l2.2-5.4c0,0,0-0.1,0.1-0.2c0.1-0.1,0.1-0.3,0.2-0.4c0.7-1.5,1.6-2.2,2-2.5c0.2-0.1,0.2-0.2,0.2-0.2c1.1-0.6,2.1-0.9,2.9-1
		c0.1,0,0.3,0,0.4-0.1c0.2,0,0.3,0,0.4,0c0.2,0,0.3,0,0.3,0H156.4L156.4,12.9z"/>
	
		<linearGradient id="SVGID_17_" gradientUnits="userSpaceOnUse" x1="110.6382" y1="912.1414" x2="110.6382" y2="920.045" gradientTransform="matrix(1 0 0 1 0 -901.5239)">
		<stop  offset="0" style="stop-color:#4AACDB"/>
		<stop  offset="0.2" style="stop-color:#4096C3"/>
		<stop  offset="0.61" style="stop-color:#285E86"/>
		<stop  offset="1" style="stop-color:#112649"/>
	</linearGradient>
	<path class="st20" d="M113.8,16.5l1.6,4l0,0L113.8,16.5z M106.2,10.7c-0.2,0-0.3,0-0.3,0C106,10.7,106.1,10.7,106.2,10.7z"/>
	
		<linearGradient id="SVGID_18_" gradientUnits="userSpaceOnUse" x1="150.2363" y1="952.3527" x2="150.1124" y2="934.0308" gradientTransform="matrix(1 0 0 1 0 -901.5239)">
		<stop  offset="0.12" style="stop-color:#C6187F;stop-opacity:0.6"/>
		<stop  offset="1" style="stop-color:#C6187F;stop-opacity:0"/>
	</linearGradient>
	<path class="st21" d="M153.9,12.9h2.6v36h-8.8c-0.3,0-0.6,0-1-0.1c-1.8-0.4-3-2.1-3-3.8V26.1l0.4-1l0.1-0.3l3.1-7.5
		c0,0,0-0.1,0.1-0.2c0.1-0.1,0.1-0.3,0.2-0.4c0.7-1.5,1.6-2.2,2-2.5c0.2-0.1,0.2-0.2,0.2-0.2c1.1-0.6,2.1-0.9,2.9-1
		c0.1,0,0.3,0,0.4-0.1c0.2,0,0.3,0,0.4,0C153.7,12.8,153.8,12.8,153.9,12.9L153.9,12.9z"/>
	
		<linearGradient id="SVGID_19_" gradientUnits="userSpaceOnUse" x1="144.3677" y1="927.4778" x2="144.4173" y2="946.3696" gradientTransform="matrix(1 0 0 1 0 -901.5239)">
		<stop  offset="0" style="stop-color:#C6187F;stop-opacity:0"/>
		<stop  offset="0.14" style="stop-color:#C6187F;stop-opacity:0.21"/>
		<stop  offset="0.36" style="stop-color:#C6187F;stop-opacity:0.6"/>
		<stop  offset="1" style="stop-color:#C6187F;stop-opacity:0"/>
	</linearGradient>
	<path class="st22" d="M145.1,22.7v25.2c-0.9-0.7-1.4-1.9-1.4-3v-6.7l0,0V26.1l0.4-1l0.1-0.3L145.1,22.7L145.1,22.7z"/>
	
		<linearGradient id="SVGID_20_" gradientUnits="userSpaceOnUse" x1="118.5516" y1="924.9912" x2="132.897" y2="946.7817" gradientTransform="matrix(1 0 0 1 0 -901.5239)">
		<stop  offset="2.000000e-02" style="stop-color:#6ECCDF;stop-opacity:0"/>
		<stop  offset="0.51" style="stop-color:#6ECCDF;stop-opacity:0.5"/>
		<stop  offset="1" style="stop-color:#6ECCDF;stop-opacity:0"/>
	</linearGradient>
	<path class="st23" d="M135.9,40.4c-0.5,1.1-1.4,2-2.3,2.7c-0.1,0.1-0.3,0.2-0.4,0.3c-0.3,0.2-0.6,0.3-0.9,0.4
		c-0.8,0.3-1.6,0.5-2.5,0.5s-1.7-0.2-2.5-0.5c-0.3-0.1-0.6-0.3-0.9-0.4c-1.3-0.7-2.4-1.9-3-3.4l-5.2-12.7l-2.5-6.1l-0.2-0.6l-1.6-4
		v-3.2c0.3,0.5,0.6,1,0.9,1.6c0,0,0,0.1,0.1,0.2l1.6,4l0.2,0.6l2.5,6.1l5.2,12.7c0.6,1.5,1.7,2.7,3,3.4c0.3,0.2,0.6,0.3,0.9,0.4
		c0.8,0.3,1.6,0.5,2.5,0.5s1.7-0.2,2.5-0.5c0.3-0.1,0.6-0.3,0.9-0.4c0.1-0.1,0.3-0.2,0.4-0.3C135,41.3,135.5,40.9,135.9,40.4
		L135.9,40.4z"/>
	
		<linearGradient id="SVGID_21_" gradientUnits="userSpaceOnUse" x1="129.6882" y1="944.3751" x2="129.6882" y2="923.2039" gradientTransform="matrix(1 0 0 1 0 -901.5239)">
		<stop  offset="0" style="stop-color:#000000;stop-opacity:0.5"/>
		<stop  offset="1" style="stop-color:#000000;stop-opacity:0"/>
	</linearGradient>
	<path class="st24" d="M156.4,1.1v9.7h-3c0,0-0.1,0-0.3,0c-0.1,0-0.3,0-0.4,0c-0.1,0-0.2,0-0.4,0.1c-1.7,0.3-4.9,1.3-6.7,5.5
		c0,0,0,0.1-0.1,0.2l-1.6,4l-0.2,0.6l-0.9,2.3l0,0l-6.7,16.4c-0.5,1.3-1.4,2.4-2.5,3.1c-0.1,0.1-0.3,0.2-0.4,0.3
		c-0.3,0.2-0.6,0.3-0.9,0.4c-0.8,0.3-1.6,0.5-2.5,0.5s-1.7-0.2-2.5-0.5c-0.3-0.1-0.6-0.3-0.9-0.4c-1.3-0.7-2.4-1.9-3-3.4l-5.2-12.7
		l-2.5-6.1l-0.2-0.6l-1.6-4c0,0,0-0.1-0.1-0.2c-1.8-4.2-5-5.3-6.7-5.5c-0.1,0-0.3,0-0.4-0.1c-0.2,0-0.3,0-0.4,0c-0.2,0-0.3,0-0.3,0
		h-3V1h8.5c1.5,0,3,0.3,4.3,0.9c1.2,0.5,2.2,1.3,3.1,2.2c0.7,0.7,1.3,1.5,1.8,2.4c0.1,0.2,0.2,0.5,0.3,0.7l8.8,20.3l8.8-20.3
		c0.1-0.2,0.2-0.5,0.3-0.7c0.5-0.9,1.1-1.7,1.8-2.4c0.9-0.9,1.9-1.6,3.1-2.2c1.3-0.6,2.8-0.9,4.3-0.9L156.4,1.1L156.4,1.1z"/>
</g>
</svg>
