<?xml version="1.0" encoding="utf-8"?>
<!-- Generator: Adobe Illustrator 27.8.1, SVG Export Plug-In . SVG Version: 6.00 Build 0)  -->
<!DOCTYPE svg PUBLIC "-//W3C//DTD SVG 1.1//EN" "http://www.w3.org/Graphics/SVG/1.1/DTD/svg11.dtd" [
	<!ENTITY ns_extend "http://ns.adobe.com/Extensibility/1.0/">
	<!ENTITY ns_ai "http://ns.adobe.com/AdobeIllustrator/10.0/">
	<!ENTITY ns_graphs "http://ns.adobe.com/Graphs/1.0/">
	<!ENTITY ns_vars "http://ns.adobe.com/Variables/1.0/">
	<!ENTITY ns_imrep "http://ns.adobe.com/ImageReplacement/1.0/">
	<!ENTITY ns_sfw "http://ns.adobe.com/SaveForWeb/1.0/">
	<!ENTITY ns_custom "http://ns.adobe.com/GenericCustomNamespace/1.0/">
	<!ENTITY ns_adobe_xpath "http://ns.adobe.com/XPath/1.0/">
]>
<svg version="1.1" id="Layer_1" xmlns:x="&ns_extend;" xmlns:i="&ns_ai;" xmlns:graph="&ns_graphs;"
	 xmlns="http://www.w3.org/2000/svg" xmlns:xlink="http://www.w3.org/1999/xlink" x="0px" y="0px" width="350px" height="100px"
	 viewBox="0 0 350 100" style="enable-background:new 0 0 350 100;" xml:space="preserve">
<style type="text/css">
	.st0{fill:#652467;}
	.st1{fill:url(#SVGID_1_);}
	.st2{opacity:0.5;fill:url(#SVGID_00000089566681834706896830000001610163863320967076_);enable-background:new    ;}
	.st3{fill:url(#SVGID_00000041996216980950451740000006656443709465861505_);}
	.st4{fill:#1E4687;}
	.st5{fill:url(#SVGID_00000169531407702684516340000004435906139828556967_);}
	.st6{fill:url(#SVGID_00000090260708542873401980000009644085506383921321_);}
	.st7{opacity:0.5;fill:url(#SVGID_00000166667811564785929390000012068926057848331197_);enable-background:new    ;}
	.st8{fill:#642667;}
	.st9{opacity:0.5;fill:url(#SVGID_00000127741833742906055220000014347324300815076785_);enable-background:new    ;}
	.st10{fill:#194888;}
	.st11{fill:url(#SVGID_00000029007185827550145400000011859632121220731057_);}
	.st12{fill:url(#SVGID_00000085221887374497943890000009519898482218192308_);}
	.st13{opacity:0.5;fill:url(#SVGID_00000171692911504607004460000010057823826979572894_);enable-background:new    ;}
	.st14{fill:url(#SVGID_00000133493731740357594290000006269685651463699897_);}
	.st15{fill:url(#SVGID_00000166669152210017968120000001730780229134662554_);}
	.st16{fill:url(#SVGID_00000047772395502814873080000010844890658342749359_);}
	.st17{opacity:0.5;fill:url(#SVGID_00000111177446199701325350000003523478537434308512_);enable-background:new    ;}
	.st18{fill:url(#SVGID_00000119086459963970334130000005445993300561289908_);}
	.st19{opacity:0.5;fill:url(#SVGID_00000085224354289808301520000004627342798646409125_);enable-background:new    ;}
	.st20{fill:url(#SVGID_00000020374395267835573370000013309446435329905060_);}
	.st21{fill:url(#SVGID_00000145753765155739070680000000718656962732234163_);}
	.st22{fill:url(#SVGID_00000033330241147080371590000014226598055432414345_);}
	.st23{fill:url(#SVGID_00000172411571683292821310000008864302690428049849_);}
	.st24{opacity:0.5;fill:url(#SVGID_00000121251625653976457960000003915084883468508863_);enable-background:new    ;}
</style>
<metadata>
	<sfw  xmlns="&ns_sfw;">
		<slices></slices>
		<sliceSourceBounds  bottomLeftOrigin="true" height="47.9" width="314" x="-5.8" y="19.2"></sliceSourceBounds>
	</sfw>
</metadata>
<g>
	<path d="M184.7,36.7c-0.9-0.9-1.3-2.1-1.3-3.8v-5.4c0-0.5,0.1-0.8,0.4-1.1c0.3-0.3,0.6-0.4,1.1-0.4c0.5,0,0.8,0.1,1.1,0.4
		c0.3,0.3,0.4,0.6,0.4,1.1V33c0,0.8,0.2,1.5,0.6,1.9c0.4,0.5,0.9,0.7,1.6,0.7c0.7,0,1.3-0.2,1.6-0.7c0.4-0.5,0.6-1.1,0.6-1.9v-5.5
		c0-0.5,0.1-0.8,0.4-1.1c0.3-0.3,0.6-0.4,1.1-0.4c0.5,0,0.8,0.1,1.1,0.4c0.3,0.3,0.4,0.6,0.4,1.1v5.4c0,1.6-0.4,2.9-1.3,3.8
		s-2.2,1.3-3.9,1.3C186.9,38,185.6,37.6,184.7,36.7L184.7,36.7z"/>
	<path d="M205.9,26.5c0.3,0.3,0.4,0.6,0.4,1.1v8.9c0,0.5-0.1,0.8-0.4,1.1c-0.3,0.3-0.6,0.4-1,0.4c-0.5,0-0.9-0.2-1.1-0.5l-5.1-6.3
		v5.3c0,0.5-0.1,0.8-0.4,1.1c-0.3,0.3-0.6,0.4-1,0.4s-0.8-0.1-1-0.4c-0.3-0.3-0.4-0.6-0.4-1.1v-8.9c0-0.4,0.1-0.8,0.4-1.1
		c0.3-0.3,0.6-0.4,1-0.4c0.5,0,0.9,0.2,1.1,0.5l5.1,6.3v-5.3c0-0.5,0.1-0.8,0.4-1.1c0.3-0.3,0.6-0.4,1-0.4S205.6,26.2,205.9,26.5
		L205.9,26.5z"/>
	<path d="M208.8,37.5c-0.3-0.3-0.4-0.6-0.4-1.1v-8.9c0-0.5,0.1-0.8,0.4-1.1c0.3-0.3,0.6-0.4,1.1-0.4c0.5,0,0.9,0.1,1.1,0.4
		c0.3,0.3,0.4,0.6,0.4,1.1v8.9c0,0.5-0.1,0.8-0.4,1.1c-0.3,0.3-0.7,0.4-1.1,0.4S209.1,37.8,208.8,37.5z"/>
	<path d="M216.7,37.5c-0.3-0.3-0.4-0.6-0.4-1.1v-7.8h-2.3c-0.5,0-0.9-0.1-1.1-0.3c-0.2-0.2-0.4-0.5-0.4-0.9s0.1-0.7,0.4-0.9
		c0.2-0.2,0.6-0.3,1.1-0.3h7.8c0.5,0,0.9,0.1,1.1,0.3c0.2,0.2,0.4,0.5,0.4,0.9s-0.1,0.7-0.4,0.9c-0.2,0.2-0.6,0.3-1.1,0.3h-2.3v7.8
		c0,0.5-0.1,0.8-0.4,1.1c-0.3,0.3-0.7,0.4-1.1,0.4C217.3,37.9,217,37.8,216.7,37.5z"/>
	<path d="M224.5,37.5c-0.2-0.2-0.4-0.6-0.4-1.1v-8.9c0-0.5,0.1-0.8,0.4-1.1c0.2-0.2,0.6-0.4,1.1-0.4h5.8c0.5,0,0.8,0.1,1.1,0.3
		c0.2,0.2,0.4,0.5,0.4,0.9c0,0.8-0.5,1.2-1.4,1.2h-4.2v2.2h3.9c1,0,1.4,0.4,1.4,1.2c0,0.4-0.1,0.7-0.4,0.9S231.4,33,231,33h-3.9v2.4
		h4.2c1,0,1.4,0.4,1.4,1.2c0,0.4-0.1,0.7-0.4,0.9c-0.2,0.2-0.6,0.3-1.1,0.3h-5.8C225.1,37.8,224.7,37.7,224.5,37.5L224.5,37.5z"/>
	<path d="M234.4,37.5c-0.2-0.2-0.4-0.6-0.4-1.1v-8.9c0-0.5,0.1-0.8,0.4-1.1c0.2-0.2,0.6-0.4,1.1-0.4h3.4c1.3,0,2.4,0.2,3.4,0.7
		c0.9,0.5,1.7,1.1,2.2,2c0.5,0.9,0.7,1.9,0.7,3.1c0,1.2-0.2,2.3-0.7,3.2c-0.5,0.9-1.2,1.6-2.1,2c-0.9,0.5-2.1,0.7-3.4,0.7h-3.4
		C235,37.8,234.7,37.7,234.4,37.5L234.4,37.5z M238.6,35.4c1.1,0,2-0.3,2.6-0.8c0.6-0.6,0.9-1.4,0.9-2.6c0-1.2-0.3-2-0.9-2.6
		s-1.4-0.8-2.6-0.8h-1.5v6.8L238.6,35.4L238.6,35.4z"/>
	<path d="M183.7,55.4c-0.2-0.2-0.4-0.6-0.4-1v-8.9c0-0.5,0.1-0.8,0.4-1c0.2-0.2,0.6-0.4,1-0.4h3.3c1.3,0,2.4,0.2,3.3,0.7
		c0.9,0.5,1.6,1.1,2.1,2c0.5,0.9,0.7,1.9,0.7,3.1s-0.2,2.3-0.7,3.1c-0.5,0.9-1.2,1.5-2.1,2c-0.9,0.5-2,0.7-3.3,0.7h-3.3
		C184.3,55.8,184,55.7,183.7,55.4L183.7,55.4z M187.9,53.4c1.1,0,2-0.3,2.6-0.8c0.6-0.6,0.9-1.4,0.9-2.6c0-1.1-0.3-2-0.9-2.6
		s-1.4-0.8-2.6-0.8h-1.5v6.8H187.9z"/>
	<path d="M196.6,55.5c-0.3-0.3-0.4-0.6-0.4-1.1v-8.9c0-0.5,0.1-0.8,0.4-1.1c0.3-0.3,0.6-0.4,1.1-0.4c0.5,0,0.8,0.1,1.1,0.4
		c0.3,0.3,0.4,0.6,0.4,1.1v8.9c0,0.5-0.1,0.8-0.4,1.1c-0.3,0.3-0.7,0.4-1.1,0.4S196.8,55.8,196.6,55.5z"/>
	<path d="M203.3,55.7c-0.8-0.2-1.4-0.5-1.9-0.8c-0.2-0.1-0.3-0.3-0.4-0.4c-0.1-0.2-0.1-0.4-0.1-0.6c0-0.3,0.1-0.6,0.3-0.9
		c0.2-0.2,0.4-0.4,0.7-0.4c0.1,0,0.3,0,0.4,0.1c0.1,0,0.3,0.1,0.5,0.2c0.5,0.2,0.9,0.4,1.4,0.5c0.4,0.1,1,0.2,1.5,0.2
		c0.7,0,1.1-0.1,1.5-0.3c0.3-0.2,0.5-0.5,0.5-0.9c0-0.2-0.2-0.5-0.5-0.7c-0.3-0.2-0.9-0.4-1.8-0.5c-1.1-0.2-1.9-0.5-2.6-0.8
		c-0.6-0.3-1.1-0.7-1.3-1.1c-0.2-0.4-0.4-1-0.4-1.6c0-0.7,0.2-1.4,0.6-1.9c0.4-0.6,1-1,1.7-1.4c0.7-0.3,1.6-0.5,2.5-0.5
		c0.8,0,1.5,0.1,2.2,0.3s1.2,0.5,1.7,0.8c0.2,0.1,0.3,0.3,0.4,0.5c0.1,0.2,0.1,0.4,0.1,0.6c0,0.3-0.1,0.6-0.3,0.9
		c-0.2,0.2-0.4,0.4-0.7,0.4c-0.1,0-0.3,0-0.4-0.1s-0.3-0.1-0.5-0.3c0,0-0.2-0.1-0.5-0.3c-0.3-0.1-0.6-0.2-0.9-0.3
		c-0.3-0.1-0.7-0.1-1.1-0.1c-0.6,0-1,0.1-1.4,0.3s-0.5,0.5-0.5,0.9c0,0.2,0.1,0.4,0.2,0.5c0.1,0.1,0.3,0.3,0.7,0.4
		c0.3,0.1,0.8,0.3,1.5,0.4c1.1,0.2,1.9,0.5,2.5,0.8c0.6,0.3,1,0.7,1.3,1.1c0.2,0.4,0.4,0.9,0.4,1.5c0,0.7-0.2,1.4-0.6,1.9
		c-0.4,0.6-1,1-1.7,1.3c-0.7,0.3-1.6,0.5-2.6,0.5C204.9,55.9,204.1,55.8,203.3,55.7L203.3,55.7z"/>
	<path d="M212.7,55.5c-0.3-0.3-0.4-0.6-0.4-1.1v-8.9c0-0.5,0.1-0.8,0.4-1.1c0.3-0.3,0.6-0.4,1.1-0.4c0.5,0,0.8,0.1,1.1,0.4
		c0.3,0.3,0.4,0.6,0.4,1.1v8.9c0,0.5-0.1,0.8-0.4,1.1c-0.3,0.3-0.7,0.4-1.1,0.4C213.3,55.9,213,55.8,212.7,55.5z"/>
	<path d="M227.5,44.5c0.3,0.3,0.4,0.6,0.4,1.1v8.9c0,0.5-0.1,0.8-0.4,1.1c-0.3,0.3-0.6,0.4-1,0.4c-0.5,0-0.9-0.2-1.1-0.5l-5-6.3v5.3
		c0,0.5-0.1,0.8-0.4,1.1c-0.2,0.3-0.6,0.4-1,0.4s-0.8-0.1-1-0.4c-0.3-0.3-0.4-0.6-0.4-1.1v-8.9c0-0.4,0.1-0.8,0.4-1.1
		c0.3-0.3,0.6-0.4,1-0.4c0.5,0,0.8,0.2,1.1,0.5l5,6.3v-5.3c0-0.5,0.1-0.8,0.4-1.1c0.3-0.3,0.6-0.4,1-0.4
		C226.9,44,227.2,44.2,227.5,44.5L227.5,44.5z"/>
	<path d="M230.4,55.5c-0.3-0.3-0.4-0.6-0.4-1.1v-8.9c0-0.5,0.1-0.8,0.4-1c0.2-0.2,0.6-0.4,1-0.4h5.6c0.5,0,0.9,0.1,1.1,0.3
		c0.2,0.2,0.3,0.5,0.3,0.9c0,0.4-0.1,0.7-0.4,0.9c-0.2,0.2-0.6,0.3-1.1,0.3h-4v2.2h3.6c0.5,0,0.8,0.1,1.1,0.3
		c0.2,0.2,0.4,0.5,0.4,0.9c0,0.4-0.1,0.7-0.4,0.9c-0.2,0.2-0.6,0.3-1.1,0.3H233v3.3c0,0.5-0.1,0.8-0.4,1.1c-0.3,0.3-0.6,0.4-1.1,0.4
		C231,55.9,230.7,55.8,230.4,55.5L230.4,55.5z"/>
	<path d="M239.9,55.4c-0.2-0.2-0.4-0.6-0.4-1v-8.9c0-0.5,0.1-0.8,0.4-1c0.2-0.2,0.6-0.4,1-0.4h5.7c0.5,0,0.8,0.1,1.1,0.3
		c0.2,0.2,0.4,0.5,0.4,0.9c0,0.8-0.5,1.2-1.4,1.2h-4.2v2.2h3.8c1,0,1.4,0.4,1.4,1.2c0,0.4-0.1,0.7-0.4,0.9c-0.2,0.2-0.6,0.3-1.1,0.3
		h-3.8v2.4h4.2c1,0,1.4,0.4,1.4,1.2c0,0.4-0.1,0.7-0.4,0.9c-0.2,0.2-0.6,0.3-1.1,0.3H241C240.5,55.8,240.2,55.7,239.9,55.4
		L239.9,55.4z"/>
	<path d="M251.9,55.2c-0.9-0.5-1.6-1.2-2-2.1c-0.5-0.9-0.7-2-0.7-3.2c0-1.2,0.2-2.3,0.7-3.2s1.2-1.6,2-2.1c0.9-0.5,1.9-0.7,3.1-0.7
		c1.4,0,2.6,0.4,3.7,1.1c0.2,0.1,0.3,0.3,0.4,0.4c0.1,0.2,0.1,0.4,0.1,0.6c0,0.3-0.1,0.6-0.3,0.9c-0.2,0.2-0.4,0.4-0.7,0.4
		c-0.2,0-0.3,0-0.4-0.1s-0.3-0.1-0.5-0.2c-0.4-0.2-0.8-0.4-1.1-0.5c-0.3-0.1-0.7-0.1-1.1-0.1c-1,0-1.7,0.3-2.2,0.9
		c-0.5,0.6-0.7,1.5-0.7,2.7s0.2,2.1,0.7,2.7c0.5,0.6,1.2,0.9,2.2,0.9c0.3,0,0.7,0,1-0.2c0.3-0.1,0.7-0.3,1.2-0.5
		c0.2-0.1,0.4-0.2,0.5-0.2c0.1,0,0.2-0.1,0.4-0.1c0.3,0,0.5,0.1,0.7,0.4c0.2,0.2,0.3,0.5,0.3,0.9c0,0.2,0,0.4-0.1,0.6
		c-0.1,0.2-0.2,0.3-0.4,0.4c-1.1,0.7-2.3,1.1-3.7,1.1C253.8,56,252.8,55.7,251.9,55.2L251.9,55.2z"/>
	<path d="M263.6,55.5c-0.3-0.3-0.4-0.6-0.4-1.1v-7.8h-2.3c-0.5,0-0.8-0.1-1.1-0.3c-0.2-0.2-0.4-0.5-0.4-0.9c0-0.4,0.1-0.7,0.4-0.9
		c0.2-0.2,0.6-0.3,1.1-0.3h7.7c0.5,0,0.8,0.1,1.1,0.3c0.2,0.2,0.4,0.5,0.4,0.9c0,0.4-0.1,0.7-0.4,0.9c-0.2,0.2-0.6,0.3-1.1,0.3h-2.3
		v7.8c0,0.5-0.1,0.8-0.4,1.1c-0.3,0.3-0.7,0.4-1.1,0.4C264.2,55.9,263.9,55.8,263.6,55.5L263.6,55.5z"/>
	<path d="M280.8,54.6c0,0.4-0.1,0.7-0.4,0.9c-0.3,0.3-0.6,0.4-1,0.4c-0.2,0-0.5-0.1-0.7-0.2c-0.2-0.1-0.4-0.3-0.5-0.6l-0.7-1.7H272
		l-0.8,1.7c-0.1,0.3-0.3,0.5-0.5,0.6c-0.2,0.1-0.4,0.2-0.7,0.2c-0.4,0-0.7-0.1-1-0.4c-0.3-0.2-0.5-0.6-0.5-0.9c0-0.2,0-0.4,0.1-0.6
		l4.4-9c0.1-0.3,0.4-0.5,0.6-0.7c0.3-0.2,0.6-0.2,0.9-0.2c0.3,0,0.6,0.1,0.9,0.2c0.3,0.2,0.5,0.4,0.6,0.7l4.4,9
		C280.7,54.2,280.8,54.4,280.8,54.6L280.8,54.6z M276.4,51.1l-1.7-3.7l-1.7,3.7H276.4L276.4,51.1z"/>
	<path d="M292,44.5c0.3,0.3,0.4,0.6,0.4,1.1v8.9c0,0.5-0.1,0.8-0.4,1.1s-0.6,0.4-1,0.4c-0.5,0-0.9-0.2-1.1-0.5l-5-6.3v5.3
		c0,0.5-0.1,0.8-0.4,1.1c-0.2,0.3-0.6,0.4-1,0.4c-0.4,0-0.8-0.1-1-0.4c-0.3-0.3-0.4-0.6-0.4-1.1v-8.9c0-0.4,0.1-0.8,0.4-1.1
		c0.3-0.3,0.6-0.4,1-0.4c0.5,0,0.8,0.2,1.1,0.5l5,6.3v-5.3c0-0.5,0.1-0.8,0.4-1.1c0.3-0.3,0.6-0.4,1-0.4S291.8,44.2,292,44.5
		L292,44.5z"/>
	<path d="M297.6,55.5c-0.3-0.3-0.4-0.6-0.4-1.1v-7.8h-2.3c-0.5,0-0.8-0.1-1.1-0.3c-0.2-0.2-0.4-0.5-0.4-0.9c0-0.4,0.1-0.7,0.4-0.9
		c0.2-0.2,0.6-0.3,1.1-0.3h7.7c0.5,0,0.8,0.1,1.1,0.3c0.2,0.2,0.4,0.5,0.4,0.9c0,0.4-0.1,0.7-0.4,0.9c-0.2,0.2-0.6,0.3-1.1,0.3h-2.3
		v7.8c0,0.5-0.1,0.8-0.4,1.1c-0.3,0.3-0.7,0.4-1.1,0.4S297.9,55.8,297.6,55.5L297.6,55.5z"/>
	<path d="M194.7,62.4c0.3,0.3,0.4,0.6,0.4,1.1v9c0,0.4-0.1,0.8-0.4,1c-0.2,0.2-0.6,0.4-1,0.4c-0.4,0-0.7-0.1-1-0.4
		c-0.2-0.2-0.4-0.6-0.4-1v-4.9l-1.9,3.5c-0.2,0.3-0.4,0.6-0.6,0.8c-0.2,0.1-0.5,0.2-0.7,0.2s-0.5-0.1-0.7-0.2
		c-0.2-0.1-0.4-0.4-0.6-0.8l-1.9-3.4v4.8c0,0.4-0.1,0.7-0.4,1c-0.2,0.2-0.6,0.4-1,0.4s-0.7-0.1-1-0.4c-0.2-0.2-0.4-0.6-0.4-1v-9
		c0-0.4,0.1-0.8,0.4-1.1c0.3-0.3,0.6-0.4,1-0.4c0.3,0,0.6,0.1,0.8,0.3s0.4,0.4,0.6,0.7l3,5.7l3-5.7c0.3-0.7,0.8-1,1.4-1
		C194.1,62,194.4,62.2,194.7,62.4L194.7,62.4z"/>
	<path d="M208.6,72.5c0,0.4-0.1,0.7-0.4,0.9c-0.3,0.3-0.6,0.4-1,0.4c-0.2,0-0.5-0.1-0.7-0.2c-0.2-0.1-0.4-0.3-0.5-0.6l-0.7-1.7h-5.4
		l-0.8,1.7c-0.1,0.3-0.3,0.5-0.5,0.6c-0.2,0.1-0.4,0.2-0.7,0.2c-0.4,0-0.7-0.1-1-0.4c-0.3-0.2-0.5-0.6-0.5-0.9c0-0.2,0-0.4,0.1-0.6
		l4.4-9c0.1-0.3,0.4-0.5,0.6-0.7c0.3-0.2,0.6-0.2,0.9-0.2c0.3,0,0.6,0.1,0.9,0.2c0.3,0.2,0.5,0.4,0.6,0.7l4.4,9
		C208.5,72.1,208.6,72.3,208.6,72.5L208.6,72.5z M204.2,69.1l-1.7-3.7l-1.7,3.7H204.2L204.2,69.1z"/>
	<path d="M219.9,62.4c0.3,0.3,0.4,0.6,0.4,1.1v8.9c0,0.5-0.1,0.8-0.4,1.1s-0.6,0.4-1,0.4c-0.5,0-0.9-0.2-1.1-0.5l-5-6.3v5.3
		c0,0.5-0.1,0.8-0.4,1.1c-0.2,0.3-0.6,0.4-1,0.4c-0.4,0-0.8-0.1-1-0.4c-0.3-0.3-0.4-0.6-0.4-1.1v-8.9c0-0.4,0.1-0.8,0.4-1.1
		c0.3-0.3,0.6-0.4,1-0.4c0.5,0,0.8,0.2,1.1,0.5l5,6.3v-5.3c0-0.5,0.1-0.8,0.4-1.1c0.3-0.3,0.6-0.4,1-0.4
		C219.2,62,219.6,62.1,219.9,62.4L219.9,62.4z"/>
	<path d="M223.6,72.6c-0.9-0.9-1.3-2.1-1.3-3.8v-5.3c0-0.5,0.1-0.8,0.4-1.1c0.3-0.3,0.6-0.4,1.1-0.4s0.8,0.1,1.1,0.4
		s0.4,0.6,0.4,1.1V69c0,0.8,0.2,1.5,0.6,1.9c0.4,0.5,0.9,0.7,1.6,0.7c0.7,0,1.3-0.2,1.6-0.7c0.4-0.5,0.6-1.1,0.6-1.9v-5.5
		c0-0.5,0.1-0.8,0.4-1.1s0.6-0.4,1.1-0.4s0.8,0.1,1.1,0.4c0.3,0.3,0.4,0.6,0.4,1.1v5.3c0,1.6-0.4,2.9-1.3,3.8
		c-0.9,0.9-2.2,1.3-3.9,1.3C225.8,73.9,224.5,73.5,223.6,72.6L223.6,72.6z"/>
	<path d="M235.1,73.4c-0.3-0.3-0.4-0.6-0.4-1.1v-8.9c0-0.5,0.1-0.8,0.4-1c0.2-0.2,0.6-0.4,1-0.4h5.6c0.5,0,0.9,0.1,1.1,0.3
		c0.2,0.2,0.3,0.5,0.3,0.9c0,0.4-0.1,0.7-0.4,0.9c-0.2,0.2-0.6,0.3-1.1,0.3h-4v2.2h3.6c0.5,0,0.8,0.1,1.1,0.3
		c0.2,0.2,0.4,0.5,0.4,0.9s-0.1,0.7-0.4,0.9c-0.2,0.2-0.6,0.3-1.1,0.3h-3.6v3.3c0,0.5-0.1,0.8-0.4,1.1c-0.3,0.3-0.6,0.4-1.1,0.4
		S235.4,73.7,235.1,73.4L235.1,73.4z"/>
	<path d="M254.7,72.5c0,0.4-0.1,0.7-0.4,0.9c-0.3,0.3-0.6,0.4-1,0.4c-0.2,0-0.5-0.1-0.7-0.2c-0.2-0.1-0.4-0.3-0.5-0.6l-0.7-1.7H246
		l-0.8,1.7c-0.1,0.3-0.3,0.5-0.5,0.6c-0.2,0.1-0.4,0.2-0.7,0.2c-0.4,0-0.7-0.1-1-0.4c-0.3-0.2-0.5-0.6-0.5-0.9c0-0.2,0-0.4,0.1-0.6
		l4.4-9c0.1-0.3,0.4-0.5,0.6-0.7c0.3-0.2,0.6-0.2,0.9-0.2s0.6,0.1,0.9,0.2c0.3,0.2,0.5,0.4,0.6,0.7l4.4,9
		C254.7,72.1,254.7,72.3,254.7,72.5L254.7,72.5z M250.3,69.1l-1.7-3.7l-1.7,3.7H250.3L250.3,69.1z"/>
	<path d="M258.1,73.2c-0.9-0.5-1.6-1.2-2-2.1c-0.5-0.9-0.7-2-0.7-3.2c0-1.2,0.2-2.3,0.7-3.2c0.5-0.9,1.2-1.6,2-2.1
		c0.9-0.5,1.9-0.7,3.1-0.7c1.4,0,2.6,0.4,3.7,1.1c0.2,0.1,0.3,0.3,0.4,0.4c0.1,0.2,0.1,0.4,0.1,0.6c0,0.3-0.1,0.6-0.3,0.9
		c-0.2,0.2-0.4,0.4-0.7,0.4c-0.2,0-0.3,0-0.4-0.1s-0.3-0.1-0.5-0.2c-0.4-0.2-0.8-0.4-1.1-0.5c-0.3-0.1-0.7-0.1-1.1-0.1
		c-1,0-1.7,0.3-2.2,0.9c-0.5,0.6-0.7,1.5-0.7,2.7c0,1.2,0.2,2.1,0.7,2.7c0.5,0.6,1.2,0.9,2.2,0.9c0.3,0,0.7,0,1-0.2
		c0.3-0.1,0.7-0.3,1.2-0.5c0.2-0.1,0.4-0.2,0.5-0.2c0.1,0,0.2-0.1,0.4-0.1c0.3,0,0.5,0.1,0.7,0.4c0.2,0.2,0.3,0.5,0.3,0.9
		c0,0.2,0,0.4-0.1,0.6c-0.1,0.2-0.2,0.3-0.4,0.4c-1.1,0.7-2.3,1.1-3.7,1.1C260,73.9,259,73.7,258.1,73.2L258.1,73.2z"/>
	<path d="M269.8,73.4c-0.3-0.3-0.4-0.6-0.4-1.1v-7.8H267c-0.5,0-0.8-0.1-1.1-0.3c-0.2-0.2-0.4-0.5-0.4-0.9s0.1-0.7,0.4-0.9
		c0.2-0.2,0.6-0.3,1.1-0.3h7.7c0.5,0,0.8,0.1,1.1,0.3s0.4,0.5,0.4,0.9c0,0.4-0.1,0.7-0.4,0.9s-0.6,0.3-1.1,0.3h-2.3v7.8
		c0,0.5-0.1,0.8-0.4,1.1s-0.7,0.4-1.1,0.4S270.1,73.7,269.8,73.4L269.8,73.4z"/>
	<path d="M278.4,72.6c-0.9-0.9-1.3-2.1-1.3-3.8v-5.3c0-0.5,0.1-0.8,0.4-1.1c0.3-0.3,0.6-0.4,1.1-0.4s0.8,0.1,1.1,0.4
		c0.3,0.3,0.4,0.6,0.4,1.1V69c0,0.8,0.2,1.5,0.6,1.9c0.4,0.5,0.9,0.7,1.6,0.7c0.7,0,1.3-0.2,1.6-0.7s0.6-1.1,0.6-1.9v-5.5
		c0-0.5,0.1-0.8,0.4-1.1c0.3-0.3,0.6-0.4,1.1-0.4c0.5,0,0.8,0.1,1.1,0.4c0.3,0.3,0.4,0.6,0.4,1.1v5.3c0,1.6-0.4,2.9-1.3,3.8
		s-2.2,1.3-3.9,1.3S279.3,73.5,278.4,72.6L278.4,72.6z"/>
	<path d="M299.6,72.7c0,0.3-0.1,0.6-0.4,0.9c-0.3,0.2-0.6,0.4-1,0.4c-0.3,0-0.5-0.1-0.7-0.2c-0.2-0.1-0.4-0.3-0.6-0.5l-2.2-3.1
		c-0.2-0.2-0.3-0.4-0.5-0.5c-0.2-0.1-0.4-0.2-0.6-0.2h-1.1v3c0,0.5-0.1,0.8-0.4,1.1c-0.3,0.3-0.6,0.4-1.1,0.4
		c-0.5,0-0.8-0.1-1.1-0.4c-0.3-0.3-0.4-0.6-0.4-1.1v-8.9c0-0.5,0.1-0.8,0.4-1c0.2-0.2,0.6-0.4,1-0.4h4.1c1.4,0,2.5,0.3,3.2,0.9
		s1.1,1.5,1.1,2.7c0,0.9-0.2,1.6-0.7,2.2c-0.5,0.6-1.2,1-2.1,1.2c0.4,0,0.7,0.2,1,0.4c0.3,0.2,0.5,0.5,0.8,0.8l1,1.5
		C299.5,72.1,299.6,72.4,299.6,72.7L299.6,72.7z M296,66.8c0.3-0.2,0.4-0.6,0.4-1s-0.1-0.8-0.4-1.1c-0.3-0.2-0.8-0.3-1.4-0.3h-2.1
		v2.7h2.1C295.3,67.1,295.7,67,296,66.8z"/>
	<path d="M301.6,73.4c-0.2-0.2-0.4-0.6-0.4-1v-8.9c0-0.5,0.1-0.8,0.4-1c0.2-0.2,0.6-0.4,1-0.4h5.7c0.5,0,0.8,0.1,1.1,0.3
		s0.4,0.5,0.4,0.9c0,0.8-0.5,1.2-1.4,1.2h-4.2v2.2h3.8c1,0,1.4,0.4,1.4,1.2c0,0.4-0.1,0.7-0.4,0.9c-0.2,0.2-0.6,0.3-1.1,0.3h-3.8
		v2.4h4.2c1,0,1.4,0.4,1.4,1.2c0,0.4-0.1,0.7-0.4,0.9c-0.2,0.2-0.6,0.3-1.1,0.3h-5.7C302.2,73.7,301.8,73.6,301.6,73.4L301.6,73.4z"
		/>
	<path d="M321.2,72.7c0,0.3-0.1,0.6-0.4,0.9c-0.3,0.2-0.6,0.4-1,0.4c-0.3,0-0.5-0.1-0.7-0.2c-0.2-0.1-0.4-0.3-0.6-0.5l-2.2-3.1
		c-0.2-0.2-0.3-0.4-0.5-0.5c-0.2-0.1-0.4-0.2-0.6-0.2h-1.1v3c0,0.5-0.1,0.8-0.4,1.1c-0.3,0.3-0.6,0.4-1.1,0.4s-0.8-0.1-1.1-0.4
		c-0.3-0.3-0.4-0.6-0.4-1.1v-8.9c0-0.5,0.1-0.8,0.4-1c0.2-0.2,0.6-0.4,1-0.4h4.1c1.4,0,2.5,0.3,3.2,0.9c0.7,0.6,1.1,1.5,1.1,2.7
		c0,0.9-0.2,1.6-0.7,2.2s-1.2,1-2.1,1.2c0.4,0,0.7,0.2,1,0.4c0.3,0.2,0.5,0.5,0.8,0.8l1,1.5C321.1,72.1,321.2,72.4,321.2,72.7
		L321.2,72.7z M317.6,66.8c0.3-0.2,0.4-0.6,0.4-1s-0.1-0.8-0.4-1.1c-0.3-0.2-0.8-0.3-1.4-0.3H314v2.7h2.1
		C316.8,67.1,317.3,67,317.6,66.8z"/>
	<path d="M324.6,73.6c-0.8-0.2-1.4-0.5-1.9-0.8c-0.2-0.1-0.3-0.3-0.4-0.4c-0.1-0.2-0.1-0.4-0.1-0.6c0-0.3,0.1-0.6,0.3-0.9
		c0.2-0.2,0.4-0.4,0.7-0.4c0.1,0,0.3,0,0.4,0.1s0.3,0.1,0.5,0.2c0.5,0.3,0.9,0.4,1.4,0.5c0.4,0.1,1,0.2,1.5,0.2
		c0.7,0,1.1-0.1,1.5-0.3c0.3-0.2,0.5-0.5,0.5-0.9c0-0.2-0.2-0.5-0.5-0.7c-0.3-0.2-0.9-0.4-1.8-0.5c-1.1-0.2-1.9-0.5-2.6-0.8
		c-0.6-0.3-1.1-0.7-1.3-1.1c-0.2-0.4-0.4-1-0.4-1.6c0-0.7,0.2-1.4,0.6-1.9c0.4-0.6,1-1,1.7-1.4c0.7-0.3,1.6-0.5,2.5-0.5
		c0.8,0,1.5,0.1,2.2,0.3s1.2,0.5,1.7,0.8c0.2,0.1,0.3,0.3,0.4,0.5c0.1,0.2,0.1,0.4,0.1,0.6c0,0.3-0.1,0.6-0.3,0.9
		c-0.2,0.2-0.4,0.4-0.7,0.4c-0.1,0-0.3,0-0.4-0.1c-0.1,0-0.3-0.1-0.5-0.3c0,0-0.2-0.1-0.5-0.3c-0.3-0.1-0.6-0.2-0.9-0.3
		s-0.7-0.1-1.1-0.1c-0.6,0-1,0.1-1.4,0.3c-0.3,0.2-0.5,0.5-0.5,0.9c0,0.2,0.1,0.4,0.2,0.5c0.1,0.1,0.3,0.3,0.7,0.4
		c0.3,0.1,0.8,0.3,1.5,0.4c1.1,0.2,1.9,0.5,2.5,0.8c0.6,0.3,1,0.7,1.3,1.1s0.4,0.9,0.4,1.5c0,0.7-0.2,1.4-0.6,1.9s-1,1-1.7,1.3
		c-0.7,0.3-1.6,0.5-2.6,0.5C326.3,73.9,325.4,73.8,324.6,73.6L324.6,73.6z"/>
	<path class="st0" d="M53.2,69.9c-2.4-4.8-7.3-7.7-12.6-7.7h-0.1c-4.7,0-8.4-3.4-8.4-8.8V36.3c0-5.6-4.6-10.2-10.2-10.2H18v27.3
		C18,65.9,26.8,74,40.4,74c5.2,0,9.6-1.2,13.1-3.4C53.4,70.4,53.3,70.2,53.2,69.9L53.2,69.9z"/>
	
		<linearGradient id="SVGID_1_" gradientUnits="userSpaceOnUse" x1="48.5357" y1="31.3834" x2="24.6392" y2="51.3529" gradientTransform="matrix(1 0 0 -1 0 98.4761)">
		<stop  offset="0.12" style="stop-color:#C6187F;stop-opacity:0.6"/>
		<stop  offset="1" style="stop-color:#C6187F;stop-opacity:0"/>
	</linearGradient>
	<path class="st1" d="M53.2,69.9c-2.4-4.8-7.3-7.7-12.6-7.7h-0.1c-4.7,0-8.4-3.4-8.4-8.8V36.3c0-5.6-4.6-10.2-10.2-10.2H18v27.3
		C18,65.9,26.8,74,40.4,74c5.2,0,9.6-1.2,13.1-3.4C53.4,70.4,53.3,70.2,53.2,69.9L53.2,69.9z"/>
	
		<linearGradient id="SVGID_00000108293909394451374790000001492777929133991344_" gradientUnits="userSpaceOnUse" x1="24.9288" y1="73.8778" x2="25.0155" y2="51.8395" gradientTransform="matrix(1 0 0 -1 0 98.4761)">
		<stop  offset="0" style="stop-color:#000000;stop-opacity:0.4"/>
		<stop  offset="1" style="stop-color:#000000;stop-opacity:0"/>
	</linearGradient>
	<path style="opacity:0.5;fill:url(#SVGID_00000108293909394451374790000001492777929133991344_);enable-background:new    ;" d="
		M32,36.3v15.6H18V26.1h3.8C27.5,26.1,32,30.7,32,36.3z"/>
	
		<linearGradient id="SVGID_00000047038943120969592990000005614192466969799321_" gradientUnits="userSpaceOnUse" x1="20.2422" y1="70.5331" x2="20.2422" y2="38.0392" gradientTransform="matrix(1 0 0 -1 0 98.4761)">
		<stop  offset="0.12" style="stop-color:#C6187F;stop-opacity:0.6"/>
		<stop  offset="1" style="stop-color:#C6187F;stop-opacity:0"/>
	</linearGradient>
	<path style="fill:url(#SVGID_00000047038943120969592990000005614192466969799321_);" d="M22.5,66.7c-2.9-3.4-4.5-7.9-4.5-13.3
		V26.1h1.4v28.5C19.4,59.2,20.5,63.3,22.5,66.7L22.5,66.7z"/>
	<path class="st4" d="M52.2,26.1h-3.8v27.3c0,3.6-1.4,6.3-3.8,7.7c6,1,9.6,6.2,10.8,8.2c4.5-3.6,7-9,7-15.9V36.3
		C62.4,30.7,57.8,26.1,52.2,26.1L52.2,26.1z"/>
	
		<linearGradient id="SVGID_00000140703866413456881610000011913368591126701194_" gradientUnits="userSpaceOnUse" x1="53.3411" y1="71.809" x2="53.5021" y2="46.1657" gradientTransform="matrix(1 0 0 -1 0 98.4761)">
		<stop  offset="0" style="stop-color:#6ECCDF;stop-opacity:0.6"/>
		<stop  offset="1" style="stop-color:#6ECCDF;stop-opacity:0"/>
	</linearGradient>
	<path style="fill:url(#SVGID_00000140703866413456881610000011913368591126701194_);" d="M52.2,26.1h-3.8v27.3
		c0,3.6-1.4,6.3-3.8,7.7c6,1,9.6,6.2,10.8,8.2c4.5-3.6,7-9,7-15.9V36.3C62.4,30.7,57.8,26.1,52.2,26.1L52.2,26.1z"/>
	
		<linearGradient id="SVGID_00000078757199223061848060000001293467572414768826_" gradientUnits="userSpaceOnUse" x1="48.2327" y1="42.759" x2="48.5548" y2="64.2275" gradientTransform="matrix(1 0 0 -1 0 98.4761)">
		<stop  offset="0" style="stop-color:#6ECCDF;stop-opacity:0.5"/>
		<stop  offset="1" style="stop-color:#6ECCDF;stop-opacity:0"/>
	</linearGradient>
	<path style="fill:url(#SVGID_00000078757199223061848060000001293467572414768826_);" d="M49.4,26.1V51c0,4.5-1.9,7.1-2.4,7.7
		c0.2-0.3,0.4-0.7,0.5-1c0.1-0.2,0.2-0.4,0.2-0.6c0.4-1.1,0.6-2.3,0.6-3.7V26.1L49.4,26.1L49.4,26.1z"/>
	
		<linearGradient id="SVGID_00000069380087993354853960000005291264953274278587_" gradientUnits="userSpaceOnUse" x1="50.5802" y1="33.592" x2="54.9408" y2="44.9519" gradientTransform="matrix(1 0 0 -1 0 98.4761)">
		<stop  offset="0" style="stop-color:#000000;stop-opacity:0.4"/>
		<stop  offset="1" style="stop-color:#000000;stop-opacity:0"/>
	</linearGradient>
	<path style="opacity:0.5;fill:url(#SVGID_00000069380087993354853960000005291264953274278587_);enable-background:new    ;" d="
		M48.4,47v6.4c0,3.6-1.4,6.3-3.8,7.7c6,1,9.6,6.2,10.8,8.2c4.5-3.6,7-9,7-15.9V47C62.4,47,48.4,47,48.4,47z"/>
	<path class="st8" d="M81.6,40.5v33.3h-1.9v0h-8c-0.9,0-1.9-0.3-2.6-0.9c-0.6-0.5-1.1-1.2-1.3-2.1c-0.1-0.3-0.1-0.6-0.1-1V57.9l0,0
		v-24c0.4,0.6,0.8,1.2,1.4,1.8c0.9,1,2.1,2,3.6,2.8c2.1,1.1,5,2,8.7,2H81.6L81.6,40.5z"/>
	
		<linearGradient id="SVGID_00000003821613024849338670000003210548275223673731_" gradientUnits="userSpaceOnUse" x1="74.6134" y1="61.2049" x2="74.6134" y2="50.7617" gradientTransform="matrix(1 0 0 -1 0 98.4761)">
		<stop  offset="0" style="stop-color:#000000;stop-opacity:0.4"/>
		<stop  offset="1" style="stop-color:#000000;stop-opacity:0"/>
	</linearGradient>
	<path style="opacity:0.5;fill:url(#SVGID_00000003821613024849338670000003210548275223673731_);enable-background:new    ;" d="
		M81.6,40.5v33.3h-1.9v0h-8c-0.9,0-1.9-0.3-2.6-0.9c-0.6-0.5-1.1-1.2-1.3-2.1c-0.1-0.3-0.1-0.6-0.1-1V57.9l0,0v-24
		c0.4,0.6,0.8,1.2,1.4,1.8c0.9,1,2.1,2,3.6,2.8c2.1,1.1,5,2,8.7,2H81.6L81.6,40.5z"/>
	<path class="st10" d="M114.1,50c0,4.3-1,8.2-2.7,11.6c-0.9,1.6-1.9,3.1-3.1,4.4c-0.1,0.1-0.3,0.3-0.4,0.4c0,0-0.1,0.1-0.1,0.1
		c-4.6,4.7-11.4,7.4-19.8,7.4h-4.4V61.5h7.7c0.8,0,4.1-0.2,6.2-2.7c0.2-0.2,0.3-0.4,0.5-0.6c0.1-0.1,0.1-0.2,0.2-0.2
		c1.3-2.1,2-4.8,2-7.9c0-3.1-0.8-5.7-2.1-7.9c0,0-0.1-0.1-0.1-0.1c-0.1-0.1-0.1-0.2-0.2-0.3c-2.5-3.2-7.6-3.3-8-3.3h-7.5
		c-0.2,0-0.3,0-0.5,0c-12.2-0.2-13.8-8.4-14-11.3c0-0.1,0-0.2,0-0.3v-0.7h20.8c9.5,0,17,3.6,21.4,9.6c0.6,0.9,1.2,1.8,1.7,2.7
		C113.2,41.8,114.2,45.7,114.1,50L114.1,50z"/>
	
		<linearGradient id="SVGID_00000167370563674285103300000017909002736031226277_" gradientUnits="userSpaceOnUse" x1="74.6134" y1="24.5238" x2="74.6134" y2="41.3097" gradientTransform="matrix(1 0 0 -1 0 98.4761)">
		<stop  offset="0.12" style="stop-color:#C6187F;stop-opacity:0.6"/>
		<stop  offset="1" style="stop-color:#C6187F;stop-opacity:0"/>
	</linearGradient>
	<path style="fill:url(#SVGID_00000167370563674285103300000017909002736031226277_);" d="M81.6,40.5v33.3h-1.9v0h-8
		c-0.9,0-1.9-0.3-2.6-0.9c-0.6-0.5-1.1-1.2-1.3-2.1c-0.1-0.3-0.1-0.6-0.1-1V57.9l0,0v-24c0.4,0.6,0.8,1.2,1.4,1.8
		c0.9,1,2.1,2,3.6,2.8c2.1,1.1,5,2,8.7,2H81.6L81.6,40.5z"/>
	
		<linearGradient id="SVGID_00000053524492541223418750000009346824729979710628_" gradientUnits="userSpaceOnUse" x1="64.9337" y1="60.9231" x2="93.4511" y2="46.6025" gradientTransform="matrix(1 0 0 -1 0 98.4761)">
		<stop  offset="0" style="stop-color:#6ECCDF;stop-opacity:0.6"/>
		<stop  offset="1" style="stop-color:#6ECCDF;stop-opacity:0"/>
	</linearGradient>
	<path style="fill:url(#SVGID_00000053524492541223418750000009346824729979710628_);" d="M114.1,50c0,4.3-1,8.2-2.7,11.6
		c-0.9,1.6-1.9,3.1-3.1,4.4c-0.1,0.1-0.3,0.3-0.4,0.4c0,0-0.1,0.1-0.1,0.1c-4.6,4.7-11.4,7.4-19.8,7.4h-4.4V61.6h7.7
		c0.8,0,4.1-0.2,6.2-2.7c0.2-0.2,0.3-0.4,0.5-0.6c0.1-0.1,0.1-0.2,0.2-0.2c0.7-1.2,1.3-2.5,1.6-4c0,0,0,0,0-0.1
		c0.1-0.5,0.2-1,0.3-1.5v-0.1c0.1-0.7,0.1-1.4,0.1-2.1v-0.2c0-0.1,0-0.2,0-0.2c0-3-0.8-5.5-2.1-7.6c0,0-0.1-0.1-0.1-0.1
		c-0.1-0.1-0.1-0.2-0.2-0.3c-2.5-3.2-7.6-3.3-8-3.3h-7.5c-0.2,0-0.3,0-0.5,0c-12.2-0.2-13.8-8.4-14-11.3c0-0.1,0-0.2,0-0.3v-0.7
		h20.8c9.5,0,17,3.6,21.4,9.6c0.6,0.9,1.2,1.8,1.7,2.7C113.3,41.9,114.2,45.7,114.1,50L114.1,50z"/>
	
		<linearGradient id="SVGID_00000119838430049379983250000002980466163420078762_" gradientUnits="userSpaceOnUse" x1="83.3623" y1="27.9125" x2="100.3216" y2="36.6957" gradientTransform="matrix(1 0 0 -1 0 98.4761)">
		<stop  offset="0" style="stop-color:#000000;stop-opacity:0.4"/>
		<stop  offset="1" style="stop-color:#000000;stop-opacity:0"/>
	</linearGradient>
	<path style="opacity:0.5;fill:url(#SVGID_00000119838430049379983250000002980466163420078762_);enable-background:new    ;" d="
		M114.1,52.1c-0.2,3.5-1.2,6.7-2.6,9.5c-0.9,1.6-1.9,3.1-3.1,4.4c-0.1,0.1-0.3,0.3-0.4,0.4c0,0-0.1,0.1-0.1,0.1
		c-4.6,4.7-11.4,7.4-19.8,7.4h-4.4V61.5h7.7c0.8,0,4.1-0.2,6.2-2.7c0.2-0.2,0.3-0.4,0.5-0.6c0.1-0.1,0.1-0.2,0.2-0.2
		c1-1.6,1.7-3.6,1.9-5.9L114.1,52.1L114.1,52.1z"/>
	
		<linearGradient id="SVGID_00000050635738531150085490000010291750379359159184_" gradientUnits="userSpaceOnUse" x1="83.7064" y1="35.9205" x2="100.3436" y2="43.5391" gradientTransform="matrix(1 0 0 -1 0 98.4761)">
		<stop  offset="0" style="stop-color:#6ECCDF;stop-opacity:0"/>
		<stop  offset="0.5" style="stop-color:#6ECCDF;stop-opacity:0.6"/>
		<stop  offset="1" style="stop-color:#6ECCDF;stop-opacity:0"/>
	</linearGradient>
	<path style="fill:url(#SVGID_00000050635738531150085490000010291750379359159184_);" d="M100.1,50.3c0,0.5,0,1.2-0.1,1.8
		c0,0.1,0,0.2,0,0.3v0.1c0,0.6,0,1.1,0,1.1c-0.2,2.3-0.9,4.3-1.9,5.9c-0.1,0.1-0.1,0.1-0.2,0.2c-0.1,0.2-0.3,0.4-0.5,0.6
		c-2.1,2.5-5.4,2.7-6.2,2.7h-7.7v-1.4h7.7c0.8,0,4.1-0.2,6.2-2.7c0.2-0.2,0.3-0.4,0.5-0.6c0.1-0.1,0.1-0.2,0.2-0.2
		c0.7-1.2,1.3-2.5,1.6-4c0.1-0.3,0.1-0.5,0.1-0.8l0-0.2c0-0.3,0.1-0.6,0.1-0.9l0,0C100.1,51.5,100.1,50.9,100.1,50.3L100.1,50.3z"/>
	
		<linearGradient id="SVGID_00000013180011320766623910000001967080638250711207_" gradientUnits="userSpaceOnUse" x1="100.0718" y1="48.4677" x2="100.1586" y2="48.5049" gradientTransform="matrix(1 0 0 -1 0 98.4761)">
		<stop  offset="0" style="stop-color:#000000;stop-opacity:0.4"/>
		<stop  offset="1" style="stop-color:#000000;stop-opacity:0"/>
	</linearGradient>
	<path style="fill:url(#SVGID_00000013180011320766623910000001967080638250711207_);" d="M100.1,50v0.1
		C100.1,50,100.1,49.9,100.1,50C100.1,49.9,100.1,49.9,100.1,50z"/>
	<path class="st10" d="M172.8,26.2v9.7h-3c0,0-0.1,0-0.3,0c-0.1,0-0.3,0-0.4,0c-0.1,0-0.2,0-0.4,0.1c-1.7,0.3-4.9,1.3-6.7,5.5
		c0,0,0,0.1-0.1,0.2l-1.6,4l-0.2,0.6l-0.9,2.3l0,0L152.5,65c-0.1,0.1-0.1,0.3-0.2,0.4c-0.5,1.1-1.4,2-2.3,2.7
		c-0.1,0.1-0.3,0.2-0.4,0.3c-0.3,0.2-0.6,0.3-0.9,0.4c-0.8,0.3-1.6,0.5-2.5,0.5c-0.9,0-1.7-0.2-2.5-0.5c-0.3-0.1-0.6-0.3-0.9-0.4
		c-1.3-0.7-2.4-1.9-3-3.4l-5.2-12.7l-2.5-6.1l-0.2-0.6l-1.6-4c0,0,0-0.1-0.1-0.2c-1.8-4.2-5-5.3-6.7-5.5c-0.1,0-0.3,0-0.4-0.1
		c-0.2,0-0.3,0-0.4,0c-0.2,0-0.3,0-0.3,0h-3v-9.7h8.5c1.5,0,3,0.3,4.3,0.9c1.2,0.5,2.2,1.3,3.1,2.2c0.7,0.7,1.3,1.5,1.8,2.4
		c0.1,0.2,0.2,0.5,0.3,0.7l8.8,20.3l8.8-20.3c0.1-0.2,0.2-0.5,0.3-0.7c0.5-0.9,1.1-1.7,1.8-2.4c0.9-0.9,1.9-1.6,3.1-2.2
		c1.3-0.6,2.8-0.9,4.3-0.9L172.8,26.2L172.8,26.2z"/>
	
		<linearGradient id="SVGID_00000003783989785600125320000011013412464324605869_" gradientUnits="userSpaceOnUse" x1="146.1235" y1="74.0513" x2="146.1235" y2="53.7349" gradientTransform="matrix(1 0 0 -1 0 98.4761)">
		<stop  offset="0" style="stop-color:#6ECCDF;stop-opacity:0.7"/>
		<stop  offset="1" style="stop-color:#6ECCDF;stop-opacity:0"/>
	</linearGradient>
	<path style="fill:url(#SVGID_00000003783989785600125320000011013412464324605869_);" d="M172.8,26.2v9.7h-3c0,0-0.1,0-0.3,0
		c-0.1,0-0.3,0-0.4,0c-0.1,0-0.2,0-0.4,0.1c-1.7,0.3-4.9,1.3-6.7,5.5c0,0,0,0.1-0.1,0.2l-1.6,4l-0.2,0.6l-0.9,2.3l0,0L152.5,65
		c-0.5,1.3-1.4,2.4-2.5,3.1c-0.1,0.1-0.3,0.2-0.4,0.3c-0.3,0.2-0.6,0.3-0.9,0.4c-0.8,0.3-1.6,0.5-2.5,0.5c-0.9,0-1.7-0.2-2.5-0.5
		c-0.3-0.1-0.6-0.3-0.9-0.4c-1.3-0.7-2.4-1.9-3-3.4l-5.2-12.7l-2.5-6.1l-0.2-0.6l-1.6-4c0,0,0-0.1-0.1-0.2c-1.8-4.2-5-5.3-6.7-5.5
		c-0.1,0-0.3,0-0.4-0.1c-0.2,0-0.3,0-0.4,0c-0.2,0-0.3,0-0.3,0h-3v-9.7h8.5c1.5,0,3,0.3,4.3,0.9c1.2,0.5,2.2,1.3,3.1,2.2
		c0.7,0.7,1.3,1.5,1.8,2.4c0.1,0.2,0.2,0.5,0.3,0.7l8.8,20.3l8.8-20.3c0.1-0.2,0.2-0.5,0.3-0.7c0.5-0.9,1.1-1.7,1.8-2.4
		c0.9-0.9,1.9-1.6,3.1-2.2c1.3-0.6,2.8-0.9,4.3-0.9L172.8,26.2L172.8,26.2z"/>
	<path class="st8" d="M170.3,38h2.6v36h-8.8c-0.3,0-0.6,0-1-0.1c-1.8-0.4-3-2.1-3-3.8V51.2l0.4-1l0.1-0.3l3.1-7.5c0,0,0-0.1,0.1-0.2
		c0.1-0.1,0.1-0.3,0.2-0.4c0.7-1.5,1.6-2.2,2-2.5c0.2-0.1,0.2-0.2,0.2-0.2c1.1-0.6,2.1-0.9,2.9-1c0.1,0,0.3,0,0.4-0.1
		c0.2,0,0.3,0,0.4,0C170.1,37.9,170.2,37.9,170.3,38L170.3,38z"/>
	<path class="st0" d="M131.6,50.2l0.4,1V70c0,1.8-1.2,3.4-3,3.8c-0.3,0.1-0.6,0.1-1,0.1h-8.8V38h2.6c0,0,0.1,0,0.3,0
		c0.1,0,0.3,0,0.4,0c0.1,0,0.2,0,0.4,0.1c0.7,0.1,1.8,0.4,2.9,1c0,0,0.1,0,0.2,0.2c0.4,0.3,1.3,1,2,2.5c0.1,0.1,0.1,0.3,0.2,0.4
		c0,0.1,0,0.1,0.1,0.2l3.1,7.5L131.6,50.2L131.6,50.2z"/>
	
		<linearGradient id="SVGID_00000011015752961769666480000014897331368524509081_" gradientUnits="userSpaceOnUse" x1="126.0805" y1="62.0099" x2="125.7461" y2="46.2771" gradientTransform="matrix(1 0 0 -1 0 98.4761)">
		<stop  offset="0" style="stop-color:#000000;stop-opacity:0.4"/>
		<stop  offset="1" style="stop-color:#000000;stop-opacity:0"/>
	</linearGradient>
	<path style="opacity:0.5;fill:url(#SVGID_00000011015752961769666480000014897331368524509081_);enable-background:new    ;" d="
		M132.1,51.2V70c0,1.8-1.2,3.4-3,3.8c-0.3,0.1-0.6,0.1-1,0.1h-8.8V38h2.6c0,0,0.1,0,0.3,0c0.1,0,0.3,0,0.4,0c0.1,0,0.2,0,0.4,0.1
		c0.7,0.1,1.8,0.4,2.9,1c0,0,0.1,0,0.2,0.2c0.4,0.3,1.3,1,2,2.5c0.1,0.1,0.1,0.3,0.2,0.4c0,0.1,0,0.1,0.1,0.2l3.1,7.5l0.1,0.3
		L132.1,51.2L132.1,51.2z"/>
	
		<linearGradient id="SVGID_00000031201484657791703160000003191926848535485330_" gradientUnits="userSpaceOnUse" x1="125.2825" y1="23.0375" x2="125.617" y2="40.4055" gradientTransform="matrix(1 0 0 -1 0 98.4761)">
		<stop  offset="0.12" style="stop-color:#C83492;stop-opacity:0.6"/>
		<stop  offset="1" style="stop-color:#C83492;stop-opacity:0"/>
	</linearGradient>
	<path style="fill:url(#SVGID_00000031201484657791703160000003191926848535485330_);" d="M131.6,50.2l0.4,1V70c0,1.8-1.2,3.4-3,3.8
		c-0.3,0.1-0.6,0.1-1,0.1h-8.8V38h2.6c0,0,0.1,0,0.3,0c0.1,0,0.3,0,0.4,0c0.1,0,0.2,0,0.4,0.1c0.7,0.1,1.8,0.4,2.9,1
		c0,0,0.1,0,0.2,0.2c0.4,0.3,1.3,1,2,2.5c0.1,0.1,0.1,0.3,0.2,0.4c0,0.1,0,0.1,0.1,0.2l3.1,7.5L131.6,50.2L131.6,50.2z"/>
	
		<linearGradient id="SVGID_00000025406752670676013120000015429683845112163722_" gradientUnits="userSpaceOnUse" x1="166.7242" y1="62.0472" x2="166.5631" y2="45.8312" gradientTransform="matrix(1 0 0 -1 0 98.4761)">
		<stop  offset="0" style="stop-color:#000000;stop-opacity:0.4"/>
		<stop  offset="1" style="stop-color:#000000;stop-opacity:0"/>
	</linearGradient>
	<path style="opacity:0.5;fill:url(#SVGID_00000025406752670676013120000015429683845112163722_);enable-background:new    ;" d="
		M172.8,38v36h-8.8c-0.3,0-0.6,0-1-0.1c-0.6-0.1-1.1-0.4-1.6-0.8c-0.9-0.7-1.4-1.9-1.4-3V51.2l0.4-1l0.1-0.3l0.9-2.1l2.2-5.4
		c0,0,0-0.1,0.1-0.2c0.1-0.1,0.1-0.3,0.2-0.4c0.7-1.5,1.6-2.2,2-2.5c0.2-0.1,0.2-0.2,0.2-0.2c1.1-0.6,2.1-0.9,2.9-1
		c0.1,0,0.3,0,0.4-0.1c0.2,0,0.3,0,0.4,0c0.2,0,0.3,0,0.3,0L172.8,38L172.8,38z"/>
	
		<linearGradient id="SVGID_00000042735869815938141310000018133583973469142914_" gradientUnits="userSpaceOnUse" x1="127.083" y1="62.741" x2="127.083" y2="54.8374" gradientTransform="matrix(1 0 0 -1 0 98.4761)">
		<stop  offset="0" style="stop-color:#4AACDB"/>
		<stop  offset="0.2" style="stop-color:#4096C3"/>
		<stop  offset="0.61" style="stop-color:#285E86"/>
		<stop  offset="1" style="stop-color:#112649"/>
	</linearGradient>
	<path style="fill:url(#SVGID_00000042735869815938141310000018133583973469142914_);" d="M130.2,41.6l1.6,4h0L130.2,41.6z
		 M122.6,35.8c-0.2,0-0.3,0-0.3,0C122.4,35.8,122.5,35.8,122.6,35.8z"/>
	
		<linearGradient id="SVGID_00000032636792028391862270000004622891663948906942_" gradientUnits="userSpaceOnUse" x1="166.6132" y1="22.5294" x2="166.4893" y2="40.8513" gradientTransform="matrix(1 0 0 -1 0 98.4761)">
		<stop  offset="0.12" style="stop-color:#C6187F;stop-opacity:0.6"/>
		<stop  offset="1" style="stop-color:#C6187F;stop-opacity:0"/>
	</linearGradient>
	<path style="fill:url(#SVGID_00000032636792028391862270000004622891663948906942_);" d="M170.3,38h2.6v36h-8.8c-0.3,0-0.6,0-1-0.1
		c-1.8-0.4-3-2.1-3-3.8V51.2l0.4-1l0.1-0.3l3.1-7.5c0,0,0-0.1,0.1-0.2c0.1-0.1,0.1-0.3,0.2-0.4c0.7-1.5,1.6-2.2,2-2.5
		c0.2-0.1,0.2-0.2,0.2-0.2c1.1-0.6,2.1-0.9,2.9-1c0.1,0,0.3,0,0.4-0.1c0.2,0,0.3,0,0.4,0C170.1,37.9,170.2,37.9,170.3,38L170.3,38z"
		/>
	
		<linearGradient id="SVGID_00000131335459960572319610000000165031592726899363_" gradientUnits="userSpaceOnUse" x1="160.789" y1="47.4046" x2="160.8386" y2="28.5128" gradientTransform="matrix(1 0 0 -1 0 98.4761)">
		<stop  offset="0" style="stop-color:#C6187F;stop-opacity:0"/>
		<stop  offset="0.14" style="stop-color:#C6187F;stop-opacity:0.21"/>
		<stop  offset="0.36" style="stop-color:#C6187F;stop-opacity:0.6"/>
		<stop  offset="1" style="stop-color:#C6187F;stop-opacity:0"/>
	</linearGradient>
	<path style="fill:url(#SVGID_00000131335459960572319610000000165031592726899363_);" d="M161.5,47.8V73c-0.9-0.7-1.4-1.9-1.4-3
		v-6.7l0,0V51.2l0.4-1l0.1-0.3L161.5,47.8L161.5,47.8z"/>
	
		<linearGradient id="SVGID_00000002369628499764748470000002677157758556273832_" gradientUnits="userSpaceOnUse" x1="134.9349" y1="49.8724" x2="149.2803" y2="28.0819" gradientTransform="matrix(1 0 0 -1 0 98.4761)">
		<stop  offset="2.000000e-02" style="stop-color:#6ECCDF;stop-opacity:0"/>
		<stop  offset="0.51" style="stop-color:#6ECCDF;stop-opacity:0.5"/>
		<stop  offset="1" style="stop-color:#6ECCDF;stop-opacity:0"/>
	</linearGradient>
	<path style="fill:url(#SVGID_00000002369628499764748470000002677157758556273832_);" d="M152.3,65.5c-0.5,1.1-1.4,2-2.3,2.7
		c-0.1,0.1-0.3,0.2-0.4,0.3c-0.3,0.2-0.6,0.3-0.9,0.4c-0.8,0.3-1.6,0.5-2.5,0.5s-1.7-0.2-2.5-0.5c-0.3-0.1-0.6-0.3-0.9-0.4
		c-1.3-0.7-2.4-1.9-3-3.4l-5.2-12.7l-2.5-6.1l-0.2-0.6l-1.6-4v-3.2c0.3,0.5,0.6,1,0.9,1.6c0,0,0,0.1,0.1,0.2l1.6,4l0.2,0.6l2.5,6.1
		l5.2,12.7c0.6,1.5,1.7,2.7,3,3.4c0.3,0.2,0.6,0.3,0.9,0.4c0.8,0.3,1.6,0.5,2.5,0.5s1.7-0.2,2.5-0.5c0.3-0.1,0.6-0.3,0.9-0.4
		c0.1-0.1,0.3-0.2,0.4-0.3C151.4,66.4,151.9,66,152.3,65.5L152.3,65.5z"/>
	
		<linearGradient id="SVGID_00000138575510630451557440000016998707131684958085_" gradientUnits="userSpaceOnUse" x1="146.1235" y1="30.5073" x2="146.1235" y2="51.6785" gradientTransform="matrix(1 0 0 -1 0 98.4761)">
		<stop  offset="0" style="stop-color:#000000;stop-opacity:0.5"/>
		<stop  offset="1" style="stop-color:#000000;stop-opacity:0"/>
	</linearGradient>
	<path style="opacity:0.5;fill:url(#SVGID_00000138575510630451557440000016998707131684958085_);enable-background:new    ;" d="
		M172.8,26.2v9.7h-3c0,0-0.1,0-0.3,0c-0.1,0-0.3,0-0.4,0c-0.1,0-0.2,0-0.4,0.1c-1.7,0.3-4.9,1.3-6.7,5.5c0,0,0,0.1-0.1,0.2l-1.6,4
		l-0.2,0.6l-0.9,2.3l0,0L152.5,65c-0.5,1.3-1.4,2.4-2.5,3.1c-0.1,0.1-0.3,0.2-0.4,0.3c-0.3,0.2-0.6,0.3-0.9,0.4
		c-0.8,0.3-1.6,0.5-2.5,0.5c-0.9,0-1.7-0.2-2.5-0.5c-0.3-0.1-0.6-0.3-0.9-0.4c-1.3-0.7-2.4-1.9-3-3.4l-5.2-12.7l-2.5-6.1l-0.2-0.6
		l-1.6-4c0,0,0-0.1-0.1-0.2c-1.8-4.2-5-5.3-6.7-5.5c-0.1,0-0.3,0-0.4-0.1c-0.2,0-0.3,0-0.4,0c-0.2,0-0.3,0-0.3,0h-3v-9.7h8.5
		c1.5,0,3,0.3,4.3,0.9c1.2,0.5,2.2,1.3,3.1,2.2c0.7,0.7,1.3,1.5,1.8,2.4c0.1,0.2,0.2,0.5,0.3,0.7l8.8,20.3l8.8-20.3
		c0.1-0.2,0.2-0.5,0.3-0.7c0.5-0.9,1.1-1.7,1.8-2.4c0.9-0.9,1.9-1.6,3.1-2.2c1.3-0.6,2.8-0.9,4.3-0.9L172.8,26.2L172.8,26.2z"/>
</g>
</svg>
